G75*
%MOIN*%
%OFA0B0*%
%FSLAX25Y25*%
%IPPOS*%
%LPD*%
%AMOC8*
5,1,8,0,0,1.08239X$1,22.5*
%
%ADD10R,0.08000X0.08000*%
%ADD11C,0.08000*%
%ADD12C,0.07400*%
%ADD13C,0.05800*%
%ADD14C,0.05600*%
%ADD15C,0.02978*%
%ADD16C,0.01000*%
D10*
X0060600Y0176300D03*
X0095600Y0176300D03*
X0225600Y0176300D03*
D11*
X0240780Y0176300D03*
X0110780Y0176300D03*
X0075780Y0176300D03*
D12*
X0070800Y0301300D03*
X0071800Y0311300D03*
X0070800Y0321300D03*
X0071800Y0331300D03*
X0070800Y0341300D03*
X0071800Y0351300D03*
X0070800Y0361300D03*
X0071800Y0371300D03*
X0070800Y0381300D03*
X0071800Y0391300D03*
X0211300Y0421300D03*
X0231800Y0406300D03*
X0230800Y0396300D03*
X0231800Y0386300D03*
X0230800Y0376300D03*
X0231800Y0366300D03*
X0230800Y0356300D03*
X0231800Y0346300D03*
X0230800Y0336300D03*
X0231800Y0326300D03*
X0230800Y0316300D03*
X0241300Y0421300D03*
D13*
X0176300Y0421300D03*
X0176300Y0411300D03*
X0176300Y0401300D03*
X0176300Y0391300D03*
X0176300Y0381300D03*
X0176300Y0371300D03*
X0176300Y0361300D03*
X0176300Y0351300D03*
X0176300Y0341300D03*
X0176300Y0331300D03*
X0176300Y0321300D03*
X0176300Y0311300D03*
X0176300Y0301300D03*
X0176300Y0291300D03*
X0176300Y0281300D03*
X0176300Y0271300D03*
X0176300Y0261300D03*
X0176300Y0251300D03*
X0176300Y0241300D03*
X0176300Y0231300D03*
X0176300Y0221300D03*
X0126300Y0231300D03*
X0116300Y0231300D03*
X0116300Y0221300D03*
X0116300Y0241300D03*
X0116300Y0251300D03*
X0116300Y0261300D03*
X0116300Y0271300D03*
X0116300Y0281300D03*
X0116300Y0291300D03*
X0116300Y0301300D03*
X0116300Y0311300D03*
X0116300Y0321300D03*
X0116300Y0331300D03*
X0116300Y0341300D03*
X0116300Y0351300D03*
X0116300Y0361300D03*
X0116300Y0371300D03*
X0116300Y0381300D03*
X0116300Y0391300D03*
X0116300Y0401300D03*
X0116300Y0411300D03*
X0116300Y0421300D03*
X0116300Y0431300D03*
X0116300Y0441300D03*
X0116300Y0451300D03*
X0176300Y0451300D03*
X0176300Y0441300D03*
X0176300Y0431300D03*
X0126300Y0271300D03*
X0126300Y0261300D03*
X0126300Y0251300D03*
D14*
X0089100Y0211300D02*
X0083500Y0211300D01*
X0083500Y0201300D02*
X0089100Y0201300D01*
D15*
X0136300Y0196300D03*
X0201300Y0216300D03*
X0206300Y0331300D03*
X0216300Y0346300D03*
X0211300Y0386300D03*
X0211300Y0431300D03*
X0211300Y0441300D03*
X0211300Y0451300D03*
X0186300Y0436300D03*
D16*
X0131300Y0166300D02*
X0066300Y0166300D01*
X0060600Y0172000D01*
X0060600Y0176300D01*
X0096300Y0206300D02*
X0096300Y0346300D01*
X0101300Y0351300D01*
X0116300Y0351300D01*
X0181300Y0381300D02*
X0181300Y0246300D01*
X0176300Y0241300D01*
X0176300Y0231300D02*
X0181300Y0231300D01*
X0186300Y0236300D01*
X0186300Y0371300D01*
X0191300Y0376300D01*
X0211300Y0376300D01*
X0221300Y0386300D01*
X0231800Y0386300D01*
X0211300Y0386300D02*
X0186300Y0386300D01*
X0181300Y0381300D01*
X0176300Y0411300D02*
X0191300Y0411300D01*
X0211300Y0431300D01*
X0201300Y0431300D02*
X0201300Y0436300D01*
X0206300Y0441300D01*
X0211300Y0441300D01*
X0211300Y0451300D02*
X0201300Y0451300D01*
X0196300Y0446300D01*
X0196300Y0436300D01*
X0191300Y0431300D01*
X0176300Y0431300D01*
X0176300Y0421300D02*
X0191300Y0421300D01*
X0201300Y0431300D01*
X0186300Y0436300D02*
X0186300Y0446300D01*
X0181300Y0451300D01*
X0176300Y0451300D01*
X0211300Y0356300D02*
X0216300Y0356300D01*
X0226300Y0346300D01*
X0231800Y0346300D01*
X0216300Y0346300D02*
X0216300Y0331300D01*
X0221300Y0326300D01*
X0231800Y0326300D01*
X0230800Y0316300D02*
X0196300Y0316300D01*
X0191300Y0311300D01*
X0191300Y0221300D01*
X0171300Y0201300D01*
X0101300Y0201300D01*
X0096300Y0206300D01*
X0136300Y0196300D02*
X0136300Y0171300D01*
X0131300Y0166300D01*
X0201300Y0181300D02*
X0206300Y0176300D01*
X0225600Y0176300D01*
X0201300Y0181300D02*
X0201300Y0216300D01*
X0206300Y0331300D02*
X0206300Y0351300D01*
X0211300Y0356300D01*
M02*
