G75*
%MOIN*%
%OFA0B0*%
%FSLAX25Y25*%
%IPPOS*%
%LPD*%
%AMOC8*
5,1,8,0,0,1.08239X$1,22.5*
%
%ADD10R,0.04343X0.04146*%
%ADD11R,0.04737X0.05131*%
%ADD12R,0.06706X0.03359*%
%ADD13R,0.08800X0.08800*%
%ADD14C,0.08800*%
%ADD15C,0.08200*%
%ADD16C,0.06600*%
%ADD17R,0.07099X0.12611*%
%ADD18R,0.23635X0.25209*%
%ADD19C,0.06400*%
%ADD20C,0.01421*%
%ADD21R,0.05131X0.04737*%
%ADD22C,0.13800*%
%ADD23C,0.03778*%
D10*
X0201300Y0221517D03*
X0201300Y0226083D03*
D11*
X0211300Y0219646D03*
X0211300Y0212954D03*
X0211300Y0204646D03*
X0211300Y0197954D03*
X0221300Y0197954D03*
X0221300Y0204646D03*
X0221300Y0212954D03*
X0221300Y0219646D03*
X0231300Y0204646D03*
X0231300Y0197954D03*
X0226300Y0257954D03*
X0226300Y0264646D03*
X0241300Y0262954D03*
X0241300Y0269646D03*
X0071300Y0224646D03*
X0071300Y0217954D03*
X0061300Y0217954D03*
X0061300Y0224646D03*
D12*
X0210670Y0273800D03*
X0210670Y0278800D03*
X0210670Y0283800D03*
X0210670Y0288800D03*
X0231930Y0288800D03*
X0231930Y0283800D03*
X0231930Y0278800D03*
X0231930Y0273800D03*
D13*
X0060600Y0176300D03*
X0095600Y0176300D03*
X0225600Y0176300D03*
D14*
X0240780Y0176300D03*
X0110780Y0176300D03*
X0075780Y0176300D03*
D15*
X0070800Y0301300D03*
X0071800Y0311300D03*
X0070800Y0321300D03*
X0071800Y0331300D03*
X0070800Y0341300D03*
X0071800Y0351300D03*
X0070800Y0361300D03*
X0071800Y0371300D03*
X0070800Y0381300D03*
X0071800Y0391300D03*
X0211300Y0421300D03*
X0231800Y0406300D03*
X0230800Y0396300D03*
X0231800Y0386300D03*
X0230800Y0376300D03*
X0231800Y0366300D03*
X0230800Y0356300D03*
X0231800Y0346300D03*
X0230800Y0336300D03*
X0231800Y0326300D03*
X0230800Y0316300D03*
X0241300Y0421300D03*
D16*
X0176300Y0421300D03*
X0176300Y0411300D03*
X0176300Y0401300D03*
X0176300Y0391300D03*
X0176300Y0381300D03*
X0176300Y0371300D03*
X0176300Y0361300D03*
X0176300Y0351300D03*
X0176300Y0341300D03*
X0176300Y0331300D03*
X0176300Y0321300D03*
X0176300Y0311300D03*
X0176300Y0301300D03*
X0176300Y0291300D03*
X0176300Y0281300D03*
X0176300Y0271300D03*
X0176300Y0261300D03*
X0176300Y0251300D03*
X0176300Y0241300D03*
X0176300Y0231300D03*
X0176300Y0221300D03*
X0126300Y0231300D03*
X0116300Y0231300D03*
X0116300Y0221300D03*
X0116300Y0241300D03*
X0116300Y0251300D03*
X0116300Y0261300D03*
X0116300Y0271300D03*
X0116300Y0281300D03*
X0116300Y0291300D03*
X0116300Y0301300D03*
X0116300Y0311300D03*
X0116300Y0321300D03*
X0116300Y0331300D03*
X0116300Y0341300D03*
X0116300Y0351300D03*
X0116300Y0361300D03*
X0116300Y0371300D03*
X0116300Y0381300D03*
X0116300Y0391300D03*
X0116300Y0401300D03*
X0116300Y0411300D03*
X0116300Y0421300D03*
X0116300Y0431300D03*
X0116300Y0441300D03*
X0116300Y0451300D03*
X0176300Y0451300D03*
X0176300Y0441300D03*
X0176300Y0431300D03*
X0126300Y0271300D03*
X0126300Y0261300D03*
X0126300Y0251300D03*
D17*
X0182324Y0205198D03*
X0200276Y0205198D03*
D18*
X0191300Y0176930D03*
D19*
X0089100Y0201300D02*
X0083500Y0201300D01*
X0083500Y0211300D02*
X0089100Y0211300D01*
D20*
X0072958Y0231189D02*
X0069642Y0231189D01*
X0069642Y0234505D01*
X0072958Y0234505D01*
X0072958Y0231189D01*
X0072958Y0232609D02*
X0069642Y0232609D01*
X0069642Y0234029D02*
X0072958Y0234029D01*
X0072958Y0238095D02*
X0069642Y0238095D01*
X0069642Y0241411D01*
X0072958Y0241411D01*
X0072958Y0238095D01*
X0072958Y0239515D02*
X0069642Y0239515D01*
X0069642Y0240935D02*
X0072958Y0240935D01*
X0062958Y0238095D02*
X0059642Y0238095D01*
X0059642Y0241411D01*
X0062958Y0241411D01*
X0062958Y0238095D01*
X0062958Y0239515D02*
X0059642Y0239515D01*
X0059642Y0240935D02*
X0062958Y0240935D01*
X0062958Y0231189D02*
X0059642Y0231189D01*
X0059642Y0234505D01*
X0062958Y0234505D01*
X0062958Y0231189D01*
X0062958Y0232609D02*
X0059642Y0232609D01*
X0059642Y0234029D02*
X0062958Y0234029D01*
X0231189Y0429642D02*
X0231189Y0432958D01*
X0234505Y0432958D01*
X0234505Y0429642D01*
X0231189Y0429642D01*
X0231189Y0431062D02*
X0234505Y0431062D01*
X0234505Y0432482D02*
X0231189Y0432482D01*
X0238095Y0432958D02*
X0238095Y0429642D01*
X0238095Y0432958D02*
X0241411Y0432958D01*
X0241411Y0429642D01*
X0238095Y0429642D01*
X0238095Y0431062D02*
X0241411Y0431062D01*
X0241411Y0432482D02*
X0238095Y0432482D01*
X0238095Y0439642D02*
X0238095Y0442958D01*
X0241411Y0442958D01*
X0241411Y0439642D01*
X0238095Y0439642D01*
X0238095Y0441062D02*
X0241411Y0441062D01*
X0241411Y0442482D02*
X0238095Y0442482D01*
X0231189Y0442958D02*
X0231189Y0439642D01*
X0231189Y0442958D02*
X0234505Y0442958D01*
X0234505Y0439642D01*
X0231189Y0439642D01*
X0231189Y0441062D02*
X0234505Y0441062D01*
X0234505Y0442482D02*
X0231189Y0442482D01*
X0231189Y0449642D02*
X0231189Y0452958D01*
X0234505Y0452958D01*
X0234505Y0449642D01*
X0231189Y0449642D01*
X0231189Y0451062D02*
X0234505Y0451062D01*
X0234505Y0452482D02*
X0231189Y0452482D01*
X0238095Y0452958D02*
X0238095Y0449642D01*
X0238095Y0452958D02*
X0241411Y0452958D01*
X0241411Y0449642D01*
X0238095Y0449642D01*
X0238095Y0451062D02*
X0241411Y0451062D01*
X0241411Y0452482D02*
X0238095Y0452482D01*
D21*
X0224646Y0451300D03*
X0217954Y0451300D03*
X0217954Y0441300D03*
X0224646Y0441300D03*
X0224646Y0431300D03*
X0217954Y0431300D03*
X0227954Y0296300D03*
X0234646Y0296300D03*
D22*
X0236300Y0241300D03*
X0066300Y0441300D03*
D23*
X0186300Y0436300D03*
X0211300Y0431300D03*
X0211300Y0441300D03*
X0211300Y0451300D03*
X0211300Y0386300D03*
X0216300Y0346300D03*
X0206300Y0331300D03*
X0201300Y0216300D03*
X0136300Y0196300D03*
M02*
