%
M48
M72
T01C0.01378
T02C0.03543
T03C0.03600
T04C0.03800
T05C0.04000
T06C0.04724
T07C0.13000
%
T01
X136300Y196300
X201300Y216300
X206300Y331300
X216300Y346300
X211300Y386300
X211300Y431300
X211300Y441300
X211300Y451300
X186300Y436300
T02
X211300Y421300
X241300Y421300
T03
X86300Y211300
X86300Y201300
T04
X116300Y221300
X116300Y231300
X116300Y241300
X116300Y251300
X116300Y261300
X116300Y271300
X116300Y281300
X116300Y291300
X116300Y301300
X116300Y311300
X116300Y321300
X116300Y331300
X116300Y341300
X116300Y351300
X116300Y361300
X116300Y371300
X116300Y381300
X116300Y391300
X116300Y401300
X116300Y411300
X116300Y421300
X116300Y431300
X116300Y441300
X116300Y451300
X176300Y451300
X176300Y441300
X176300Y431300
X176300Y421300
X176300Y411300
X176300Y401300
X176300Y391300
X176300Y381300
X176300Y371300
X176300Y361300
X176300Y351300
X176300Y341300
X176300Y331300
X176300Y321300
X176300Y311300
X176300Y301300
X176300Y291300
X176300Y281300
X176300Y271300
X176300Y261300
X176300Y251300
X176300Y241300
X176300Y231300
X176300Y221300
X126300Y231300
X126300Y251300
X126300Y261300
X126300Y271300
T05
X70800Y301300
X71800Y311300
X70800Y321300
X71800Y331300
X70800Y341300
X71800Y351300
X70800Y361300
X71800Y371300
X70800Y381300
X71800Y391300
X230800Y396300
X231800Y386300
X230800Y376300
X231800Y366300
X230800Y356300
X231800Y346300
X230800Y336300
X231800Y326300
X230800Y316300
X231800Y406300
T06
X60600Y176300
X75780Y176300
X95600Y176300
X110780Y176300
X225600Y176300
X240780Y176300
T07
X236300Y241300
X66300Y441300
M30
