G75*
%MOIN*%
%OFA0B0*%
%FSLAX25Y25*%
%IPPOS*%
%LPD*%
%AMOC8*
5,1,8,0,0,1.08239X$1,22.5*
%
%ADD10R,0.04331X0.03937*%
%ADD11R,0.22835X0.24409*%
%ADD12R,0.06299X0.11811*%
%ADD13R,0.03150X0.03150*%
%ADD14R,0.03937X0.04331*%
%ADD15R,0.02200X0.07800*%
%ADD16R,0.09449X0.07087*%
D10*
X0034017Y0053817D03*
X0034017Y0060510D03*
X0045670Y0042163D03*
X0052363Y0042163D03*
X0080670Y0017163D03*
X0087363Y0017163D03*
X0104017Y0068817D03*
X0104017Y0075510D03*
X0114017Y0075510D03*
X0114017Y0068817D03*
X0145670Y0062163D03*
X0152363Y0062163D03*
X0034017Y0083817D03*
X0034017Y0090510D03*
D11*
X0104017Y0027793D03*
D12*
X0112993Y0056061D03*
X0095040Y0056061D03*
D13*
X0034017Y0039210D03*
X0034017Y0045116D03*
X0034017Y0069210D03*
X0034017Y0075116D03*
X0094017Y0254210D03*
X0094017Y0260116D03*
X0104017Y0260116D03*
X0104017Y0254210D03*
X0114017Y0254210D03*
X0114017Y0260116D03*
D14*
X0117363Y0227163D03*
X0110670Y0227163D03*
X0110670Y0217163D03*
X0117363Y0217163D03*
X0117363Y0207163D03*
X0110670Y0207163D03*
D15*
X0141517Y0091863D03*
X0146517Y0091863D03*
X0151517Y0091863D03*
X0156517Y0091863D03*
X0156517Y0072463D03*
X0151517Y0072463D03*
X0146517Y0072463D03*
X0141517Y0072463D03*
D16*
X0084017Y0045136D03*
X0084017Y0029191D03*
M02*
