G75*
%MOIN*%
%OFA0B0*%
%FSLAX25Y25*%
%IPPOS*%
%LPD*%
%AMOC8*
5,1,8,0,0,1.08239X$1,22.5*
%
%ADD10C,0.05937*%
%ADD11R,0.05937X0.05937*%
%ADD12R,0.04331X0.03937*%
%ADD13C,0.01000*%
%ADD14C,0.02387*%
D10*
X0019017Y0043384D03*
X0019017Y0073384D03*
X0019017Y0105588D03*
X0019017Y0119368D03*
X0019017Y0133148D03*
X0019017Y0146927D03*
X0019017Y0160707D03*
X0019017Y0174486D03*
X0019017Y0188266D03*
X0019017Y0202045D03*
X0019017Y0215825D03*
X0019017Y0229604D03*
X0019017Y0243384D03*
X0069017Y0247163D03*
X0069017Y0237163D03*
X0069017Y0227163D03*
X0069017Y0217163D03*
X0069017Y0207163D03*
X0069017Y0197163D03*
X0069017Y0187163D03*
X0069017Y0177163D03*
X0069017Y0167163D03*
X0069017Y0157163D03*
X0069017Y0147163D03*
X0069017Y0097163D03*
X0069017Y0087163D03*
X0069017Y0077163D03*
X0069017Y0067163D03*
X0069017Y0057163D03*
X0069017Y0047163D03*
X0069017Y0037163D03*
X0069017Y0027163D03*
X0069017Y0017163D03*
X0052796Y0022163D03*
X0129017Y0027163D03*
X0129017Y0037163D03*
X0129017Y0047163D03*
X0129017Y0057163D03*
X0129017Y0067163D03*
X0149017Y0120943D03*
X0149017Y0134722D03*
X0149017Y0148502D03*
X0149017Y0162281D03*
X0149017Y0176061D03*
X0149017Y0189840D03*
X0149017Y0203620D03*
X0149017Y0217399D03*
X0149017Y0231179D03*
X0149017Y0244959D03*
X0149017Y0258738D03*
X0129017Y0247163D03*
X0129017Y0237163D03*
X0129017Y0227163D03*
X0129017Y0217163D03*
X0129017Y0207163D03*
X0129017Y0197163D03*
X0129017Y0187163D03*
X0129017Y0177163D03*
X0129017Y0167163D03*
X0129017Y0157163D03*
X0129017Y0147163D03*
X0129017Y0137163D03*
X0129017Y0127163D03*
D11*
X0149017Y0107163D03*
X0129017Y0017163D03*
X0039017Y0022163D03*
X0019017Y0057163D03*
X0019017Y0087163D03*
X0019017Y0257163D03*
D12*
X0139017Y0200510D03*
X0139017Y0193817D03*
D13*
X0008517Y0262664D02*
X0008517Y0036006D01*
X0011747Y0038082D01*
X0011747Y0038082D01*
X0016526Y0039485D01*
X0016825Y0039485D01*
X0016675Y0039562D01*
X0016105Y0039975D01*
X0015608Y0040473D01*
X0015195Y0041042D01*
X0014875Y0041668D01*
X0014658Y0042337D01*
X0014569Y0042899D01*
X0018532Y0042899D01*
X0018532Y0043868D01*
X0014569Y0043868D01*
X0014658Y0044430D01*
X0014875Y0045099D01*
X0015195Y0045726D01*
X0015608Y0046295D01*
X0016105Y0046792D01*
X0016675Y0047206D01*
X0017301Y0047525D01*
X0017970Y0047742D01*
X0018532Y0047831D01*
X0018532Y0043868D01*
X0019501Y0043868D01*
X0023464Y0043868D01*
X0023375Y0044430D01*
X0023158Y0045099D01*
X0022838Y0045726D01*
X0022425Y0046295D01*
X0021928Y0046792D01*
X0021359Y0047206D01*
X0020732Y0047525D01*
X0020063Y0047742D01*
X0019501Y0047831D01*
X0019501Y0043868D01*
X0019501Y0042899D01*
X0023464Y0042899D01*
X0023375Y0042337D01*
X0023158Y0041668D01*
X0022838Y0041042D01*
X0022425Y0040473D01*
X0021928Y0039975D01*
X0021359Y0039562D01*
X0021208Y0039485D01*
X0021507Y0039485D01*
X0026286Y0038082D01*
X0026286Y0038082D01*
X0030477Y0035389D01*
X0030477Y0035389D01*
X0033738Y0031624D01*
X0033738Y0031624D01*
X0035808Y0027094D01*
X0035808Y0027094D01*
X0035874Y0026632D01*
X0042606Y0026632D01*
X0043485Y0025753D01*
X0043485Y0018573D01*
X0042606Y0017695D01*
X0035874Y0017695D01*
X0035808Y0017233D01*
X0035808Y0017233D01*
X0033738Y0012702D01*
X0033738Y0012702D01*
X0032838Y0011663D01*
X0135195Y0011663D01*
X0134295Y0012702D01*
X0134295Y0012702D01*
X0133485Y0014475D01*
X0133485Y0013997D01*
X0133383Y0013616D01*
X0133185Y0013274D01*
X0132906Y0012994D01*
X0132564Y0012797D01*
X0132183Y0012695D01*
X0129501Y0012695D01*
X0129501Y0016679D01*
X0128532Y0016679D01*
X0124548Y0016679D01*
X0124548Y0013997D01*
X0124650Y0013616D01*
X0124848Y0013274D01*
X0125127Y0012994D01*
X0125469Y0012797D01*
X0125851Y0012695D01*
X0128532Y0012695D01*
X0128532Y0016679D01*
X0128532Y0017648D01*
X0128532Y0021632D01*
X0125851Y0021632D01*
X0125469Y0021530D01*
X0125127Y0021332D01*
X0124848Y0021053D01*
X0124650Y0020711D01*
X0124548Y0020329D01*
X0124548Y0017648D01*
X0128532Y0017648D01*
X0129501Y0017648D01*
X0129501Y0021632D01*
X0131593Y0021632D01*
X0131517Y0022163D01*
X0131517Y0022163D01*
X0131715Y0023542D01*
X0131548Y0023375D01*
X0129905Y0022695D01*
X0128128Y0022695D01*
X0126485Y0023375D01*
X0125228Y0024632D01*
X0124548Y0026274D01*
X0124548Y0028052D01*
X0125228Y0029694D01*
X0126485Y0030951D01*
X0128128Y0031632D01*
X0129905Y0031632D01*
X0131548Y0030951D01*
X0132805Y0029694D01*
X0133094Y0028996D01*
X0134295Y0031624D01*
X0134295Y0031624D01*
X0137556Y0035389D01*
X0137556Y0035389D01*
X0137556Y0035389D01*
X0141747Y0038082D01*
X0146526Y0039485D01*
X0151507Y0039485D01*
X0156286Y0038082D01*
X0159438Y0036056D01*
X0159438Y0197433D01*
X0153265Y0191260D01*
X0153485Y0190729D01*
X0153485Y0188952D01*
X0152805Y0187309D01*
X0151548Y0186052D01*
X0149905Y0185372D01*
X0148128Y0185372D01*
X0146485Y0186052D01*
X0145228Y0187309D01*
X0144548Y0188952D01*
X0144548Y0190729D01*
X0144768Y0191260D01*
X0144212Y0191817D01*
X0142682Y0191817D01*
X0142682Y0191227D01*
X0141803Y0190348D01*
X0136230Y0190348D01*
X0135351Y0191227D01*
X0135351Y0196407D01*
X0136108Y0197163D01*
X0135351Y0197920D01*
X0135351Y0203100D01*
X0136230Y0203978D01*
X0141803Y0203978D01*
X0142682Y0203100D01*
X0142682Y0202510D01*
X0144640Y0202510D01*
X0144548Y0202731D01*
X0144548Y0204509D01*
X0145228Y0206151D01*
X0146485Y0207408D01*
X0148128Y0208088D01*
X0149905Y0208088D01*
X0151548Y0207408D01*
X0152805Y0206151D01*
X0153485Y0204509D01*
X0153485Y0202731D01*
X0152805Y0201089D01*
X0151548Y0199832D01*
X0149905Y0199151D01*
X0148128Y0199151D01*
X0147596Y0199371D01*
X0146735Y0198510D01*
X0142682Y0198510D01*
X0142682Y0197920D01*
X0141925Y0197163D01*
X0142682Y0196407D01*
X0142682Y0195817D01*
X0145869Y0195817D01*
X0147040Y0194645D01*
X0147596Y0194089D01*
X0148128Y0194309D01*
X0149905Y0194309D01*
X0150437Y0194089D01*
X0157017Y0200669D01*
X0157017Y0211335D01*
X0153003Y0215348D01*
X0152805Y0214868D01*
X0151548Y0213611D01*
X0149905Y0212931D01*
X0148128Y0212931D01*
X0146485Y0213611D01*
X0145228Y0214868D01*
X0144548Y0216511D01*
X0144548Y0218288D01*
X0145228Y0219931D01*
X0146485Y0221188D01*
X0148128Y0221868D01*
X0149905Y0221868D01*
X0151548Y0221188D01*
X0152805Y0219931D01*
X0153025Y0219399D01*
X0154609Y0219399D01*
X0159438Y0214570D01*
X0159438Y0262664D01*
X0151154Y0262664D01*
X0151359Y0262560D01*
X0151928Y0262146D01*
X0152425Y0261649D01*
X0152838Y0261080D01*
X0153158Y0260453D01*
X0153375Y0259784D01*
X0153464Y0259222D01*
X0149501Y0259222D01*
X0149501Y0258254D01*
X0153464Y0258254D01*
X0153375Y0257692D01*
X0153158Y0257023D01*
X0152838Y0256396D01*
X0152425Y0255827D01*
X0151928Y0255330D01*
X0151359Y0254916D01*
X0150732Y0254597D01*
X0150063Y0254380D01*
X0149501Y0254291D01*
X0149501Y0258254D01*
X0148532Y0258254D01*
X0144569Y0258254D01*
X0144658Y0257692D01*
X0144875Y0257023D01*
X0145195Y0256396D01*
X0145608Y0255827D01*
X0146105Y0255330D01*
X0146675Y0254916D01*
X0147301Y0254597D01*
X0147970Y0254380D01*
X0148532Y0254291D01*
X0148532Y0258254D01*
X0148532Y0259222D01*
X0144569Y0259222D01*
X0144658Y0259784D01*
X0144875Y0260453D01*
X0145195Y0261080D01*
X0145608Y0261649D01*
X0146105Y0262146D01*
X0146675Y0262560D01*
X0146879Y0262664D01*
X0062838Y0262664D01*
X0063738Y0261624D01*
X0063738Y0261624D01*
X0065808Y0257094D01*
X0065808Y0257094D01*
X0066517Y0252163D01*
X0066318Y0250784D01*
X0066485Y0250951D01*
X0068128Y0251632D01*
X0069905Y0251632D01*
X0071548Y0250951D01*
X0072805Y0249694D01*
X0073485Y0248052D01*
X0073485Y0246274D01*
X0072805Y0244632D01*
X0071548Y0243375D01*
X0069905Y0242695D01*
X0068128Y0242695D01*
X0066485Y0243375D01*
X0065228Y0244632D01*
X0064939Y0245331D01*
X0063738Y0242702D01*
X0063738Y0242702D01*
X0060477Y0238938D01*
X0060477Y0238938D01*
X0060477Y0238938D01*
X0056286Y0236245D01*
X0056286Y0236245D01*
X0051507Y0234841D01*
X0046526Y0234841D01*
X0041747Y0236245D01*
X0041747Y0236245D01*
X0037556Y0238938D01*
X0037556Y0238938D01*
X0034295Y0242702D01*
X0034295Y0242702D01*
X0032225Y0247233D01*
X0032225Y0247233D01*
X0031517Y0252163D01*
X0031517Y0252163D01*
X0032225Y0257094D01*
X0032225Y0257094D01*
X0034295Y0261624D01*
X0034295Y0261624D01*
X0035195Y0262664D01*
X0008517Y0262664D01*
X0008517Y0261784D02*
X0034433Y0261784D01*
X0033911Y0260785D02*
X0023453Y0260785D01*
X0023485Y0260753D02*
X0022606Y0261632D01*
X0015427Y0261632D01*
X0014548Y0260753D01*
X0014548Y0253573D01*
X0015427Y0252695D01*
X0022606Y0252695D01*
X0023485Y0253573D01*
X0023485Y0260753D01*
X0023485Y0259787D02*
X0033455Y0259787D01*
X0032999Y0258788D02*
X0023485Y0258788D01*
X0023485Y0257790D02*
X0032543Y0257790D01*
X0032182Y0256791D02*
X0023485Y0256791D01*
X0023485Y0255793D02*
X0032038Y0255793D01*
X0031895Y0254794D02*
X0023485Y0254794D01*
X0023485Y0253796D02*
X0031751Y0253796D01*
X0031608Y0252797D02*
X0022709Y0252797D01*
X0020021Y0247804D02*
X0032143Y0247804D01*
X0032000Y0248803D02*
X0008517Y0248803D01*
X0008517Y0249802D02*
X0031856Y0249802D01*
X0031713Y0250800D02*
X0008517Y0250800D01*
X0008517Y0251799D02*
X0031569Y0251799D01*
X0032420Y0246806D02*
X0021914Y0246806D01*
X0021548Y0247172D02*
X0019905Y0247852D01*
X0018128Y0247852D01*
X0016485Y0247172D01*
X0015228Y0245915D01*
X0014548Y0244273D01*
X0014548Y0242495D01*
X0015228Y0240853D01*
X0016485Y0239596D01*
X0018128Y0238915D01*
X0019905Y0238915D01*
X0021548Y0239596D01*
X0022805Y0240853D01*
X0023485Y0242495D01*
X0023485Y0244273D01*
X0022805Y0245915D01*
X0021548Y0247172D01*
X0022849Y0245807D02*
X0032876Y0245807D01*
X0033332Y0244809D02*
X0023263Y0244809D01*
X0023485Y0243810D02*
X0033788Y0243810D01*
X0034244Y0242812D02*
X0023485Y0242812D01*
X0023203Y0241813D02*
X0035065Y0241813D01*
X0035930Y0240815D02*
X0022767Y0240815D01*
X0021769Y0239816D02*
X0036795Y0239816D01*
X0037743Y0238818D02*
X0008517Y0238818D01*
X0008517Y0239816D02*
X0016264Y0239816D01*
X0015266Y0240815D02*
X0008517Y0240815D01*
X0008517Y0241813D02*
X0014830Y0241813D01*
X0014548Y0242812D02*
X0008517Y0242812D01*
X0008517Y0243810D02*
X0014548Y0243810D01*
X0014770Y0244809D02*
X0008517Y0244809D01*
X0008517Y0245807D02*
X0015184Y0245807D01*
X0016119Y0246806D02*
X0008517Y0246806D01*
X0008517Y0247804D02*
X0018012Y0247804D01*
X0015324Y0252797D02*
X0008517Y0252797D01*
X0008517Y0253796D02*
X0014548Y0253796D01*
X0014548Y0254794D02*
X0008517Y0254794D01*
X0008517Y0255793D02*
X0014548Y0255793D01*
X0014548Y0256791D02*
X0008517Y0256791D01*
X0008517Y0257790D02*
X0014548Y0257790D01*
X0014548Y0258788D02*
X0008517Y0258788D01*
X0008517Y0259787D02*
X0014548Y0259787D01*
X0014580Y0260785D02*
X0008517Y0260785D01*
X0008517Y0237819D02*
X0039297Y0237819D01*
X0040850Y0236821D02*
X0008517Y0236821D01*
X0008517Y0235822D02*
X0043185Y0235822D01*
X0054848Y0235822D02*
X0064735Y0235822D01*
X0064548Y0236274D02*
X0065228Y0234632D01*
X0066485Y0233375D01*
X0068128Y0232695D01*
X0069905Y0232695D01*
X0071548Y0233375D01*
X0072805Y0234632D01*
X0073485Y0236274D01*
X0073485Y0238052D01*
X0072805Y0239694D01*
X0071548Y0240951D01*
X0069905Y0241632D01*
X0068128Y0241632D01*
X0066485Y0240951D01*
X0065228Y0239694D01*
X0064548Y0238052D01*
X0064548Y0236274D01*
X0064548Y0236821D02*
X0057183Y0236821D01*
X0058737Y0237819D02*
X0064548Y0237819D01*
X0064865Y0238818D02*
X0060290Y0238818D01*
X0061238Y0239816D02*
X0065350Y0239816D01*
X0066349Y0240815D02*
X0062103Y0240815D01*
X0062968Y0241813D02*
X0122017Y0241813D01*
X0122017Y0240815D02*
X0071684Y0240815D01*
X0072683Y0239816D02*
X0122017Y0239816D01*
X0122017Y0238818D02*
X0073168Y0238818D01*
X0073485Y0237819D02*
X0122017Y0237819D01*
X0122017Y0236821D02*
X0073485Y0236821D01*
X0073298Y0235822D02*
X0122017Y0235822D01*
X0122017Y0234824D02*
X0072884Y0234824D01*
X0071998Y0233825D02*
X0122017Y0233825D01*
X0122017Y0232827D02*
X0070224Y0232827D01*
X0069905Y0231632D02*
X0068128Y0231632D01*
X0066485Y0230951D01*
X0065228Y0229694D01*
X0064548Y0228052D01*
X0064548Y0226274D01*
X0065228Y0224632D01*
X0066485Y0223375D01*
X0068128Y0222695D01*
X0069905Y0222695D01*
X0071548Y0223375D01*
X0072805Y0224632D01*
X0073485Y0226274D01*
X0073485Y0228052D01*
X0072805Y0229694D01*
X0071548Y0230951D01*
X0069905Y0231632D01*
X0071669Y0230830D02*
X0122017Y0230830D01*
X0122017Y0231828D02*
X0022932Y0231828D01*
X0022805Y0232135D02*
X0021548Y0233392D01*
X0019905Y0234073D01*
X0018128Y0234073D01*
X0016485Y0233392D01*
X0015228Y0232135D01*
X0014548Y0230493D01*
X0014548Y0228715D01*
X0015228Y0227073D01*
X0016485Y0225816D01*
X0018128Y0225136D01*
X0019905Y0225136D01*
X0021548Y0225816D01*
X0022805Y0227073D01*
X0023485Y0228715D01*
X0023485Y0230493D01*
X0022805Y0232135D01*
X0022113Y0232827D02*
X0067809Y0232827D01*
X0066035Y0233825D02*
X0020503Y0233825D01*
X0017530Y0233825D02*
X0008517Y0233825D01*
X0008517Y0232827D02*
X0015920Y0232827D01*
X0015101Y0231828D02*
X0008517Y0231828D01*
X0008517Y0230830D02*
X0014688Y0230830D01*
X0014548Y0229831D02*
X0008517Y0229831D01*
X0008517Y0228833D02*
X0014548Y0228833D01*
X0014913Y0227834D02*
X0008517Y0227834D01*
X0008517Y0226836D02*
X0015466Y0226836D01*
X0016464Y0225837D02*
X0008517Y0225837D01*
X0008517Y0224839D02*
X0065143Y0224839D01*
X0064729Y0225837D02*
X0021569Y0225837D01*
X0022567Y0226836D02*
X0064548Y0226836D01*
X0064548Y0227834D02*
X0023120Y0227834D01*
X0023485Y0228833D02*
X0064871Y0228833D01*
X0065365Y0229831D02*
X0023485Y0229831D01*
X0023346Y0230830D02*
X0066364Y0230830D01*
X0065149Y0234824D02*
X0008517Y0234824D01*
X0008517Y0223840D02*
X0066020Y0223840D01*
X0067773Y0222842D02*
X0008517Y0222842D01*
X0008517Y0221843D02*
X0122017Y0221843D01*
X0122017Y0220845D02*
X0071655Y0220845D01*
X0071548Y0220951D02*
X0069905Y0221632D01*
X0068128Y0221632D01*
X0066485Y0220951D01*
X0065228Y0219694D01*
X0064548Y0218052D01*
X0064548Y0216274D01*
X0065228Y0214632D01*
X0066485Y0213375D01*
X0068128Y0212695D01*
X0069905Y0212695D01*
X0071548Y0213375D01*
X0072805Y0214632D01*
X0073485Y0216274D01*
X0073485Y0218052D01*
X0072805Y0219694D01*
X0071548Y0220951D01*
X0072653Y0219846D02*
X0122017Y0219846D01*
X0122017Y0218848D02*
X0073155Y0218848D01*
X0073485Y0217849D02*
X0122017Y0217849D01*
X0122017Y0216851D02*
X0073485Y0216851D01*
X0073310Y0215852D02*
X0122017Y0215852D01*
X0122017Y0214854D02*
X0072897Y0214854D01*
X0072028Y0213855D02*
X0122017Y0213855D01*
X0122017Y0212857D02*
X0070296Y0212857D01*
X0069905Y0211632D02*
X0068128Y0211632D01*
X0066485Y0210951D01*
X0065228Y0209694D01*
X0064548Y0208052D01*
X0064548Y0206274D01*
X0065228Y0204632D01*
X0066485Y0203375D01*
X0068128Y0202695D01*
X0069905Y0202695D01*
X0071548Y0203375D01*
X0072805Y0204632D01*
X0073485Y0206274D01*
X0073485Y0208052D01*
X0072805Y0209694D01*
X0071548Y0210951D01*
X0069905Y0211632D01*
X0071640Y0210860D02*
X0122017Y0210860D01*
X0122017Y0211858D02*
X0021117Y0211858D01*
X0021548Y0212036D02*
X0022805Y0213293D01*
X0023485Y0214936D01*
X0023485Y0216714D01*
X0022805Y0218356D01*
X0021548Y0219613D01*
X0019905Y0220293D01*
X0018128Y0220293D01*
X0016485Y0219613D01*
X0015228Y0218356D01*
X0014548Y0216714D01*
X0014548Y0214936D01*
X0015228Y0213293D01*
X0016485Y0212036D01*
X0018128Y0211356D01*
X0019905Y0211356D01*
X0021548Y0212036D01*
X0022368Y0212857D02*
X0067737Y0212857D01*
X0066005Y0213855D02*
X0023037Y0213855D01*
X0023451Y0214854D02*
X0065137Y0214854D01*
X0064723Y0215852D02*
X0023485Y0215852D01*
X0023428Y0216851D02*
X0064548Y0216851D01*
X0064548Y0217849D02*
X0023015Y0217849D01*
X0022313Y0218848D02*
X0064878Y0218848D01*
X0065380Y0219846D02*
X0020985Y0219846D01*
X0017049Y0219846D02*
X0008517Y0219846D01*
X0008517Y0218848D02*
X0015720Y0218848D01*
X0015018Y0217849D02*
X0008517Y0217849D01*
X0008517Y0216851D02*
X0014605Y0216851D01*
X0014548Y0215852D02*
X0008517Y0215852D01*
X0008517Y0214854D02*
X0014582Y0214854D01*
X0014996Y0213855D02*
X0008517Y0213855D01*
X0008517Y0212857D02*
X0015665Y0212857D01*
X0016916Y0211858D02*
X0008517Y0211858D01*
X0008517Y0210860D02*
X0066393Y0210860D01*
X0065395Y0209861D02*
X0008517Y0209861D01*
X0008517Y0208863D02*
X0064884Y0208863D01*
X0064548Y0207864D02*
X0008517Y0207864D01*
X0008517Y0206866D02*
X0064548Y0206866D01*
X0064717Y0205867D02*
X0021466Y0205867D01*
X0021548Y0205833D02*
X0019905Y0206514D01*
X0018128Y0206514D01*
X0016485Y0205833D01*
X0015228Y0204576D01*
X0014548Y0202934D01*
X0014548Y0201156D01*
X0015228Y0199514D01*
X0016485Y0198257D01*
X0018128Y0197577D01*
X0019905Y0197577D01*
X0021548Y0198257D01*
X0022805Y0199514D01*
X0023025Y0200045D01*
X0053306Y0200045D01*
X0057017Y0196335D01*
X0057017Y0101335D01*
X0062017Y0096335D01*
X0063188Y0095163D01*
X0065008Y0095163D01*
X0065228Y0094632D01*
X0066485Y0093375D01*
X0068128Y0092695D01*
X0069905Y0092695D01*
X0071548Y0093375D01*
X0072805Y0094632D01*
X0073485Y0096274D01*
X0073485Y0098052D01*
X0072805Y0099694D01*
X0071548Y0100951D01*
X0069905Y0101632D01*
X0068128Y0101632D01*
X0066485Y0100951D01*
X0065228Y0099694D01*
X0065008Y0099163D01*
X0064845Y0099163D01*
X0061017Y0102992D01*
X0061017Y0197992D01*
X0059845Y0199163D01*
X0054963Y0204045D01*
X0023025Y0204045D01*
X0022805Y0204576D01*
X0021548Y0205833D01*
X0022513Y0204868D02*
X0065130Y0204868D01*
X0065990Y0203870D02*
X0055138Y0203870D01*
X0056137Y0202871D02*
X0067701Y0202871D01*
X0068128Y0201632D02*
X0066485Y0200951D01*
X0065228Y0199694D01*
X0064548Y0198052D01*
X0064548Y0196274D01*
X0065228Y0194632D01*
X0066485Y0193375D01*
X0068128Y0192695D01*
X0069905Y0192695D01*
X0071548Y0193375D01*
X0072805Y0194632D01*
X0073485Y0196274D01*
X0073485Y0198052D01*
X0072805Y0199694D01*
X0071548Y0200951D01*
X0069905Y0201632D01*
X0068128Y0201632D01*
X0066408Y0200874D02*
X0058134Y0200874D01*
X0059132Y0199876D02*
X0065410Y0199876D01*
X0064890Y0198877D02*
X0060131Y0198877D01*
X0061017Y0197879D02*
X0064548Y0197879D01*
X0064548Y0196880D02*
X0061017Y0196880D01*
X0061017Y0195882D02*
X0064711Y0195882D01*
X0065124Y0194883D02*
X0061017Y0194883D01*
X0061017Y0193885D02*
X0065975Y0193885D01*
X0067665Y0192886D02*
X0061017Y0192886D01*
X0061017Y0191888D02*
X0122017Y0191888D01*
X0122017Y0192886D02*
X0070368Y0192886D01*
X0069905Y0191632D02*
X0068128Y0191632D01*
X0066485Y0190951D01*
X0065228Y0189694D01*
X0064548Y0188052D01*
X0064548Y0186274D01*
X0065228Y0184632D01*
X0066485Y0183375D01*
X0068128Y0182695D01*
X0069905Y0182695D01*
X0071548Y0183375D01*
X0072805Y0184632D01*
X0073485Y0186274D01*
X0073485Y0188052D01*
X0072805Y0189694D01*
X0071548Y0190951D01*
X0069905Y0191632D01*
X0071610Y0190889D02*
X0122017Y0190889D01*
X0122017Y0189891D02*
X0072608Y0189891D01*
X0073137Y0188892D02*
X0122017Y0188892D01*
X0122017Y0187894D02*
X0073485Y0187894D01*
X0073485Y0186895D02*
X0122017Y0186895D01*
X0122017Y0185897D02*
X0073329Y0185897D01*
X0072915Y0184898D02*
X0122017Y0184898D01*
X0122017Y0183900D02*
X0072072Y0183900D01*
X0070404Y0182901D02*
X0122017Y0182901D01*
X0122017Y0181903D02*
X0061017Y0181903D01*
X0061017Y0182901D02*
X0067629Y0182901D01*
X0068128Y0181632D02*
X0066485Y0180951D01*
X0065228Y0179694D01*
X0064548Y0178052D01*
X0064548Y0176274D01*
X0065228Y0174632D01*
X0066485Y0173375D01*
X0068128Y0172695D01*
X0069905Y0172695D01*
X0071548Y0173375D01*
X0072805Y0174632D01*
X0073485Y0176274D01*
X0073485Y0178052D01*
X0072805Y0179694D01*
X0071548Y0180951D01*
X0069905Y0181632D01*
X0068128Y0181632D01*
X0066438Y0180904D02*
X0061017Y0180904D01*
X0061017Y0179906D02*
X0065440Y0179906D01*
X0064902Y0178907D02*
X0061017Y0178907D01*
X0061017Y0177909D02*
X0064548Y0177909D01*
X0064548Y0176910D02*
X0061017Y0176910D01*
X0061017Y0175912D02*
X0064698Y0175912D01*
X0065112Y0174913D02*
X0061017Y0174913D01*
X0061017Y0173915D02*
X0065946Y0173915D01*
X0067593Y0172916D02*
X0061017Y0172916D01*
X0061017Y0171918D02*
X0122017Y0171918D01*
X0122017Y0172916D02*
X0070440Y0172916D01*
X0069905Y0171632D02*
X0068128Y0171632D01*
X0066485Y0170951D01*
X0065228Y0169694D01*
X0064548Y0168052D01*
X0064548Y0166274D01*
X0065228Y0164632D01*
X0066485Y0163375D01*
X0068128Y0162695D01*
X0069905Y0162695D01*
X0071548Y0163375D01*
X0072805Y0164632D01*
X0073485Y0166274D01*
X0073485Y0168052D01*
X0072805Y0169694D01*
X0071548Y0170951D01*
X0069905Y0171632D01*
X0071580Y0170919D02*
X0122017Y0170919D01*
X0122017Y0169921D02*
X0072579Y0169921D01*
X0073125Y0168922D02*
X0122017Y0168922D01*
X0122017Y0167924D02*
X0073485Y0167924D01*
X0073485Y0166925D02*
X0122017Y0166925D01*
X0122017Y0165927D02*
X0073341Y0165927D01*
X0072927Y0164928D02*
X0122017Y0164928D01*
X0122017Y0163930D02*
X0072102Y0163930D01*
X0070476Y0162931D02*
X0122017Y0162931D01*
X0122017Y0161933D02*
X0061017Y0161933D01*
X0061017Y0162931D02*
X0067557Y0162931D01*
X0067970Y0161522D02*
X0067301Y0161304D01*
X0066675Y0160985D01*
X0066105Y0160572D01*
X0065608Y0160074D01*
X0065195Y0159505D01*
X0064875Y0158879D01*
X0064658Y0158210D01*
X0064569Y0157648D01*
X0068532Y0157648D01*
X0068532Y0161611D01*
X0067970Y0161522D01*
X0068532Y0160934D02*
X0069501Y0160934D01*
X0069501Y0161611D02*
X0069501Y0157648D01*
X0068532Y0157648D01*
X0068532Y0156679D01*
X0064569Y0156679D01*
X0064658Y0156117D01*
X0064875Y0155448D01*
X0065195Y0154821D01*
X0065608Y0154252D01*
X0066105Y0153755D01*
X0066675Y0153341D01*
X0067301Y0153022D01*
X0067970Y0152805D01*
X0068532Y0152716D01*
X0068532Y0156679D01*
X0069501Y0156679D01*
X0069501Y0157648D01*
X0073464Y0157648D01*
X0073375Y0158210D01*
X0073158Y0158879D01*
X0072838Y0159505D01*
X0072425Y0160074D01*
X0071928Y0160572D01*
X0071359Y0160985D01*
X0070732Y0161304D01*
X0070063Y0161522D01*
X0069501Y0161611D01*
X0069501Y0159935D02*
X0068532Y0159935D01*
X0068532Y0158937D02*
X0069501Y0158937D01*
X0069501Y0157938D02*
X0068532Y0157938D01*
X0068532Y0156940D02*
X0061017Y0156940D01*
X0061017Y0157938D02*
X0064615Y0157938D01*
X0064905Y0158937D02*
X0061017Y0158937D01*
X0061017Y0159935D02*
X0065507Y0159935D01*
X0066604Y0160934D02*
X0061017Y0160934D01*
X0061017Y0163930D02*
X0065931Y0163930D01*
X0065106Y0164928D02*
X0061017Y0164928D01*
X0061017Y0165927D02*
X0064692Y0165927D01*
X0064548Y0166925D02*
X0061017Y0166925D01*
X0061017Y0167924D02*
X0064548Y0167924D01*
X0064908Y0168922D02*
X0061017Y0168922D01*
X0061017Y0169921D02*
X0065454Y0169921D01*
X0066453Y0170919D02*
X0061017Y0170919D01*
X0057017Y0170919D02*
X0056017Y0170919D01*
X0056017Y0169921D02*
X0057017Y0169921D01*
X0057017Y0168922D02*
X0056017Y0168922D01*
X0056017Y0167924D02*
X0057017Y0167924D01*
X0057017Y0166925D02*
X0056017Y0166925D01*
X0056017Y0165927D02*
X0057017Y0165927D01*
X0057017Y0164928D02*
X0056017Y0164928D01*
X0056017Y0163930D02*
X0057017Y0163930D01*
X0057017Y0162931D02*
X0056017Y0162931D01*
X0056017Y0161933D02*
X0057017Y0161933D01*
X0057017Y0160934D02*
X0056017Y0160934D01*
X0056017Y0159935D02*
X0057017Y0159935D01*
X0057017Y0158937D02*
X0056017Y0158937D01*
X0056017Y0157938D02*
X0057017Y0157938D01*
X0057017Y0156940D02*
X0056017Y0156940D01*
X0056017Y0155941D02*
X0057017Y0155941D01*
X0057017Y0154943D02*
X0056017Y0154943D01*
X0056017Y0153944D02*
X0057017Y0153944D01*
X0057017Y0152946D02*
X0056017Y0152946D01*
X0056017Y0151947D02*
X0057017Y0151947D01*
X0057017Y0150949D02*
X0056017Y0150949D01*
X0056017Y0149950D02*
X0057017Y0149950D01*
X0057017Y0148952D02*
X0056017Y0148952D01*
X0056017Y0147953D02*
X0057017Y0147953D01*
X0057017Y0146955D02*
X0056017Y0146955D01*
X0056017Y0145956D02*
X0057017Y0145956D01*
X0057017Y0144958D02*
X0056017Y0144958D01*
X0056017Y0143959D02*
X0057017Y0143959D01*
X0057017Y0142961D02*
X0056017Y0142961D01*
X0056017Y0141962D02*
X0057017Y0141962D01*
X0057017Y0140964D02*
X0056017Y0140964D01*
X0056017Y0139965D02*
X0057017Y0139965D01*
X0057017Y0138967D02*
X0056017Y0138967D01*
X0056017Y0137968D02*
X0057017Y0137968D01*
X0057017Y0136970D02*
X0056017Y0136970D01*
X0056017Y0135971D02*
X0057017Y0135971D01*
X0057017Y0134973D02*
X0056017Y0134973D01*
X0056017Y0133974D02*
X0057017Y0133974D01*
X0057017Y0132976D02*
X0056017Y0132976D01*
X0056017Y0131977D02*
X0057017Y0131977D01*
X0057017Y0130979D02*
X0056017Y0130979D01*
X0056017Y0129980D02*
X0057017Y0129980D01*
X0057017Y0128982D02*
X0056017Y0128982D01*
X0056017Y0127983D02*
X0057017Y0127983D01*
X0057017Y0126985D02*
X0056017Y0126985D01*
X0056017Y0125986D02*
X0057017Y0125986D01*
X0057017Y0124988D02*
X0056017Y0124988D01*
X0056017Y0123989D02*
X0057017Y0123989D01*
X0057017Y0122991D02*
X0056017Y0122991D01*
X0056017Y0121992D02*
X0057017Y0121992D01*
X0057017Y0120994D02*
X0056017Y0120994D01*
X0056017Y0119995D02*
X0057017Y0119995D01*
X0057017Y0118997D02*
X0056017Y0118997D01*
X0056017Y0117998D02*
X0057017Y0117998D01*
X0057017Y0116999D02*
X0056017Y0116999D01*
X0056017Y0116001D02*
X0057017Y0116001D01*
X0057017Y0115002D02*
X0056017Y0115002D01*
X0056017Y0114004D02*
X0057017Y0114004D01*
X0057017Y0113005D02*
X0056017Y0113005D01*
X0056017Y0112007D02*
X0057017Y0112007D01*
X0057017Y0111008D02*
X0056017Y0111008D01*
X0056017Y0110010D02*
X0057017Y0110010D01*
X0057017Y0109011D02*
X0056017Y0109011D01*
X0056017Y0108013D02*
X0057017Y0108013D01*
X0057017Y0107014D02*
X0056017Y0107014D01*
X0056017Y0106016D02*
X0057017Y0106016D01*
X0057017Y0105017D02*
X0056017Y0105017D01*
X0056017Y0104019D02*
X0057017Y0104019D01*
X0057017Y0103020D02*
X0056017Y0103020D01*
X0056017Y0102022D02*
X0057017Y0102022D01*
X0057328Y0101023D02*
X0056017Y0101023D01*
X0056017Y0100025D02*
X0058327Y0100025D01*
X0059325Y0099026D02*
X0056017Y0099026D01*
X0056017Y0098028D02*
X0060324Y0098028D01*
X0061322Y0097029D02*
X0056017Y0097029D01*
X0056017Y0096031D02*
X0062321Y0096031D01*
X0064017Y0097163D02*
X0069017Y0097163D01*
X0066659Y0101023D02*
X0062985Y0101023D01*
X0063983Y0100025D02*
X0065559Y0100025D01*
X0064017Y0097163D02*
X0059017Y0102163D01*
X0059017Y0197163D01*
X0054135Y0202045D01*
X0019017Y0202045D01*
X0016567Y0205867D02*
X0008517Y0205867D01*
X0008517Y0204868D02*
X0015520Y0204868D01*
X0014936Y0203870D02*
X0008517Y0203870D01*
X0008517Y0202871D02*
X0014548Y0202871D01*
X0014548Y0201873D02*
X0008517Y0201873D01*
X0008517Y0200874D02*
X0014665Y0200874D01*
X0015078Y0199876D02*
X0008517Y0199876D01*
X0008517Y0198877D02*
X0015865Y0198877D01*
X0017398Y0197879D02*
X0008517Y0197879D01*
X0008517Y0196880D02*
X0056471Y0196880D01*
X0057017Y0195882D02*
X0008517Y0195882D01*
X0008517Y0194883D02*
X0057017Y0194883D01*
X0057017Y0193885D02*
X0008517Y0193885D01*
X0008517Y0192886D02*
X0057017Y0192886D01*
X0057017Y0191888D02*
X0021714Y0191888D01*
X0021548Y0192054D02*
X0019905Y0192734D01*
X0018128Y0192734D01*
X0016485Y0192054D01*
X0015228Y0190797D01*
X0014548Y0189154D01*
X0014548Y0187377D01*
X0015228Y0185734D01*
X0016485Y0184477D01*
X0018128Y0183797D01*
X0019905Y0183797D01*
X0021548Y0184477D01*
X0022234Y0185163D01*
X0048188Y0185163D01*
X0052017Y0181335D01*
X0052017Y0091335D01*
X0057017Y0086335D01*
X0058188Y0085163D01*
X0065008Y0085163D01*
X0065228Y0084632D01*
X0066485Y0083375D01*
X0068128Y0082695D01*
X0069905Y0082695D01*
X0071548Y0083375D01*
X0072805Y0084632D01*
X0073485Y0086274D01*
X0073485Y0088052D01*
X0072805Y0089694D01*
X0071548Y0090951D01*
X0069905Y0091632D01*
X0068128Y0091632D01*
X0066485Y0090951D01*
X0065228Y0089694D01*
X0065008Y0089163D01*
X0059845Y0089163D01*
X0056017Y0092992D01*
X0056017Y0182992D01*
X0054845Y0184163D01*
X0051017Y0187992D01*
X0049845Y0189163D01*
X0023481Y0189163D01*
X0022805Y0190797D01*
X0021548Y0192054D01*
X0022712Y0190889D02*
X0057017Y0190889D01*
X0057017Y0189891D02*
X0023180Y0189891D01*
X0020119Y0187163D02*
X0049017Y0187163D01*
X0054017Y0182163D01*
X0054017Y0092163D01*
X0059017Y0087163D01*
X0069017Y0087163D01*
X0066695Y0091038D02*
X0057970Y0091038D01*
X0058969Y0090040D02*
X0065574Y0090040D01*
X0067306Y0093035D02*
X0056017Y0093035D01*
X0056017Y0094034D02*
X0065827Y0094034D01*
X0065063Y0095032D02*
X0056017Y0095032D01*
X0056971Y0092037D02*
X0132017Y0092037D01*
X0132017Y0093035D02*
X0070727Y0093035D01*
X0072206Y0094034D02*
X0132017Y0094034D01*
X0132017Y0095032D02*
X0072971Y0095032D01*
X0073384Y0096031D02*
X0132017Y0096031D01*
X0132017Y0097029D02*
X0073485Y0097029D01*
X0073485Y0098028D02*
X0132017Y0098028D01*
X0132017Y0099026D02*
X0073082Y0099026D01*
X0072474Y0100025D02*
X0132017Y0100025D01*
X0132017Y0101023D02*
X0071374Y0101023D01*
X0071338Y0091038D02*
X0132017Y0091038D01*
X0132017Y0090040D02*
X0072459Y0090040D01*
X0073075Y0089041D02*
X0132017Y0089041D01*
X0132017Y0088043D02*
X0073485Y0088043D01*
X0073485Y0087044D02*
X0132017Y0087044D01*
X0132017Y0086046D02*
X0073390Y0086046D01*
X0072977Y0085047D02*
X0132017Y0085047D01*
X0132017Y0084049D02*
X0072221Y0084049D01*
X0070763Y0083050D02*
X0132017Y0083050D01*
X0132017Y0082052D02*
X0051017Y0082052D01*
X0051017Y0083050D02*
X0067270Y0083050D01*
X0068128Y0081632D02*
X0066485Y0080951D01*
X0065228Y0079694D01*
X0064548Y0078052D01*
X0064548Y0076274D01*
X0065228Y0074632D01*
X0066485Y0073375D01*
X0068128Y0072695D01*
X0069905Y0072695D01*
X0071548Y0073375D01*
X0072805Y0074632D01*
X0073485Y0076274D01*
X0073485Y0078052D01*
X0072805Y0079694D01*
X0071548Y0080951D01*
X0069905Y0081632D01*
X0068128Y0081632D01*
X0066731Y0081053D02*
X0051017Y0081053D01*
X0051017Y0080055D02*
X0065588Y0080055D01*
X0064964Y0079056D02*
X0051017Y0079056D01*
X0051017Y0078058D02*
X0064550Y0078058D01*
X0064548Y0077059D02*
X0051017Y0077059D01*
X0051017Y0076061D02*
X0064637Y0076061D01*
X0065050Y0075062D02*
X0051017Y0075062D01*
X0051017Y0074064D02*
X0065797Y0074064D01*
X0067234Y0073065D02*
X0051017Y0073065D01*
X0051017Y0072066D02*
X0077017Y0072066D01*
X0077017Y0071068D02*
X0071266Y0071068D01*
X0071548Y0070951D02*
X0069905Y0071632D01*
X0068128Y0071632D01*
X0066485Y0070951D01*
X0065228Y0069694D01*
X0064548Y0068052D01*
X0064548Y0066274D01*
X0065228Y0064632D01*
X0066485Y0063375D01*
X0068128Y0062695D01*
X0069905Y0062695D01*
X0071548Y0063375D01*
X0072805Y0064632D01*
X0073485Y0066274D01*
X0073485Y0068052D01*
X0072805Y0069694D01*
X0071548Y0070951D01*
X0072430Y0070069D02*
X0077017Y0070069D01*
X0077017Y0069071D02*
X0073063Y0069071D01*
X0073477Y0068072D02*
X0077017Y0068072D01*
X0077017Y0067074D02*
X0073485Y0067074D01*
X0073403Y0066075D02*
X0077017Y0066075D01*
X0077017Y0065077D02*
X0072989Y0065077D01*
X0072251Y0064078D02*
X0077017Y0064078D01*
X0077017Y0063080D02*
X0070835Y0063080D01*
X0069905Y0061632D02*
X0068128Y0061632D01*
X0066485Y0060951D01*
X0065228Y0059694D01*
X0065008Y0059163D01*
X0054845Y0059163D01*
X0051017Y0062992D01*
X0051017Y0172992D01*
X0049845Y0174163D01*
X0047522Y0176486D01*
X0023025Y0176486D01*
X0022805Y0177017D01*
X0021548Y0178274D01*
X0019905Y0178955D01*
X0018128Y0178955D01*
X0016485Y0178274D01*
X0015228Y0177017D01*
X0014548Y0175375D01*
X0014548Y0173597D01*
X0015228Y0171955D01*
X0016485Y0170698D01*
X0018128Y0170018D01*
X0019905Y0170018D01*
X0021548Y0170698D01*
X0022805Y0171955D01*
X0023025Y0172486D01*
X0045865Y0172486D01*
X0047017Y0171335D01*
X0047017Y0061335D01*
X0052017Y0056335D01*
X0053188Y0055163D01*
X0065008Y0055163D01*
X0065228Y0054632D01*
X0066485Y0053375D01*
X0068128Y0052695D01*
X0069905Y0052695D01*
X0071548Y0053375D01*
X0072805Y0054632D01*
X0073485Y0056274D01*
X0073485Y0058052D01*
X0072805Y0059694D01*
X0071548Y0060951D01*
X0069905Y0061632D01*
X0071230Y0061083D02*
X0077017Y0061083D01*
X0077017Y0062081D02*
X0051927Y0062081D01*
X0051017Y0063080D02*
X0067198Y0063080D01*
X0065782Y0064078D02*
X0051017Y0064078D01*
X0051017Y0065077D02*
X0065044Y0065077D01*
X0064630Y0066075D02*
X0051017Y0066075D01*
X0051017Y0067074D02*
X0064548Y0067074D01*
X0064556Y0068072D02*
X0051017Y0068072D01*
X0051017Y0069071D02*
X0064970Y0069071D01*
X0065603Y0070069D02*
X0051017Y0070069D01*
X0051017Y0071068D02*
X0066767Y0071068D01*
X0070799Y0073065D02*
X0077017Y0073065D01*
X0077017Y0074064D02*
X0072236Y0074064D01*
X0072983Y0075062D02*
X0077017Y0075062D01*
X0077017Y0076061D02*
X0073396Y0076061D01*
X0073485Y0077059D02*
X0077017Y0077059D01*
X0077017Y0077992D02*
X0077017Y0042992D01*
X0073188Y0039163D01*
X0073025Y0039163D01*
X0072805Y0039694D01*
X0071548Y0040951D01*
X0069905Y0041632D01*
X0068128Y0041632D01*
X0067596Y0041412D01*
X0064845Y0044163D01*
X0044845Y0044163D01*
X0041017Y0047992D01*
X0041017Y0082992D01*
X0039845Y0084163D01*
X0034845Y0089163D01*
X0023485Y0089163D01*
X0023485Y0090753D01*
X0022606Y0091632D01*
X0017376Y0091632D01*
X0016017Y0092992D01*
X0016017Y0102269D01*
X0016105Y0102180D01*
X0016675Y0101767D01*
X0017301Y0101447D01*
X0017970Y0101230D01*
X0018532Y0101141D01*
X0018532Y0105104D01*
X0019501Y0105104D01*
X0019501Y0106073D01*
X0018532Y0106073D01*
X0018532Y0110036D01*
X0017970Y0109947D01*
X0017301Y0109730D01*
X0016675Y0109410D01*
X0016105Y0108997D01*
X0016017Y0108908D01*
X0016017Y0113540D01*
X0017596Y0115120D01*
X0018128Y0114899D01*
X0019905Y0114899D01*
X0021548Y0115580D01*
X0022805Y0116837D01*
X0023485Y0118479D01*
X0023485Y0120257D01*
X0022805Y0121899D01*
X0021548Y0123156D01*
X0019905Y0123836D01*
X0018128Y0123836D01*
X0016485Y0123156D01*
X0015228Y0121899D01*
X0014548Y0120257D01*
X0014548Y0118479D01*
X0014768Y0117948D01*
X0013188Y0116368D01*
X0012017Y0115196D01*
X0012017Y0091335D01*
X0014548Y0088803D01*
X0014548Y0083573D01*
X0015427Y0082695D01*
X0022606Y0082695D01*
X0023485Y0083573D01*
X0023485Y0085163D01*
X0033188Y0085163D01*
X0037017Y0081335D01*
X0037017Y0046335D01*
X0042017Y0041335D01*
X0043188Y0040163D01*
X0063188Y0040163D01*
X0064768Y0038583D01*
X0064548Y0038052D01*
X0064548Y0036274D01*
X0065228Y0034632D01*
X0066485Y0033375D01*
X0068128Y0032695D01*
X0069905Y0032695D01*
X0071548Y0033375D01*
X0072805Y0034632D01*
X0073025Y0035163D01*
X0074845Y0035163D01*
X0076017Y0036335D01*
X0081017Y0041335D01*
X0081017Y0076335D01*
X0082345Y0077663D01*
X0134707Y0077663D01*
X0134991Y0077380D01*
X0135981Y0076970D01*
X0137052Y0076970D01*
X0138042Y0077380D01*
X0138800Y0078137D01*
X0139210Y0079127D01*
X0139210Y0080199D01*
X0138800Y0081189D01*
X0138042Y0081947D01*
X0137052Y0082357D01*
X0136651Y0082357D01*
X0136017Y0082992D01*
X0136017Y0152992D01*
X0134845Y0154163D01*
X0133265Y0155743D01*
X0133485Y0156274D01*
X0133485Y0158052D01*
X0132805Y0159694D01*
X0131548Y0160951D01*
X0129905Y0161632D01*
X0128128Y0161632D01*
X0127596Y0161412D01*
X0126017Y0162992D01*
X0126017Y0163844D01*
X0126485Y0163375D01*
X0128128Y0162695D01*
X0129905Y0162695D01*
X0131548Y0163375D01*
X0132805Y0164632D01*
X0133485Y0166274D01*
X0133485Y0168052D01*
X0132805Y0169694D01*
X0131548Y0170951D01*
X0129905Y0171632D01*
X0128128Y0171632D01*
X0126485Y0170951D01*
X0126017Y0170483D01*
X0126017Y0173844D01*
X0126485Y0173375D01*
X0128128Y0172695D01*
X0129905Y0172695D01*
X0131548Y0173375D01*
X0132805Y0174632D01*
X0133485Y0176274D01*
X0133485Y0178052D01*
X0132805Y0179694D01*
X0131548Y0180951D01*
X0129905Y0181632D01*
X0128128Y0181632D01*
X0126485Y0180951D01*
X0126017Y0180483D01*
X0126017Y0183844D01*
X0126485Y0183375D01*
X0128128Y0182695D01*
X0129905Y0182695D01*
X0131548Y0183375D01*
X0132805Y0184632D01*
X0133485Y0186274D01*
X0133485Y0188052D01*
X0132805Y0189694D01*
X0131548Y0190951D01*
X0129905Y0191632D01*
X0128128Y0191632D01*
X0126485Y0190951D01*
X0126017Y0190483D01*
X0126017Y0193844D01*
X0126485Y0193375D01*
X0128128Y0192695D01*
X0129905Y0192695D01*
X0131548Y0193375D01*
X0132805Y0194632D01*
X0133485Y0196274D01*
X0133485Y0198052D01*
X0132805Y0199694D01*
X0131548Y0200951D01*
X0129905Y0201632D01*
X0128128Y0201632D01*
X0126485Y0200951D01*
X0126017Y0200483D01*
X0126017Y0203844D01*
X0126485Y0203375D01*
X0128128Y0202695D01*
X0129905Y0202695D01*
X0131548Y0203375D01*
X0132805Y0204632D01*
X0133485Y0206274D01*
X0133485Y0208052D01*
X0132805Y0209694D01*
X0131548Y0210951D01*
X0129905Y0211632D01*
X0128128Y0211632D01*
X0126485Y0210951D01*
X0126017Y0210483D01*
X0126017Y0213844D01*
X0126485Y0213375D01*
X0128128Y0212695D01*
X0129905Y0212695D01*
X0131548Y0213375D01*
X0132805Y0214632D01*
X0133485Y0216274D01*
X0133485Y0218052D01*
X0132805Y0219694D01*
X0131548Y0220951D01*
X0129905Y0221632D01*
X0128128Y0221632D01*
X0126485Y0220951D01*
X0126017Y0220483D01*
X0126017Y0223844D01*
X0126485Y0223375D01*
X0128128Y0222695D01*
X0129905Y0222695D01*
X0131548Y0223375D01*
X0132805Y0224632D01*
X0133485Y0226274D01*
X0133485Y0228052D01*
X0132805Y0229694D01*
X0131548Y0230951D01*
X0129905Y0231632D01*
X0128128Y0231632D01*
X0126485Y0230951D01*
X0126017Y0230483D01*
X0126017Y0233844D01*
X0126485Y0233375D01*
X0128128Y0232695D01*
X0129905Y0232695D01*
X0131548Y0233375D01*
X0132805Y0234632D01*
X0133485Y0236274D01*
X0133485Y0238052D01*
X0132805Y0239694D01*
X0131548Y0240951D01*
X0129905Y0241632D01*
X0128128Y0241632D01*
X0126485Y0240951D01*
X0126017Y0240483D01*
X0126017Y0243844D01*
X0126485Y0243375D01*
X0128128Y0242695D01*
X0129905Y0242695D01*
X0131548Y0243375D01*
X0132805Y0244632D01*
X0133485Y0246274D01*
X0133485Y0248052D01*
X0132805Y0249694D01*
X0131548Y0250951D01*
X0129905Y0251632D01*
X0128128Y0251632D01*
X0126485Y0250951D01*
X0126017Y0250483D01*
X0126017Y0251335D01*
X0129845Y0255163D01*
X0138188Y0255163D01*
X0142017Y0251335D01*
X0142017Y0249130D01*
X0144768Y0246379D01*
X0144548Y0245847D01*
X0144548Y0244070D01*
X0145228Y0242427D01*
X0146485Y0241170D01*
X0148128Y0240490D01*
X0149905Y0240490D01*
X0151548Y0241170D01*
X0152805Y0242427D01*
X0153485Y0244070D01*
X0153485Y0245847D01*
X0152805Y0247490D01*
X0151548Y0248747D01*
X0149905Y0249427D01*
X0148128Y0249427D01*
X0147596Y0249207D01*
X0146017Y0250787D01*
X0146017Y0252992D01*
X0144845Y0254163D01*
X0139845Y0259163D01*
X0128188Y0259163D01*
X0127017Y0257992D01*
X0122017Y0252992D01*
X0122017Y0161335D01*
X0123188Y0160163D01*
X0124768Y0158583D01*
X0124548Y0158052D01*
X0124548Y0156274D01*
X0125228Y0154632D01*
X0126485Y0153375D01*
X0128128Y0152695D01*
X0129905Y0152695D01*
X0130437Y0152915D01*
X0132017Y0151335D01*
X0132017Y0150483D01*
X0131548Y0150951D01*
X0129905Y0151632D01*
X0128128Y0151632D01*
X0126485Y0150951D01*
X0125228Y0149694D01*
X0124548Y0148052D01*
X0124548Y0146274D01*
X0125228Y0144632D01*
X0126485Y0143375D01*
X0128128Y0142695D01*
X0129905Y0142695D01*
X0131548Y0143375D01*
X0132017Y0143844D01*
X0132017Y0140483D01*
X0131548Y0140951D01*
X0129905Y0141632D01*
X0128128Y0141632D01*
X0126485Y0140951D01*
X0125228Y0139694D01*
X0124548Y0138052D01*
X0124548Y0136274D01*
X0125228Y0134632D01*
X0126485Y0133375D01*
X0128128Y0132695D01*
X0129905Y0132695D01*
X0131548Y0133375D01*
X0132017Y0133844D01*
X0132017Y0130483D01*
X0131548Y0130951D01*
X0129905Y0131632D01*
X0128128Y0131632D01*
X0126485Y0130951D01*
X0125228Y0129694D01*
X0124548Y0128052D01*
X0124548Y0126274D01*
X0125228Y0124632D01*
X0126485Y0123375D01*
X0128128Y0122695D01*
X0129905Y0122695D01*
X0131548Y0123375D01*
X0132017Y0123844D01*
X0132017Y0081663D01*
X0080688Y0081663D01*
X0079517Y0080492D01*
X0079517Y0080492D01*
X0078188Y0079163D01*
X0077017Y0077992D01*
X0077082Y0078058D02*
X0073483Y0078058D01*
X0073069Y0079056D02*
X0078081Y0079056D01*
X0079079Y0080055D02*
X0072445Y0080055D01*
X0071302Y0081053D02*
X0080078Y0081053D01*
X0081517Y0079663D02*
X0136517Y0079663D01*
X0134017Y0082163D01*
X0134017Y0152163D01*
X0129017Y0157163D01*
X0124017Y0162163D01*
X0124017Y0252163D01*
X0129017Y0257163D01*
X0139017Y0257163D01*
X0144017Y0252163D01*
X0144017Y0249959D01*
X0149017Y0244959D01*
X0147002Y0249802D02*
X0159438Y0249802D01*
X0159438Y0250800D02*
X0146017Y0250800D01*
X0146017Y0251799D02*
X0159438Y0251799D01*
X0159438Y0252797D02*
X0146017Y0252797D01*
X0145213Y0253796D02*
X0159438Y0253796D01*
X0159438Y0254794D02*
X0151119Y0254794D01*
X0152390Y0255793D02*
X0159438Y0255793D01*
X0159438Y0256791D02*
X0153040Y0256791D01*
X0153391Y0257790D02*
X0159438Y0257790D01*
X0159438Y0258788D02*
X0149501Y0258788D01*
X0148532Y0258788D02*
X0140220Y0258788D01*
X0141219Y0257790D02*
X0144643Y0257790D01*
X0144993Y0256791D02*
X0142217Y0256791D01*
X0143216Y0255793D02*
X0145643Y0255793D01*
X0146914Y0254794D02*
X0144214Y0254794D01*
X0141553Y0251799D02*
X0126480Y0251799D01*
X0126334Y0250800D02*
X0126017Y0250800D01*
X0127479Y0252797D02*
X0140554Y0252797D01*
X0139556Y0253796D02*
X0128477Y0253796D01*
X0129476Y0254794D02*
X0138557Y0254794D01*
X0142017Y0250800D02*
X0131699Y0250800D01*
X0132698Y0249802D02*
X0142017Y0249802D01*
X0142344Y0248803D02*
X0133174Y0248803D01*
X0133485Y0247804D02*
X0143342Y0247804D01*
X0144341Y0246806D02*
X0133485Y0246806D01*
X0133292Y0245807D02*
X0144548Y0245807D01*
X0144548Y0244809D02*
X0132878Y0244809D01*
X0131983Y0243810D02*
X0144655Y0243810D01*
X0145069Y0242812D02*
X0130188Y0242812D01*
X0131684Y0240815D02*
X0147343Y0240815D01*
X0145842Y0241813D02*
X0126017Y0241813D01*
X0126017Y0240815D02*
X0126349Y0240815D01*
X0126017Y0242812D02*
X0127845Y0242812D01*
X0126050Y0243810D02*
X0126017Y0243810D01*
X0122017Y0243810D02*
X0071983Y0243810D01*
X0072878Y0244809D02*
X0122017Y0244809D01*
X0122017Y0245807D02*
X0073292Y0245807D01*
X0073485Y0246806D02*
X0122017Y0246806D01*
X0122017Y0247804D02*
X0073485Y0247804D01*
X0073174Y0248803D02*
X0122017Y0248803D01*
X0122017Y0249802D02*
X0072698Y0249802D01*
X0071699Y0250800D02*
X0122017Y0250800D01*
X0122017Y0251799D02*
X0066464Y0251799D01*
X0066425Y0252797D02*
X0122017Y0252797D01*
X0122820Y0253796D02*
X0066282Y0253796D01*
X0066138Y0254794D02*
X0123819Y0254794D01*
X0124817Y0255793D02*
X0065995Y0255793D01*
X0065851Y0256791D02*
X0125816Y0256791D01*
X0126814Y0257790D02*
X0065490Y0257790D01*
X0065034Y0258788D02*
X0127813Y0258788D01*
X0122017Y0242812D02*
X0070188Y0242812D01*
X0067845Y0242812D02*
X0063789Y0242812D01*
X0064245Y0243810D02*
X0066050Y0243810D01*
X0065155Y0244809D02*
X0064701Y0244809D01*
X0066321Y0250800D02*
X0066334Y0250800D01*
X0064578Y0259787D02*
X0144659Y0259787D01*
X0145044Y0260785D02*
X0064122Y0260785D01*
X0063601Y0261784D02*
X0145743Y0261784D01*
X0148532Y0257790D02*
X0149501Y0257790D01*
X0149501Y0256791D02*
X0148532Y0256791D01*
X0148532Y0255793D02*
X0149501Y0255793D01*
X0149501Y0254794D02*
X0148532Y0254794D01*
X0151412Y0248803D02*
X0159438Y0248803D01*
X0159438Y0247804D02*
X0152490Y0247804D01*
X0153088Y0246806D02*
X0159438Y0246806D01*
X0159438Y0245807D02*
X0153485Y0245807D01*
X0153485Y0244809D02*
X0159438Y0244809D01*
X0159438Y0243810D02*
X0153378Y0243810D01*
X0152964Y0242812D02*
X0159438Y0242812D01*
X0159438Y0241813D02*
X0152191Y0241813D01*
X0150690Y0240815D02*
X0159438Y0240815D01*
X0159438Y0239816D02*
X0132683Y0239816D01*
X0133168Y0238818D02*
X0159438Y0238818D01*
X0159438Y0237819D02*
X0133485Y0237819D01*
X0133485Y0236821D02*
X0159438Y0236821D01*
X0159438Y0235822D02*
X0133298Y0235822D01*
X0132884Y0234824D02*
X0146342Y0234824D01*
X0146485Y0234967D02*
X0145228Y0233710D01*
X0144548Y0232068D01*
X0144548Y0230290D01*
X0145228Y0228648D01*
X0146485Y0227391D01*
X0148128Y0226710D01*
X0149905Y0226710D01*
X0151548Y0227391D01*
X0152805Y0228648D01*
X0153485Y0230290D01*
X0153485Y0232068D01*
X0152805Y0233710D01*
X0151548Y0234967D01*
X0149905Y0235647D01*
X0148128Y0235647D01*
X0146485Y0234967D01*
X0145343Y0233825D02*
X0131998Y0233825D01*
X0130224Y0232827D02*
X0144862Y0232827D01*
X0144548Y0231828D02*
X0126017Y0231828D01*
X0126017Y0230830D02*
X0126364Y0230830D01*
X0126017Y0232827D02*
X0127809Y0232827D01*
X0126035Y0233825D02*
X0126017Y0233825D01*
X0122017Y0229831D02*
X0072668Y0229831D01*
X0073162Y0228833D02*
X0122017Y0228833D01*
X0122017Y0227834D02*
X0073485Y0227834D01*
X0073485Y0226836D02*
X0122017Y0226836D01*
X0122017Y0225837D02*
X0073304Y0225837D01*
X0072890Y0224839D02*
X0122017Y0224839D01*
X0122017Y0223840D02*
X0072013Y0223840D01*
X0070260Y0222842D02*
X0122017Y0222842D01*
X0126017Y0222842D02*
X0127773Y0222842D01*
X0126020Y0223840D02*
X0126017Y0223840D01*
X0126017Y0221843D02*
X0148068Y0221843D01*
X0149965Y0221843D02*
X0159438Y0221843D01*
X0159438Y0220845D02*
X0151891Y0220845D01*
X0152840Y0219846D02*
X0159438Y0219846D01*
X0159438Y0218848D02*
X0155161Y0218848D01*
X0156159Y0217849D02*
X0159438Y0217849D01*
X0159438Y0216851D02*
X0157158Y0216851D01*
X0158156Y0215852D02*
X0159438Y0215852D01*
X0159438Y0214854D02*
X0159155Y0214854D01*
X0159017Y0212163D02*
X0153780Y0217399D01*
X0149017Y0217399D01*
X0146241Y0213855D02*
X0132028Y0213855D01*
X0132897Y0214854D02*
X0145243Y0214854D01*
X0144821Y0215852D02*
X0133310Y0215852D01*
X0133485Y0216851D02*
X0144548Y0216851D01*
X0144548Y0217849D02*
X0133485Y0217849D01*
X0133155Y0218848D02*
X0144780Y0218848D01*
X0145193Y0219846D02*
X0132653Y0219846D01*
X0131655Y0220845D02*
X0146142Y0220845D01*
X0147825Y0226836D02*
X0133485Y0226836D01*
X0133485Y0227834D02*
X0146042Y0227834D01*
X0145152Y0228833D02*
X0133162Y0228833D01*
X0132668Y0229831D02*
X0144738Y0229831D01*
X0144548Y0230830D02*
X0131669Y0230830D01*
X0133304Y0225837D02*
X0159438Y0225837D01*
X0159438Y0224839D02*
X0132890Y0224839D01*
X0132013Y0223840D02*
X0159438Y0223840D01*
X0159438Y0222842D02*
X0130260Y0222842D01*
X0126379Y0220845D02*
X0126017Y0220845D01*
X0126017Y0212857D02*
X0127737Y0212857D01*
X0126017Y0211858D02*
X0156493Y0211858D01*
X0157017Y0210860D02*
X0131640Y0210860D01*
X0132638Y0209861D02*
X0157017Y0209861D01*
X0157017Y0208863D02*
X0133149Y0208863D01*
X0133485Y0207864D02*
X0147586Y0207864D01*
X0145943Y0206866D02*
X0133485Y0206866D01*
X0133316Y0205867D02*
X0145111Y0205867D01*
X0144697Y0204868D02*
X0132903Y0204868D01*
X0132043Y0203870D02*
X0136122Y0203870D01*
X0135351Y0202871D02*
X0130332Y0202871D01*
X0131625Y0200874D02*
X0135351Y0200874D01*
X0135351Y0199876D02*
X0132623Y0199876D01*
X0133143Y0198877D02*
X0135351Y0198877D01*
X0135392Y0197879D02*
X0133485Y0197879D01*
X0133485Y0196880D02*
X0135825Y0196880D01*
X0135351Y0195882D02*
X0133322Y0195882D01*
X0132909Y0194883D02*
X0135351Y0194883D01*
X0135351Y0193885D02*
X0132058Y0193885D01*
X0130368Y0192886D02*
X0135351Y0192886D01*
X0135351Y0191888D02*
X0126017Y0191888D01*
X0126017Y0192886D02*
X0127665Y0192886D01*
X0126423Y0190889D02*
X0126017Y0190889D01*
X0122017Y0193885D02*
X0072058Y0193885D01*
X0072909Y0194883D02*
X0122017Y0194883D01*
X0122017Y0195882D02*
X0073322Y0195882D01*
X0073485Y0196880D02*
X0122017Y0196880D01*
X0122017Y0197879D02*
X0073485Y0197879D01*
X0073143Y0198877D02*
X0122017Y0198877D01*
X0122017Y0199876D02*
X0072623Y0199876D01*
X0071625Y0200874D02*
X0122017Y0200874D01*
X0122017Y0201873D02*
X0057135Y0201873D01*
X0054474Y0198877D02*
X0022168Y0198877D01*
X0022955Y0199876D02*
X0053475Y0199876D01*
X0055472Y0197879D02*
X0020635Y0197879D01*
X0016319Y0191888D02*
X0008517Y0191888D01*
X0008517Y0190889D02*
X0015321Y0190889D01*
X0014853Y0189891D02*
X0008517Y0189891D01*
X0008517Y0188892D02*
X0014548Y0188892D01*
X0014548Y0187894D02*
X0008517Y0187894D01*
X0008517Y0186895D02*
X0014747Y0186895D01*
X0015161Y0185897D02*
X0008517Y0185897D01*
X0008517Y0184898D02*
X0016064Y0184898D01*
X0017880Y0183900D02*
X0008517Y0183900D01*
X0008517Y0182901D02*
X0050450Y0182901D01*
X0051449Y0181903D02*
X0008517Y0181903D01*
X0008517Y0180904D02*
X0052017Y0180904D01*
X0052017Y0179906D02*
X0008517Y0179906D01*
X0008517Y0178907D02*
X0018013Y0178907D01*
X0020020Y0178907D02*
X0052017Y0178907D01*
X0052017Y0177909D02*
X0021913Y0177909D01*
X0022849Y0176910D02*
X0052017Y0176910D01*
X0052017Y0175912D02*
X0048097Y0175912D01*
X0049095Y0174913D02*
X0052017Y0174913D01*
X0052017Y0173915D02*
X0050094Y0173915D01*
X0051017Y0172916D02*
X0052017Y0172916D01*
X0052017Y0171918D02*
X0051017Y0171918D01*
X0051017Y0170919D02*
X0052017Y0170919D01*
X0052017Y0169921D02*
X0051017Y0169921D01*
X0051017Y0168922D02*
X0052017Y0168922D01*
X0052017Y0167924D02*
X0051017Y0167924D01*
X0051017Y0166925D02*
X0052017Y0166925D01*
X0052017Y0165927D02*
X0051017Y0165927D01*
X0051017Y0164928D02*
X0052017Y0164928D01*
X0052017Y0163930D02*
X0051017Y0163930D01*
X0051017Y0162931D02*
X0052017Y0162931D01*
X0052017Y0161933D02*
X0051017Y0161933D01*
X0051017Y0160934D02*
X0052017Y0160934D01*
X0052017Y0159935D02*
X0051017Y0159935D01*
X0051017Y0158937D02*
X0052017Y0158937D01*
X0052017Y0157938D02*
X0051017Y0157938D01*
X0051017Y0156940D02*
X0052017Y0156940D01*
X0052017Y0155941D02*
X0051017Y0155941D01*
X0051017Y0154943D02*
X0052017Y0154943D01*
X0052017Y0153944D02*
X0051017Y0153944D01*
X0051017Y0152946D02*
X0052017Y0152946D01*
X0052017Y0151947D02*
X0051017Y0151947D01*
X0051017Y0150949D02*
X0052017Y0150949D01*
X0052017Y0149950D02*
X0051017Y0149950D01*
X0051017Y0148952D02*
X0052017Y0148952D01*
X0052017Y0147953D02*
X0051017Y0147953D01*
X0051017Y0146955D02*
X0052017Y0146955D01*
X0052017Y0145956D02*
X0051017Y0145956D01*
X0051017Y0144958D02*
X0052017Y0144958D01*
X0052017Y0143959D02*
X0051017Y0143959D01*
X0051017Y0142961D02*
X0052017Y0142961D01*
X0052017Y0141962D02*
X0051017Y0141962D01*
X0051017Y0140964D02*
X0052017Y0140964D01*
X0052017Y0139965D02*
X0051017Y0139965D01*
X0051017Y0138967D02*
X0052017Y0138967D01*
X0052017Y0137968D02*
X0051017Y0137968D01*
X0051017Y0136970D02*
X0052017Y0136970D01*
X0052017Y0135971D02*
X0051017Y0135971D01*
X0051017Y0134973D02*
X0052017Y0134973D01*
X0052017Y0133974D02*
X0051017Y0133974D01*
X0051017Y0132976D02*
X0052017Y0132976D01*
X0052017Y0131977D02*
X0051017Y0131977D01*
X0051017Y0130979D02*
X0052017Y0130979D01*
X0052017Y0129980D02*
X0051017Y0129980D01*
X0051017Y0128982D02*
X0052017Y0128982D01*
X0052017Y0127983D02*
X0051017Y0127983D01*
X0051017Y0126985D02*
X0052017Y0126985D01*
X0052017Y0125986D02*
X0051017Y0125986D01*
X0051017Y0124988D02*
X0052017Y0124988D01*
X0052017Y0123989D02*
X0051017Y0123989D01*
X0051017Y0122991D02*
X0052017Y0122991D01*
X0052017Y0121992D02*
X0051017Y0121992D01*
X0051017Y0120994D02*
X0052017Y0120994D01*
X0052017Y0119995D02*
X0051017Y0119995D01*
X0051017Y0118997D02*
X0052017Y0118997D01*
X0052017Y0117998D02*
X0051017Y0117998D01*
X0051017Y0116999D02*
X0052017Y0116999D01*
X0052017Y0116001D02*
X0051017Y0116001D01*
X0051017Y0115002D02*
X0052017Y0115002D01*
X0052017Y0114004D02*
X0051017Y0114004D01*
X0051017Y0113005D02*
X0052017Y0113005D01*
X0052017Y0112007D02*
X0051017Y0112007D01*
X0051017Y0111008D02*
X0052017Y0111008D01*
X0052017Y0110010D02*
X0051017Y0110010D01*
X0051017Y0109011D02*
X0052017Y0109011D01*
X0052017Y0108013D02*
X0051017Y0108013D01*
X0051017Y0107014D02*
X0052017Y0107014D01*
X0052017Y0106016D02*
X0051017Y0106016D01*
X0051017Y0105017D02*
X0052017Y0105017D01*
X0052017Y0104019D02*
X0051017Y0104019D01*
X0051017Y0103020D02*
X0052017Y0103020D01*
X0052017Y0102022D02*
X0051017Y0102022D01*
X0051017Y0101023D02*
X0052017Y0101023D01*
X0052017Y0100025D02*
X0051017Y0100025D01*
X0051017Y0099026D02*
X0052017Y0099026D01*
X0052017Y0098028D02*
X0051017Y0098028D01*
X0051017Y0097029D02*
X0052017Y0097029D01*
X0052017Y0096031D02*
X0051017Y0096031D01*
X0051017Y0095032D02*
X0052017Y0095032D01*
X0052017Y0094034D02*
X0051017Y0094034D01*
X0051017Y0093035D02*
X0052017Y0093035D01*
X0052017Y0092037D02*
X0051017Y0092037D01*
X0051017Y0091038D02*
X0052313Y0091038D01*
X0053312Y0090040D02*
X0051017Y0090040D01*
X0051017Y0089041D02*
X0054310Y0089041D01*
X0055309Y0088043D02*
X0051017Y0088043D01*
X0051017Y0087044D02*
X0056307Y0087044D01*
X0057306Y0086046D02*
X0051017Y0086046D01*
X0051017Y0085047D02*
X0065056Y0085047D01*
X0065812Y0084049D02*
X0051017Y0084049D01*
X0047017Y0084049D02*
X0046017Y0084049D01*
X0046017Y0085047D02*
X0047017Y0085047D01*
X0047017Y0086046D02*
X0046017Y0086046D01*
X0046017Y0087044D02*
X0047017Y0087044D01*
X0047017Y0088043D02*
X0046017Y0088043D01*
X0046017Y0089041D02*
X0047017Y0089041D01*
X0047017Y0090040D02*
X0046017Y0090040D01*
X0046017Y0091038D02*
X0047017Y0091038D01*
X0047017Y0092037D02*
X0046017Y0092037D01*
X0046017Y0093035D02*
X0047017Y0093035D01*
X0047017Y0094034D02*
X0046017Y0094034D01*
X0046017Y0095032D02*
X0047017Y0095032D01*
X0047017Y0096031D02*
X0046017Y0096031D01*
X0046017Y0097029D02*
X0047017Y0097029D01*
X0047017Y0098028D02*
X0046017Y0098028D01*
X0046017Y0099026D02*
X0047017Y0099026D01*
X0047017Y0100025D02*
X0046017Y0100025D01*
X0046017Y0101023D02*
X0047017Y0101023D01*
X0047017Y0102022D02*
X0046017Y0102022D01*
X0046017Y0103020D02*
X0047017Y0103020D01*
X0047017Y0104019D02*
X0046017Y0104019D01*
X0046017Y0105017D02*
X0047017Y0105017D01*
X0047017Y0106016D02*
X0046017Y0106016D01*
X0046017Y0107014D02*
X0047017Y0107014D01*
X0047017Y0108013D02*
X0046017Y0108013D01*
X0046017Y0109011D02*
X0047017Y0109011D01*
X0047017Y0110010D02*
X0046017Y0110010D01*
X0046017Y0111008D02*
X0047017Y0111008D01*
X0047017Y0112007D02*
X0046017Y0112007D01*
X0046017Y0113005D02*
X0047017Y0113005D01*
X0047017Y0114004D02*
X0046017Y0114004D01*
X0046017Y0115002D02*
X0047017Y0115002D01*
X0047017Y0116001D02*
X0046017Y0116001D01*
X0046017Y0116999D02*
X0047017Y0116999D01*
X0047017Y0117998D02*
X0046017Y0117998D01*
X0046017Y0118997D02*
X0047017Y0118997D01*
X0047017Y0119995D02*
X0046017Y0119995D01*
X0046017Y0120994D02*
X0047017Y0120994D01*
X0047017Y0121992D02*
X0046017Y0121992D01*
X0046017Y0122991D02*
X0047017Y0122991D01*
X0047017Y0123989D02*
X0046017Y0123989D01*
X0046017Y0124988D02*
X0047017Y0124988D01*
X0047017Y0125986D02*
X0046017Y0125986D01*
X0046017Y0126985D02*
X0047017Y0126985D01*
X0047017Y0127983D02*
X0046017Y0127983D01*
X0046017Y0128982D02*
X0047017Y0128982D01*
X0047017Y0129980D02*
X0046017Y0129980D01*
X0046017Y0130979D02*
X0047017Y0130979D01*
X0047017Y0131977D02*
X0046017Y0131977D01*
X0046017Y0132976D02*
X0047017Y0132976D01*
X0047017Y0133974D02*
X0046017Y0133974D01*
X0046017Y0134973D02*
X0047017Y0134973D01*
X0047017Y0135971D02*
X0046017Y0135971D01*
X0046017Y0136970D02*
X0047017Y0136970D01*
X0047017Y0137968D02*
X0046017Y0137968D01*
X0046017Y0138967D02*
X0047017Y0138967D01*
X0047017Y0139965D02*
X0046017Y0139965D01*
X0046017Y0140964D02*
X0047017Y0140964D01*
X0047017Y0141962D02*
X0046017Y0141962D01*
X0046017Y0142961D02*
X0047017Y0142961D01*
X0047017Y0143959D02*
X0046017Y0143959D01*
X0046017Y0144958D02*
X0047017Y0144958D01*
X0047017Y0145956D02*
X0046017Y0145956D01*
X0046017Y0146955D02*
X0047017Y0146955D01*
X0047017Y0147953D02*
X0046017Y0147953D01*
X0046017Y0148952D02*
X0047017Y0148952D01*
X0047017Y0149950D02*
X0046017Y0149950D01*
X0046017Y0150949D02*
X0047017Y0150949D01*
X0047017Y0151947D02*
X0046017Y0151947D01*
X0046017Y0152946D02*
X0047017Y0152946D01*
X0047017Y0153944D02*
X0046017Y0153944D01*
X0046017Y0154943D02*
X0047017Y0154943D01*
X0047017Y0155941D02*
X0046017Y0155941D01*
X0046017Y0156940D02*
X0047017Y0156940D01*
X0047017Y0157938D02*
X0046017Y0157938D01*
X0046017Y0157992D02*
X0044845Y0159163D01*
X0041302Y0162707D01*
X0023025Y0162707D01*
X0022805Y0163238D01*
X0021548Y0164495D01*
X0019905Y0165175D01*
X0018128Y0165175D01*
X0016485Y0164495D01*
X0015228Y0163238D01*
X0014548Y0161595D01*
X0014548Y0159818D01*
X0015228Y0158175D01*
X0016485Y0156918D01*
X0018128Y0156238D01*
X0019905Y0156238D01*
X0021548Y0156918D01*
X0022805Y0158175D01*
X0023025Y0158707D01*
X0039645Y0158707D01*
X0042017Y0156335D01*
X0042017Y0051335D01*
X0047017Y0046335D01*
X0048188Y0045163D01*
X0065008Y0045163D01*
X0065228Y0044632D01*
X0066485Y0043375D01*
X0068128Y0042695D01*
X0069905Y0042695D01*
X0071548Y0043375D01*
X0072805Y0044632D01*
X0073485Y0046274D01*
X0073485Y0048052D01*
X0072805Y0049694D01*
X0071548Y0050951D01*
X0069905Y0051632D01*
X0068128Y0051632D01*
X0066485Y0050951D01*
X0065228Y0049694D01*
X0065008Y0049163D01*
X0049845Y0049163D01*
X0046017Y0052992D01*
X0046017Y0157992D01*
X0045071Y0158937D02*
X0047017Y0158937D01*
X0047017Y0159935D02*
X0044073Y0159935D01*
X0043074Y0160934D02*
X0047017Y0160934D01*
X0047017Y0161933D02*
X0042076Y0161933D01*
X0040473Y0160707D02*
X0044017Y0157163D01*
X0044017Y0052163D01*
X0049017Y0047163D01*
X0069017Y0047163D01*
X0070907Y0043110D02*
X0077017Y0043110D01*
X0077017Y0044108D02*
X0072281Y0044108D01*
X0073001Y0045107D02*
X0077017Y0045107D01*
X0077017Y0046105D02*
X0073415Y0046105D01*
X0073485Y0047104D02*
X0077017Y0047104D01*
X0077017Y0048102D02*
X0073464Y0048102D01*
X0073051Y0049101D02*
X0077017Y0049101D01*
X0077017Y0050099D02*
X0072400Y0050099D01*
X0071195Y0051098D02*
X0077017Y0051098D01*
X0077017Y0052096D02*
X0046912Y0052096D01*
X0046017Y0053095D02*
X0067162Y0053095D01*
X0065767Y0054093D02*
X0046017Y0054093D01*
X0046017Y0055092D02*
X0065038Y0055092D01*
X0066839Y0051098D02*
X0047910Y0051098D01*
X0048909Y0050099D02*
X0065633Y0050099D01*
X0065032Y0045107D02*
X0043902Y0045107D01*
X0042903Y0046105D02*
X0047246Y0046105D01*
X0046248Y0047104D02*
X0041904Y0047104D01*
X0041017Y0048102D02*
X0045249Y0048102D01*
X0044251Y0049101D02*
X0041017Y0049101D01*
X0041017Y0050099D02*
X0043252Y0050099D01*
X0042254Y0051098D02*
X0041017Y0051098D01*
X0041017Y0052096D02*
X0042017Y0052096D01*
X0042017Y0053095D02*
X0041017Y0053095D01*
X0041017Y0054093D02*
X0042017Y0054093D01*
X0042017Y0055092D02*
X0041017Y0055092D01*
X0041017Y0056090D02*
X0042017Y0056090D01*
X0042017Y0057089D02*
X0041017Y0057089D01*
X0041017Y0058087D02*
X0042017Y0058087D01*
X0042017Y0059086D02*
X0041017Y0059086D01*
X0041017Y0060084D02*
X0042017Y0060084D01*
X0042017Y0061083D02*
X0041017Y0061083D01*
X0041017Y0062081D02*
X0042017Y0062081D01*
X0042017Y0063080D02*
X0041017Y0063080D01*
X0041017Y0064078D02*
X0042017Y0064078D01*
X0042017Y0065077D02*
X0041017Y0065077D01*
X0041017Y0066075D02*
X0042017Y0066075D01*
X0042017Y0067074D02*
X0041017Y0067074D01*
X0041017Y0068072D02*
X0042017Y0068072D01*
X0042017Y0069071D02*
X0041017Y0069071D01*
X0041017Y0070069D02*
X0042017Y0070069D01*
X0042017Y0071068D02*
X0041017Y0071068D01*
X0041017Y0072066D02*
X0042017Y0072066D01*
X0042017Y0073065D02*
X0041017Y0073065D01*
X0041017Y0074064D02*
X0042017Y0074064D01*
X0042017Y0075062D02*
X0041017Y0075062D01*
X0041017Y0076061D02*
X0042017Y0076061D01*
X0042017Y0077059D02*
X0041017Y0077059D01*
X0041017Y0078058D02*
X0042017Y0078058D01*
X0042017Y0079056D02*
X0041017Y0079056D01*
X0041017Y0080055D02*
X0042017Y0080055D01*
X0042017Y0081053D02*
X0041017Y0081053D01*
X0041017Y0082052D02*
X0042017Y0082052D01*
X0042017Y0083050D02*
X0040958Y0083050D01*
X0039960Y0084049D02*
X0042017Y0084049D01*
X0042017Y0085047D02*
X0038961Y0085047D01*
X0037963Y0086046D02*
X0042017Y0086046D01*
X0042017Y0087044D02*
X0036964Y0087044D01*
X0035966Y0088043D02*
X0042017Y0088043D01*
X0042017Y0089041D02*
X0034967Y0089041D01*
X0034017Y0087163D02*
X0039017Y0082163D01*
X0039017Y0047163D01*
X0044017Y0042163D01*
X0064017Y0042163D01*
X0069017Y0037163D01*
X0074017Y0037163D01*
X0079017Y0042163D01*
X0079017Y0077163D01*
X0081517Y0079663D01*
X0081741Y0077059D02*
X0135765Y0077059D01*
X0137268Y0077059D02*
X0159438Y0077059D01*
X0159438Y0076061D02*
X0081017Y0076061D01*
X0081017Y0075062D02*
X0159438Y0075062D01*
X0159438Y0074064D02*
X0081017Y0074064D01*
X0081017Y0073065D02*
X0159438Y0073065D01*
X0159438Y0072066D02*
X0081017Y0072066D01*
X0081017Y0071068D02*
X0126767Y0071068D01*
X0126485Y0070951D02*
X0128128Y0071632D01*
X0129905Y0071632D01*
X0131548Y0070951D01*
X0132805Y0069694D01*
X0133485Y0068052D01*
X0133485Y0066274D01*
X0132805Y0064632D01*
X0131548Y0063375D01*
X0129905Y0062695D01*
X0128128Y0062695D01*
X0126485Y0063375D01*
X0125228Y0064632D01*
X0124548Y0066274D01*
X0124548Y0068052D01*
X0125228Y0069694D01*
X0126485Y0070951D01*
X0125603Y0070069D02*
X0081017Y0070069D01*
X0081017Y0069071D02*
X0124970Y0069071D01*
X0124556Y0068072D02*
X0081017Y0068072D01*
X0081017Y0067074D02*
X0124548Y0067074D01*
X0124630Y0066075D02*
X0081017Y0066075D01*
X0081017Y0065077D02*
X0125044Y0065077D01*
X0125782Y0064078D02*
X0081017Y0064078D01*
X0081017Y0063080D02*
X0127198Y0063080D01*
X0128128Y0061632D02*
X0126485Y0060951D01*
X0125228Y0059694D01*
X0124548Y0058052D01*
X0124548Y0056274D01*
X0125228Y0054632D01*
X0126485Y0053375D01*
X0128128Y0052695D01*
X0129905Y0052695D01*
X0131548Y0053375D01*
X0132805Y0054632D01*
X0133485Y0056274D01*
X0133485Y0058052D01*
X0132805Y0059694D01*
X0131548Y0060951D01*
X0129905Y0061632D01*
X0128128Y0061632D01*
X0126803Y0061083D02*
X0081017Y0061083D01*
X0081017Y0062081D02*
X0159438Y0062081D01*
X0159438Y0061083D02*
X0131230Y0061083D01*
X0132415Y0060084D02*
X0159438Y0060084D01*
X0159438Y0059086D02*
X0133057Y0059086D01*
X0133470Y0058087D02*
X0159438Y0058087D01*
X0159438Y0057089D02*
X0133485Y0057089D01*
X0133409Y0056090D02*
X0159438Y0056090D01*
X0159438Y0055092D02*
X0132995Y0055092D01*
X0132266Y0054093D02*
X0159438Y0054093D01*
X0159438Y0053095D02*
X0130871Y0053095D01*
X0129905Y0051632D02*
X0131548Y0050951D01*
X0132805Y0049694D01*
X0133485Y0048052D01*
X0133485Y0046274D01*
X0132805Y0044632D01*
X0131548Y0043375D01*
X0129905Y0042695D01*
X0128128Y0042695D01*
X0126485Y0043375D01*
X0125228Y0044632D01*
X0124548Y0046274D01*
X0124548Y0048052D01*
X0125228Y0049694D01*
X0126485Y0050951D01*
X0128128Y0051632D01*
X0129905Y0051632D01*
X0131195Y0051098D02*
X0159438Y0051098D01*
X0159438Y0052096D02*
X0081017Y0052096D01*
X0081017Y0051098D02*
X0126839Y0051098D01*
X0125633Y0050099D02*
X0081017Y0050099D01*
X0081017Y0049101D02*
X0124982Y0049101D01*
X0124569Y0048102D02*
X0081017Y0048102D01*
X0081017Y0047104D02*
X0124548Y0047104D01*
X0124618Y0046105D02*
X0081017Y0046105D01*
X0081017Y0045107D02*
X0125032Y0045107D01*
X0125752Y0044108D02*
X0081017Y0044108D01*
X0081017Y0043110D02*
X0127126Y0043110D01*
X0128128Y0041632D02*
X0126485Y0040951D01*
X0125228Y0039694D01*
X0124548Y0038052D01*
X0124548Y0036274D01*
X0125228Y0034632D01*
X0126485Y0033375D01*
X0128128Y0032695D01*
X0129905Y0032695D01*
X0131548Y0033375D01*
X0132805Y0034632D01*
X0133485Y0036274D01*
X0133485Y0038052D01*
X0132805Y0039694D01*
X0131548Y0040951D01*
X0129905Y0041632D01*
X0128128Y0041632D01*
X0126874Y0041113D02*
X0080794Y0041113D01*
X0081017Y0042111D02*
X0159438Y0042111D01*
X0159438Y0041113D02*
X0131159Y0041113D01*
X0132385Y0040114D02*
X0159438Y0040114D01*
X0159438Y0039116D02*
X0152765Y0039116D01*
X0156166Y0038117D02*
X0159438Y0038117D01*
X0159438Y0037119D02*
X0157785Y0037119D01*
X0159339Y0036120D02*
X0159438Y0036120D01*
X0159438Y0043110D02*
X0130907Y0043110D01*
X0132281Y0044108D02*
X0159438Y0044108D01*
X0159438Y0045107D02*
X0133001Y0045107D01*
X0133415Y0046105D02*
X0159438Y0046105D01*
X0159438Y0047104D02*
X0133485Y0047104D01*
X0133464Y0048102D02*
X0159438Y0048102D01*
X0159438Y0049101D02*
X0133051Y0049101D01*
X0132400Y0050099D02*
X0159438Y0050099D01*
X0159438Y0063080D02*
X0130835Y0063080D01*
X0132251Y0064078D02*
X0159438Y0064078D01*
X0159438Y0065077D02*
X0132989Y0065077D01*
X0133403Y0066075D02*
X0159438Y0066075D01*
X0159438Y0067074D02*
X0133485Y0067074D01*
X0133477Y0068072D02*
X0159438Y0068072D01*
X0159438Y0069071D02*
X0133063Y0069071D01*
X0132430Y0070069D02*
X0159438Y0070069D01*
X0159438Y0071068D02*
X0131266Y0071068D01*
X0125618Y0060084D02*
X0081017Y0060084D01*
X0081017Y0059086D02*
X0124976Y0059086D01*
X0124563Y0058087D02*
X0081017Y0058087D01*
X0081017Y0057089D02*
X0124548Y0057089D01*
X0124624Y0056090D02*
X0081017Y0056090D01*
X0081017Y0055092D02*
X0125038Y0055092D01*
X0125767Y0054093D02*
X0081017Y0054093D01*
X0081017Y0053095D02*
X0127162Y0053095D01*
X0125648Y0040114D02*
X0079796Y0040114D01*
X0078797Y0039116D02*
X0124989Y0039116D01*
X0124575Y0038117D02*
X0077799Y0038117D01*
X0076800Y0037119D02*
X0124548Y0037119D01*
X0124612Y0036120D02*
X0075802Y0036120D01*
X0073007Y0035122D02*
X0125026Y0035122D01*
X0125737Y0034123D02*
X0072296Y0034123D01*
X0070943Y0033125D02*
X0127090Y0033125D01*
X0126910Y0031128D02*
X0071079Y0031128D01*
X0071359Y0030985D02*
X0070732Y0031304D01*
X0070063Y0031522D01*
X0069501Y0031611D01*
X0069501Y0027648D01*
X0068532Y0027648D01*
X0068532Y0031611D01*
X0067970Y0031522D01*
X0067301Y0031304D01*
X0066675Y0030985D01*
X0066105Y0030572D01*
X0065608Y0030074D01*
X0065195Y0029505D01*
X0064875Y0028879D01*
X0064658Y0028210D01*
X0064569Y0027648D01*
X0068532Y0027648D01*
X0068532Y0026679D01*
X0064569Y0026679D01*
X0064658Y0026117D01*
X0064875Y0025448D01*
X0065195Y0024821D01*
X0065608Y0024252D01*
X0066105Y0023755D01*
X0066675Y0023341D01*
X0067301Y0023022D01*
X0067970Y0022805D01*
X0068532Y0022716D01*
X0068532Y0026679D01*
X0069501Y0026679D01*
X0069501Y0027648D01*
X0073464Y0027648D01*
X0073375Y0028210D01*
X0073158Y0028879D01*
X0072838Y0029505D01*
X0072425Y0030074D01*
X0071928Y0030572D01*
X0071359Y0030985D01*
X0072370Y0030129D02*
X0125663Y0030129D01*
X0124995Y0029130D02*
X0073029Y0029130D01*
X0073387Y0028132D02*
X0124581Y0028132D01*
X0124548Y0027133D02*
X0069501Y0027133D01*
X0069501Y0026679D02*
X0073464Y0026679D01*
X0073375Y0026117D01*
X0073158Y0025448D01*
X0072838Y0024821D01*
X0072425Y0024252D01*
X0071928Y0023755D01*
X0071359Y0023341D01*
X0070732Y0023022D01*
X0070063Y0022805D01*
X0069501Y0022716D01*
X0069501Y0026679D01*
X0069501Y0026135D02*
X0068532Y0026135D01*
X0068532Y0027133D02*
X0061017Y0027133D01*
X0061017Y0026135D02*
X0064655Y0026135D01*
X0065034Y0025136D02*
X0061017Y0025136D01*
X0061017Y0024138D02*
X0065722Y0024138D01*
X0067071Y0023139D02*
X0061017Y0023139D01*
X0061017Y0022992D02*
X0061017Y0032992D01*
X0056017Y0037992D01*
X0054845Y0039163D01*
X0039845Y0039163D01*
X0036017Y0042992D01*
X0036017Y0052992D01*
X0031017Y0057992D01*
X0029845Y0059163D01*
X0023485Y0059163D01*
X0023485Y0060753D01*
X0022606Y0061632D01*
X0015427Y0061632D01*
X0014548Y0060753D01*
X0014548Y0053573D01*
X0015427Y0052695D01*
X0022606Y0052695D01*
X0023485Y0053573D01*
X0023485Y0055163D01*
X0028188Y0055163D01*
X0032017Y0051335D01*
X0032017Y0041335D01*
X0033188Y0040163D01*
X0037017Y0036335D01*
X0038188Y0035163D01*
X0053188Y0035163D01*
X0057017Y0031335D01*
X0057017Y0023634D01*
X0056937Y0023879D01*
X0056618Y0024505D01*
X0056204Y0025074D01*
X0055707Y0025572D01*
X0055138Y0025985D01*
X0054511Y0026304D01*
X0053842Y0026522D01*
X0053280Y0026611D01*
X0053280Y0022648D01*
X0052312Y0022648D01*
X0052312Y0026611D01*
X0051750Y0026522D01*
X0051081Y0026304D01*
X0050454Y0025985D01*
X0049885Y0025572D01*
X0049388Y0025074D01*
X0048974Y0024505D01*
X0048655Y0023879D01*
X0048438Y0023210D01*
X0048349Y0022648D01*
X0052312Y0022648D01*
X0052312Y0021679D01*
X0053280Y0021679D01*
X0053280Y0017716D01*
X0053842Y0017805D01*
X0054511Y0018022D01*
X0055138Y0018341D01*
X0055707Y0018755D01*
X0056204Y0019252D01*
X0056618Y0019821D01*
X0056937Y0020448D01*
X0057155Y0021117D01*
X0057165Y0021186D01*
X0058188Y0020163D01*
X0063188Y0015163D01*
X0065008Y0015163D01*
X0065228Y0014632D01*
X0066485Y0013375D01*
X0068128Y0012695D01*
X0069905Y0012695D01*
X0071548Y0013375D01*
X0072805Y0014632D01*
X0073485Y0016274D01*
X0073485Y0018052D01*
X0072805Y0019694D01*
X0071548Y0020951D01*
X0069905Y0021632D01*
X0068128Y0021632D01*
X0066485Y0020951D01*
X0065228Y0019694D01*
X0065008Y0019163D01*
X0064845Y0019163D01*
X0061017Y0022992D01*
X0061867Y0022141D02*
X0131520Y0022141D01*
X0131657Y0023139D02*
X0130979Y0023139D01*
X0129501Y0021142D02*
X0128532Y0021142D01*
X0128532Y0020144D02*
X0129501Y0020144D01*
X0129501Y0019145D02*
X0128532Y0019145D01*
X0128532Y0018147D02*
X0129501Y0018147D01*
X0128532Y0017148D02*
X0073485Y0017148D01*
X0073433Y0016150D02*
X0124548Y0016150D01*
X0124548Y0015151D02*
X0073020Y0015151D01*
X0072326Y0014153D02*
X0124548Y0014153D01*
X0124967Y0013154D02*
X0071015Y0013154D01*
X0067018Y0013154D02*
X0033945Y0013154D01*
X0034401Y0014153D02*
X0065708Y0014153D01*
X0065013Y0015151D02*
X0034857Y0015151D01*
X0035313Y0016150D02*
X0062202Y0016150D01*
X0061203Y0017148D02*
X0035769Y0017148D01*
X0033265Y0012156D02*
X0134768Y0012156D01*
X0134088Y0013154D02*
X0133066Y0013154D01*
X0133485Y0014153D02*
X0133632Y0014153D01*
X0129501Y0014153D02*
X0128532Y0014153D01*
X0128532Y0015151D02*
X0129501Y0015151D01*
X0129501Y0016150D02*
X0128532Y0016150D01*
X0128532Y0013154D02*
X0129501Y0013154D01*
X0124548Y0018147D02*
X0073446Y0018147D01*
X0073032Y0019145D02*
X0124548Y0019145D01*
X0124548Y0020144D02*
X0072355Y0020144D01*
X0071087Y0021142D02*
X0124937Y0021142D01*
X0127054Y0023139D02*
X0070962Y0023139D01*
X0069501Y0023139D02*
X0068532Y0023139D01*
X0068532Y0024138D02*
X0069501Y0024138D01*
X0069501Y0025136D02*
X0068532Y0025136D01*
X0068532Y0028132D02*
X0069501Y0028132D01*
X0069501Y0029130D02*
X0068532Y0029130D01*
X0068532Y0030129D02*
X0069501Y0030129D01*
X0069501Y0031128D02*
X0068532Y0031128D01*
X0066954Y0031128D02*
X0061017Y0031128D01*
X0061017Y0032126D02*
X0134729Y0032126D01*
X0134068Y0031128D02*
X0131123Y0031128D01*
X0132370Y0030129D02*
X0133612Y0030129D01*
X0133156Y0029130D02*
X0133038Y0029130D01*
X0130943Y0033125D02*
X0135594Y0033125D01*
X0136460Y0034123D02*
X0132296Y0034123D01*
X0133008Y0035122D02*
X0137325Y0035122D01*
X0138694Y0036120D02*
X0133421Y0036120D01*
X0133485Y0037119D02*
X0140248Y0037119D01*
X0141867Y0038117D02*
X0133458Y0038117D01*
X0133045Y0039116D02*
X0145268Y0039116D01*
X0125019Y0025136D02*
X0072999Y0025136D01*
X0073378Y0026135D02*
X0124606Y0026135D01*
X0125722Y0024138D02*
X0072311Y0024138D01*
X0069017Y0017163D02*
X0064017Y0017163D01*
X0059017Y0022163D01*
X0059017Y0032163D01*
X0054017Y0037163D01*
X0039017Y0037163D01*
X0034017Y0042163D01*
X0034017Y0052163D01*
X0029017Y0057163D01*
X0019017Y0057163D01*
X0014548Y0057089D02*
X0008517Y0057089D01*
X0008517Y0058087D02*
X0014548Y0058087D01*
X0014548Y0059086D02*
X0008517Y0059086D01*
X0008517Y0060084D02*
X0014548Y0060084D01*
X0014878Y0061083D02*
X0008517Y0061083D01*
X0008517Y0062081D02*
X0037017Y0062081D01*
X0037017Y0061083D02*
X0023155Y0061083D01*
X0023485Y0060084D02*
X0037017Y0060084D01*
X0037017Y0059086D02*
X0029922Y0059086D01*
X0030921Y0058087D02*
X0037017Y0058087D01*
X0037017Y0057089D02*
X0031919Y0057089D01*
X0032918Y0056090D02*
X0037017Y0056090D01*
X0037017Y0055092D02*
X0033916Y0055092D01*
X0034915Y0054093D02*
X0037017Y0054093D01*
X0037017Y0053095D02*
X0035913Y0053095D01*
X0036017Y0052096D02*
X0037017Y0052096D01*
X0037017Y0051098D02*
X0036017Y0051098D01*
X0036017Y0050099D02*
X0037017Y0050099D01*
X0037017Y0049101D02*
X0036017Y0049101D01*
X0036017Y0048102D02*
X0037017Y0048102D01*
X0037017Y0047104D02*
X0036017Y0047104D01*
X0036017Y0046105D02*
X0037246Y0046105D01*
X0038245Y0045107D02*
X0036017Y0045107D01*
X0036017Y0044108D02*
X0039243Y0044108D01*
X0040242Y0043110D02*
X0036017Y0043110D01*
X0036897Y0042111D02*
X0041240Y0042111D01*
X0042239Y0041113D02*
X0037896Y0041113D01*
X0038894Y0040114D02*
X0063237Y0040114D01*
X0064236Y0039116D02*
X0054893Y0039116D01*
X0055891Y0038117D02*
X0064575Y0038117D01*
X0064548Y0037119D02*
X0056890Y0037119D01*
X0057888Y0036120D02*
X0064612Y0036120D01*
X0065026Y0035122D02*
X0058887Y0035122D01*
X0059885Y0034123D02*
X0065737Y0034123D01*
X0067090Y0033125D02*
X0060884Y0033125D01*
X0061017Y0030129D02*
X0065663Y0030129D01*
X0065004Y0029130D02*
X0061017Y0029130D01*
X0061017Y0028132D02*
X0064646Y0028132D01*
X0062866Y0021142D02*
X0066946Y0021142D01*
X0065678Y0020144D02*
X0063864Y0020144D01*
X0060204Y0018147D02*
X0054756Y0018147D01*
X0053280Y0018147D02*
X0052312Y0018147D01*
X0052312Y0017716D02*
X0052312Y0021679D01*
X0048349Y0021679D01*
X0048438Y0021117D01*
X0048655Y0020448D01*
X0048974Y0019821D01*
X0049388Y0019252D01*
X0049885Y0018755D01*
X0050454Y0018341D01*
X0051081Y0018022D01*
X0051750Y0017805D01*
X0052312Y0017716D01*
X0052312Y0019145D02*
X0053280Y0019145D01*
X0053280Y0020144D02*
X0052312Y0020144D01*
X0052312Y0021142D02*
X0053280Y0021142D01*
X0052312Y0022141D02*
X0043485Y0022141D01*
X0043485Y0023139D02*
X0048426Y0023139D01*
X0048787Y0024138D02*
X0043485Y0024138D01*
X0043485Y0025136D02*
X0049450Y0025136D01*
X0050748Y0026135D02*
X0043103Y0026135D01*
X0043485Y0021142D02*
X0048434Y0021142D01*
X0048810Y0020144D02*
X0043485Y0020144D01*
X0043485Y0019145D02*
X0049495Y0019145D01*
X0050836Y0018147D02*
X0043058Y0018147D01*
X0035789Y0027133D02*
X0057017Y0027133D01*
X0057017Y0026135D02*
X0054844Y0026135D01*
X0053280Y0026135D02*
X0052312Y0026135D01*
X0052312Y0025136D02*
X0053280Y0025136D01*
X0053280Y0024138D02*
X0052312Y0024138D01*
X0052312Y0023139D02*
X0053280Y0023139D01*
X0056142Y0025136D02*
X0057017Y0025136D01*
X0057017Y0024138D02*
X0056805Y0024138D01*
X0057159Y0021142D02*
X0057209Y0021142D01*
X0056782Y0020144D02*
X0058207Y0020144D01*
X0059206Y0019145D02*
X0056098Y0019145D01*
X0057017Y0028132D02*
X0035333Y0028132D01*
X0034877Y0029130D02*
X0057017Y0029130D01*
X0057017Y0030129D02*
X0034421Y0030129D01*
X0033965Y0031128D02*
X0057017Y0031128D01*
X0056225Y0032126D02*
X0033304Y0032126D01*
X0032439Y0033125D02*
X0055227Y0033125D01*
X0054228Y0034123D02*
X0031573Y0034123D01*
X0030708Y0035122D02*
X0053230Y0035122D01*
X0064900Y0044108D02*
X0065752Y0044108D01*
X0065899Y0043110D02*
X0067126Y0043110D01*
X0066897Y0042111D02*
X0076136Y0042111D01*
X0075138Y0041113D02*
X0071159Y0041113D01*
X0072385Y0040114D02*
X0074139Y0040114D01*
X0077017Y0053095D02*
X0070871Y0053095D01*
X0072266Y0054093D02*
X0077017Y0054093D01*
X0077017Y0055092D02*
X0072995Y0055092D01*
X0073409Y0056090D02*
X0077017Y0056090D01*
X0077017Y0057089D02*
X0073485Y0057089D01*
X0073470Y0058087D02*
X0077017Y0058087D01*
X0077017Y0059086D02*
X0073057Y0059086D01*
X0072415Y0060084D02*
X0077017Y0060084D01*
X0069017Y0057163D02*
X0054017Y0057163D01*
X0049017Y0062163D01*
X0049017Y0172163D01*
X0046694Y0174486D01*
X0019017Y0174486D01*
X0016264Y0170919D02*
X0008517Y0170919D01*
X0008517Y0169921D02*
X0047017Y0169921D01*
X0047017Y0170919D02*
X0021769Y0170919D01*
X0022767Y0171918D02*
X0046434Y0171918D01*
X0047017Y0168922D02*
X0008517Y0168922D01*
X0008517Y0167924D02*
X0047017Y0167924D01*
X0047017Y0166925D02*
X0008517Y0166925D01*
X0008517Y0165927D02*
X0047017Y0165927D01*
X0047017Y0164928D02*
X0020502Y0164928D01*
X0022113Y0163930D02*
X0047017Y0163930D01*
X0047017Y0162931D02*
X0022932Y0162931D01*
X0022568Y0157938D02*
X0040413Y0157938D01*
X0041411Y0156940D02*
X0021569Y0156940D01*
X0019017Y0160707D02*
X0040473Y0160707D01*
X0042017Y0155941D02*
X0008517Y0155941D01*
X0008517Y0154943D02*
X0042017Y0154943D01*
X0042017Y0153944D02*
X0008517Y0153944D01*
X0008517Y0152946D02*
X0042017Y0152946D01*
X0042017Y0151947D02*
X0008517Y0151947D01*
X0008517Y0150949D02*
X0017049Y0150949D01*
X0016485Y0150715D02*
X0015228Y0149458D01*
X0014548Y0147816D01*
X0014548Y0146038D01*
X0015228Y0144396D01*
X0016485Y0143139D01*
X0018128Y0142459D01*
X0019905Y0142459D01*
X0021548Y0143139D01*
X0022805Y0144396D01*
X0023485Y0146038D01*
X0023485Y0147816D01*
X0022805Y0149458D01*
X0021548Y0150715D01*
X0019905Y0151396D01*
X0018128Y0151396D01*
X0016485Y0150715D01*
X0015720Y0149950D02*
X0008517Y0149950D01*
X0008517Y0148952D02*
X0015019Y0148952D01*
X0014605Y0147953D02*
X0008517Y0147953D01*
X0008517Y0146955D02*
X0014548Y0146955D01*
X0014582Y0145956D02*
X0008517Y0145956D01*
X0008517Y0144958D02*
X0014996Y0144958D01*
X0015665Y0143959D02*
X0008517Y0143959D01*
X0008517Y0142961D02*
X0016915Y0142961D01*
X0018128Y0137616D02*
X0016485Y0136936D01*
X0015228Y0135679D01*
X0014548Y0134036D01*
X0014548Y0132259D01*
X0015228Y0130616D01*
X0016485Y0129359D01*
X0018128Y0128679D01*
X0019905Y0128679D01*
X0021548Y0129359D01*
X0022805Y0130616D01*
X0023485Y0132259D01*
X0023485Y0134036D01*
X0022805Y0135679D01*
X0021548Y0136936D01*
X0019905Y0137616D01*
X0018128Y0137616D01*
X0016567Y0136970D02*
X0008517Y0136970D01*
X0008517Y0137968D02*
X0042017Y0137968D01*
X0042017Y0136970D02*
X0021466Y0136970D01*
X0022512Y0135971D02*
X0042017Y0135971D01*
X0042017Y0134973D02*
X0023097Y0134973D01*
X0023485Y0133974D02*
X0042017Y0133974D01*
X0042017Y0132976D02*
X0023485Y0132976D01*
X0023368Y0131977D02*
X0042017Y0131977D01*
X0042017Y0130979D02*
X0022955Y0130979D01*
X0022169Y0129980D02*
X0042017Y0129980D01*
X0042017Y0128982D02*
X0020636Y0128982D01*
X0017397Y0128982D02*
X0008517Y0128982D01*
X0008517Y0129980D02*
X0015864Y0129980D01*
X0015078Y0130979D02*
X0008517Y0130979D01*
X0008517Y0131977D02*
X0014665Y0131977D01*
X0014548Y0132976D02*
X0008517Y0132976D01*
X0008517Y0133974D02*
X0014548Y0133974D01*
X0014936Y0134973D02*
X0008517Y0134973D01*
X0008517Y0135971D02*
X0015521Y0135971D01*
X0008517Y0138967D02*
X0042017Y0138967D01*
X0042017Y0139965D02*
X0008517Y0139965D01*
X0008517Y0140964D02*
X0042017Y0140964D01*
X0042017Y0141962D02*
X0008517Y0141962D01*
X0008517Y0127983D02*
X0042017Y0127983D01*
X0042017Y0126985D02*
X0008517Y0126985D01*
X0008517Y0125986D02*
X0042017Y0125986D01*
X0042017Y0124988D02*
X0008517Y0124988D01*
X0008517Y0123989D02*
X0042017Y0123989D01*
X0042017Y0122991D02*
X0021713Y0122991D01*
X0022712Y0121992D02*
X0042017Y0121992D01*
X0042017Y0120994D02*
X0023180Y0120994D01*
X0023485Y0119995D02*
X0042017Y0119995D01*
X0042017Y0118997D02*
X0023485Y0118997D01*
X0023286Y0117998D02*
X0042017Y0117998D01*
X0042017Y0116999D02*
X0022872Y0116999D01*
X0021969Y0116001D02*
X0042017Y0116001D01*
X0042017Y0115002D02*
X0020154Y0115002D01*
X0017879Y0115002D02*
X0017479Y0115002D01*
X0016481Y0114004D02*
X0042017Y0114004D01*
X0042017Y0113005D02*
X0016017Y0113005D01*
X0016017Y0112007D02*
X0042017Y0112007D01*
X0042017Y0111008D02*
X0016017Y0111008D01*
X0016017Y0110010D02*
X0018368Y0110010D01*
X0018532Y0110010D02*
X0019501Y0110010D01*
X0019501Y0110036D02*
X0019501Y0106073D01*
X0023464Y0106073D01*
X0023375Y0106635D01*
X0023158Y0107304D01*
X0022838Y0107930D01*
X0022425Y0108499D01*
X0021928Y0108997D01*
X0021359Y0109410D01*
X0020732Y0109730D01*
X0020063Y0109947D01*
X0019501Y0110036D01*
X0019665Y0110010D02*
X0042017Y0110010D01*
X0042017Y0109011D02*
X0021908Y0109011D01*
X0022778Y0108013D02*
X0042017Y0108013D01*
X0042017Y0107014D02*
X0023252Y0107014D01*
X0023464Y0105104D02*
X0019501Y0105104D01*
X0019501Y0101141D01*
X0020063Y0101230D01*
X0020732Y0101447D01*
X0021359Y0101767D01*
X0021928Y0102180D01*
X0022425Y0102677D01*
X0022838Y0103246D01*
X0023158Y0103873D01*
X0023375Y0104542D01*
X0023464Y0105104D01*
X0023450Y0105017D02*
X0042017Y0105017D01*
X0042017Y0104019D02*
X0023205Y0104019D01*
X0022674Y0103020D02*
X0042017Y0103020D01*
X0042017Y0102022D02*
X0021710Y0102022D01*
X0019501Y0102022D02*
X0018532Y0102022D01*
X0018532Y0103020D02*
X0019501Y0103020D01*
X0019501Y0104019D02*
X0018532Y0104019D01*
X0018532Y0105017D02*
X0019501Y0105017D01*
X0019501Y0106016D02*
X0042017Y0106016D01*
X0042017Y0101023D02*
X0016017Y0101023D01*
X0016017Y0100025D02*
X0042017Y0100025D01*
X0042017Y0099026D02*
X0016017Y0099026D01*
X0016017Y0098028D02*
X0042017Y0098028D01*
X0042017Y0097029D02*
X0016017Y0097029D01*
X0016017Y0096031D02*
X0042017Y0096031D01*
X0042017Y0095032D02*
X0016017Y0095032D01*
X0016017Y0094034D02*
X0042017Y0094034D01*
X0042017Y0093035D02*
X0016017Y0093035D01*
X0016971Y0092037D02*
X0042017Y0092037D01*
X0042017Y0091038D02*
X0023200Y0091038D01*
X0023485Y0090040D02*
X0042017Y0090040D01*
X0046017Y0083050D02*
X0047017Y0083050D01*
X0047017Y0082052D02*
X0046017Y0082052D01*
X0046017Y0081053D02*
X0047017Y0081053D01*
X0047017Y0080055D02*
X0046017Y0080055D01*
X0046017Y0079056D02*
X0047017Y0079056D01*
X0047017Y0078058D02*
X0046017Y0078058D01*
X0046017Y0077059D02*
X0047017Y0077059D01*
X0047017Y0076061D02*
X0046017Y0076061D01*
X0046017Y0075062D02*
X0047017Y0075062D01*
X0047017Y0074064D02*
X0046017Y0074064D01*
X0046017Y0073065D02*
X0047017Y0073065D01*
X0047017Y0072066D02*
X0046017Y0072066D01*
X0046017Y0071068D02*
X0047017Y0071068D01*
X0047017Y0070069D02*
X0046017Y0070069D01*
X0046017Y0069071D02*
X0047017Y0069071D01*
X0047017Y0068072D02*
X0046017Y0068072D01*
X0046017Y0067074D02*
X0047017Y0067074D01*
X0047017Y0066075D02*
X0046017Y0066075D01*
X0046017Y0065077D02*
X0047017Y0065077D01*
X0047017Y0064078D02*
X0046017Y0064078D01*
X0046017Y0063080D02*
X0047017Y0063080D01*
X0047017Y0062081D02*
X0046017Y0062081D01*
X0046017Y0061083D02*
X0047268Y0061083D01*
X0048267Y0060084D02*
X0046017Y0060084D01*
X0046017Y0059086D02*
X0049266Y0059086D01*
X0050264Y0058087D02*
X0046017Y0058087D01*
X0046017Y0057089D02*
X0051263Y0057089D01*
X0052261Y0056090D02*
X0046017Y0056090D01*
X0052925Y0061083D02*
X0066803Y0061083D01*
X0065618Y0060084D02*
X0053924Y0060084D01*
X0037017Y0063080D02*
X0008517Y0063080D01*
X0008517Y0064078D02*
X0037017Y0064078D01*
X0037017Y0065077D02*
X0008517Y0065077D01*
X0008517Y0066075D02*
X0037017Y0066075D01*
X0037017Y0067074D02*
X0008517Y0067074D01*
X0008517Y0068072D02*
X0037017Y0068072D01*
X0037017Y0069071D02*
X0020204Y0069071D01*
X0020063Y0069025D02*
X0020732Y0069243D01*
X0021359Y0069562D01*
X0021928Y0069975D01*
X0022425Y0070473D01*
X0022838Y0071042D01*
X0023158Y0071668D01*
X0023375Y0072337D01*
X0023464Y0072899D01*
X0019501Y0072899D01*
X0019501Y0068936D01*
X0020063Y0069025D01*
X0019501Y0069071D02*
X0018532Y0069071D01*
X0018532Y0068936D02*
X0018532Y0072899D01*
X0019501Y0072899D01*
X0019501Y0073868D01*
X0023464Y0073868D01*
X0023375Y0074430D01*
X0023158Y0075099D01*
X0022838Y0075726D01*
X0022425Y0076295D01*
X0021928Y0076792D01*
X0021359Y0077206D01*
X0020732Y0077525D01*
X0020063Y0077742D01*
X0019501Y0077831D01*
X0019501Y0073868D01*
X0018532Y0073868D01*
X0018532Y0072899D01*
X0014569Y0072899D01*
X0014658Y0072337D01*
X0014875Y0071668D01*
X0015195Y0071042D01*
X0015608Y0070473D01*
X0016105Y0069975D01*
X0016675Y0069562D01*
X0017301Y0069243D01*
X0017970Y0069025D01*
X0018532Y0068936D01*
X0017829Y0069071D02*
X0008517Y0069071D01*
X0008517Y0070069D02*
X0016011Y0070069D01*
X0015181Y0071068D02*
X0008517Y0071068D01*
X0008517Y0072066D02*
X0014746Y0072066D01*
X0014569Y0073868D02*
X0018532Y0073868D01*
X0018532Y0077831D01*
X0017970Y0077742D01*
X0017301Y0077525D01*
X0016675Y0077206D01*
X0016105Y0076792D01*
X0015608Y0076295D01*
X0015195Y0075726D01*
X0014875Y0075099D01*
X0014658Y0074430D01*
X0014569Y0073868D01*
X0014600Y0074064D02*
X0008517Y0074064D01*
X0008517Y0075062D02*
X0014863Y0075062D01*
X0015438Y0076061D02*
X0008517Y0076061D01*
X0008517Y0077059D02*
X0016473Y0077059D01*
X0018532Y0077059D02*
X0019501Y0077059D01*
X0019501Y0076061D02*
X0018532Y0076061D01*
X0018532Y0075062D02*
X0019501Y0075062D01*
X0019501Y0074064D02*
X0018532Y0074064D01*
X0018532Y0073065D02*
X0008517Y0073065D01*
X0008517Y0078058D02*
X0037017Y0078058D01*
X0037017Y0079056D02*
X0008517Y0079056D01*
X0008517Y0080055D02*
X0037017Y0080055D01*
X0037017Y0081053D02*
X0008517Y0081053D01*
X0008517Y0082052D02*
X0036300Y0082052D01*
X0035301Y0083050D02*
X0022962Y0083050D01*
X0023485Y0084049D02*
X0034303Y0084049D01*
X0033304Y0085047D02*
X0023485Y0085047D01*
X0019017Y0087163D02*
X0014017Y0092163D01*
X0014017Y0114368D01*
X0019017Y0119368D01*
X0016320Y0122991D02*
X0008517Y0122991D01*
X0008517Y0121992D02*
X0015321Y0121992D01*
X0014853Y0120994D02*
X0008517Y0120994D01*
X0008517Y0119995D02*
X0014548Y0119995D01*
X0014548Y0118997D02*
X0008517Y0118997D01*
X0008517Y0117998D02*
X0014747Y0117998D01*
X0013820Y0116999D02*
X0008517Y0116999D01*
X0008517Y0116001D02*
X0012821Y0116001D01*
X0012017Y0115002D02*
X0008517Y0115002D01*
X0008517Y0114004D02*
X0012017Y0114004D01*
X0012017Y0113005D02*
X0008517Y0113005D01*
X0008517Y0112007D02*
X0012017Y0112007D01*
X0012017Y0111008D02*
X0008517Y0111008D01*
X0008517Y0110010D02*
X0012017Y0110010D01*
X0012017Y0109011D02*
X0008517Y0109011D01*
X0008517Y0108013D02*
X0012017Y0108013D01*
X0012017Y0107014D02*
X0008517Y0107014D01*
X0008517Y0106016D02*
X0012017Y0106016D01*
X0012017Y0105017D02*
X0008517Y0105017D01*
X0008517Y0104019D02*
X0012017Y0104019D01*
X0012017Y0103020D02*
X0008517Y0103020D01*
X0008517Y0102022D02*
X0012017Y0102022D01*
X0012017Y0101023D02*
X0008517Y0101023D01*
X0008517Y0100025D02*
X0012017Y0100025D01*
X0012017Y0099026D02*
X0008517Y0099026D01*
X0008517Y0098028D02*
X0012017Y0098028D01*
X0012017Y0097029D02*
X0008517Y0097029D01*
X0008517Y0096031D02*
X0012017Y0096031D01*
X0012017Y0095032D02*
X0008517Y0095032D01*
X0008517Y0094034D02*
X0012017Y0094034D01*
X0012017Y0093035D02*
X0008517Y0093035D01*
X0008517Y0092037D02*
X0012017Y0092037D01*
X0012313Y0091038D02*
X0008517Y0091038D01*
X0008517Y0090040D02*
X0013312Y0090040D01*
X0014310Y0089041D02*
X0008517Y0089041D01*
X0008517Y0088043D02*
X0014548Y0088043D01*
X0014548Y0087044D02*
X0008517Y0087044D01*
X0008517Y0086046D02*
X0014548Y0086046D01*
X0014548Y0085047D02*
X0008517Y0085047D01*
X0008517Y0084049D02*
X0014548Y0084049D01*
X0015071Y0083050D02*
X0008517Y0083050D01*
X0019017Y0087163D02*
X0034017Y0087163D01*
X0037017Y0077059D02*
X0021560Y0077059D01*
X0022595Y0076061D02*
X0037017Y0076061D01*
X0037017Y0075062D02*
X0023170Y0075062D01*
X0023433Y0074064D02*
X0037017Y0074064D01*
X0037017Y0073065D02*
X0019501Y0073065D01*
X0019501Y0072066D02*
X0018532Y0072066D01*
X0018532Y0071068D02*
X0019501Y0071068D01*
X0019501Y0070069D02*
X0018532Y0070069D01*
X0022022Y0070069D02*
X0037017Y0070069D01*
X0037017Y0071068D02*
X0022852Y0071068D01*
X0023287Y0072066D02*
X0037017Y0072066D01*
X0028260Y0055092D02*
X0023485Y0055092D01*
X0023485Y0054093D02*
X0029258Y0054093D01*
X0030257Y0053095D02*
X0023006Y0053095D01*
X0021499Y0047104D02*
X0032017Y0047104D01*
X0032017Y0048102D02*
X0008517Y0048102D01*
X0008517Y0047104D02*
X0016534Y0047104D01*
X0015470Y0046105D02*
X0008517Y0046105D01*
X0008517Y0045107D02*
X0014879Y0045107D01*
X0014607Y0044108D02*
X0008517Y0044108D01*
X0008517Y0043110D02*
X0018532Y0043110D01*
X0019501Y0043110D02*
X0032017Y0043110D01*
X0032017Y0044108D02*
X0023426Y0044108D01*
X0023154Y0045107D02*
X0032017Y0045107D01*
X0032017Y0046105D02*
X0022563Y0046105D01*
X0019501Y0046105D02*
X0018532Y0046105D01*
X0018532Y0045107D02*
X0019501Y0045107D01*
X0019501Y0044108D02*
X0018532Y0044108D01*
X0018532Y0047104D02*
X0019501Y0047104D01*
X0023302Y0042111D02*
X0032017Y0042111D01*
X0032239Y0041113D02*
X0022874Y0041113D01*
X0022066Y0040114D02*
X0033237Y0040114D01*
X0033188Y0040163D02*
X0033188Y0040163D01*
X0034236Y0039116D02*
X0022765Y0039116D01*
X0026166Y0038117D02*
X0035234Y0038117D01*
X0036233Y0037119D02*
X0027785Y0037119D01*
X0029339Y0036120D02*
X0037231Y0036120D01*
X0037017Y0036335D02*
X0037017Y0036335D01*
X0032017Y0049101D02*
X0008517Y0049101D01*
X0008517Y0050099D02*
X0032017Y0050099D01*
X0032017Y0051098D02*
X0008517Y0051098D01*
X0008517Y0052096D02*
X0031255Y0052096D01*
X0015967Y0040114D02*
X0008517Y0040114D01*
X0008517Y0039116D02*
X0015268Y0039116D01*
X0015159Y0041113D02*
X0008517Y0041113D01*
X0008517Y0042111D02*
X0014732Y0042111D01*
X0011867Y0038117D02*
X0008517Y0038117D01*
X0008517Y0037119D02*
X0010248Y0037119D01*
X0008694Y0036120D02*
X0008517Y0036120D01*
X0008517Y0053095D02*
X0015027Y0053095D01*
X0014548Y0054093D02*
X0008517Y0054093D01*
X0008517Y0055092D02*
X0014548Y0055092D01*
X0014548Y0056090D02*
X0008517Y0056090D01*
X0016017Y0102022D02*
X0016323Y0102022D01*
X0018532Y0107014D02*
X0019501Y0107014D01*
X0019501Y0108013D02*
X0018532Y0108013D01*
X0018532Y0109011D02*
X0019501Y0109011D01*
X0016126Y0109011D02*
X0016017Y0109011D01*
X0021118Y0142961D02*
X0042017Y0142961D01*
X0042017Y0143959D02*
X0022368Y0143959D01*
X0023038Y0144958D02*
X0042017Y0144958D01*
X0042017Y0145956D02*
X0023451Y0145956D01*
X0023485Y0146955D02*
X0042017Y0146955D01*
X0042017Y0147953D02*
X0023428Y0147953D01*
X0023014Y0148952D02*
X0042017Y0148952D01*
X0042017Y0149950D02*
X0022313Y0149950D01*
X0020984Y0150949D02*
X0042017Y0150949D01*
X0056017Y0171918D02*
X0057017Y0171918D01*
X0057017Y0172916D02*
X0056017Y0172916D01*
X0056017Y0173915D02*
X0057017Y0173915D01*
X0057017Y0174913D02*
X0056017Y0174913D01*
X0056017Y0175912D02*
X0057017Y0175912D01*
X0057017Y0176910D02*
X0056017Y0176910D01*
X0056017Y0177909D02*
X0057017Y0177909D01*
X0057017Y0178907D02*
X0056017Y0178907D01*
X0056017Y0179906D02*
X0057017Y0179906D01*
X0057017Y0180904D02*
X0056017Y0180904D01*
X0056017Y0181903D02*
X0057017Y0181903D01*
X0057017Y0182901D02*
X0056017Y0182901D01*
X0055108Y0183900D02*
X0057017Y0183900D01*
X0057017Y0184898D02*
X0054110Y0184898D01*
X0054845Y0184163D02*
X0054845Y0184163D01*
X0053111Y0185897D02*
X0057017Y0185897D01*
X0057017Y0186895D02*
X0052113Y0186895D01*
X0051114Y0187894D02*
X0057017Y0187894D01*
X0057017Y0188892D02*
X0050116Y0188892D01*
X0051017Y0187992D02*
X0051017Y0187992D01*
X0049452Y0183900D02*
X0020153Y0183900D01*
X0021969Y0184898D02*
X0048453Y0184898D01*
X0061017Y0184898D02*
X0065118Y0184898D01*
X0064704Y0185897D02*
X0061017Y0185897D01*
X0061017Y0186895D02*
X0064548Y0186895D01*
X0064548Y0187894D02*
X0061017Y0187894D01*
X0061017Y0188892D02*
X0064896Y0188892D01*
X0065425Y0189891D02*
X0061017Y0189891D01*
X0061017Y0190889D02*
X0066423Y0190889D01*
X0065961Y0183900D02*
X0061017Y0183900D01*
X0071595Y0180904D02*
X0122017Y0180904D01*
X0122017Y0179906D02*
X0072593Y0179906D01*
X0073131Y0178907D02*
X0122017Y0178907D01*
X0122017Y0177909D02*
X0073485Y0177909D01*
X0073485Y0176910D02*
X0122017Y0176910D01*
X0122017Y0175912D02*
X0073335Y0175912D01*
X0072921Y0174913D02*
X0122017Y0174913D01*
X0122017Y0173915D02*
X0072087Y0173915D01*
X0071429Y0160934D02*
X0122417Y0160934D01*
X0123416Y0159935D02*
X0072526Y0159935D01*
X0073128Y0158937D02*
X0124414Y0158937D01*
X0124548Y0157938D02*
X0073418Y0157938D01*
X0073464Y0156679D02*
X0069501Y0156679D01*
X0069501Y0152716D01*
X0070063Y0152805D01*
X0070732Y0153022D01*
X0071359Y0153341D01*
X0071928Y0153755D01*
X0072425Y0154252D01*
X0072838Y0154821D01*
X0073158Y0155448D01*
X0073375Y0156117D01*
X0073464Y0156679D01*
X0073318Y0155941D02*
X0124686Y0155941D01*
X0124548Y0156940D02*
X0069501Y0156940D01*
X0069501Y0155941D02*
X0068532Y0155941D01*
X0068532Y0154943D02*
X0069501Y0154943D01*
X0069501Y0153944D02*
X0068532Y0153944D01*
X0068532Y0152946D02*
X0069501Y0152946D01*
X0070497Y0152946D02*
X0127521Y0152946D01*
X0125916Y0153944D02*
X0072117Y0153944D01*
X0072900Y0154943D02*
X0125100Y0154943D01*
X0126483Y0150949D02*
X0071550Y0150949D01*
X0071548Y0150951D02*
X0069905Y0151632D01*
X0068128Y0151632D01*
X0066485Y0150951D01*
X0065228Y0149694D01*
X0064548Y0148052D01*
X0064548Y0146274D01*
X0065228Y0144632D01*
X0066485Y0143375D01*
X0068128Y0142695D01*
X0069905Y0142695D01*
X0071548Y0143375D01*
X0072805Y0144632D01*
X0073485Y0146274D01*
X0073485Y0148052D01*
X0072805Y0149694D01*
X0071548Y0150951D01*
X0072549Y0149950D02*
X0125484Y0149950D01*
X0124921Y0148952D02*
X0073112Y0148952D01*
X0073485Y0147953D02*
X0124548Y0147953D01*
X0124548Y0146955D02*
X0073485Y0146955D01*
X0073353Y0145956D02*
X0124680Y0145956D01*
X0125093Y0144958D02*
X0072940Y0144958D01*
X0072132Y0143959D02*
X0125901Y0143959D01*
X0127485Y0142961D02*
X0070548Y0142961D01*
X0067485Y0142961D02*
X0061017Y0142961D01*
X0061017Y0143959D02*
X0065901Y0143959D01*
X0065093Y0144958D02*
X0061017Y0144958D01*
X0061017Y0145956D02*
X0064680Y0145956D01*
X0064548Y0146955D02*
X0061017Y0146955D01*
X0061017Y0147953D02*
X0064548Y0147953D01*
X0064921Y0148952D02*
X0061017Y0148952D01*
X0061017Y0149950D02*
X0065484Y0149950D01*
X0066483Y0150949D02*
X0061017Y0150949D01*
X0061017Y0151947D02*
X0131404Y0151947D01*
X0131550Y0150949D02*
X0132017Y0150949D01*
X0135064Y0153944D02*
X0159438Y0153944D01*
X0159438Y0152946D02*
X0149964Y0152946D01*
X0149905Y0152970D02*
X0148128Y0152970D01*
X0146485Y0152290D01*
X0145228Y0151033D01*
X0144548Y0149391D01*
X0144548Y0147613D01*
X0145228Y0145971D01*
X0146485Y0144714D01*
X0148128Y0144033D01*
X0149905Y0144033D01*
X0151548Y0144714D01*
X0152805Y0145971D01*
X0153485Y0147613D01*
X0153485Y0149391D01*
X0152805Y0151033D01*
X0151548Y0152290D01*
X0149905Y0152970D01*
X0148069Y0152946D02*
X0136017Y0152946D01*
X0136017Y0151947D02*
X0146143Y0151947D01*
X0145193Y0150949D02*
X0136017Y0150949D01*
X0136017Y0149950D02*
X0144780Y0149950D01*
X0144548Y0148952D02*
X0136017Y0148952D01*
X0136017Y0147953D02*
X0144548Y0147953D01*
X0144821Y0146955D02*
X0136017Y0146955D01*
X0136017Y0145956D02*
X0145243Y0145956D01*
X0146241Y0144958D02*
X0136017Y0144958D01*
X0136017Y0143959D02*
X0159438Y0143959D01*
X0159438Y0142961D02*
X0136017Y0142961D01*
X0136017Y0141962D02*
X0159438Y0141962D01*
X0159438Y0140964D02*
X0136017Y0140964D01*
X0136017Y0139965D02*
X0159438Y0139965D01*
X0159438Y0138967D02*
X0150446Y0138967D01*
X0149905Y0139191D02*
X0148128Y0139191D01*
X0146485Y0138511D01*
X0145228Y0137254D01*
X0144548Y0135611D01*
X0144548Y0133833D01*
X0145228Y0132191D01*
X0146485Y0130934D01*
X0148128Y0130254D01*
X0149905Y0130254D01*
X0151548Y0130934D01*
X0152805Y0132191D01*
X0153485Y0133833D01*
X0153485Y0135611D01*
X0152805Y0137254D01*
X0151548Y0138511D01*
X0149905Y0139191D01*
X0147587Y0138967D02*
X0136017Y0138967D01*
X0136017Y0137968D02*
X0145943Y0137968D01*
X0145111Y0136970D02*
X0136017Y0136970D01*
X0136017Y0135971D02*
X0144697Y0135971D01*
X0144548Y0134973D02*
X0136017Y0134973D01*
X0136017Y0133974D02*
X0144548Y0133974D01*
X0144903Y0132976D02*
X0136017Y0132976D01*
X0136017Y0131977D02*
X0145442Y0131977D01*
X0146441Y0130979D02*
X0136017Y0130979D01*
X0136017Y0129980D02*
X0159438Y0129980D01*
X0159438Y0128982D02*
X0136017Y0128982D01*
X0136017Y0127983D02*
X0159438Y0127983D01*
X0159438Y0126985D02*
X0136017Y0126985D01*
X0136017Y0125986D02*
X0159438Y0125986D01*
X0159438Y0124988D02*
X0150928Y0124988D01*
X0151548Y0124731D02*
X0149905Y0125411D01*
X0148128Y0125411D01*
X0146485Y0124731D01*
X0145228Y0123474D01*
X0144548Y0121832D01*
X0144548Y0120054D01*
X0145228Y0118412D01*
X0146485Y0117155D01*
X0148128Y0116474D01*
X0149905Y0116474D01*
X0151548Y0117155D01*
X0152805Y0118412D01*
X0153485Y0120054D01*
X0153485Y0121832D01*
X0152805Y0123474D01*
X0151548Y0124731D01*
X0152290Y0123989D02*
X0159438Y0123989D01*
X0159438Y0122991D02*
X0153005Y0122991D01*
X0153419Y0121992D02*
X0159438Y0121992D01*
X0159438Y0120994D02*
X0153485Y0120994D01*
X0153461Y0119995D02*
X0159438Y0119995D01*
X0159438Y0118997D02*
X0153047Y0118997D01*
X0152391Y0117998D02*
X0159438Y0117998D01*
X0159438Y0116999D02*
X0151173Y0116999D01*
X0152606Y0111632D02*
X0153485Y0110753D01*
X0153485Y0103573D01*
X0152606Y0102695D01*
X0145427Y0102695D01*
X0144548Y0103573D01*
X0144548Y0110753D01*
X0145427Y0111632D01*
X0152606Y0111632D01*
X0153230Y0111008D02*
X0159438Y0111008D01*
X0159438Y0110010D02*
X0153485Y0110010D01*
X0153485Y0109011D02*
X0159438Y0109011D01*
X0159438Y0108013D02*
X0153485Y0108013D01*
X0153485Y0107014D02*
X0159438Y0107014D01*
X0159438Y0106016D02*
X0153485Y0106016D01*
X0153485Y0105017D02*
X0159438Y0105017D01*
X0159438Y0104019D02*
X0153485Y0104019D01*
X0152932Y0103020D02*
X0159438Y0103020D01*
X0159438Y0102022D02*
X0136017Y0102022D01*
X0136017Y0103020D02*
X0145101Y0103020D01*
X0144548Y0104019D02*
X0136017Y0104019D01*
X0136017Y0105017D02*
X0144548Y0105017D01*
X0144548Y0106016D02*
X0136017Y0106016D01*
X0136017Y0107014D02*
X0144548Y0107014D01*
X0144548Y0108013D02*
X0136017Y0108013D01*
X0136017Y0109011D02*
X0144548Y0109011D01*
X0144548Y0110010D02*
X0136017Y0110010D01*
X0136017Y0111008D02*
X0144803Y0111008D01*
X0146860Y0116999D02*
X0136017Y0116999D01*
X0136017Y0116001D02*
X0159438Y0116001D01*
X0159438Y0115002D02*
X0136017Y0115002D01*
X0136017Y0114004D02*
X0159438Y0114004D01*
X0159438Y0113005D02*
X0136017Y0113005D01*
X0136017Y0112007D02*
X0159438Y0112007D01*
X0159438Y0101023D02*
X0136017Y0101023D01*
X0136017Y0100025D02*
X0159438Y0100025D01*
X0159438Y0099026D02*
X0136017Y0099026D01*
X0136017Y0098028D02*
X0159438Y0098028D01*
X0159438Y0097029D02*
X0136017Y0097029D01*
X0136017Y0096031D02*
X0159438Y0096031D01*
X0159438Y0095032D02*
X0136017Y0095032D01*
X0136017Y0094034D02*
X0159438Y0094034D01*
X0159438Y0093035D02*
X0136017Y0093035D01*
X0136017Y0092037D02*
X0159438Y0092037D01*
X0159438Y0091038D02*
X0136017Y0091038D01*
X0136017Y0090040D02*
X0159438Y0090040D01*
X0159438Y0089041D02*
X0136017Y0089041D01*
X0136017Y0088043D02*
X0159438Y0088043D01*
X0159438Y0087044D02*
X0136017Y0087044D01*
X0136017Y0086046D02*
X0159438Y0086046D01*
X0159438Y0085047D02*
X0136017Y0085047D01*
X0136017Y0084049D02*
X0159438Y0084049D01*
X0159438Y0083050D02*
X0136017Y0083050D01*
X0137790Y0082052D02*
X0159438Y0082052D01*
X0159438Y0081053D02*
X0138856Y0081053D01*
X0139210Y0080055D02*
X0159438Y0080055D01*
X0159438Y0079056D02*
X0139181Y0079056D01*
X0138720Y0078058D02*
X0159438Y0078058D01*
X0145642Y0117998D02*
X0136017Y0117998D01*
X0136017Y0118997D02*
X0144986Y0118997D01*
X0144572Y0119995D02*
X0136017Y0119995D01*
X0136017Y0120994D02*
X0144548Y0120994D01*
X0144614Y0121992D02*
X0136017Y0121992D01*
X0136017Y0122991D02*
X0145028Y0122991D01*
X0145743Y0123989D02*
X0136017Y0123989D01*
X0136017Y0124988D02*
X0147105Y0124988D01*
X0151592Y0130979D02*
X0159438Y0130979D01*
X0159438Y0131977D02*
X0152591Y0131977D01*
X0153130Y0132976D02*
X0159438Y0132976D01*
X0159438Y0133974D02*
X0153485Y0133974D01*
X0153485Y0134973D02*
X0159438Y0134973D01*
X0159438Y0135971D02*
X0153336Y0135971D01*
X0152922Y0136970D02*
X0159438Y0136970D01*
X0159438Y0137968D02*
X0152090Y0137968D01*
X0151792Y0144958D02*
X0159438Y0144958D01*
X0159438Y0145956D02*
X0152790Y0145956D01*
X0153212Y0146955D02*
X0159438Y0146955D01*
X0159438Y0147953D02*
X0153485Y0147953D01*
X0153485Y0148952D02*
X0159438Y0148952D01*
X0159438Y0149950D02*
X0153253Y0149950D01*
X0152840Y0150949D02*
X0159438Y0150949D01*
X0159438Y0151947D02*
X0151890Y0151947D01*
X0149905Y0157813D02*
X0148128Y0157813D01*
X0146485Y0158493D01*
X0145228Y0159750D01*
X0144548Y0161393D01*
X0144548Y0163170D01*
X0145228Y0164813D01*
X0146485Y0166070D01*
X0148128Y0166750D01*
X0149905Y0166750D01*
X0151548Y0166070D01*
X0152805Y0164813D01*
X0153485Y0163170D01*
X0153485Y0161393D01*
X0152805Y0159750D01*
X0151548Y0158493D01*
X0149905Y0157813D01*
X0150209Y0157938D02*
X0159438Y0157938D01*
X0159438Y0156940D02*
X0133485Y0156940D01*
X0133485Y0157938D02*
X0147824Y0157938D01*
X0146041Y0158937D02*
X0133119Y0158937D01*
X0132564Y0159935D02*
X0145152Y0159935D01*
X0144738Y0160934D02*
X0131565Y0160934D01*
X0130476Y0162931D02*
X0144548Y0162931D01*
X0144548Y0161933D02*
X0127076Y0161933D01*
X0127557Y0162931D02*
X0126077Y0162931D01*
X0126017Y0170919D02*
X0126453Y0170919D01*
X0126017Y0171918D02*
X0147342Y0171918D01*
X0148128Y0171592D02*
X0146485Y0172273D01*
X0145228Y0173530D01*
X0144548Y0175172D01*
X0144548Y0176950D01*
X0145228Y0178592D01*
X0146485Y0179849D01*
X0148128Y0180529D01*
X0149905Y0180529D01*
X0151548Y0179849D01*
X0152805Y0178592D01*
X0153485Y0176950D01*
X0153485Y0175172D01*
X0152805Y0173530D01*
X0151548Y0172273D01*
X0149905Y0171592D01*
X0148128Y0171592D01*
X0150691Y0171918D02*
X0159438Y0171918D01*
X0159438Y0172916D02*
X0152191Y0172916D01*
X0152964Y0173915D02*
X0159438Y0173915D01*
X0159438Y0174913D02*
X0153378Y0174913D01*
X0153485Y0175912D02*
X0159438Y0175912D01*
X0159438Y0176910D02*
X0153485Y0176910D01*
X0153088Y0177909D02*
X0159438Y0177909D01*
X0159438Y0178907D02*
X0152490Y0178907D01*
X0151411Y0179906D02*
X0159438Y0179906D01*
X0159438Y0180904D02*
X0131595Y0180904D01*
X0132593Y0179906D02*
X0146622Y0179906D01*
X0145543Y0178907D02*
X0133131Y0178907D01*
X0133485Y0177909D02*
X0144945Y0177909D01*
X0144548Y0176910D02*
X0133485Y0176910D01*
X0133335Y0175912D02*
X0144548Y0175912D01*
X0144655Y0174913D02*
X0132921Y0174913D01*
X0132087Y0173915D02*
X0145069Y0173915D01*
X0145842Y0172916D02*
X0130440Y0172916D01*
X0131580Y0170919D02*
X0159438Y0170919D01*
X0159438Y0169921D02*
X0132579Y0169921D01*
X0133125Y0168922D02*
X0159438Y0168922D01*
X0159438Y0167924D02*
X0133485Y0167924D01*
X0133485Y0166925D02*
X0159438Y0166925D01*
X0159438Y0165927D02*
X0151691Y0165927D01*
X0152689Y0164928D02*
X0159438Y0164928D01*
X0159438Y0163930D02*
X0153171Y0163930D01*
X0153485Y0162931D02*
X0159438Y0162931D01*
X0159438Y0161933D02*
X0153485Y0161933D01*
X0153295Y0160934D02*
X0159438Y0160934D01*
X0159438Y0159935D02*
X0152881Y0159935D01*
X0151992Y0158937D02*
X0159438Y0158937D01*
X0159438Y0155941D02*
X0133347Y0155941D01*
X0134065Y0154943D02*
X0159438Y0154943D01*
X0146342Y0165927D02*
X0133341Y0165927D01*
X0132927Y0164928D02*
X0145344Y0164928D01*
X0144863Y0163930D02*
X0132102Y0163930D01*
X0127593Y0172916D02*
X0126017Y0172916D01*
X0126017Y0180904D02*
X0126438Y0180904D01*
X0126017Y0181903D02*
X0159438Y0181903D01*
X0159438Y0182901D02*
X0130404Y0182901D01*
X0132072Y0183900D02*
X0159438Y0183900D01*
X0159438Y0184898D02*
X0132915Y0184898D01*
X0133329Y0185897D02*
X0146861Y0185897D01*
X0145642Y0186895D02*
X0133485Y0186895D01*
X0133485Y0187894D02*
X0144986Y0187894D01*
X0144573Y0188892D02*
X0133137Y0188892D01*
X0132608Y0189891D02*
X0144548Y0189891D01*
X0144614Y0190889D02*
X0142344Y0190889D01*
X0145040Y0193817D02*
X0139017Y0193817D01*
X0142682Y0195882D02*
X0152230Y0195882D01*
X0153228Y0196880D02*
X0142208Y0196880D01*
X0142641Y0197879D02*
X0154227Y0197879D01*
X0155225Y0198877D02*
X0147102Y0198877D01*
X0145906Y0200510D02*
X0139017Y0200510D01*
X0141911Y0203870D02*
X0144548Y0203870D01*
X0144548Y0202871D02*
X0142682Y0202871D01*
X0145906Y0200510D02*
X0149017Y0203620D01*
X0152090Y0206866D02*
X0157017Y0206866D01*
X0157017Y0207864D02*
X0150447Y0207864D01*
X0152922Y0205867D02*
X0157017Y0205867D01*
X0157017Y0204868D02*
X0153336Y0204868D01*
X0153485Y0203870D02*
X0157017Y0203870D01*
X0157017Y0202871D02*
X0153485Y0202871D01*
X0153130Y0201873D02*
X0157017Y0201873D01*
X0157017Y0200874D02*
X0152590Y0200874D01*
X0151592Y0199876D02*
X0156224Y0199876D01*
X0159017Y0199840D02*
X0159017Y0212163D01*
X0155495Y0212857D02*
X0130296Y0212857D01*
X0126393Y0210860D02*
X0126017Y0210860D01*
X0122017Y0209861D02*
X0072638Y0209861D01*
X0073149Y0208863D02*
X0122017Y0208863D01*
X0122017Y0207864D02*
X0073485Y0207864D01*
X0073485Y0206866D02*
X0122017Y0206866D01*
X0122017Y0205867D02*
X0073316Y0205867D01*
X0072903Y0204868D02*
X0122017Y0204868D01*
X0122017Y0203870D02*
X0072043Y0203870D01*
X0070332Y0202871D02*
X0122017Y0202871D01*
X0126017Y0202871D02*
X0127701Y0202871D01*
X0126017Y0201873D02*
X0135351Y0201873D01*
X0135689Y0190889D02*
X0131610Y0190889D01*
X0127629Y0182901D02*
X0126017Y0182901D01*
X0126017Y0200874D02*
X0126408Y0200874D01*
X0145040Y0193817D02*
X0149017Y0189840D01*
X0159017Y0199840D01*
X0158885Y0196880D02*
X0159438Y0196880D01*
X0159438Y0195882D02*
X0157886Y0195882D01*
X0156888Y0194883D02*
X0159438Y0194883D01*
X0159438Y0193885D02*
X0155889Y0193885D01*
X0154891Y0192886D02*
X0159438Y0192886D01*
X0159438Y0191888D02*
X0153892Y0191888D01*
X0153419Y0190889D02*
X0159438Y0190889D01*
X0159438Y0189891D02*
X0153485Y0189891D01*
X0153460Y0188892D02*
X0159438Y0188892D01*
X0159438Y0187894D02*
X0153047Y0187894D01*
X0152391Y0186895D02*
X0159438Y0186895D01*
X0159438Y0185897D02*
X0151173Y0185897D01*
X0151231Y0194883D02*
X0146802Y0194883D01*
X0151792Y0213855D02*
X0154496Y0213855D01*
X0153498Y0214854D02*
X0152790Y0214854D01*
X0150208Y0226836D02*
X0159438Y0226836D01*
X0159438Y0227834D02*
X0151991Y0227834D01*
X0152881Y0228833D02*
X0159438Y0228833D01*
X0159438Y0229831D02*
X0153295Y0229831D01*
X0153485Y0230830D02*
X0159438Y0230830D01*
X0159438Y0231828D02*
X0153485Y0231828D01*
X0153171Y0232827D02*
X0159438Y0232827D01*
X0159438Y0233825D02*
X0152690Y0233825D01*
X0151691Y0234824D02*
X0159438Y0234824D01*
X0159438Y0259787D02*
X0153374Y0259787D01*
X0152989Y0260785D02*
X0159438Y0260785D01*
X0159438Y0261784D02*
X0152290Y0261784D01*
X0132017Y0142961D02*
X0130548Y0142961D01*
X0132017Y0141962D02*
X0061017Y0141962D01*
X0061017Y0140964D02*
X0126515Y0140964D01*
X0125499Y0139965D02*
X0061017Y0139965D01*
X0061017Y0138967D02*
X0124927Y0138967D01*
X0124548Y0137968D02*
X0061017Y0137968D01*
X0061017Y0136970D02*
X0124548Y0136970D01*
X0124674Y0135971D02*
X0061017Y0135971D01*
X0061017Y0134973D02*
X0125087Y0134973D01*
X0125886Y0133974D02*
X0061017Y0133974D01*
X0061017Y0132976D02*
X0127449Y0132976D01*
X0126551Y0130979D02*
X0061017Y0130979D01*
X0061017Y0131977D02*
X0132017Y0131977D01*
X0132017Y0130979D02*
X0131482Y0130979D01*
X0132017Y0132976D02*
X0130584Y0132976D01*
X0125514Y0129980D02*
X0061017Y0129980D01*
X0061017Y0128982D02*
X0124933Y0128982D01*
X0124548Y0127983D02*
X0061017Y0127983D01*
X0061017Y0126985D02*
X0124548Y0126985D01*
X0124667Y0125986D02*
X0061017Y0125986D01*
X0061017Y0124988D02*
X0125081Y0124988D01*
X0125871Y0123989D02*
X0061017Y0123989D01*
X0061017Y0122991D02*
X0127414Y0122991D01*
X0130620Y0122991D02*
X0132017Y0122991D01*
X0132017Y0121992D02*
X0061017Y0121992D01*
X0061017Y0120994D02*
X0132017Y0120994D01*
X0132017Y0119995D02*
X0061017Y0119995D01*
X0061017Y0118997D02*
X0132017Y0118997D01*
X0132017Y0117998D02*
X0061017Y0117998D01*
X0061017Y0116999D02*
X0132017Y0116999D01*
X0132017Y0116001D02*
X0061017Y0116001D01*
X0061017Y0115002D02*
X0132017Y0115002D01*
X0132017Y0114004D02*
X0061017Y0114004D01*
X0061017Y0113005D02*
X0132017Y0113005D01*
X0132017Y0112007D02*
X0061017Y0112007D01*
X0061017Y0111008D02*
X0132017Y0111008D01*
X0132017Y0110010D02*
X0061017Y0110010D01*
X0061017Y0109011D02*
X0132017Y0109011D01*
X0132017Y0108013D02*
X0061017Y0108013D01*
X0061017Y0107014D02*
X0132017Y0107014D01*
X0132017Y0106016D02*
X0061017Y0106016D01*
X0061017Y0105017D02*
X0132017Y0105017D01*
X0132017Y0104019D02*
X0061017Y0104019D01*
X0061017Y0103020D02*
X0132017Y0103020D01*
X0132017Y0102022D02*
X0061986Y0102022D01*
X0061017Y0152946D02*
X0067536Y0152946D01*
X0065916Y0153944D02*
X0061017Y0153944D01*
X0061017Y0154943D02*
X0065133Y0154943D01*
X0064715Y0155941D02*
X0061017Y0155941D01*
X0020119Y0187163D02*
X0019017Y0188266D01*
X0016120Y0177909D02*
X0008517Y0177909D01*
X0008517Y0176910D02*
X0015184Y0176910D01*
X0014770Y0175912D02*
X0008517Y0175912D01*
X0008517Y0174913D02*
X0014548Y0174913D01*
X0014548Y0173915D02*
X0008517Y0173915D01*
X0008517Y0172916D02*
X0014830Y0172916D01*
X0015266Y0171918D02*
X0008517Y0171918D01*
X0008517Y0164928D02*
X0017531Y0164928D01*
X0015920Y0163930D02*
X0008517Y0163930D01*
X0008517Y0162931D02*
X0015101Y0162931D01*
X0014688Y0161933D02*
X0008517Y0161933D01*
X0008517Y0160934D02*
X0014548Y0160934D01*
X0014548Y0159935D02*
X0008517Y0159935D01*
X0008517Y0158937D02*
X0014913Y0158937D01*
X0015465Y0157938D02*
X0008517Y0157938D01*
X0008517Y0156940D02*
X0016464Y0156940D01*
X0008517Y0220845D02*
X0066379Y0220845D01*
X0131518Y0140964D02*
X0132017Y0140964D01*
D14*
X0136517Y0079663D03*
M02*
