G75*
%MOIN*%
%OFA0B0*%
%FSLAX25Y25*%
%IPPOS*%
%LPD*%
%AMOC8*
5,1,8,0,0,1.08239X$1,22.5*
%
%ADD10C,0.06737*%
%ADD11R,0.06737X0.06737*%
%ADD12R,0.05131X0.04737*%
%ADD13C,0.12611*%
%ADD14C,0.03187*%
D10*
X0019017Y0043384D03*
X0019017Y0073384D03*
X0019017Y0105588D03*
X0019017Y0119368D03*
X0019017Y0133148D03*
X0019017Y0146927D03*
X0019017Y0160707D03*
X0019017Y0174486D03*
X0019017Y0188266D03*
X0019017Y0202045D03*
X0019017Y0215825D03*
X0019017Y0229604D03*
X0019017Y0243384D03*
X0069017Y0247163D03*
X0069017Y0237163D03*
X0069017Y0227163D03*
X0069017Y0217163D03*
X0069017Y0207163D03*
X0069017Y0197163D03*
X0069017Y0187163D03*
X0069017Y0177163D03*
X0069017Y0167163D03*
X0069017Y0157163D03*
X0069017Y0147163D03*
X0069017Y0097163D03*
X0069017Y0087163D03*
X0069017Y0077163D03*
X0069017Y0067163D03*
X0069017Y0057163D03*
X0069017Y0047163D03*
X0069017Y0037163D03*
X0069017Y0027163D03*
X0069017Y0017163D03*
X0052796Y0022163D03*
X0129017Y0027163D03*
X0129017Y0037163D03*
X0129017Y0047163D03*
X0129017Y0057163D03*
X0129017Y0067163D03*
X0149017Y0120943D03*
X0149017Y0134722D03*
X0149017Y0148502D03*
X0149017Y0162281D03*
X0149017Y0176061D03*
X0149017Y0189840D03*
X0149017Y0203620D03*
X0149017Y0217399D03*
X0149017Y0231179D03*
X0149017Y0244959D03*
X0149017Y0258738D03*
X0129017Y0247163D03*
X0129017Y0237163D03*
X0129017Y0227163D03*
X0129017Y0217163D03*
X0129017Y0207163D03*
X0129017Y0197163D03*
X0129017Y0187163D03*
X0129017Y0177163D03*
X0129017Y0167163D03*
X0129017Y0157163D03*
X0129017Y0147163D03*
X0129017Y0137163D03*
X0129017Y0127163D03*
D11*
X0149017Y0107163D03*
X0129017Y0017163D03*
X0039017Y0022163D03*
X0019017Y0057163D03*
X0019017Y0087163D03*
X0019017Y0257163D03*
D12*
X0139017Y0200510D03*
X0139017Y0193817D03*
D13*
X0019017Y0022163D03*
X0149017Y0022163D03*
X0049017Y0252163D03*
D14*
X0136517Y0079663D03*
M02*
