%
M48
M72
T01C0.00787
T02C0.03937
T03C0.11811
%
T01
X136517Y79663
T02
X129017Y67163
X129017Y57163
X129017Y47163
X129017Y37163
X129017Y27163
X129017Y17163
X149017Y107163
X149017Y120943
X149017Y134722
X149017Y148502
X149017Y162281
X149017Y176061
X149017Y189840
X149017Y203620
X149017Y217399
X149017Y231179
X149017Y244959
X149017Y258738
X129017Y247163
X129017Y237163
X129017Y227163
X129017Y217163
X129017Y207163
X129017Y197163
X129017Y187163
X129017Y177163
X129017Y167163
X129017Y157163
X129017Y147163
X129017Y137163
X129017Y127163
X69017Y147163
X69017Y157163
X69017Y167163
X69017Y177163
X69017Y187163
X69017Y197163
X69017Y207163
X69017Y217163
X69017Y227163
X69017Y237163
X69017Y247163
X19017Y243384
X19017Y257163
X19017Y229604
X19017Y215825
X19017Y202045
X19017Y188266
X19017Y174486
X19017Y160707
X19017Y146927
X19017Y133148
X19017Y119368
X19017Y105588
X19017Y87163
X19017Y73384
X19017Y57163
X19017Y43384
X39017Y22163
X52796Y22163
X69017Y17163
X69017Y27163
X69017Y37163
X69017Y47163
X69017Y57163
X69017Y67163
X69017Y77163
X69017Y87163
X69017Y97163
T03
X19017Y22163
X149017Y22163
X49017Y252163
M30
