G75*
%MOIN*%
%OFA0B0*%
%FSLAX25Y25*%
%IPPOS*%
%LPD*%
%AMOC8*
5,1,8,0,0,1.08239X$1,22.5*
%
%ADD10C,0.00200*%
D10*
X0008697Y0042263D02*
X0009309Y0042263D01*
X0009309Y0044463D01*
X0008697Y0044463D01*
X0008649Y0044461D01*
X0008601Y0044455D01*
X0008554Y0044446D01*
X0008508Y0044433D01*
X0008463Y0044416D01*
X0008420Y0044396D01*
X0008378Y0044373D01*
X0008338Y0044346D01*
X0008300Y0044317D01*
X0008265Y0044284D01*
X0008232Y0044249D01*
X0008203Y0044211D01*
X0008176Y0044171D01*
X0008153Y0044129D01*
X0008133Y0044086D01*
X0008116Y0044041D01*
X0008103Y0043995D01*
X0008094Y0043948D01*
X0008088Y0043900D01*
X0008086Y0043852D01*
X0008086Y0042874D01*
X0008088Y0042826D01*
X0008094Y0042778D01*
X0008103Y0042731D01*
X0008116Y0042685D01*
X0008133Y0042640D01*
X0008153Y0042597D01*
X0008176Y0042555D01*
X0008203Y0042515D01*
X0008232Y0042477D01*
X0008265Y0042442D01*
X0008300Y0042409D01*
X0008338Y0042380D01*
X0008378Y0042353D01*
X0008420Y0042330D01*
X0008463Y0042310D01*
X0008508Y0042293D01*
X0008554Y0042280D01*
X0008601Y0042271D01*
X0008649Y0042265D01*
X0008697Y0042263D01*
X0010390Y0042263D02*
X0010390Y0044463D01*
X0011613Y0044463D02*
X0010390Y0042263D01*
X0011613Y0042263D02*
X0011613Y0044463D01*
X0012694Y0044463D02*
X0013428Y0044463D01*
X0013471Y0044461D01*
X0013513Y0044456D01*
X0013555Y0044446D01*
X0013595Y0044434D01*
X0013635Y0044417D01*
X0013673Y0044397D01*
X0013708Y0044375D01*
X0013742Y0044349D01*
X0013774Y0044320D01*
X0013803Y0044288D01*
X0013829Y0044254D01*
X0013851Y0044219D01*
X0013871Y0044181D01*
X0013888Y0044141D01*
X0013900Y0044101D01*
X0013910Y0044059D01*
X0013915Y0044017D01*
X0013917Y0043974D01*
X0013917Y0042752D01*
X0013915Y0042709D01*
X0013910Y0042667D01*
X0013900Y0042625D01*
X0013888Y0042585D01*
X0013871Y0042545D01*
X0013851Y0042508D01*
X0013829Y0042472D01*
X0013803Y0042438D01*
X0013774Y0042406D01*
X0013742Y0042377D01*
X0013708Y0042351D01*
X0013673Y0042329D01*
X0013635Y0042309D01*
X0013595Y0042292D01*
X0013555Y0042280D01*
X0013513Y0042270D01*
X0013471Y0042265D01*
X0013428Y0042263D01*
X0012694Y0042263D01*
X0012694Y0043485D01*
X0013061Y0043485D01*
X0011490Y0057263D02*
X0010757Y0057263D01*
X0010714Y0057265D01*
X0010672Y0057270D01*
X0010630Y0057280D01*
X0010590Y0057292D01*
X0010550Y0057309D01*
X0010513Y0057329D01*
X0010477Y0057351D01*
X0010443Y0057377D01*
X0010411Y0057406D01*
X0010382Y0057438D01*
X0010356Y0057472D01*
X0010334Y0057507D01*
X0010314Y0057545D01*
X0010297Y0057585D01*
X0010285Y0057625D01*
X0010275Y0057667D01*
X0010270Y0057709D01*
X0010268Y0057752D01*
X0010268Y0057997D01*
X0010270Y0058040D01*
X0010275Y0058082D01*
X0010285Y0058124D01*
X0010297Y0058164D01*
X0010314Y0058204D01*
X0010334Y0058242D01*
X0010356Y0058277D01*
X0010382Y0058311D01*
X0010411Y0058343D01*
X0010443Y0058372D01*
X0010477Y0058398D01*
X0010513Y0058420D01*
X0010550Y0058440D01*
X0010590Y0058457D01*
X0010630Y0058469D01*
X0010672Y0058479D01*
X0010714Y0058484D01*
X0010757Y0058486D01*
X0010757Y0058485D02*
X0011490Y0058485D01*
X0011490Y0059463D01*
X0010268Y0059463D01*
X0009453Y0059463D02*
X0008719Y0057263D01*
X0007986Y0059463D01*
X0012450Y0058119D02*
X0013917Y0058119D01*
X0013183Y0058852D02*
X0013183Y0057385D01*
X0013428Y0072263D02*
X0012694Y0072263D01*
X0012694Y0073485D01*
X0013061Y0073485D01*
X0013917Y0073974D02*
X0013915Y0074017D01*
X0013910Y0074059D01*
X0013900Y0074101D01*
X0013888Y0074141D01*
X0013871Y0074181D01*
X0013851Y0074219D01*
X0013829Y0074254D01*
X0013803Y0074288D01*
X0013774Y0074320D01*
X0013742Y0074349D01*
X0013708Y0074375D01*
X0013673Y0074397D01*
X0013635Y0074417D01*
X0013595Y0074434D01*
X0013555Y0074446D01*
X0013513Y0074456D01*
X0013471Y0074461D01*
X0013428Y0074463D01*
X0012694Y0074463D01*
X0011613Y0074463D02*
X0011613Y0072263D01*
X0010390Y0072263D02*
X0010390Y0074463D01*
X0009309Y0074463D02*
X0008697Y0074463D01*
X0008649Y0074461D01*
X0008601Y0074455D01*
X0008554Y0074446D01*
X0008508Y0074433D01*
X0008463Y0074416D01*
X0008420Y0074396D01*
X0008378Y0074373D01*
X0008338Y0074346D01*
X0008300Y0074317D01*
X0008265Y0074284D01*
X0008232Y0074249D01*
X0008203Y0074211D01*
X0008176Y0074171D01*
X0008153Y0074129D01*
X0008133Y0074086D01*
X0008116Y0074041D01*
X0008103Y0073995D01*
X0008094Y0073948D01*
X0008088Y0073900D01*
X0008086Y0073852D01*
X0008086Y0072874D01*
X0008088Y0072826D01*
X0008094Y0072778D01*
X0008103Y0072731D01*
X0008116Y0072685D01*
X0008133Y0072640D01*
X0008153Y0072597D01*
X0008176Y0072555D01*
X0008203Y0072515D01*
X0008232Y0072477D01*
X0008265Y0072442D01*
X0008300Y0072409D01*
X0008338Y0072380D01*
X0008378Y0072353D01*
X0008420Y0072330D01*
X0008463Y0072310D01*
X0008508Y0072293D01*
X0008554Y0072280D01*
X0008601Y0072271D01*
X0008649Y0072265D01*
X0008697Y0072263D01*
X0009309Y0072263D01*
X0009309Y0074463D01*
X0011613Y0074463D02*
X0010390Y0072263D01*
X0013428Y0072263D02*
X0013471Y0072265D01*
X0013513Y0072270D01*
X0013555Y0072280D01*
X0013595Y0072292D01*
X0013635Y0072309D01*
X0013673Y0072329D01*
X0013708Y0072351D01*
X0013742Y0072377D01*
X0013774Y0072406D01*
X0013803Y0072438D01*
X0013829Y0072472D01*
X0013851Y0072508D01*
X0013871Y0072545D01*
X0013888Y0072585D01*
X0013900Y0072625D01*
X0013910Y0072667D01*
X0013915Y0072709D01*
X0013917Y0072752D01*
X0013917Y0073974D01*
X0013183Y0087385D02*
X0013183Y0088852D01*
X0012450Y0088119D02*
X0013917Y0088119D01*
X0011490Y0087263D02*
X0010879Y0087263D01*
X0010831Y0087265D01*
X0010783Y0087271D01*
X0010736Y0087280D01*
X0010690Y0087293D01*
X0010645Y0087310D01*
X0010602Y0087330D01*
X0010560Y0087353D01*
X0010520Y0087380D01*
X0010482Y0087409D01*
X0010447Y0087442D01*
X0010414Y0087477D01*
X0010385Y0087515D01*
X0010358Y0087555D01*
X0010335Y0087597D01*
X0010315Y0087640D01*
X0010298Y0087685D01*
X0010285Y0087731D01*
X0010276Y0087778D01*
X0010270Y0087826D01*
X0010268Y0087874D01*
X0010270Y0087922D01*
X0010276Y0087970D01*
X0010285Y0088017D01*
X0010298Y0088063D01*
X0010315Y0088108D01*
X0010335Y0088151D01*
X0010358Y0088193D01*
X0010385Y0088233D01*
X0010414Y0088271D01*
X0010447Y0088306D01*
X0010482Y0088339D01*
X0010520Y0088368D01*
X0010560Y0088395D01*
X0010602Y0088418D01*
X0010645Y0088438D01*
X0010690Y0088455D01*
X0010736Y0088468D01*
X0010783Y0088477D01*
X0010831Y0088483D01*
X0010879Y0088485D01*
X0010757Y0088485D02*
X0011246Y0088485D01*
X0010757Y0088485D02*
X0010714Y0088487D01*
X0010672Y0088492D01*
X0010630Y0088502D01*
X0010590Y0088514D01*
X0010550Y0088531D01*
X0010512Y0088551D01*
X0010477Y0088573D01*
X0010443Y0088599D01*
X0010411Y0088628D01*
X0010382Y0088660D01*
X0010356Y0088694D01*
X0010334Y0088730D01*
X0010314Y0088767D01*
X0010297Y0088807D01*
X0010285Y0088847D01*
X0010275Y0088889D01*
X0010270Y0088931D01*
X0010268Y0088974D01*
X0010270Y0089017D01*
X0010275Y0089059D01*
X0010285Y0089101D01*
X0010297Y0089141D01*
X0010314Y0089181D01*
X0010334Y0089219D01*
X0010356Y0089254D01*
X0010382Y0089288D01*
X0010411Y0089320D01*
X0010443Y0089349D01*
X0010477Y0089375D01*
X0010513Y0089397D01*
X0010550Y0089417D01*
X0010590Y0089434D01*
X0010630Y0089446D01*
X0010672Y0089456D01*
X0010714Y0089461D01*
X0010757Y0089463D01*
X0011490Y0089463D01*
X0009453Y0089463D02*
X0008719Y0087263D01*
X0007986Y0089463D01*
X0007170Y0089463D02*
X0006437Y0089463D01*
X0006394Y0089461D01*
X0006352Y0089456D01*
X0006310Y0089446D01*
X0006270Y0089434D01*
X0006230Y0089417D01*
X0006193Y0089397D01*
X0006157Y0089375D01*
X0006123Y0089349D01*
X0006091Y0089320D01*
X0006062Y0089288D01*
X0006036Y0089254D01*
X0006014Y0089219D01*
X0005994Y0089181D01*
X0005977Y0089141D01*
X0005965Y0089101D01*
X0005955Y0089059D01*
X0005950Y0089017D01*
X0005948Y0088974D01*
X0005950Y0088931D01*
X0005955Y0088889D01*
X0005965Y0088847D01*
X0005977Y0088807D01*
X0005994Y0088767D01*
X0006014Y0088730D01*
X0006036Y0088694D01*
X0006062Y0088660D01*
X0006091Y0088628D01*
X0006123Y0088599D01*
X0006157Y0088573D01*
X0006192Y0088551D01*
X0006230Y0088531D01*
X0006270Y0088514D01*
X0006310Y0088502D01*
X0006352Y0088492D01*
X0006394Y0088487D01*
X0006437Y0088485D01*
X0006926Y0088485D01*
X0006559Y0088485D02*
X0006511Y0088483D01*
X0006463Y0088477D01*
X0006416Y0088468D01*
X0006370Y0088455D01*
X0006325Y0088438D01*
X0006282Y0088418D01*
X0006240Y0088395D01*
X0006200Y0088368D01*
X0006162Y0088339D01*
X0006127Y0088306D01*
X0006094Y0088271D01*
X0006065Y0088233D01*
X0006038Y0088193D01*
X0006015Y0088151D01*
X0005995Y0088108D01*
X0005978Y0088063D01*
X0005965Y0088017D01*
X0005956Y0087970D01*
X0005950Y0087922D01*
X0005948Y0087874D01*
X0005950Y0087826D01*
X0005956Y0087778D01*
X0005965Y0087731D01*
X0005978Y0087685D01*
X0005995Y0087640D01*
X0006015Y0087597D01*
X0006038Y0087555D01*
X0006065Y0087515D01*
X0006094Y0087477D01*
X0006127Y0087442D01*
X0006162Y0087409D01*
X0006200Y0087380D01*
X0006240Y0087353D01*
X0006282Y0087330D01*
X0006325Y0087310D01*
X0006370Y0087293D01*
X0006416Y0087280D01*
X0006463Y0087271D01*
X0006511Y0087265D01*
X0006559Y0087263D01*
X0007170Y0087263D01*
X0008697Y0102263D02*
X0009309Y0102263D01*
X0009309Y0104463D01*
X0008697Y0104463D01*
X0008649Y0104461D01*
X0008601Y0104455D01*
X0008554Y0104446D01*
X0008508Y0104433D01*
X0008463Y0104416D01*
X0008420Y0104396D01*
X0008378Y0104373D01*
X0008338Y0104346D01*
X0008300Y0104317D01*
X0008265Y0104284D01*
X0008232Y0104249D01*
X0008203Y0104211D01*
X0008176Y0104171D01*
X0008153Y0104129D01*
X0008133Y0104086D01*
X0008116Y0104041D01*
X0008103Y0103995D01*
X0008094Y0103948D01*
X0008088Y0103900D01*
X0008086Y0103852D01*
X0008086Y0102874D01*
X0008088Y0102826D01*
X0008094Y0102778D01*
X0008103Y0102731D01*
X0008116Y0102685D01*
X0008133Y0102640D01*
X0008153Y0102597D01*
X0008176Y0102555D01*
X0008203Y0102515D01*
X0008232Y0102477D01*
X0008265Y0102442D01*
X0008300Y0102409D01*
X0008338Y0102380D01*
X0008378Y0102353D01*
X0008420Y0102330D01*
X0008463Y0102310D01*
X0008508Y0102293D01*
X0008554Y0102280D01*
X0008601Y0102271D01*
X0008649Y0102265D01*
X0008697Y0102263D01*
X0010390Y0102263D02*
X0010390Y0104463D01*
X0011613Y0104463D02*
X0010390Y0102263D01*
X0011613Y0102263D02*
X0011613Y0104463D01*
X0012694Y0104463D02*
X0013428Y0104463D01*
X0013471Y0104461D01*
X0013513Y0104456D01*
X0013555Y0104446D01*
X0013595Y0104434D01*
X0013635Y0104417D01*
X0013673Y0104397D01*
X0013708Y0104375D01*
X0013742Y0104349D01*
X0013774Y0104320D01*
X0013803Y0104288D01*
X0013829Y0104254D01*
X0013851Y0104219D01*
X0013871Y0104181D01*
X0013888Y0104141D01*
X0013900Y0104101D01*
X0013910Y0104059D01*
X0013915Y0104017D01*
X0013917Y0103974D01*
X0013917Y0102752D01*
X0013915Y0102709D01*
X0013910Y0102667D01*
X0013900Y0102625D01*
X0013888Y0102585D01*
X0013871Y0102545D01*
X0013851Y0102508D01*
X0013829Y0102472D01*
X0013803Y0102438D01*
X0013774Y0102406D01*
X0013742Y0102377D01*
X0013708Y0102351D01*
X0013673Y0102329D01*
X0013635Y0102309D01*
X0013595Y0102292D01*
X0013555Y0102280D01*
X0013513Y0102270D01*
X0013471Y0102265D01*
X0013428Y0102263D01*
X0012694Y0102263D01*
X0012694Y0103485D01*
X0013061Y0103485D01*
X0011490Y0117263D02*
X0010879Y0117263D01*
X0010831Y0117265D01*
X0010783Y0117271D01*
X0010736Y0117280D01*
X0010690Y0117293D01*
X0010645Y0117310D01*
X0010602Y0117330D01*
X0010560Y0117353D01*
X0010520Y0117380D01*
X0010482Y0117409D01*
X0010447Y0117442D01*
X0010414Y0117477D01*
X0010385Y0117515D01*
X0010358Y0117555D01*
X0010335Y0117597D01*
X0010315Y0117640D01*
X0010298Y0117685D01*
X0010285Y0117731D01*
X0010276Y0117778D01*
X0010270Y0117826D01*
X0010268Y0117874D01*
X0010270Y0117922D01*
X0010276Y0117970D01*
X0010285Y0118017D01*
X0010298Y0118063D01*
X0010315Y0118108D01*
X0010335Y0118151D01*
X0010358Y0118193D01*
X0010385Y0118233D01*
X0010414Y0118271D01*
X0010447Y0118306D01*
X0010482Y0118339D01*
X0010520Y0118368D01*
X0010560Y0118395D01*
X0010602Y0118418D01*
X0010645Y0118438D01*
X0010690Y0118455D01*
X0010736Y0118468D01*
X0010783Y0118477D01*
X0010831Y0118483D01*
X0010879Y0118485D01*
X0010757Y0118485D02*
X0011246Y0118485D01*
X0010757Y0118485D02*
X0010714Y0118487D01*
X0010672Y0118492D01*
X0010630Y0118502D01*
X0010590Y0118514D01*
X0010550Y0118531D01*
X0010512Y0118551D01*
X0010477Y0118573D01*
X0010443Y0118599D01*
X0010411Y0118628D01*
X0010382Y0118660D01*
X0010356Y0118694D01*
X0010334Y0118730D01*
X0010314Y0118767D01*
X0010297Y0118807D01*
X0010285Y0118847D01*
X0010275Y0118889D01*
X0010270Y0118931D01*
X0010268Y0118974D01*
X0010270Y0119017D01*
X0010275Y0119059D01*
X0010285Y0119101D01*
X0010297Y0119141D01*
X0010314Y0119181D01*
X0010334Y0119219D01*
X0010356Y0119254D01*
X0010382Y0119288D01*
X0010411Y0119320D01*
X0010443Y0119349D01*
X0010477Y0119375D01*
X0010513Y0119397D01*
X0010550Y0119417D01*
X0010590Y0119434D01*
X0010630Y0119446D01*
X0010672Y0119456D01*
X0010714Y0119461D01*
X0010757Y0119463D01*
X0011490Y0119463D01*
X0012450Y0118119D02*
X0013917Y0118119D01*
X0013183Y0118852D02*
X0013183Y0117385D01*
X0009453Y0119463D02*
X0008719Y0117263D01*
X0007986Y0119463D01*
X0007170Y0119463D02*
X0006437Y0119463D01*
X0006394Y0119461D01*
X0006352Y0119456D01*
X0006310Y0119446D01*
X0006270Y0119434D01*
X0006230Y0119417D01*
X0006193Y0119397D01*
X0006157Y0119375D01*
X0006123Y0119349D01*
X0006091Y0119320D01*
X0006062Y0119288D01*
X0006036Y0119254D01*
X0006014Y0119219D01*
X0005994Y0119181D01*
X0005977Y0119141D01*
X0005965Y0119101D01*
X0005955Y0119059D01*
X0005950Y0119017D01*
X0005948Y0118974D01*
X0005950Y0118931D01*
X0005955Y0118889D01*
X0005965Y0118847D01*
X0005977Y0118807D01*
X0005994Y0118767D01*
X0006014Y0118730D01*
X0006036Y0118694D01*
X0006062Y0118660D01*
X0006091Y0118628D01*
X0006123Y0118599D01*
X0006157Y0118573D01*
X0006192Y0118551D01*
X0006230Y0118531D01*
X0006270Y0118514D01*
X0006310Y0118502D01*
X0006352Y0118492D01*
X0006394Y0118487D01*
X0006437Y0118485D01*
X0006926Y0118485D01*
X0006559Y0118485D02*
X0006511Y0118483D01*
X0006463Y0118477D01*
X0006416Y0118468D01*
X0006370Y0118455D01*
X0006325Y0118438D01*
X0006282Y0118418D01*
X0006240Y0118395D01*
X0006200Y0118368D01*
X0006162Y0118339D01*
X0006127Y0118306D01*
X0006094Y0118271D01*
X0006065Y0118233D01*
X0006038Y0118193D01*
X0006015Y0118151D01*
X0005995Y0118108D01*
X0005978Y0118063D01*
X0005965Y0118017D01*
X0005956Y0117970D01*
X0005950Y0117922D01*
X0005948Y0117874D01*
X0005950Y0117826D01*
X0005956Y0117778D01*
X0005965Y0117731D01*
X0005978Y0117685D01*
X0005995Y0117640D01*
X0006015Y0117597D01*
X0006038Y0117555D01*
X0006065Y0117515D01*
X0006094Y0117477D01*
X0006127Y0117442D01*
X0006162Y0117409D01*
X0006200Y0117380D01*
X0006240Y0117353D01*
X0006282Y0117330D01*
X0006325Y0117310D01*
X0006370Y0117293D01*
X0006416Y0117280D01*
X0006463Y0117271D01*
X0006511Y0117265D01*
X0006559Y0117263D01*
X0007170Y0117263D01*
X0013305Y0132263D02*
X0013265Y0132265D01*
X0013225Y0132270D01*
X0013186Y0132279D01*
X0013148Y0132291D01*
X0013111Y0132307D01*
X0013076Y0132325D01*
X0013042Y0132347D01*
X0013011Y0132372D01*
X0012982Y0132399D01*
X0012955Y0132429D01*
X0012931Y0132461D01*
X0012910Y0132495D01*
X0012892Y0132531D01*
X0012877Y0132568D01*
X0013305Y0132263D02*
X0013345Y0132265D01*
X0013385Y0132270D01*
X0013424Y0132279D01*
X0013462Y0132291D01*
X0013499Y0132307D01*
X0013534Y0132325D01*
X0013568Y0132347D01*
X0013599Y0132372D01*
X0013628Y0132399D01*
X0013655Y0132429D01*
X0013679Y0132461D01*
X0013700Y0132495D01*
X0013718Y0132531D01*
X0013733Y0132568D01*
X0013794Y0132752D02*
X0012817Y0133974D01*
X0012877Y0134158D02*
X0012892Y0134195D01*
X0012910Y0134231D01*
X0012931Y0134265D01*
X0012955Y0134297D01*
X0012982Y0134327D01*
X0013011Y0134354D01*
X0013042Y0134379D01*
X0013076Y0134401D01*
X0013111Y0134419D01*
X0013148Y0134435D01*
X0013186Y0134447D01*
X0013225Y0134456D01*
X0013265Y0134461D01*
X0013305Y0134463D01*
X0013345Y0134461D01*
X0013385Y0134456D01*
X0013424Y0134447D01*
X0013462Y0134435D01*
X0013499Y0134419D01*
X0013534Y0134401D01*
X0013568Y0134379D01*
X0013599Y0134354D01*
X0013628Y0134327D01*
X0013655Y0134297D01*
X0013679Y0134265D01*
X0013700Y0134231D01*
X0013718Y0134195D01*
X0013733Y0134158D01*
X0012877Y0134157D02*
X0012843Y0134083D01*
X0012812Y0134007D01*
X0012785Y0133929D01*
X0012761Y0133850D01*
X0012740Y0133771D01*
X0012724Y0133690D01*
X0012711Y0133609D01*
X0012701Y0133527D01*
X0012696Y0133445D01*
X0012694Y0133363D01*
X0013917Y0133363D02*
X0013915Y0133445D01*
X0013910Y0133527D01*
X0013900Y0133609D01*
X0013887Y0133690D01*
X0013871Y0133771D01*
X0013850Y0133850D01*
X0013826Y0133929D01*
X0013799Y0134007D01*
X0013768Y0134083D01*
X0013734Y0134157D01*
X0012694Y0133363D02*
X0012696Y0133281D01*
X0012701Y0133199D01*
X0012711Y0133117D01*
X0012724Y0133036D01*
X0012740Y0132955D01*
X0012761Y0132876D01*
X0012785Y0132797D01*
X0012812Y0132719D01*
X0012843Y0132643D01*
X0012877Y0132569D01*
X0013733Y0132569D02*
X0013767Y0132643D01*
X0013798Y0132719D01*
X0013825Y0132797D01*
X0013849Y0132876D01*
X0013870Y0132955D01*
X0013886Y0133036D01*
X0013899Y0133117D01*
X0013909Y0133199D01*
X0013914Y0133281D01*
X0013916Y0133363D01*
X0013917Y0147263D02*
X0012694Y0147263D01*
X0013305Y0147263D02*
X0013305Y0149463D01*
X0013917Y0148974D01*
X0013917Y0157263D02*
X0012694Y0157263D01*
X0011757Y0157263D02*
X0011145Y0157263D01*
X0011097Y0157265D01*
X0011049Y0157271D01*
X0011002Y0157280D01*
X0010956Y0157293D01*
X0010911Y0157310D01*
X0010868Y0157330D01*
X0010826Y0157353D01*
X0010786Y0157380D01*
X0010748Y0157409D01*
X0010713Y0157442D01*
X0010680Y0157477D01*
X0010651Y0157515D01*
X0010624Y0157555D01*
X0010601Y0157597D01*
X0010581Y0157640D01*
X0010564Y0157685D01*
X0010551Y0157731D01*
X0010542Y0157778D01*
X0010536Y0157826D01*
X0010534Y0157874D01*
X0010536Y0157922D01*
X0010542Y0157970D01*
X0010551Y0158017D01*
X0010564Y0158063D01*
X0010581Y0158108D01*
X0010601Y0158151D01*
X0010624Y0158193D01*
X0010651Y0158233D01*
X0010680Y0158271D01*
X0010713Y0158306D01*
X0010748Y0158339D01*
X0010786Y0158368D01*
X0010826Y0158395D01*
X0010868Y0158418D01*
X0010911Y0158438D01*
X0010956Y0158455D01*
X0011002Y0158468D01*
X0011049Y0158477D01*
X0011097Y0158483D01*
X0011145Y0158485D01*
X0011023Y0158485D02*
X0011512Y0158485D01*
X0011023Y0158485D02*
X0010980Y0158487D01*
X0010938Y0158492D01*
X0010896Y0158502D01*
X0010856Y0158514D01*
X0010816Y0158531D01*
X0010778Y0158551D01*
X0010743Y0158573D01*
X0010709Y0158599D01*
X0010677Y0158628D01*
X0010648Y0158660D01*
X0010622Y0158694D01*
X0010600Y0158730D01*
X0010580Y0158767D01*
X0010563Y0158807D01*
X0010551Y0158847D01*
X0010541Y0158889D01*
X0010536Y0158931D01*
X0010534Y0158974D01*
X0010536Y0159017D01*
X0010541Y0159059D01*
X0010551Y0159101D01*
X0010563Y0159141D01*
X0010580Y0159181D01*
X0010600Y0159219D01*
X0010622Y0159254D01*
X0010648Y0159288D01*
X0010677Y0159320D01*
X0010709Y0159349D01*
X0010743Y0159375D01*
X0010779Y0159397D01*
X0010816Y0159417D01*
X0010856Y0159434D01*
X0010896Y0159446D01*
X0010938Y0159456D01*
X0010980Y0159461D01*
X0011023Y0159463D01*
X0011757Y0159463D01*
X0012878Y0158485D02*
X0013917Y0157263D01*
X0013917Y0158975D02*
X0013899Y0159024D01*
X0013877Y0159072D01*
X0013852Y0159118D01*
X0013824Y0159161D01*
X0013792Y0159203D01*
X0013758Y0159243D01*
X0013721Y0159279D01*
X0013681Y0159313D01*
X0013638Y0159344D01*
X0013594Y0159371D01*
X0013548Y0159395D01*
X0013500Y0159416D01*
X0013450Y0159433D01*
X0013400Y0159447D01*
X0013348Y0159456D01*
X0013296Y0159462D01*
X0013244Y0159464D01*
X0013244Y0159463D02*
X0013199Y0159461D01*
X0013153Y0159455D01*
X0013109Y0159446D01*
X0013065Y0159433D01*
X0013023Y0159417D01*
X0012982Y0159397D01*
X0012943Y0159373D01*
X0012906Y0159347D01*
X0012871Y0159318D01*
X0012839Y0159286D01*
X0012810Y0159251D01*
X0012784Y0159214D01*
X0012760Y0159175D01*
X0012740Y0159134D01*
X0012724Y0159092D01*
X0012711Y0159048D01*
X0012702Y0159004D01*
X0012696Y0158958D01*
X0012694Y0158913D01*
X0012696Y0158865D01*
X0012702Y0158818D01*
X0012711Y0158771D01*
X0012725Y0158725D01*
X0012742Y0158680D01*
X0012762Y0158637D01*
X0012786Y0158596D01*
X0012814Y0158556D01*
X0012844Y0158519D01*
X0012877Y0158485D01*
X0012694Y0172263D02*
X0013917Y0172263D01*
X0012878Y0173485D01*
X0013244Y0174464D02*
X0013296Y0174462D01*
X0013348Y0174456D01*
X0013400Y0174447D01*
X0013450Y0174433D01*
X0013500Y0174416D01*
X0013548Y0174395D01*
X0013594Y0174371D01*
X0013638Y0174344D01*
X0013681Y0174313D01*
X0013721Y0174279D01*
X0013758Y0174243D01*
X0013792Y0174203D01*
X0013824Y0174161D01*
X0013852Y0174118D01*
X0013877Y0174072D01*
X0013899Y0174024D01*
X0013917Y0173975D01*
X0012877Y0173485D02*
X0012844Y0173519D01*
X0012814Y0173556D01*
X0012786Y0173596D01*
X0012762Y0173637D01*
X0012742Y0173680D01*
X0012725Y0173725D01*
X0012711Y0173771D01*
X0012702Y0173818D01*
X0012696Y0173865D01*
X0012694Y0173913D01*
X0012696Y0173958D01*
X0012702Y0174004D01*
X0012711Y0174048D01*
X0012724Y0174092D01*
X0012740Y0174134D01*
X0012760Y0174175D01*
X0012784Y0174214D01*
X0012810Y0174251D01*
X0012839Y0174286D01*
X0012871Y0174318D01*
X0012906Y0174347D01*
X0012943Y0174373D01*
X0012982Y0174397D01*
X0013023Y0174417D01*
X0013065Y0174433D01*
X0013109Y0174446D01*
X0013153Y0174455D01*
X0013199Y0174461D01*
X0013244Y0174463D01*
X0010717Y0173485D02*
X0010684Y0173519D01*
X0010654Y0173556D01*
X0010626Y0173596D01*
X0010602Y0173637D01*
X0010582Y0173680D01*
X0010565Y0173725D01*
X0010551Y0173771D01*
X0010542Y0173818D01*
X0010536Y0173865D01*
X0010534Y0173913D01*
X0010718Y0173485D02*
X0011757Y0172263D01*
X0010534Y0172263D01*
X0011757Y0173975D02*
X0011739Y0174024D01*
X0011717Y0174072D01*
X0011692Y0174118D01*
X0011664Y0174161D01*
X0011632Y0174203D01*
X0011598Y0174243D01*
X0011561Y0174279D01*
X0011521Y0174313D01*
X0011478Y0174344D01*
X0011434Y0174371D01*
X0011388Y0174395D01*
X0011340Y0174416D01*
X0011290Y0174433D01*
X0011240Y0174447D01*
X0011188Y0174456D01*
X0011136Y0174462D01*
X0011084Y0174464D01*
X0011084Y0174463D02*
X0011039Y0174461D01*
X0010993Y0174455D01*
X0010949Y0174446D01*
X0010905Y0174433D01*
X0010863Y0174417D01*
X0010822Y0174397D01*
X0010783Y0174373D01*
X0010746Y0174347D01*
X0010711Y0174318D01*
X0010679Y0174286D01*
X0010650Y0174251D01*
X0010624Y0174214D01*
X0010600Y0174175D01*
X0010580Y0174134D01*
X0010564Y0174092D01*
X0010551Y0174048D01*
X0010542Y0174004D01*
X0010536Y0173958D01*
X0010534Y0173913D01*
X0012694Y0187263D02*
X0013917Y0187263D01*
X0013305Y0187263D02*
X0013305Y0189463D01*
X0013917Y0188974D01*
X0011757Y0188852D02*
X0011757Y0188730D01*
X0011755Y0188687D01*
X0011750Y0188645D01*
X0011740Y0188603D01*
X0011728Y0188563D01*
X0011711Y0188523D01*
X0011691Y0188486D01*
X0011669Y0188450D01*
X0011643Y0188416D01*
X0011614Y0188384D01*
X0011582Y0188355D01*
X0011548Y0188329D01*
X0011513Y0188307D01*
X0011475Y0188287D01*
X0011435Y0188270D01*
X0011395Y0188258D01*
X0011353Y0188248D01*
X0011311Y0188243D01*
X0011268Y0188241D01*
X0010534Y0188241D01*
X0010534Y0188852D01*
X0010536Y0188900D01*
X0010542Y0188948D01*
X0010551Y0188995D01*
X0010564Y0189041D01*
X0010581Y0189086D01*
X0010601Y0189129D01*
X0010624Y0189171D01*
X0010651Y0189211D01*
X0010680Y0189249D01*
X0010713Y0189284D01*
X0010748Y0189317D01*
X0010786Y0189346D01*
X0010826Y0189373D01*
X0010868Y0189396D01*
X0010911Y0189416D01*
X0010956Y0189433D01*
X0011002Y0189446D01*
X0011049Y0189455D01*
X0011097Y0189461D01*
X0011145Y0189463D01*
X0011193Y0189461D01*
X0011241Y0189455D01*
X0011288Y0189446D01*
X0011334Y0189433D01*
X0011379Y0189416D01*
X0011422Y0189396D01*
X0011464Y0189373D01*
X0011504Y0189346D01*
X0011542Y0189317D01*
X0011577Y0189284D01*
X0011610Y0189249D01*
X0011639Y0189211D01*
X0011666Y0189171D01*
X0011689Y0189129D01*
X0011709Y0189086D01*
X0011726Y0189041D01*
X0011739Y0188995D01*
X0011748Y0188948D01*
X0011754Y0188900D01*
X0011756Y0188852D01*
X0010534Y0188241D02*
X0010536Y0188180D01*
X0010542Y0188118D01*
X0010551Y0188058D01*
X0010565Y0187998D01*
X0010582Y0187939D01*
X0010603Y0187881D01*
X0010627Y0187825D01*
X0010655Y0187770D01*
X0010686Y0187717D01*
X0010721Y0187666D01*
X0010758Y0187618D01*
X0010799Y0187572D01*
X0010843Y0187528D01*
X0010889Y0187487D01*
X0010937Y0187450D01*
X0010988Y0187415D01*
X0011041Y0187384D01*
X0011096Y0187356D01*
X0011152Y0187332D01*
X0011210Y0187311D01*
X0011269Y0187294D01*
X0011329Y0187280D01*
X0011389Y0187271D01*
X0011451Y0187265D01*
X0011512Y0187263D01*
X0012694Y0202263D02*
X0013917Y0202263D01*
X0013305Y0202263D02*
X0013305Y0204463D01*
X0013917Y0203974D01*
X0011634Y0203974D02*
X0011632Y0203931D01*
X0011627Y0203889D01*
X0011617Y0203847D01*
X0011605Y0203807D01*
X0011588Y0203767D01*
X0011568Y0203730D01*
X0011546Y0203694D01*
X0011520Y0203660D01*
X0011491Y0203628D01*
X0011459Y0203599D01*
X0011425Y0203573D01*
X0011389Y0203551D01*
X0011352Y0203531D01*
X0011312Y0203514D01*
X0011272Y0203502D01*
X0011230Y0203492D01*
X0011188Y0203487D01*
X0011145Y0203485D01*
X0011102Y0203487D01*
X0011060Y0203492D01*
X0011018Y0203502D01*
X0010978Y0203514D01*
X0010938Y0203531D01*
X0010901Y0203551D01*
X0010865Y0203573D01*
X0010831Y0203599D01*
X0010799Y0203628D01*
X0010770Y0203660D01*
X0010744Y0203694D01*
X0010722Y0203730D01*
X0010702Y0203767D01*
X0010685Y0203807D01*
X0010673Y0203847D01*
X0010663Y0203889D01*
X0010658Y0203931D01*
X0010656Y0203974D01*
X0010658Y0204017D01*
X0010663Y0204059D01*
X0010673Y0204101D01*
X0010685Y0204141D01*
X0010702Y0204181D01*
X0010722Y0204219D01*
X0010744Y0204254D01*
X0010770Y0204288D01*
X0010799Y0204320D01*
X0010831Y0204349D01*
X0010865Y0204375D01*
X0010901Y0204397D01*
X0010938Y0204417D01*
X0010978Y0204434D01*
X0011018Y0204446D01*
X0011060Y0204456D01*
X0011102Y0204461D01*
X0011145Y0204463D01*
X0011188Y0204461D01*
X0011230Y0204456D01*
X0011272Y0204446D01*
X0011312Y0204434D01*
X0011352Y0204417D01*
X0011390Y0204397D01*
X0011425Y0204375D01*
X0011459Y0204349D01*
X0011491Y0204320D01*
X0011520Y0204288D01*
X0011546Y0204254D01*
X0011568Y0204219D01*
X0011588Y0204181D01*
X0011605Y0204141D01*
X0011617Y0204101D01*
X0011627Y0204059D01*
X0011632Y0204017D01*
X0011634Y0203974D01*
X0011756Y0202874D02*
X0011754Y0202826D01*
X0011748Y0202778D01*
X0011739Y0202731D01*
X0011726Y0202685D01*
X0011709Y0202640D01*
X0011689Y0202597D01*
X0011666Y0202555D01*
X0011639Y0202515D01*
X0011610Y0202477D01*
X0011577Y0202442D01*
X0011542Y0202409D01*
X0011504Y0202380D01*
X0011464Y0202353D01*
X0011422Y0202330D01*
X0011379Y0202310D01*
X0011334Y0202293D01*
X0011288Y0202280D01*
X0011241Y0202271D01*
X0011193Y0202265D01*
X0011145Y0202263D01*
X0011097Y0202265D01*
X0011049Y0202271D01*
X0011002Y0202280D01*
X0010956Y0202293D01*
X0010911Y0202310D01*
X0010868Y0202330D01*
X0010826Y0202353D01*
X0010786Y0202380D01*
X0010748Y0202409D01*
X0010713Y0202442D01*
X0010680Y0202477D01*
X0010651Y0202515D01*
X0010624Y0202555D01*
X0010601Y0202597D01*
X0010581Y0202640D01*
X0010564Y0202685D01*
X0010551Y0202731D01*
X0010542Y0202778D01*
X0010536Y0202826D01*
X0010534Y0202874D01*
X0010536Y0202922D01*
X0010542Y0202970D01*
X0010551Y0203017D01*
X0010564Y0203063D01*
X0010581Y0203108D01*
X0010601Y0203151D01*
X0010624Y0203193D01*
X0010651Y0203233D01*
X0010680Y0203271D01*
X0010713Y0203306D01*
X0010748Y0203339D01*
X0010786Y0203368D01*
X0010826Y0203395D01*
X0010868Y0203418D01*
X0010911Y0203438D01*
X0010956Y0203455D01*
X0011002Y0203468D01*
X0011049Y0203477D01*
X0011097Y0203483D01*
X0011145Y0203485D01*
X0011193Y0203483D01*
X0011241Y0203477D01*
X0011288Y0203468D01*
X0011334Y0203455D01*
X0011379Y0203438D01*
X0011422Y0203418D01*
X0011464Y0203395D01*
X0011504Y0203368D01*
X0011542Y0203339D01*
X0011577Y0203306D01*
X0011610Y0203271D01*
X0011639Y0203233D01*
X0011666Y0203193D01*
X0011689Y0203151D01*
X0011709Y0203108D01*
X0011726Y0203063D01*
X0011739Y0203017D01*
X0011748Y0202970D01*
X0011754Y0202922D01*
X0011756Y0202874D01*
X0013305Y0212263D02*
X0013917Y0212263D01*
X0013305Y0212263D02*
X0013257Y0212265D01*
X0013209Y0212271D01*
X0013162Y0212280D01*
X0013116Y0212293D01*
X0013071Y0212310D01*
X0013028Y0212330D01*
X0012986Y0212353D01*
X0012946Y0212380D01*
X0012908Y0212409D01*
X0012873Y0212442D01*
X0012840Y0212477D01*
X0012811Y0212515D01*
X0012784Y0212555D01*
X0012761Y0212597D01*
X0012741Y0212640D01*
X0012724Y0212685D01*
X0012711Y0212731D01*
X0012702Y0212778D01*
X0012696Y0212826D01*
X0012694Y0212874D01*
X0012696Y0212922D01*
X0012702Y0212970D01*
X0012711Y0213017D01*
X0012724Y0213063D01*
X0012741Y0213108D01*
X0012761Y0213151D01*
X0012784Y0213193D01*
X0012811Y0213233D01*
X0012840Y0213271D01*
X0012873Y0213306D01*
X0012908Y0213339D01*
X0012946Y0213368D01*
X0012986Y0213395D01*
X0013028Y0213418D01*
X0013071Y0213438D01*
X0013116Y0213455D01*
X0013162Y0213468D01*
X0013209Y0213477D01*
X0013257Y0213483D01*
X0013305Y0213485D01*
X0013183Y0213485D02*
X0013672Y0213485D01*
X0013183Y0213485D02*
X0013140Y0213487D01*
X0013098Y0213492D01*
X0013056Y0213502D01*
X0013016Y0213514D01*
X0012976Y0213531D01*
X0012938Y0213551D01*
X0012903Y0213573D01*
X0012869Y0213599D01*
X0012837Y0213628D01*
X0012808Y0213660D01*
X0012782Y0213694D01*
X0012760Y0213730D01*
X0012740Y0213767D01*
X0012723Y0213807D01*
X0012711Y0213847D01*
X0012701Y0213889D01*
X0012696Y0213931D01*
X0012694Y0213974D01*
X0012696Y0214017D01*
X0012701Y0214059D01*
X0012711Y0214101D01*
X0012723Y0214141D01*
X0012740Y0214181D01*
X0012760Y0214219D01*
X0012782Y0214254D01*
X0012808Y0214288D01*
X0012837Y0214320D01*
X0012869Y0214349D01*
X0012903Y0214375D01*
X0012939Y0214397D01*
X0012976Y0214417D01*
X0013016Y0214434D01*
X0013056Y0214446D01*
X0013098Y0214456D01*
X0013140Y0214461D01*
X0013183Y0214463D01*
X0013917Y0214463D01*
X0011634Y0213974D02*
X0011632Y0213931D01*
X0011627Y0213889D01*
X0011617Y0213847D01*
X0011605Y0213807D01*
X0011588Y0213767D01*
X0011568Y0213730D01*
X0011546Y0213694D01*
X0011520Y0213660D01*
X0011491Y0213628D01*
X0011459Y0213599D01*
X0011425Y0213573D01*
X0011389Y0213551D01*
X0011352Y0213531D01*
X0011312Y0213514D01*
X0011272Y0213502D01*
X0011230Y0213492D01*
X0011188Y0213487D01*
X0011145Y0213485D01*
X0011102Y0213487D01*
X0011060Y0213492D01*
X0011018Y0213502D01*
X0010978Y0213514D01*
X0010938Y0213531D01*
X0010901Y0213551D01*
X0010865Y0213573D01*
X0010831Y0213599D01*
X0010799Y0213628D01*
X0010770Y0213660D01*
X0010744Y0213694D01*
X0010722Y0213730D01*
X0010702Y0213767D01*
X0010685Y0213807D01*
X0010673Y0213847D01*
X0010663Y0213889D01*
X0010658Y0213931D01*
X0010656Y0213974D01*
X0010658Y0214017D01*
X0010663Y0214059D01*
X0010673Y0214101D01*
X0010685Y0214141D01*
X0010702Y0214181D01*
X0010722Y0214219D01*
X0010744Y0214254D01*
X0010770Y0214288D01*
X0010799Y0214320D01*
X0010831Y0214349D01*
X0010865Y0214375D01*
X0010901Y0214397D01*
X0010938Y0214417D01*
X0010978Y0214434D01*
X0011018Y0214446D01*
X0011060Y0214456D01*
X0011102Y0214461D01*
X0011145Y0214463D01*
X0011188Y0214461D01*
X0011230Y0214456D01*
X0011272Y0214446D01*
X0011312Y0214434D01*
X0011352Y0214417D01*
X0011390Y0214397D01*
X0011425Y0214375D01*
X0011459Y0214349D01*
X0011491Y0214320D01*
X0011520Y0214288D01*
X0011546Y0214254D01*
X0011568Y0214219D01*
X0011588Y0214181D01*
X0011605Y0214141D01*
X0011617Y0214101D01*
X0011627Y0214059D01*
X0011632Y0214017D01*
X0011634Y0213974D01*
X0011756Y0212874D02*
X0011754Y0212826D01*
X0011748Y0212778D01*
X0011739Y0212731D01*
X0011726Y0212685D01*
X0011709Y0212640D01*
X0011689Y0212597D01*
X0011666Y0212555D01*
X0011639Y0212515D01*
X0011610Y0212477D01*
X0011577Y0212442D01*
X0011542Y0212409D01*
X0011504Y0212380D01*
X0011464Y0212353D01*
X0011422Y0212330D01*
X0011379Y0212310D01*
X0011334Y0212293D01*
X0011288Y0212280D01*
X0011241Y0212271D01*
X0011193Y0212265D01*
X0011145Y0212263D01*
X0011097Y0212265D01*
X0011049Y0212271D01*
X0011002Y0212280D01*
X0010956Y0212293D01*
X0010911Y0212310D01*
X0010868Y0212330D01*
X0010826Y0212353D01*
X0010786Y0212380D01*
X0010748Y0212409D01*
X0010713Y0212442D01*
X0010680Y0212477D01*
X0010651Y0212515D01*
X0010624Y0212555D01*
X0010601Y0212597D01*
X0010581Y0212640D01*
X0010564Y0212685D01*
X0010551Y0212731D01*
X0010542Y0212778D01*
X0010536Y0212826D01*
X0010534Y0212874D01*
X0010536Y0212922D01*
X0010542Y0212970D01*
X0010551Y0213017D01*
X0010564Y0213063D01*
X0010581Y0213108D01*
X0010601Y0213151D01*
X0010624Y0213193D01*
X0010651Y0213233D01*
X0010680Y0213271D01*
X0010713Y0213306D01*
X0010748Y0213339D01*
X0010786Y0213368D01*
X0010826Y0213395D01*
X0010868Y0213418D01*
X0010911Y0213438D01*
X0010956Y0213455D01*
X0011002Y0213468D01*
X0011049Y0213477D01*
X0011097Y0213483D01*
X0011145Y0213485D01*
X0011193Y0213483D01*
X0011241Y0213477D01*
X0011288Y0213468D01*
X0011334Y0213455D01*
X0011379Y0213438D01*
X0011422Y0213418D01*
X0011464Y0213395D01*
X0011504Y0213368D01*
X0011542Y0213339D01*
X0011577Y0213306D01*
X0011610Y0213271D01*
X0011639Y0213233D01*
X0011666Y0213193D01*
X0011689Y0213151D01*
X0011709Y0213108D01*
X0011726Y0213063D01*
X0011739Y0213017D01*
X0011748Y0212970D01*
X0011754Y0212922D01*
X0011756Y0212874D01*
X0011145Y0227263D02*
X0010534Y0229463D01*
X0011757Y0229463D01*
X0011757Y0229219D01*
X0013183Y0229463D02*
X0013917Y0229463D01*
X0013183Y0229463D02*
X0013140Y0229461D01*
X0013098Y0229456D01*
X0013056Y0229446D01*
X0013016Y0229434D01*
X0012976Y0229417D01*
X0012939Y0229397D01*
X0012903Y0229375D01*
X0012869Y0229349D01*
X0012837Y0229320D01*
X0012808Y0229288D01*
X0012782Y0229254D01*
X0012760Y0229219D01*
X0012740Y0229181D01*
X0012723Y0229141D01*
X0012711Y0229101D01*
X0012701Y0229059D01*
X0012696Y0229017D01*
X0012694Y0228974D01*
X0012696Y0228931D01*
X0012701Y0228889D01*
X0012711Y0228847D01*
X0012723Y0228807D01*
X0012740Y0228767D01*
X0012760Y0228730D01*
X0012782Y0228694D01*
X0012808Y0228660D01*
X0012837Y0228628D01*
X0012869Y0228599D01*
X0012903Y0228573D01*
X0012938Y0228551D01*
X0012976Y0228531D01*
X0013016Y0228514D01*
X0013056Y0228502D01*
X0013098Y0228492D01*
X0013140Y0228487D01*
X0013183Y0228485D01*
X0013672Y0228485D01*
X0013305Y0228485D02*
X0013257Y0228483D01*
X0013209Y0228477D01*
X0013162Y0228468D01*
X0013116Y0228455D01*
X0013071Y0228438D01*
X0013028Y0228418D01*
X0012986Y0228395D01*
X0012946Y0228368D01*
X0012908Y0228339D01*
X0012873Y0228306D01*
X0012840Y0228271D01*
X0012811Y0228233D01*
X0012784Y0228193D01*
X0012761Y0228151D01*
X0012741Y0228108D01*
X0012724Y0228063D01*
X0012711Y0228017D01*
X0012702Y0227970D01*
X0012696Y0227922D01*
X0012694Y0227874D01*
X0012696Y0227826D01*
X0012702Y0227778D01*
X0012711Y0227731D01*
X0012724Y0227685D01*
X0012741Y0227640D01*
X0012761Y0227597D01*
X0012784Y0227555D01*
X0012811Y0227515D01*
X0012840Y0227477D01*
X0012873Y0227442D01*
X0012908Y0227409D01*
X0012946Y0227380D01*
X0012986Y0227353D01*
X0013028Y0227330D01*
X0013071Y0227310D01*
X0013116Y0227293D01*
X0013162Y0227280D01*
X0013209Y0227271D01*
X0013257Y0227265D01*
X0013305Y0227263D01*
X0013917Y0227263D01*
X0013917Y0242263D02*
X0013305Y0242263D01*
X0013257Y0242265D01*
X0013209Y0242271D01*
X0013162Y0242280D01*
X0013116Y0242293D01*
X0013071Y0242310D01*
X0013028Y0242330D01*
X0012986Y0242353D01*
X0012946Y0242380D01*
X0012908Y0242409D01*
X0012873Y0242442D01*
X0012840Y0242477D01*
X0012811Y0242515D01*
X0012784Y0242555D01*
X0012761Y0242597D01*
X0012741Y0242640D01*
X0012724Y0242685D01*
X0012711Y0242731D01*
X0012702Y0242778D01*
X0012696Y0242826D01*
X0012694Y0242874D01*
X0012696Y0242922D01*
X0012702Y0242970D01*
X0012711Y0243017D01*
X0012724Y0243063D01*
X0012741Y0243108D01*
X0012761Y0243151D01*
X0012784Y0243193D01*
X0012811Y0243233D01*
X0012840Y0243271D01*
X0012873Y0243306D01*
X0012908Y0243339D01*
X0012946Y0243368D01*
X0012986Y0243395D01*
X0013028Y0243418D01*
X0013071Y0243438D01*
X0013116Y0243455D01*
X0013162Y0243468D01*
X0013209Y0243477D01*
X0013257Y0243483D01*
X0013305Y0243485D01*
X0013183Y0243485D02*
X0013672Y0243485D01*
X0013183Y0243485D02*
X0013140Y0243487D01*
X0013098Y0243492D01*
X0013056Y0243502D01*
X0013016Y0243514D01*
X0012976Y0243531D01*
X0012938Y0243551D01*
X0012903Y0243573D01*
X0012869Y0243599D01*
X0012837Y0243628D01*
X0012808Y0243660D01*
X0012782Y0243694D01*
X0012760Y0243730D01*
X0012740Y0243767D01*
X0012723Y0243807D01*
X0012711Y0243847D01*
X0012701Y0243889D01*
X0012696Y0243931D01*
X0012694Y0243974D01*
X0012696Y0244017D01*
X0012701Y0244059D01*
X0012711Y0244101D01*
X0012723Y0244141D01*
X0012740Y0244181D01*
X0012760Y0244219D01*
X0012782Y0244254D01*
X0012808Y0244288D01*
X0012837Y0244320D01*
X0012869Y0244349D01*
X0012903Y0244375D01*
X0012939Y0244397D01*
X0012976Y0244417D01*
X0013016Y0244434D01*
X0013056Y0244446D01*
X0013098Y0244456D01*
X0013140Y0244461D01*
X0013183Y0244463D01*
X0013917Y0244463D01*
X0011268Y0244463D02*
X0011757Y0242752D01*
X0010534Y0242752D01*
X0010901Y0243241D02*
X0010901Y0242263D01*
X0011145Y0257263D02*
X0011757Y0257263D01*
X0011145Y0257263D02*
X0011097Y0257265D01*
X0011049Y0257271D01*
X0011002Y0257280D01*
X0010956Y0257293D01*
X0010911Y0257310D01*
X0010868Y0257330D01*
X0010826Y0257353D01*
X0010786Y0257380D01*
X0010748Y0257409D01*
X0010713Y0257442D01*
X0010680Y0257477D01*
X0010651Y0257515D01*
X0010624Y0257555D01*
X0010601Y0257597D01*
X0010581Y0257640D01*
X0010564Y0257685D01*
X0010551Y0257731D01*
X0010542Y0257778D01*
X0010536Y0257826D01*
X0010534Y0257874D01*
X0010536Y0257922D01*
X0010542Y0257970D01*
X0010551Y0258017D01*
X0010564Y0258063D01*
X0010581Y0258108D01*
X0010601Y0258151D01*
X0010624Y0258193D01*
X0010651Y0258233D01*
X0010680Y0258271D01*
X0010713Y0258306D01*
X0010748Y0258339D01*
X0010786Y0258368D01*
X0010826Y0258395D01*
X0010868Y0258418D01*
X0010911Y0258438D01*
X0010956Y0258455D01*
X0011002Y0258468D01*
X0011049Y0258477D01*
X0011097Y0258483D01*
X0011145Y0258485D01*
X0011023Y0258485D02*
X0011512Y0258485D01*
X0011023Y0258485D02*
X0010980Y0258487D01*
X0010938Y0258492D01*
X0010896Y0258502D01*
X0010856Y0258514D01*
X0010816Y0258531D01*
X0010778Y0258551D01*
X0010743Y0258573D01*
X0010709Y0258599D01*
X0010677Y0258628D01*
X0010648Y0258660D01*
X0010622Y0258694D01*
X0010600Y0258730D01*
X0010580Y0258767D01*
X0010563Y0258807D01*
X0010551Y0258847D01*
X0010541Y0258889D01*
X0010536Y0258931D01*
X0010534Y0258974D01*
X0010536Y0259017D01*
X0010541Y0259059D01*
X0010551Y0259101D01*
X0010563Y0259141D01*
X0010580Y0259181D01*
X0010600Y0259219D01*
X0010622Y0259254D01*
X0010648Y0259288D01*
X0010677Y0259320D01*
X0010709Y0259349D01*
X0010743Y0259375D01*
X0010779Y0259397D01*
X0010816Y0259417D01*
X0010856Y0259434D01*
X0010896Y0259446D01*
X0010938Y0259456D01*
X0010980Y0259461D01*
X0011023Y0259463D01*
X0011757Y0259463D01*
X0013183Y0259463D02*
X0013917Y0259463D01*
X0013183Y0259463D02*
X0013140Y0259461D01*
X0013098Y0259456D01*
X0013056Y0259446D01*
X0013016Y0259434D01*
X0012976Y0259417D01*
X0012939Y0259397D01*
X0012903Y0259375D01*
X0012869Y0259349D01*
X0012837Y0259320D01*
X0012808Y0259288D01*
X0012782Y0259254D01*
X0012760Y0259219D01*
X0012740Y0259181D01*
X0012723Y0259141D01*
X0012711Y0259101D01*
X0012701Y0259059D01*
X0012696Y0259017D01*
X0012694Y0258974D01*
X0012696Y0258931D01*
X0012701Y0258889D01*
X0012711Y0258847D01*
X0012723Y0258807D01*
X0012740Y0258767D01*
X0012760Y0258730D01*
X0012782Y0258694D01*
X0012808Y0258660D01*
X0012837Y0258628D01*
X0012869Y0258599D01*
X0012903Y0258573D01*
X0012938Y0258551D01*
X0012976Y0258531D01*
X0013016Y0258514D01*
X0013056Y0258502D01*
X0013098Y0258492D01*
X0013140Y0258487D01*
X0013183Y0258485D01*
X0013672Y0258485D01*
X0013305Y0258485D02*
X0013257Y0258483D01*
X0013209Y0258477D01*
X0013162Y0258468D01*
X0013116Y0258455D01*
X0013071Y0258438D01*
X0013028Y0258418D01*
X0012986Y0258395D01*
X0012946Y0258368D01*
X0012908Y0258339D01*
X0012873Y0258306D01*
X0012840Y0258271D01*
X0012811Y0258233D01*
X0012784Y0258193D01*
X0012761Y0258151D01*
X0012741Y0258108D01*
X0012724Y0258063D01*
X0012711Y0258017D01*
X0012702Y0257970D01*
X0012696Y0257922D01*
X0012694Y0257874D01*
X0012696Y0257826D01*
X0012702Y0257778D01*
X0012711Y0257731D01*
X0012724Y0257685D01*
X0012741Y0257640D01*
X0012761Y0257597D01*
X0012784Y0257555D01*
X0012811Y0257515D01*
X0012840Y0257477D01*
X0012873Y0257442D01*
X0012908Y0257409D01*
X0012946Y0257380D01*
X0012986Y0257353D01*
X0013028Y0257330D01*
X0013071Y0257310D01*
X0013116Y0257293D01*
X0013162Y0257280D01*
X0013209Y0257271D01*
X0013257Y0257265D01*
X0013305Y0257263D01*
X0013917Y0257263D01*
X0094117Y0257874D02*
X0094119Y0257826D01*
X0094125Y0257778D01*
X0094134Y0257731D01*
X0094147Y0257685D01*
X0094164Y0257640D01*
X0094184Y0257597D01*
X0094207Y0257555D01*
X0094234Y0257515D01*
X0094263Y0257477D01*
X0094296Y0257442D01*
X0094331Y0257409D01*
X0094369Y0257380D01*
X0094409Y0257353D01*
X0094451Y0257330D01*
X0094494Y0257310D01*
X0094539Y0257293D01*
X0094585Y0257280D01*
X0094632Y0257271D01*
X0094680Y0257265D01*
X0094728Y0257263D01*
X0094776Y0257265D01*
X0094824Y0257271D01*
X0094871Y0257280D01*
X0094917Y0257293D01*
X0094962Y0257310D01*
X0095005Y0257330D01*
X0095047Y0257353D01*
X0095087Y0257380D01*
X0095125Y0257409D01*
X0095160Y0257442D01*
X0095193Y0257477D01*
X0095222Y0257515D01*
X0095249Y0257555D01*
X0095272Y0257597D01*
X0095292Y0257640D01*
X0095309Y0257685D01*
X0095322Y0257731D01*
X0095331Y0257778D01*
X0095337Y0257826D01*
X0095339Y0257874D01*
X0095337Y0257922D01*
X0095331Y0257970D01*
X0095322Y0258017D01*
X0095309Y0258063D01*
X0095292Y0258108D01*
X0095272Y0258151D01*
X0095249Y0258193D01*
X0095222Y0258233D01*
X0095193Y0258271D01*
X0095160Y0258306D01*
X0095125Y0258339D01*
X0095087Y0258368D01*
X0095047Y0258395D01*
X0095005Y0258418D01*
X0094962Y0258438D01*
X0094917Y0258455D01*
X0094871Y0258468D01*
X0094824Y0258477D01*
X0094776Y0258483D01*
X0094728Y0258485D01*
X0094680Y0258483D01*
X0094632Y0258477D01*
X0094585Y0258468D01*
X0094539Y0258455D01*
X0094494Y0258438D01*
X0094451Y0258418D01*
X0094409Y0258395D01*
X0094369Y0258368D01*
X0094331Y0258339D01*
X0094296Y0258306D01*
X0094263Y0258271D01*
X0094234Y0258233D01*
X0094207Y0258193D01*
X0094184Y0258151D01*
X0094164Y0258108D01*
X0094147Y0258063D01*
X0094134Y0258017D01*
X0094125Y0257970D01*
X0094119Y0257922D01*
X0094117Y0257874D01*
X0094239Y0258974D02*
X0094241Y0258931D01*
X0094246Y0258889D01*
X0094256Y0258847D01*
X0094268Y0258807D01*
X0094285Y0258767D01*
X0094305Y0258730D01*
X0094327Y0258694D01*
X0094353Y0258660D01*
X0094382Y0258628D01*
X0094414Y0258599D01*
X0094448Y0258573D01*
X0094484Y0258551D01*
X0094521Y0258531D01*
X0094561Y0258514D01*
X0094601Y0258502D01*
X0094643Y0258492D01*
X0094685Y0258487D01*
X0094728Y0258485D01*
X0094771Y0258487D01*
X0094813Y0258492D01*
X0094855Y0258502D01*
X0094895Y0258514D01*
X0094935Y0258531D01*
X0094973Y0258551D01*
X0095008Y0258573D01*
X0095042Y0258599D01*
X0095074Y0258628D01*
X0095103Y0258660D01*
X0095129Y0258694D01*
X0095151Y0258730D01*
X0095171Y0258767D01*
X0095188Y0258807D01*
X0095200Y0258847D01*
X0095210Y0258889D01*
X0095215Y0258931D01*
X0095217Y0258974D01*
X0095215Y0259017D01*
X0095210Y0259059D01*
X0095200Y0259101D01*
X0095188Y0259141D01*
X0095171Y0259181D01*
X0095151Y0259219D01*
X0095129Y0259254D01*
X0095103Y0259288D01*
X0095074Y0259320D01*
X0095042Y0259349D01*
X0095008Y0259375D01*
X0094973Y0259397D01*
X0094935Y0259417D01*
X0094895Y0259434D01*
X0094855Y0259446D01*
X0094813Y0259456D01*
X0094771Y0259461D01*
X0094728Y0259463D01*
X0094685Y0259461D01*
X0094643Y0259456D01*
X0094601Y0259446D01*
X0094561Y0259434D01*
X0094521Y0259417D01*
X0094484Y0259397D01*
X0094448Y0259375D01*
X0094414Y0259349D01*
X0094382Y0259320D01*
X0094353Y0259288D01*
X0094327Y0259254D01*
X0094305Y0259219D01*
X0094285Y0259181D01*
X0094268Y0259141D01*
X0094256Y0259101D01*
X0094246Y0259059D01*
X0094241Y0259017D01*
X0094239Y0258974D01*
X0096460Y0258485D02*
X0097499Y0257263D01*
X0096277Y0257263D01*
X0097500Y0258975D02*
X0097482Y0259024D01*
X0097460Y0259072D01*
X0097435Y0259118D01*
X0097407Y0259161D01*
X0097375Y0259203D01*
X0097341Y0259243D01*
X0097304Y0259279D01*
X0097264Y0259313D01*
X0097221Y0259344D01*
X0097177Y0259371D01*
X0097131Y0259395D01*
X0097083Y0259416D01*
X0097033Y0259433D01*
X0096983Y0259447D01*
X0096931Y0259456D01*
X0096879Y0259462D01*
X0096827Y0259464D01*
X0096827Y0259463D02*
X0096782Y0259461D01*
X0096736Y0259455D01*
X0096692Y0259446D01*
X0096648Y0259433D01*
X0096606Y0259417D01*
X0096565Y0259397D01*
X0096526Y0259373D01*
X0096489Y0259347D01*
X0096454Y0259318D01*
X0096422Y0259286D01*
X0096393Y0259251D01*
X0096367Y0259214D01*
X0096343Y0259175D01*
X0096323Y0259134D01*
X0096307Y0259092D01*
X0096294Y0259048D01*
X0096285Y0259004D01*
X0096279Y0258958D01*
X0096277Y0258913D01*
X0096276Y0258913D02*
X0096278Y0258865D01*
X0096284Y0258818D01*
X0096293Y0258771D01*
X0096307Y0258725D01*
X0096324Y0258680D01*
X0096344Y0258637D01*
X0096368Y0258596D01*
X0096396Y0258556D01*
X0096426Y0258519D01*
X0096459Y0258485D01*
X0104117Y0258241D02*
X0104117Y0258852D01*
X0104119Y0258900D01*
X0104125Y0258948D01*
X0104134Y0258995D01*
X0104147Y0259041D01*
X0104164Y0259086D01*
X0104184Y0259129D01*
X0104207Y0259171D01*
X0104234Y0259211D01*
X0104263Y0259249D01*
X0104296Y0259284D01*
X0104331Y0259317D01*
X0104369Y0259346D01*
X0104409Y0259373D01*
X0104451Y0259396D01*
X0104494Y0259416D01*
X0104539Y0259433D01*
X0104585Y0259446D01*
X0104632Y0259455D01*
X0104680Y0259461D01*
X0104728Y0259463D01*
X0104776Y0259461D01*
X0104824Y0259455D01*
X0104871Y0259446D01*
X0104917Y0259433D01*
X0104962Y0259416D01*
X0105005Y0259396D01*
X0105047Y0259373D01*
X0105087Y0259346D01*
X0105125Y0259317D01*
X0105160Y0259284D01*
X0105193Y0259249D01*
X0105222Y0259211D01*
X0105249Y0259171D01*
X0105272Y0259129D01*
X0105292Y0259086D01*
X0105309Y0259041D01*
X0105322Y0258995D01*
X0105331Y0258948D01*
X0105337Y0258900D01*
X0105339Y0258852D01*
X0105339Y0258730D01*
X0105337Y0258687D01*
X0105332Y0258645D01*
X0105322Y0258603D01*
X0105310Y0258563D01*
X0105293Y0258523D01*
X0105273Y0258486D01*
X0105251Y0258450D01*
X0105225Y0258416D01*
X0105196Y0258384D01*
X0105164Y0258355D01*
X0105130Y0258329D01*
X0105095Y0258307D01*
X0105057Y0258287D01*
X0105017Y0258270D01*
X0104977Y0258258D01*
X0104935Y0258248D01*
X0104893Y0258243D01*
X0104850Y0258241D01*
X0104117Y0258241D01*
X0104116Y0258241D02*
X0104118Y0258180D01*
X0104124Y0258118D01*
X0104133Y0258058D01*
X0104147Y0257998D01*
X0104164Y0257939D01*
X0104185Y0257881D01*
X0104209Y0257825D01*
X0104237Y0257770D01*
X0104268Y0257717D01*
X0104303Y0257666D01*
X0104340Y0257618D01*
X0104381Y0257572D01*
X0104425Y0257528D01*
X0104471Y0257487D01*
X0104519Y0257450D01*
X0104570Y0257415D01*
X0104623Y0257384D01*
X0104678Y0257356D01*
X0104734Y0257332D01*
X0104792Y0257311D01*
X0104851Y0257294D01*
X0104911Y0257280D01*
X0104971Y0257271D01*
X0105033Y0257265D01*
X0105094Y0257263D01*
X0106277Y0257263D02*
X0107499Y0257263D01*
X0106460Y0258485D01*
X0106827Y0259464D02*
X0106879Y0259462D01*
X0106931Y0259456D01*
X0106983Y0259447D01*
X0107033Y0259433D01*
X0107083Y0259416D01*
X0107131Y0259395D01*
X0107177Y0259371D01*
X0107221Y0259344D01*
X0107264Y0259313D01*
X0107304Y0259279D01*
X0107341Y0259243D01*
X0107375Y0259203D01*
X0107407Y0259161D01*
X0107435Y0259118D01*
X0107460Y0259072D01*
X0107482Y0259024D01*
X0107500Y0258975D01*
X0106459Y0258485D02*
X0106426Y0258519D01*
X0106396Y0258556D01*
X0106368Y0258596D01*
X0106344Y0258637D01*
X0106324Y0258680D01*
X0106307Y0258725D01*
X0106293Y0258771D01*
X0106284Y0258818D01*
X0106278Y0258865D01*
X0106276Y0258913D01*
X0106277Y0258913D02*
X0106279Y0258958D01*
X0106285Y0259004D01*
X0106294Y0259048D01*
X0106307Y0259092D01*
X0106323Y0259134D01*
X0106343Y0259175D01*
X0106367Y0259214D01*
X0106393Y0259251D01*
X0106422Y0259286D01*
X0106454Y0259318D01*
X0106489Y0259347D01*
X0106526Y0259373D01*
X0106565Y0259397D01*
X0106606Y0259417D01*
X0106648Y0259433D01*
X0106692Y0259446D01*
X0106736Y0259455D01*
X0106782Y0259461D01*
X0106827Y0259463D01*
X0115156Y0257569D02*
X0115190Y0257643D01*
X0115221Y0257719D01*
X0115248Y0257797D01*
X0115272Y0257876D01*
X0115293Y0257955D01*
X0115309Y0258036D01*
X0115322Y0258117D01*
X0115332Y0258199D01*
X0115337Y0258281D01*
X0115339Y0258363D01*
X0114116Y0258363D02*
X0114118Y0258445D01*
X0114123Y0258527D01*
X0114133Y0258609D01*
X0114146Y0258690D01*
X0114162Y0258771D01*
X0114183Y0258850D01*
X0114207Y0258929D01*
X0114234Y0259007D01*
X0114265Y0259083D01*
X0114299Y0259157D01*
X0114239Y0258974D02*
X0115217Y0257752D01*
X0114728Y0257263D02*
X0114688Y0257265D01*
X0114648Y0257270D01*
X0114609Y0257279D01*
X0114571Y0257291D01*
X0114534Y0257307D01*
X0114499Y0257325D01*
X0114465Y0257347D01*
X0114434Y0257372D01*
X0114405Y0257399D01*
X0114378Y0257429D01*
X0114354Y0257461D01*
X0114333Y0257495D01*
X0114315Y0257531D01*
X0114300Y0257568D01*
X0114728Y0257263D02*
X0114768Y0257265D01*
X0114808Y0257270D01*
X0114847Y0257279D01*
X0114885Y0257291D01*
X0114922Y0257307D01*
X0114957Y0257325D01*
X0114991Y0257347D01*
X0115022Y0257372D01*
X0115051Y0257399D01*
X0115078Y0257429D01*
X0115102Y0257461D01*
X0115123Y0257495D01*
X0115141Y0257531D01*
X0115156Y0257568D01*
X0114299Y0257569D02*
X0114265Y0257643D01*
X0114234Y0257719D01*
X0114207Y0257797D01*
X0114183Y0257876D01*
X0114162Y0257955D01*
X0114146Y0258036D01*
X0114133Y0258117D01*
X0114123Y0258199D01*
X0114118Y0258281D01*
X0114116Y0258363D01*
X0115339Y0258363D02*
X0115337Y0258445D01*
X0115332Y0258527D01*
X0115322Y0258609D01*
X0115309Y0258690D01*
X0115293Y0258771D01*
X0115272Y0258850D01*
X0115248Y0258929D01*
X0115221Y0259007D01*
X0115190Y0259083D01*
X0115156Y0259157D01*
X0114728Y0259463D02*
X0114688Y0259461D01*
X0114648Y0259456D01*
X0114609Y0259447D01*
X0114571Y0259435D01*
X0114534Y0259419D01*
X0114499Y0259401D01*
X0114465Y0259379D01*
X0114434Y0259354D01*
X0114405Y0259327D01*
X0114378Y0259297D01*
X0114354Y0259265D01*
X0114333Y0259231D01*
X0114315Y0259195D01*
X0114300Y0259158D01*
X0114728Y0259463D02*
X0114768Y0259461D01*
X0114808Y0259456D01*
X0114847Y0259447D01*
X0114885Y0259435D01*
X0114922Y0259419D01*
X0114957Y0259401D01*
X0114991Y0259379D01*
X0115022Y0259354D01*
X0115051Y0259327D01*
X0115078Y0259297D01*
X0115102Y0259265D01*
X0115123Y0259231D01*
X0115141Y0259195D01*
X0115156Y0259158D01*
X0116765Y0259463D02*
X0116722Y0259461D01*
X0116680Y0259456D01*
X0116638Y0259446D01*
X0116598Y0259434D01*
X0116558Y0259417D01*
X0116521Y0259397D01*
X0116485Y0259375D01*
X0116451Y0259349D01*
X0116419Y0259320D01*
X0116390Y0259288D01*
X0116364Y0259254D01*
X0116342Y0259219D01*
X0116322Y0259181D01*
X0116305Y0259141D01*
X0116293Y0259101D01*
X0116283Y0259059D01*
X0116278Y0259017D01*
X0116276Y0258974D01*
X0116278Y0258931D01*
X0116283Y0258889D01*
X0116293Y0258847D01*
X0116305Y0258807D01*
X0116322Y0258767D01*
X0116342Y0258730D01*
X0116364Y0258694D01*
X0116390Y0258660D01*
X0116419Y0258628D01*
X0116451Y0258599D01*
X0116485Y0258573D01*
X0116521Y0258551D01*
X0116558Y0258531D01*
X0116598Y0258514D01*
X0116638Y0258502D01*
X0116680Y0258492D01*
X0116722Y0258487D01*
X0116765Y0258485D01*
X0117254Y0258485D01*
X0116888Y0258485D02*
X0116840Y0258483D01*
X0116792Y0258477D01*
X0116745Y0258468D01*
X0116699Y0258455D01*
X0116654Y0258438D01*
X0116611Y0258418D01*
X0116569Y0258395D01*
X0116529Y0258368D01*
X0116491Y0258339D01*
X0116456Y0258306D01*
X0116423Y0258271D01*
X0116394Y0258233D01*
X0116367Y0258193D01*
X0116344Y0258151D01*
X0116324Y0258108D01*
X0116307Y0258063D01*
X0116294Y0258017D01*
X0116285Y0257970D01*
X0116279Y0257922D01*
X0116277Y0257874D01*
X0116279Y0257826D01*
X0116285Y0257778D01*
X0116294Y0257731D01*
X0116307Y0257685D01*
X0116324Y0257640D01*
X0116344Y0257597D01*
X0116367Y0257555D01*
X0116394Y0257515D01*
X0116423Y0257477D01*
X0116456Y0257442D01*
X0116491Y0257409D01*
X0116529Y0257380D01*
X0116569Y0257353D01*
X0116611Y0257330D01*
X0116654Y0257310D01*
X0116699Y0257293D01*
X0116745Y0257280D01*
X0116792Y0257271D01*
X0116840Y0257265D01*
X0116888Y0257263D01*
X0117499Y0257263D01*
X0117499Y0259463D02*
X0116765Y0259463D01*
X0154117Y0258852D02*
X0154117Y0257874D01*
X0154119Y0257826D01*
X0154125Y0257778D01*
X0154134Y0257731D01*
X0154147Y0257685D01*
X0154164Y0257640D01*
X0154184Y0257597D01*
X0154207Y0257555D01*
X0154234Y0257515D01*
X0154263Y0257477D01*
X0154296Y0257442D01*
X0154331Y0257409D01*
X0154369Y0257380D01*
X0154409Y0257353D01*
X0154451Y0257330D01*
X0154494Y0257310D01*
X0154539Y0257293D01*
X0154585Y0257280D01*
X0154632Y0257271D01*
X0154680Y0257265D01*
X0154728Y0257263D01*
X0155339Y0257263D01*
X0155339Y0259463D01*
X0154728Y0259463D01*
X0154680Y0259461D01*
X0154632Y0259455D01*
X0154585Y0259446D01*
X0154539Y0259433D01*
X0154494Y0259416D01*
X0154451Y0259396D01*
X0154409Y0259373D01*
X0154369Y0259346D01*
X0154331Y0259317D01*
X0154296Y0259284D01*
X0154263Y0259249D01*
X0154234Y0259211D01*
X0154207Y0259171D01*
X0154184Y0259129D01*
X0154164Y0259086D01*
X0154147Y0259041D01*
X0154134Y0258995D01*
X0154125Y0258948D01*
X0154119Y0258900D01*
X0154117Y0258852D01*
X0156421Y0259463D02*
X0156421Y0257263D01*
X0157643Y0259463D01*
X0157643Y0257263D01*
X0158725Y0257263D02*
X0158725Y0258485D01*
X0159091Y0258485D01*
X0159947Y0258974D02*
X0159945Y0259017D01*
X0159940Y0259059D01*
X0159930Y0259101D01*
X0159918Y0259141D01*
X0159901Y0259181D01*
X0159881Y0259219D01*
X0159859Y0259254D01*
X0159833Y0259288D01*
X0159804Y0259320D01*
X0159772Y0259349D01*
X0159738Y0259375D01*
X0159703Y0259397D01*
X0159665Y0259417D01*
X0159625Y0259434D01*
X0159585Y0259446D01*
X0159543Y0259456D01*
X0159501Y0259461D01*
X0159458Y0259463D01*
X0158725Y0259463D01*
X0159947Y0258974D02*
X0159947Y0257752D01*
X0159945Y0257709D01*
X0159940Y0257667D01*
X0159930Y0257625D01*
X0159918Y0257585D01*
X0159901Y0257545D01*
X0159881Y0257508D01*
X0159859Y0257472D01*
X0159833Y0257438D01*
X0159804Y0257406D01*
X0159772Y0257377D01*
X0159738Y0257351D01*
X0159703Y0257329D01*
X0159665Y0257309D01*
X0159625Y0257292D01*
X0159585Y0257280D01*
X0159543Y0257270D01*
X0159501Y0257265D01*
X0159458Y0257263D01*
X0158725Y0257263D01*
X0158925Y0244463D02*
X0159659Y0244463D01*
X0158925Y0244463D02*
X0158882Y0244461D01*
X0158840Y0244456D01*
X0158798Y0244446D01*
X0158758Y0244434D01*
X0158718Y0244417D01*
X0158681Y0244397D01*
X0158645Y0244375D01*
X0158611Y0244349D01*
X0158579Y0244320D01*
X0158550Y0244288D01*
X0158524Y0244254D01*
X0158502Y0244219D01*
X0158482Y0244181D01*
X0158465Y0244141D01*
X0158453Y0244101D01*
X0158443Y0244059D01*
X0158438Y0244017D01*
X0158436Y0243974D01*
X0158438Y0243931D01*
X0158443Y0243889D01*
X0158453Y0243847D01*
X0158465Y0243807D01*
X0158482Y0243767D01*
X0158502Y0243730D01*
X0158524Y0243694D01*
X0158550Y0243660D01*
X0158579Y0243628D01*
X0158611Y0243599D01*
X0158645Y0243573D01*
X0158681Y0243551D01*
X0158718Y0243531D01*
X0158758Y0243514D01*
X0158798Y0243502D01*
X0158840Y0243492D01*
X0158882Y0243487D01*
X0158925Y0243485D01*
X0159414Y0243485D01*
X0159048Y0243485D02*
X0159000Y0243483D01*
X0158952Y0243477D01*
X0158905Y0243468D01*
X0158859Y0243455D01*
X0158814Y0243438D01*
X0158771Y0243418D01*
X0158729Y0243395D01*
X0158689Y0243368D01*
X0158651Y0243339D01*
X0158616Y0243306D01*
X0158583Y0243271D01*
X0158554Y0243233D01*
X0158527Y0243193D01*
X0158504Y0243151D01*
X0158484Y0243108D01*
X0158467Y0243063D01*
X0158454Y0243017D01*
X0158445Y0242970D01*
X0158439Y0242922D01*
X0158437Y0242874D01*
X0158439Y0242826D01*
X0158445Y0242778D01*
X0158454Y0242731D01*
X0158467Y0242685D01*
X0158484Y0242640D01*
X0158504Y0242597D01*
X0158527Y0242555D01*
X0158554Y0242515D01*
X0158583Y0242477D01*
X0158616Y0242442D01*
X0158651Y0242409D01*
X0158689Y0242380D01*
X0158729Y0242353D01*
X0158771Y0242330D01*
X0158814Y0242310D01*
X0158859Y0242293D01*
X0158905Y0242280D01*
X0158952Y0242271D01*
X0159000Y0242265D01*
X0159048Y0242263D01*
X0159659Y0242263D01*
X0160618Y0243119D02*
X0162085Y0243119D01*
X0161352Y0243852D02*
X0161352Y0242385D01*
X0157621Y0244463D02*
X0156888Y0242263D01*
X0156154Y0244463D01*
X0155339Y0244463D02*
X0154605Y0244463D01*
X0154562Y0244461D01*
X0154520Y0244456D01*
X0154478Y0244446D01*
X0154438Y0244434D01*
X0154398Y0244417D01*
X0154361Y0244397D01*
X0154325Y0244375D01*
X0154291Y0244349D01*
X0154259Y0244320D01*
X0154230Y0244288D01*
X0154204Y0244254D01*
X0154182Y0244219D01*
X0154162Y0244181D01*
X0154145Y0244141D01*
X0154133Y0244101D01*
X0154123Y0244059D01*
X0154118Y0244017D01*
X0154116Y0243974D01*
X0154118Y0243931D01*
X0154123Y0243889D01*
X0154133Y0243847D01*
X0154145Y0243807D01*
X0154162Y0243767D01*
X0154182Y0243730D01*
X0154204Y0243694D01*
X0154230Y0243660D01*
X0154259Y0243628D01*
X0154291Y0243599D01*
X0154325Y0243573D01*
X0154361Y0243551D01*
X0154398Y0243531D01*
X0154438Y0243514D01*
X0154478Y0243502D01*
X0154520Y0243492D01*
X0154562Y0243487D01*
X0154605Y0243485D01*
X0155094Y0243485D01*
X0154728Y0243485D02*
X0154680Y0243483D01*
X0154632Y0243477D01*
X0154585Y0243468D01*
X0154539Y0243455D01*
X0154494Y0243438D01*
X0154451Y0243418D01*
X0154409Y0243395D01*
X0154369Y0243368D01*
X0154331Y0243339D01*
X0154296Y0243306D01*
X0154263Y0243271D01*
X0154234Y0243233D01*
X0154207Y0243193D01*
X0154184Y0243151D01*
X0154164Y0243108D01*
X0154147Y0243063D01*
X0154134Y0243017D01*
X0154125Y0242970D01*
X0154119Y0242922D01*
X0154117Y0242874D01*
X0154119Y0242826D01*
X0154125Y0242778D01*
X0154134Y0242731D01*
X0154147Y0242685D01*
X0154164Y0242640D01*
X0154184Y0242597D01*
X0154207Y0242555D01*
X0154234Y0242515D01*
X0154263Y0242477D01*
X0154296Y0242442D01*
X0154331Y0242409D01*
X0154369Y0242380D01*
X0154409Y0242353D01*
X0154451Y0242330D01*
X0154494Y0242310D01*
X0154539Y0242293D01*
X0154585Y0242280D01*
X0154632Y0242271D01*
X0154680Y0242265D01*
X0154728Y0242263D01*
X0155339Y0242263D01*
X0155339Y0233063D02*
X0154117Y0230863D01*
X0154117Y0233063D01*
X0155339Y0233063D02*
X0155339Y0230863D01*
X0156226Y0230863D02*
X0156960Y0233063D01*
X0157693Y0230863D01*
X0157510Y0231413D02*
X0156410Y0231413D01*
X0158399Y0230863D02*
X0158888Y0230863D01*
X0158931Y0230865D01*
X0158973Y0230870D01*
X0159015Y0230880D01*
X0159055Y0230892D01*
X0159095Y0230909D01*
X0159133Y0230929D01*
X0159168Y0230951D01*
X0159202Y0230977D01*
X0159234Y0231006D01*
X0159263Y0231038D01*
X0159289Y0231072D01*
X0159311Y0231108D01*
X0159331Y0231145D01*
X0159348Y0231185D01*
X0159360Y0231225D01*
X0159370Y0231267D01*
X0159375Y0231309D01*
X0159377Y0231352D01*
X0159377Y0232574D01*
X0159375Y0232617D01*
X0159370Y0232659D01*
X0159360Y0232701D01*
X0159348Y0232741D01*
X0159331Y0232781D01*
X0159311Y0232819D01*
X0159289Y0232854D01*
X0159263Y0232888D01*
X0159234Y0232920D01*
X0159202Y0232949D01*
X0159168Y0232975D01*
X0159133Y0232997D01*
X0159095Y0233017D01*
X0159055Y0233034D01*
X0159015Y0233046D01*
X0158973Y0233056D01*
X0158931Y0233061D01*
X0158888Y0233063D01*
X0158399Y0233063D01*
X0157134Y0229463D02*
X0157134Y0227263D01*
X0156157Y0227263D01*
X0155339Y0227874D02*
X0155339Y0228852D01*
X0155337Y0228900D01*
X0155331Y0228948D01*
X0155322Y0228995D01*
X0155309Y0229041D01*
X0155292Y0229086D01*
X0155272Y0229129D01*
X0155249Y0229171D01*
X0155222Y0229211D01*
X0155193Y0229249D01*
X0155160Y0229284D01*
X0155125Y0229317D01*
X0155087Y0229346D01*
X0155047Y0229373D01*
X0155005Y0229396D01*
X0154962Y0229416D01*
X0154917Y0229433D01*
X0154871Y0229446D01*
X0154824Y0229455D01*
X0154776Y0229461D01*
X0154728Y0229463D01*
X0154680Y0229461D01*
X0154632Y0229455D01*
X0154585Y0229446D01*
X0154539Y0229433D01*
X0154494Y0229416D01*
X0154451Y0229396D01*
X0154409Y0229373D01*
X0154369Y0229346D01*
X0154331Y0229317D01*
X0154296Y0229284D01*
X0154263Y0229249D01*
X0154234Y0229211D01*
X0154207Y0229171D01*
X0154184Y0229129D01*
X0154164Y0229086D01*
X0154147Y0229041D01*
X0154134Y0228995D01*
X0154125Y0228948D01*
X0154119Y0228900D01*
X0154117Y0228852D01*
X0154117Y0227874D01*
X0154119Y0227826D01*
X0154125Y0227778D01*
X0154134Y0227731D01*
X0154147Y0227685D01*
X0154164Y0227640D01*
X0154184Y0227597D01*
X0154207Y0227555D01*
X0154234Y0227515D01*
X0154263Y0227477D01*
X0154296Y0227442D01*
X0154331Y0227409D01*
X0154369Y0227380D01*
X0154409Y0227353D01*
X0154451Y0227330D01*
X0154494Y0227310D01*
X0154539Y0227293D01*
X0154585Y0227280D01*
X0154632Y0227271D01*
X0154680Y0227265D01*
X0154728Y0227263D01*
X0154776Y0227265D01*
X0154824Y0227271D01*
X0154871Y0227280D01*
X0154917Y0227293D01*
X0154962Y0227310D01*
X0155005Y0227330D01*
X0155047Y0227353D01*
X0155087Y0227380D01*
X0155125Y0227409D01*
X0155160Y0227442D01*
X0155193Y0227477D01*
X0155222Y0227515D01*
X0155249Y0227555D01*
X0155272Y0227597D01*
X0155292Y0227640D01*
X0155309Y0227685D01*
X0155322Y0227731D01*
X0155331Y0227778D01*
X0155337Y0227826D01*
X0155339Y0227874D01*
X0155339Y0218063D02*
X0154117Y0215863D01*
X0154117Y0218063D01*
X0155339Y0218063D02*
X0155339Y0215863D01*
X0156226Y0215863D02*
X0156960Y0218063D01*
X0157693Y0215863D01*
X0157510Y0216413D02*
X0156410Y0216413D01*
X0156349Y0214463D02*
X0156349Y0212263D01*
X0155339Y0212874D02*
X0155339Y0213852D01*
X0155337Y0213900D01*
X0155331Y0213948D01*
X0155322Y0213995D01*
X0155309Y0214041D01*
X0155292Y0214086D01*
X0155272Y0214129D01*
X0155249Y0214171D01*
X0155222Y0214211D01*
X0155193Y0214249D01*
X0155160Y0214284D01*
X0155125Y0214317D01*
X0155087Y0214346D01*
X0155047Y0214373D01*
X0155005Y0214396D01*
X0154962Y0214416D01*
X0154917Y0214433D01*
X0154871Y0214446D01*
X0154824Y0214455D01*
X0154776Y0214461D01*
X0154728Y0214463D01*
X0154680Y0214461D01*
X0154632Y0214455D01*
X0154585Y0214446D01*
X0154539Y0214433D01*
X0154494Y0214416D01*
X0154451Y0214396D01*
X0154409Y0214373D01*
X0154369Y0214346D01*
X0154331Y0214317D01*
X0154296Y0214284D01*
X0154263Y0214249D01*
X0154234Y0214211D01*
X0154207Y0214171D01*
X0154184Y0214129D01*
X0154164Y0214086D01*
X0154147Y0214041D01*
X0154134Y0213995D01*
X0154125Y0213948D01*
X0154119Y0213900D01*
X0154117Y0213852D01*
X0154117Y0212874D01*
X0154119Y0212826D01*
X0154125Y0212778D01*
X0154134Y0212731D01*
X0154147Y0212685D01*
X0154164Y0212640D01*
X0154184Y0212597D01*
X0154207Y0212555D01*
X0154234Y0212515D01*
X0154263Y0212477D01*
X0154296Y0212442D01*
X0154331Y0212409D01*
X0154369Y0212380D01*
X0154409Y0212353D01*
X0154451Y0212330D01*
X0154494Y0212310D01*
X0154539Y0212293D01*
X0154585Y0212280D01*
X0154632Y0212271D01*
X0154680Y0212265D01*
X0154728Y0212263D01*
X0154776Y0212265D01*
X0154824Y0212271D01*
X0154871Y0212280D01*
X0154917Y0212293D01*
X0154962Y0212310D01*
X0155005Y0212330D01*
X0155047Y0212353D01*
X0155087Y0212380D01*
X0155125Y0212409D01*
X0155160Y0212442D01*
X0155193Y0212477D01*
X0155222Y0212515D01*
X0155249Y0212555D01*
X0155272Y0212597D01*
X0155292Y0212640D01*
X0155309Y0212685D01*
X0155322Y0212731D01*
X0155331Y0212778D01*
X0155337Y0212826D01*
X0155339Y0212874D01*
X0156349Y0213485D02*
X0157571Y0213485D01*
X0157571Y0214463D02*
X0157571Y0212263D01*
X0156960Y0208063D02*
X0156226Y0205863D01*
X0156410Y0206413D02*
X0157510Y0206413D01*
X0157693Y0205863D02*
X0156960Y0208063D01*
X0158399Y0208063D02*
X0158888Y0208063D01*
X0158931Y0208061D01*
X0158973Y0208056D01*
X0159015Y0208046D01*
X0159055Y0208034D01*
X0159095Y0208017D01*
X0159133Y0207997D01*
X0159168Y0207975D01*
X0159202Y0207949D01*
X0159234Y0207920D01*
X0159263Y0207888D01*
X0159289Y0207854D01*
X0159311Y0207819D01*
X0159331Y0207781D01*
X0159348Y0207741D01*
X0159360Y0207701D01*
X0159370Y0207659D01*
X0159375Y0207617D01*
X0159377Y0207574D01*
X0159377Y0206352D01*
X0159375Y0206309D01*
X0159370Y0206267D01*
X0159360Y0206225D01*
X0159348Y0206185D01*
X0159331Y0206145D01*
X0159311Y0206108D01*
X0159289Y0206072D01*
X0159263Y0206038D01*
X0159234Y0206006D01*
X0159202Y0205977D01*
X0159168Y0205951D01*
X0159133Y0205929D01*
X0159095Y0205909D01*
X0159055Y0205892D01*
X0159015Y0205880D01*
X0158973Y0205870D01*
X0158931Y0205865D01*
X0158888Y0205863D01*
X0158399Y0205863D01*
X0155339Y0205863D02*
X0155339Y0208063D01*
X0154117Y0205863D01*
X0154117Y0208063D01*
X0155094Y0204463D02*
X0155094Y0202263D01*
X0154117Y0202263D01*
X0154117Y0193063D02*
X0154117Y0190863D01*
X0155339Y0193063D01*
X0155339Y0190863D01*
X0156226Y0190863D02*
X0156960Y0193063D01*
X0157693Y0190863D01*
X0157510Y0191413D02*
X0156410Y0191413D01*
X0158399Y0190863D02*
X0158888Y0190863D01*
X0158931Y0190865D01*
X0158973Y0190870D01*
X0159015Y0190880D01*
X0159055Y0190892D01*
X0159095Y0190909D01*
X0159133Y0190929D01*
X0159168Y0190951D01*
X0159202Y0190977D01*
X0159234Y0191006D01*
X0159263Y0191038D01*
X0159289Y0191072D01*
X0159311Y0191108D01*
X0159331Y0191145D01*
X0159348Y0191185D01*
X0159360Y0191225D01*
X0159370Y0191267D01*
X0159375Y0191309D01*
X0159377Y0191352D01*
X0159377Y0192574D01*
X0159375Y0192617D01*
X0159370Y0192659D01*
X0159360Y0192701D01*
X0159348Y0192741D01*
X0159331Y0192781D01*
X0159311Y0192819D01*
X0159289Y0192854D01*
X0159263Y0192888D01*
X0159234Y0192920D01*
X0159202Y0192949D01*
X0159168Y0192975D01*
X0159133Y0192997D01*
X0159095Y0193017D01*
X0159055Y0193034D01*
X0159015Y0193046D01*
X0158973Y0193056D01*
X0158931Y0193061D01*
X0158888Y0193063D01*
X0158399Y0193063D01*
X0155339Y0189463D02*
X0155339Y0187263D01*
X0154117Y0187263D02*
X0154117Y0189463D01*
X0154117Y0188485D02*
X0155339Y0188485D01*
X0156765Y0179463D02*
X0157499Y0179463D01*
X0156765Y0179463D02*
X0156722Y0179461D01*
X0156680Y0179456D01*
X0156638Y0179446D01*
X0156598Y0179434D01*
X0156558Y0179417D01*
X0156521Y0179397D01*
X0156485Y0179375D01*
X0156451Y0179349D01*
X0156419Y0179320D01*
X0156390Y0179288D01*
X0156364Y0179254D01*
X0156342Y0179219D01*
X0156322Y0179181D01*
X0156305Y0179141D01*
X0156293Y0179101D01*
X0156283Y0179059D01*
X0156278Y0179017D01*
X0156276Y0178974D01*
X0156278Y0178931D01*
X0156283Y0178889D01*
X0156293Y0178847D01*
X0156305Y0178807D01*
X0156322Y0178767D01*
X0156342Y0178730D01*
X0156364Y0178694D01*
X0156390Y0178660D01*
X0156419Y0178628D01*
X0156451Y0178599D01*
X0156485Y0178573D01*
X0156521Y0178551D01*
X0156558Y0178531D01*
X0156598Y0178514D01*
X0156638Y0178502D01*
X0156680Y0178492D01*
X0156722Y0178487D01*
X0156765Y0178485D01*
X0157254Y0178485D01*
X0156888Y0178485D02*
X0156840Y0178483D01*
X0156792Y0178477D01*
X0156745Y0178468D01*
X0156699Y0178455D01*
X0156654Y0178438D01*
X0156611Y0178418D01*
X0156569Y0178395D01*
X0156529Y0178368D01*
X0156491Y0178339D01*
X0156456Y0178306D01*
X0156423Y0178271D01*
X0156394Y0178233D01*
X0156367Y0178193D01*
X0156344Y0178151D01*
X0156324Y0178108D01*
X0156307Y0178063D01*
X0156294Y0178017D01*
X0156285Y0177970D01*
X0156279Y0177922D01*
X0156277Y0177874D01*
X0156279Y0177826D01*
X0156285Y0177778D01*
X0156294Y0177731D01*
X0156307Y0177685D01*
X0156324Y0177640D01*
X0156344Y0177597D01*
X0156367Y0177555D01*
X0156394Y0177515D01*
X0156423Y0177477D01*
X0156456Y0177442D01*
X0156491Y0177409D01*
X0156529Y0177380D01*
X0156569Y0177353D01*
X0156611Y0177330D01*
X0156654Y0177310D01*
X0156699Y0177293D01*
X0156745Y0177280D01*
X0156792Y0177271D01*
X0156840Y0177265D01*
X0156888Y0177263D01*
X0157499Y0177263D01*
X0155339Y0177263D02*
X0154300Y0178485D01*
X0154667Y0179464D02*
X0154719Y0179462D01*
X0154771Y0179456D01*
X0154823Y0179447D01*
X0154873Y0179433D01*
X0154923Y0179416D01*
X0154971Y0179395D01*
X0155017Y0179371D01*
X0155061Y0179344D01*
X0155104Y0179313D01*
X0155144Y0179279D01*
X0155181Y0179243D01*
X0155215Y0179203D01*
X0155247Y0179161D01*
X0155275Y0179118D01*
X0155300Y0179072D01*
X0155322Y0179024D01*
X0155340Y0178975D01*
X0154299Y0178485D02*
X0154266Y0178519D01*
X0154236Y0178556D01*
X0154208Y0178596D01*
X0154184Y0178637D01*
X0154164Y0178680D01*
X0154147Y0178725D01*
X0154133Y0178771D01*
X0154124Y0178818D01*
X0154118Y0178865D01*
X0154116Y0178913D01*
X0154117Y0178913D02*
X0154119Y0178958D01*
X0154125Y0179004D01*
X0154134Y0179048D01*
X0154147Y0179092D01*
X0154163Y0179134D01*
X0154183Y0179175D01*
X0154207Y0179214D01*
X0154233Y0179251D01*
X0154262Y0179286D01*
X0154294Y0179318D01*
X0154329Y0179347D01*
X0154366Y0179373D01*
X0154405Y0179397D01*
X0154446Y0179417D01*
X0154488Y0179433D01*
X0154532Y0179446D01*
X0154576Y0179455D01*
X0154622Y0179461D01*
X0154667Y0179463D01*
X0154117Y0177263D02*
X0155339Y0177263D01*
X0154728Y0164463D02*
X0154728Y0162263D01*
X0155339Y0162263D02*
X0154117Y0162263D01*
X0155339Y0163974D02*
X0154728Y0164463D01*
X0156765Y0164463D02*
X0157499Y0164463D01*
X0156765Y0164463D02*
X0156722Y0164461D01*
X0156680Y0164456D01*
X0156638Y0164446D01*
X0156598Y0164434D01*
X0156558Y0164417D01*
X0156521Y0164397D01*
X0156485Y0164375D01*
X0156451Y0164349D01*
X0156419Y0164320D01*
X0156390Y0164288D01*
X0156364Y0164254D01*
X0156342Y0164219D01*
X0156322Y0164181D01*
X0156305Y0164141D01*
X0156293Y0164101D01*
X0156283Y0164059D01*
X0156278Y0164017D01*
X0156276Y0163974D01*
X0156278Y0163931D01*
X0156283Y0163889D01*
X0156293Y0163847D01*
X0156305Y0163807D01*
X0156322Y0163767D01*
X0156342Y0163730D01*
X0156364Y0163694D01*
X0156390Y0163660D01*
X0156419Y0163628D01*
X0156451Y0163599D01*
X0156485Y0163573D01*
X0156521Y0163551D01*
X0156558Y0163531D01*
X0156598Y0163514D01*
X0156638Y0163502D01*
X0156680Y0163492D01*
X0156722Y0163487D01*
X0156765Y0163485D01*
X0157254Y0163485D01*
X0156888Y0163485D02*
X0156840Y0163483D01*
X0156792Y0163477D01*
X0156745Y0163468D01*
X0156699Y0163455D01*
X0156654Y0163438D01*
X0156611Y0163418D01*
X0156569Y0163395D01*
X0156529Y0163368D01*
X0156491Y0163339D01*
X0156456Y0163306D01*
X0156423Y0163271D01*
X0156394Y0163233D01*
X0156367Y0163193D01*
X0156344Y0163151D01*
X0156324Y0163108D01*
X0156307Y0163063D01*
X0156294Y0163017D01*
X0156285Y0162970D01*
X0156279Y0162922D01*
X0156277Y0162874D01*
X0156279Y0162826D01*
X0156285Y0162778D01*
X0156294Y0162731D01*
X0156307Y0162685D01*
X0156324Y0162640D01*
X0156344Y0162597D01*
X0156367Y0162555D01*
X0156394Y0162515D01*
X0156423Y0162477D01*
X0156456Y0162442D01*
X0156491Y0162409D01*
X0156529Y0162380D01*
X0156569Y0162353D01*
X0156611Y0162330D01*
X0156654Y0162310D01*
X0156699Y0162293D01*
X0156745Y0162280D01*
X0156792Y0162271D01*
X0156840Y0162265D01*
X0156888Y0162263D01*
X0157499Y0162263D01*
X0156888Y0149463D02*
X0156888Y0147263D01*
X0157499Y0147263D02*
X0156277Y0147263D01*
X0155339Y0147263D02*
X0154300Y0148485D01*
X0154667Y0149464D02*
X0154719Y0149462D01*
X0154771Y0149456D01*
X0154823Y0149447D01*
X0154873Y0149433D01*
X0154923Y0149416D01*
X0154971Y0149395D01*
X0155017Y0149371D01*
X0155061Y0149344D01*
X0155104Y0149313D01*
X0155144Y0149279D01*
X0155181Y0149243D01*
X0155215Y0149203D01*
X0155247Y0149161D01*
X0155275Y0149118D01*
X0155300Y0149072D01*
X0155322Y0149024D01*
X0155340Y0148975D01*
X0154299Y0148485D02*
X0154266Y0148519D01*
X0154236Y0148556D01*
X0154208Y0148596D01*
X0154184Y0148637D01*
X0154164Y0148680D01*
X0154147Y0148725D01*
X0154133Y0148771D01*
X0154124Y0148818D01*
X0154118Y0148865D01*
X0154116Y0148913D01*
X0154117Y0148913D02*
X0154119Y0148958D01*
X0154125Y0149004D01*
X0154134Y0149048D01*
X0154147Y0149092D01*
X0154163Y0149134D01*
X0154183Y0149175D01*
X0154207Y0149214D01*
X0154233Y0149251D01*
X0154262Y0149286D01*
X0154294Y0149318D01*
X0154329Y0149347D01*
X0154366Y0149373D01*
X0154405Y0149397D01*
X0154446Y0149417D01*
X0154488Y0149433D01*
X0154532Y0149446D01*
X0154576Y0149455D01*
X0154622Y0149461D01*
X0154667Y0149463D01*
X0156888Y0149463D02*
X0157499Y0148974D01*
X0155339Y0147263D02*
X0154117Y0147263D01*
X0154728Y0134463D02*
X0154728Y0132263D01*
X0155339Y0132263D02*
X0154117Y0132263D01*
X0155339Y0133974D02*
X0154728Y0134463D01*
X0156888Y0134463D02*
X0156888Y0132263D01*
X0157499Y0132263D02*
X0156277Y0132263D01*
X0157499Y0133974D02*
X0156888Y0134463D01*
X0156888Y0124463D02*
X0156888Y0122263D01*
X0157499Y0122263D02*
X0156277Y0122263D01*
X0154299Y0122569D02*
X0154265Y0122643D01*
X0154234Y0122719D01*
X0154207Y0122797D01*
X0154183Y0122876D01*
X0154162Y0122955D01*
X0154146Y0123036D01*
X0154133Y0123117D01*
X0154123Y0123199D01*
X0154118Y0123281D01*
X0154116Y0123363D01*
X0155339Y0123363D02*
X0155337Y0123445D01*
X0155332Y0123527D01*
X0155322Y0123609D01*
X0155309Y0123690D01*
X0155293Y0123771D01*
X0155272Y0123850D01*
X0155248Y0123929D01*
X0155221Y0124007D01*
X0155190Y0124083D01*
X0155156Y0124157D01*
X0154728Y0124463D02*
X0154688Y0124461D01*
X0154648Y0124456D01*
X0154609Y0124447D01*
X0154571Y0124435D01*
X0154534Y0124419D01*
X0154499Y0124401D01*
X0154465Y0124379D01*
X0154434Y0124354D01*
X0154405Y0124327D01*
X0154378Y0124297D01*
X0154354Y0124265D01*
X0154333Y0124231D01*
X0154315Y0124195D01*
X0154300Y0124158D01*
X0154239Y0123974D02*
X0155217Y0122752D01*
X0154728Y0122263D02*
X0154688Y0122265D01*
X0154648Y0122270D01*
X0154609Y0122279D01*
X0154571Y0122291D01*
X0154534Y0122307D01*
X0154499Y0122325D01*
X0154465Y0122347D01*
X0154434Y0122372D01*
X0154405Y0122399D01*
X0154378Y0122429D01*
X0154354Y0122461D01*
X0154333Y0122495D01*
X0154315Y0122531D01*
X0154300Y0122568D01*
X0154728Y0122263D02*
X0154768Y0122265D01*
X0154808Y0122270D01*
X0154847Y0122279D01*
X0154885Y0122291D01*
X0154922Y0122307D01*
X0154957Y0122325D01*
X0154991Y0122347D01*
X0155022Y0122372D01*
X0155051Y0122399D01*
X0155078Y0122429D01*
X0155102Y0122461D01*
X0155123Y0122495D01*
X0155141Y0122531D01*
X0155156Y0122568D01*
X0154116Y0123363D02*
X0154118Y0123445D01*
X0154123Y0123527D01*
X0154133Y0123609D01*
X0154146Y0123690D01*
X0154162Y0123771D01*
X0154183Y0123850D01*
X0154207Y0123929D01*
X0154234Y0124007D01*
X0154265Y0124083D01*
X0154299Y0124157D01*
X0154728Y0124463D02*
X0154768Y0124461D01*
X0154808Y0124456D01*
X0154847Y0124447D01*
X0154885Y0124435D01*
X0154922Y0124419D01*
X0154957Y0124401D01*
X0154991Y0124379D01*
X0155022Y0124354D01*
X0155051Y0124327D01*
X0155078Y0124297D01*
X0155102Y0124265D01*
X0155123Y0124231D01*
X0155141Y0124195D01*
X0155156Y0124158D01*
X0156888Y0124463D02*
X0157499Y0123974D01*
X0155339Y0123363D02*
X0155337Y0123281D01*
X0155332Y0123199D01*
X0155322Y0123117D01*
X0155309Y0123036D01*
X0155293Y0122955D01*
X0155272Y0122876D01*
X0155248Y0122797D01*
X0155221Y0122719D01*
X0155190Y0122643D01*
X0155156Y0122569D01*
X0155339Y0109463D02*
X0154605Y0109463D01*
X0154562Y0109461D01*
X0154520Y0109456D01*
X0154478Y0109446D01*
X0154438Y0109434D01*
X0154398Y0109417D01*
X0154361Y0109397D01*
X0154325Y0109375D01*
X0154291Y0109349D01*
X0154259Y0109320D01*
X0154230Y0109288D01*
X0154204Y0109254D01*
X0154182Y0109219D01*
X0154162Y0109181D01*
X0154145Y0109141D01*
X0154133Y0109101D01*
X0154123Y0109059D01*
X0154118Y0109017D01*
X0154116Y0108974D01*
X0154118Y0108931D01*
X0154123Y0108889D01*
X0154133Y0108847D01*
X0154145Y0108807D01*
X0154162Y0108767D01*
X0154182Y0108730D01*
X0154204Y0108694D01*
X0154230Y0108660D01*
X0154259Y0108628D01*
X0154291Y0108599D01*
X0154325Y0108573D01*
X0154361Y0108551D01*
X0154398Y0108531D01*
X0154438Y0108514D01*
X0154478Y0108502D01*
X0154520Y0108492D01*
X0154562Y0108487D01*
X0154605Y0108485D01*
X0155094Y0108485D01*
X0154728Y0108485D02*
X0154680Y0108483D01*
X0154632Y0108477D01*
X0154585Y0108468D01*
X0154539Y0108455D01*
X0154494Y0108438D01*
X0154451Y0108418D01*
X0154409Y0108395D01*
X0154369Y0108368D01*
X0154331Y0108339D01*
X0154296Y0108306D01*
X0154263Y0108271D01*
X0154234Y0108233D01*
X0154207Y0108193D01*
X0154184Y0108151D01*
X0154164Y0108108D01*
X0154147Y0108063D01*
X0154134Y0108017D01*
X0154125Y0107970D01*
X0154119Y0107922D01*
X0154117Y0107874D01*
X0154119Y0107826D01*
X0154125Y0107778D01*
X0154134Y0107731D01*
X0154147Y0107685D01*
X0154164Y0107640D01*
X0154184Y0107597D01*
X0154207Y0107555D01*
X0154234Y0107515D01*
X0154263Y0107477D01*
X0154296Y0107442D01*
X0154331Y0107409D01*
X0154369Y0107380D01*
X0154409Y0107353D01*
X0154451Y0107330D01*
X0154494Y0107310D01*
X0154539Y0107293D01*
X0154585Y0107280D01*
X0154632Y0107271D01*
X0154680Y0107265D01*
X0154728Y0107263D01*
X0155339Y0107263D01*
X0156277Y0107263D02*
X0157499Y0107263D01*
X0156888Y0107263D02*
X0156888Y0109463D01*
X0157499Y0108974D01*
X0143917Y0193695D02*
X0141717Y0193695D01*
X0142694Y0193695D02*
X0142694Y0194306D01*
X0142694Y0194429D02*
X0141717Y0194917D01*
X0142328Y0195841D02*
X0142280Y0195843D01*
X0142232Y0195849D01*
X0142185Y0195858D01*
X0142139Y0195871D01*
X0142094Y0195888D01*
X0142051Y0195908D01*
X0142009Y0195931D01*
X0141969Y0195958D01*
X0141931Y0195987D01*
X0141896Y0196020D01*
X0141863Y0196055D01*
X0141834Y0196093D01*
X0141807Y0196133D01*
X0141784Y0196175D01*
X0141764Y0196218D01*
X0141747Y0196263D01*
X0141734Y0196309D01*
X0141725Y0196356D01*
X0141719Y0196404D01*
X0141717Y0196452D01*
X0141719Y0196500D01*
X0141725Y0196548D01*
X0141734Y0196595D01*
X0141747Y0196641D01*
X0141764Y0196686D01*
X0141784Y0196729D01*
X0141807Y0196771D01*
X0141834Y0196811D01*
X0141863Y0196849D01*
X0141896Y0196884D01*
X0141931Y0196917D01*
X0141969Y0196946D01*
X0142009Y0196973D01*
X0142051Y0196996D01*
X0142094Y0197016D01*
X0142139Y0197033D01*
X0142185Y0197046D01*
X0142232Y0197055D01*
X0142280Y0197061D01*
X0142328Y0197063D01*
X0142376Y0197061D01*
X0142424Y0197055D01*
X0142471Y0197046D01*
X0142517Y0197033D01*
X0142562Y0197016D01*
X0142605Y0196996D01*
X0142647Y0196973D01*
X0142687Y0196946D01*
X0142725Y0196917D01*
X0142760Y0196884D01*
X0142793Y0196849D01*
X0142822Y0196811D01*
X0142849Y0196771D01*
X0142872Y0196729D01*
X0142892Y0196686D01*
X0142909Y0196641D01*
X0142922Y0196595D01*
X0142931Y0196548D01*
X0142937Y0196500D01*
X0142939Y0196452D01*
X0142937Y0196404D01*
X0142931Y0196356D01*
X0142922Y0196309D01*
X0142909Y0196263D01*
X0142892Y0196218D01*
X0142872Y0196175D01*
X0142849Y0196133D01*
X0142822Y0196093D01*
X0142793Y0196055D01*
X0142760Y0196020D01*
X0142725Y0195987D01*
X0142687Y0195958D01*
X0142647Y0195931D01*
X0142605Y0195908D01*
X0142562Y0195888D01*
X0142517Y0195871D01*
X0142471Y0195858D01*
X0142424Y0195849D01*
X0142376Y0195843D01*
X0142328Y0195841D01*
X0143428Y0195963D02*
X0143385Y0195965D01*
X0143343Y0195970D01*
X0143301Y0195980D01*
X0143261Y0195992D01*
X0143221Y0196009D01*
X0143184Y0196029D01*
X0143148Y0196051D01*
X0143114Y0196077D01*
X0143082Y0196106D01*
X0143053Y0196138D01*
X0143027Y0196172D01*
X0143005Y0196208D01*
X0142985Y0196245D01*
X0142968Y0196285D01*
X0142956Y0196325D01*
X0142946Y0196367D01*
X0142941Y0196409D01*
X0142939Y0196452D01*
X0142941Y0196495D01*
X0142946Y0196537D01*
X0142956Y0196579D01*
X0142968Y0196619D01*
X0142985Y0196659D01*
X0143005Y0196697D01*
X0143027Y0196732D01*
X0143053Y0196766D01*
X0143082Y0196798D01*
X0143114Y0196827D01*
X0143148Y0196853D01*
X0143184Y0196875D01*
X0143221Y0196895D01*
X0143261Y0196912D01*
X0143301Y0196924D01*
X0143343Y0196934D01*
X0143385Y0196939D01*
X0143428Y0196941D01*
X0143471Y0196939D01*
X0143513Y0196934D01*
X0143555Y0196924D01*
X0143595Y0196912D01*
X0143635Y0196895D01*
X0143673Y0196875D01*
X0143708Y0196853D01*
X0143742Y0196827D01*
X0143774Y0196798D01*
X0143803Y0196766D01*
X0143829Y0196732D01*
X0143851Y0196697D01*
X0143871Y0196659D01*
X0143888Y0196619D01*
X0143900Y0196579D01*
X0143910Y0196537D01*
X0143915Y0196495D01*
X0143917Y0196452D01*
X0143915Y0196409D01*
X0143910Y0196367D01*
X0143900Y0196325D01*
X0143888Y0196285D01*
X0143871Y0196245D01*
X0143851Y0196208D01*
X0143829Y0196172D01*
X0143803Y0196138D01*
X0143774Y0196106D01*
X0143742Y0196077D01*
X0143708Y0196051D01*
X0143673Y0196029D01*
X0143635Y0196009D01*
X0143595Y0195992D01*
X0143555Y0195980D01*
X0143513Y0195970D01*
X0143471Y0195965D01*
X0143428Y0195963D01*
X0143916Y0194306D02*
X0143914Y0194354D01*
X0143908Y0194402D01*
X0143899Y0194449D01*
X0143886Y0194495D01*
X0143869Y0194540D01*
X0143849Y0194583D01*
X0143826Y0194625D01*
X0143799Y0194665D01*
X0143770Y0194703D01*
X0143737Y0194738D01*
X0143702Y0194771D01*
X0143664Y0194800D01*
X0143624Y0194827D01*
X0143582Y0194850D01*
X0143539Y0194870D01*
X0143494Y0194887D01*
X0143448Y0194900D01*
X0143401Y0194909D01*
X0143353Y0194915D01*
X0143305Y0194917D01*
X0143257Y0194915D01*
X0143209Y0194909D01*
X0143162Y0194900D01*
X0143116Y0194887D01*
X0143071Y0194870D01*
X0143028Y0194850D01*
X0142986Y0194827D01*
X0142946Y0194800D01*
X0142908Y0194771D01*
X0142873Y0194738D01*
X0142840Y0194703D01*
X0142811Y0194665D01*
X0142784Y0194625D01*
X0142761Y0194583D01*
X0142741Y0194540D01*
X0142724Y0194495D01*
X0142711Y0194449D01*
X0142702Y0194402D01*
X0142696Y0194354D01*
X0142694Y0194306D01*
X0143917Y0194306D02*
X0143917Y0193695D01*
X0158399Y0215863D02*
X0158888Y0215863D01*
X0158931Y0215865D01*
X0158973Y0215870D01*
X0159015Y0215880D01*
X0159055Y0215892D01*
X0159095Y0215909D01*
X0159133Y0215929D01*
X0159168Y0215951D01*
X0159202Y0215977D01*
X0159234Y0216006D01*
X0159263Y0216038D01*
X0159289Y0216072D01*
X0159311Y0216108D01*
X0159331Y0216145D01*
X0159348Y0216185D01*
X0159360Y0216225D01*
X0159370Y0216267D01*
X0159375Y0216309D01*
X0159377Y0216352D01*
X0159377Y0217574D01*
X0159375Y0217617D01*
X0159370Y0217659D01*
X0159360Y0217701D01*
X0159348Y0217741D01*
X0159331Y0217781D01*
X0159311Y0217819D01*
X0159289Y0217854D01*
X0159263Y0217888D01*
X0159234Y0217920D01*
X0159202Y0217949D01*
X0159168Y0217975D01*
X0159133Y0217997D01*
X0159095Y0218017D01*
X0159055Y0218034D01*
X0159015Y0218046D01*
X0158973Y0218056D01*
X0158931Y0218061D01*
X0158888Y0218063D01*
X0158399Y0218063D01*
X0053428Y0014463D02*
X0052694Y0014463D01*
X0053428Y0014463D02*
X0053471Y0014461D01*
X0053513Y0014456D01*
X0053555Y0014446D01*
X0053595Y0014434D01*
X0053635Y0014417D01*
X0053673Y0014397D01*
X0053708Y0014375D01*
X0053742Y0014349D01*
X0053774Y0014320D01*
X0053803Y0014288D01*
X0053829Y0014254D01*
X0053851Y0014219D01*
X0053871Y0014181D01*
X0053888Y0014141D01*
X0053900Y0014101D01*
X0053910Y0014059D01*
X0053915Y0014017D01*
X0053917Y0013974D01*
X0053917Y0012752D01*
X0053915Y0012709D01*
X0053910Y0012667D01*
X0053900Y0012625D01*
X0053888Y0012585D01*
X0053871Y0012545D01*
X0053851Y0012508D01*
X0053829Y0012472D01*
X0053803Y0012438D01*
X0053774Y0012406D01*
X0053742Y0012377D01*
X0053708Y0012351D01*
X0053673Y0012329D01*
X0053635Y0012309D01*
X0053595Y0012292D01*
X0053555Y0012280D01*
X0053513Y0012270D01*
X0053471Y0012265D01*
X0053428Y0012263D01*
X0052694Y0012263D01*
X0052694Y0013485D01*
X0053061Y0013485D01*
X0051613Y0014463D02*
X0050390Y0012263D01*
X0050390Y0014463D01*
X0049309Y0014463D02*
X0049309Y0012263D01*
X0048697Y0012263D01*
X0048649Y0012265D01*
X0048601Y0012271D01*
X0048554Y0012280D01*
X0048508Y0012293D01*
X0048463Y0012310D01*
X0048420Y0012330D01*
X0048378Y0012353D01*
X0048338Y0012380D01*
X0048300Y0012409D01*
X0048265Y0012442D01*
X0048232Y0012477D01*
X0048203Y0012515D01*
X0048176Y0012555D01*
X0048153Y0012597D01*
X0048133Y0012640D01*
X0048116Y0012685D01*
X0048103Y0012731D01*
X0048094Y0012778D01*
X0048088Y0012826D01*
X0048086Y0012874D01*
X0048086Y0013852D01*
X0048088Y0013900D01*
X0048094Y0013948D01*
X0048103Y0013995D01*
X0048116Y0014041D01*
X0048133Y0014086D01*
X0048153Y0014129D01*
X0048176Y0014171D01*
X0048203Y0014211D01*
X0048232Y0014249D01*
X0048265Y0014284D01*
X0048300Y0014317D01*
X0048338Y0014346D01*
X0048378Y0014373D01*
X0048420Y0014396D01*
X0048463Y0014416D01*
X0048508Y0014433D01*
X0048554Y0014446D01*
X0048601Y0014455D01*
X0048649Y0014461D01*
X0048697Y0014463D01*
X0049309Y0014463D01*
X0051613Y0014463D02*
X0051613Y0012263D01*
X0043917Y0013119D02*
X0042450Y0013119D01*
X0043183Y0013852D02*
X0043183Y0012385D01*
X0041490Y0012263D02*
X0040268Y0012263D01*
X0040879Y0012263D02*
X0040879Y0014463D01*
X0041490Y0013974D01*
X0039330Y0012263D02*
X0038108Y0012263D01*
X0039330Y0012263D02*
X0038291Y0013485D01*
X0038658Y0014464D02*
X0038710Y0014462D01*
X0038762Y0014456D01*
X0038814Y0014447D01*
X0038864Y0014433D01*
X0038914Y0014416D01*
X0038962Y0014395D01*
X0039008Y0014371D01*
X0039052Y0014344D01*
X0039095Y0014313D01*
X0039135Y0014279D01*
X0039172Y0014243D01*
X0039206Y0014203D01*
X0039238Y0014161D01*
X0039266Y0014118D01*
X0039291Y0014072D01*
X0039313Y0014024D01*
X0039331Y0013975D01*
X0038291Y0013485D02*
X0038258Y0013519D01*
X0038228Y0013556D01*
X0038200Y0013596D01*
X0038176Y0013637D01*
X0038156Y0013680D01*
X0038139Y0013725D01*
X0038125Y0013771D01*
X0038116Y0013818D01*
X0038110Y0013865D01*
X0038108Y0013913D01*
X0038110Y0013958D01*
X0038116Y0014004D01*
X0038125Y0014048D01*
X0038138Y0014092D01*
X0038154Y0014134D01*
X0038174Y0014175D01*
X0038198Y0014214D01*
X0038224Y0014251D01*
X0038253Y0014286D01*
X0038285Y0014318D01*
X0038320Y0014347D01*
X0038357Y0014373D01*
X0038396Y0014397D01*
X0038437Y0014417D01*
X0038479Y0014433D01*
X0038523Y0014446D01*
X0038567Y0014455D01*
X0038613Y0014461D01*
X0038658Y0014463D01*
X0037293Y0014463D02*
X0036559Y0012263D01*
X0035826Y0014463D01*
M02*
