G75*
%MOIN*%
%OFA0B0*%
%FSLAX25Y25*%
%IPPOS*%
%LPD*%
%AMOC8*
5,1,8,0,0,1.08239X$1,22.5*
%
%ADD10C,0.00000*%
%ADD11R,0.04331X0.03937*%
%ADD12R,0.22835X0.24409*%
%ADD13R,0.06299X0.11811*%
%ADD14C,0.05937*%
%ADD15R,0.05937X0.05937*%
%ADD16R,0.03150X0.03150*%
%ADD17R,0.03937X0.04331*%
%ADD18R,0.02200X0.07800*%
%ADD19R,0.09449X0.07087*%
%ADD20C,0.01000*%
%ADD21C,0.02387*%
D10*
X0004017Y0007163D02*
X0004017Y0267164D01*
X0163938Y0267164D01*
X0163938Y0007163D01*
X0004017Y0007163D01*
X0013111Y0022163D02*
X0013113Y0022316D01*
X0013119Y0022470D01*
X0013129Y0022623D01*
X0013143Y0022775D01*
X0013161Y0022928D01*
X0013183Y0023079D01*
X0013208Y0023230D01*
X0013238Y0023381D01*
X0013272Y0023531D01*
X0013309Y0023679D01*
X0013350Y0023827D01*
X0013395Y0023973D01*
X0013444Y0024119D01*
X0013497Y0024263D01*
X0013553Y0024405D01*
X0013613Y0024546D01*
X0013677Y0024686D01*
X0013744Y0024824D01*
X0013815Y0024960D01*
X0013890Y0025094D01*
X0013967Y0025226D01*
X0014049Y0025356D01*
X0014133Y0025484D01*
X0014221Y0025610D01*
X0014312Y0025733D01*
X0014406Y0025854D01*
X0014504Y0025972D01*
X0014604Y0026088D01*
X0014708Y0026201D01*
X0014814Y0026312D01*
X0014923Y0026420D01*
X0015035Y0026525D01*
X0015149Y0026626D01*
X0015267Y0026725D01*
X0015386Y0026821D01*
X0015508Y0026914D01*
X0015633Y0027003D01*
X0015760Y0027090D01*
X0015889Y0027172D01*
X0016020Y0027252D01*
X0016153Y0027328D01*
X0016288Y0027401D01*
X0016425Y0027470D01*
X0016564Y0027535D01*
X0016704Y0027597D01*
X0016846Y0027655D01*
X0016989Y0027710D01*
X0017134Y0027761D01*
X0017280Y0027808D01*
X0017427Y0027851D01*
X0017575Y0027890D01*
X0017724Y0027926D01*
X0017874Y0027957D01*
X0018025Y0027985D01*
X0018176Y0028009D01*
X0018329Y0028029D01*
X0018481Y0028045D01*
X0018634Y0028057D01*
X0018787Y0028065D01*
X0018940Y0028069D01*
X0019094Y0028069D01*
X0019247Y0028065D01*
X0019400Y0028057D01*
X0019553Y0028045D01*
X0019705Y0028029D01*
X0019858Y0028009D01*
X0020009Y0027985D01*
X0020160Y0027957D01*
X0020310Y0027926D01*
X0020459Y0027890D01*
X0020607Y0027851D01*
X0020754Y0027808D01*
X0020900Y0027761D01*
X0021045Y0027710D01*
X0021188Y0027655D01*
X0021330Y0027597D01*
X0021470Y0027535D01*
X0021609Y0027470D01*
X0021746Y0027401D01*
X0021881Y0027328D01*
X0022014Y0027252D01*
X0022145Y0027172D01*
X0022274Y0027090D01*
X0022401Y0027003D01*
X0022526Y0026914D01*
X0022648Y0026821D01*
X0022767Y0026725D01*
X0022885Y0026626D01*
X0022999Y0026525D01*
X0023111Y0026420D01*
X0023220Y0026312D01*
X0023326Y0026201D01*
X0023430Y0026088D01*
X0023530Y0025972D01*
X0023628Y0025854D01*
X0023722Y0025733D01*
X0023813Y0025610D01*
X0023901Y0025484D01*
X0023985Y0025356D01*
X0024067Y0025226D01*
X0024144Y0025094D01*
X0024219Y0024960D01*
X0024290Y0024824D01*
X0024357Y0024686D01*
X0024421Y0024546D01*
X0024481Y0024405D01*
X0024537Y0024263D01*
X0024590Y0024119D01*
X0024639Y0023973D01*
X0024684Y0023827D01*
X0024725Y0023679D01*
X0024762Y0023531D01*
X0024796Y0023381D01*
X0024826Y0023230D01*
X0024851Y0023079D01*
X0024873Y0022928D01*
X0024891Y0022775D01*
X0024905Y0022623D01*
X0024915Y0022470D01*
X0024921Y0022316D01*
X0024923Y0022163D01*
X0024921Y0022010D01*
X0024915Y0021856D01*
X0024905Y0021703D01*
X0024891Y0021551D01*
X0024873Y0021398D01*
X0024851Y0021247D01*
X0024826Y0021096D01*
X0024796Y0020945D01*
X0024762Y0020795D01*
X0024725Y0020647D01*
X0024684Y0020499D01*
X0024639Y0020353D01*
X0024590Y0020207D01*
X0024537Y0020063D01*
X0024481Y0019921D01*
X0024421Y0019780D01*
X0024357Y0019640D01*
X0024290Y0019502D01*
X0024219Y0019366D01*
X0024144Y0019232D01*
X0024067Y0019100D01*
X0023985Y0018970D01*
X0023901Y0018842D01*
X0023813Y0018716D01*
X0023722Y0018593D01*
X0023628Y0018472D01*
X0023530Y0018354D01*
X0023430Y0018238D01*
X0023326Y0018125D01*
X0023220Y0018014D01*
X0023111Y0017906D01*
X0022999Y0017801D01*
X0022885Y0017700D01*
X0022767Y0017601D01*
X0022648Y0017505D01*
X0022526Y0017412D01*
X0022401Y0017323D01*
X0022274Y0017236D01*
X0022145Y0017154D01*
X0022014Y0017074D01*
X0021881Y0016998D01*
X0021746Y0016925D01*
X0021609Y0016856D01*
X0021470Y0016791D01*
X0021330Y0016729D01*
X0021188Y0016671D01*
X0021045Y0016616D01*
X0020900Y0016565D01*
X0020754Y0016518D01*
X0020607Y0016475D01*
X0020459Y0016436D01*
X0020310Y0016400D01*
X0020160Y0016369D01*
X0020009Y0016341D01*
X0019858Y0016317D01*
X0019705Y0016297D01*
X0019553Y0016281D01*
X0019400Y0016269D01*
X0019247Y0016261D01*
X0019094Y0016257D01*
X0018940Y0016257D01*
X0018787Y0016261D01*
X0018634Y0016269D01*
X0018481Y0016281D01*
X0018329Y0016297D01*
X0018176Y0016317D01*
X0018025Y0016341D01*
X0017874Y0016369D01*
X0017724Y0016400D01*
X0017575Y0016436D01*
X0017427Y0016475D01*
X0017280Y0016518D01*
X0017134Y0016565D01*
X0016989Y0016616D01*
X0016846Y0016671D01*
X0016704Y0016729D01*
X0016564Y0016791D01*
X0016425Y0016856D01*
X0016288Y0016925D01*
X0016153Y0016998D01*
X0016020Y0017074D01*
X0015889Y0017154D01*
X0015760Y0017236D01*
X0015633Y0017323D01*
X0015508Y0017412D01*
X0015386Y0017505D01*
X0015267Y0017601D01*
X0015149Y0017700D01*
X0015035Y0017801D01*
X0014923Y0017906D01*
X0014814Y0018014D01*
X0014708Y0018125D01*
X0014604Y0018238D01*
X0014504Y0018354D01*
X0014406Y0018472D01*
X0014312Y0018593D01*
X0014221Y0018716D01*
X0014133Y0018842D01*
X0014049Y0018970D01*
X0013967Y0019100D01*
X0013890Y0019232D01*
X0013815Y0019366D01*
X0013744Y0019502D01*
X0013677Y0019640D01*
X0013613Y0019780D01*
X0013553Y0019921D01*
X0013497Y0020063D01*
X0013444Y0020207D01*
X0013395Y0020353D01*
X0013350Y0020499D01*
X0013309Y0020647D01*
X0013272Y0020795D01*
X0013238Y0020945D01*
X0013208Y0021096D01*
X0013183Y0021247D01*
X0013161Y0021398D01*
X0013143Y0021551D01*
X0013129Y0021703D01*
X0013119Y0021856D01*
X0013113Y0022010D01*
X0013111Y0022163D01*
X0143111Y0022163D02*
X0143113Y0022316D01*
X0143119Y0022470D01*
X0143129Y0022623D01*
X0143143Y0022775D01*
X0143161Y0022928D01*
X0143183Y0023079D01*
X0143208Y0023230D01*
X0143238Y0023381D01*
X0143272Y0023531D01*
X0143309Y0023679D01*
X0143350Y0023827D01*
X0143395Y0023973D01*
X0143444Y0024119D01*
X0143497Y0024263D01*
X0143553Y0024405D01*
X0143613Y0024546D01*
X0143677Y0024686D01*
X0143744Y0024824D01*
X0143815Y0024960D01*
X0143890Y0025094D01*
X0143967Y0025226D01*
X0144049Y0025356D01*
X0144133Y0025484D01*
X0144221Y0025610D01*
X0144312Y0025733D01*
X0144406Y0025854D01*
X0144504Y0025972D01*
X0144604Y0026088D01*
X0144708Y0026201D01*
X0144814Y0026312D01*
X0144923Y0026420D01*
X0145035Y0026525D01*
X0145149Y0026626D01*
X0145267Y0026725D01*
X0145386Y0026821D01*
X0145508Y0026914D01*
X0145633Y0027003D01*
X0145760Y0027090D01*
X0145889Y0027172D01*
X0146020Y0027252D01*
X0146153Y0027328D01*
X0146288Y0027401D01*
X0146425Y0027470D01*
X0146564Y0027535D01*
X0146704Y0027597D01*
X0146846Y0027655D01*
X0146989Y0027710D01*
X0147134Y0027761D01*
X0147280Y0027808D01*
X0147427Y0027851D01*
X0147575Y0027890D01*
X0147724Y0027926D01*
X0147874Y0027957D01*
X0148025Y0027985D01*
X0148176Y0028009D01*
X0148329Y0028029D01*
X0148481Y0028045D01*
X0148634Y0028057D01*
X0148787Y0028065D01*
X0148940Y0028069D01*
X0149094Y0028069D01*
X0149247Y0028065D01*
X0149400Y0028057D01*
X0149553Y0028045D01*
X0149705Y0028029D01*
X0149858Y0028009D01*
X0150009Y0027985D01*
X0150160Y0027957D01*
X0150310Y0027926D01*
X0150459Y0027890D01*
X0150607Y0027851D01*
X0150754Y0027808D01*
X0150900Y0027761D01*
X0151045Y0027710D01*
X0151188Y0027655D01*
X0151330Y0027597D01*
X0151470Y0027535D01*
X0151609Y0027470D01*
X0151746Y0027401D01*
X0151881Y0027328D01*
X0152014Y0027252D01*
X0152145Y0027172D01*
X0152274Y0027090D01*
X0152401Y0027003D01*
X0152526Y0026914D01*
X0152648Y0026821D01*
X0152767Y0026725D01*
X0152885Y0026626D01*
X0152999Y0026525D01*
X0153111Y0026420D01*
X0153220Y0026312D01*
X0153326Y0026201D01*
X0153430Y0026088D01*
X0153530Y0025972D01*
X0153628Y0025854D01*
X0153722Y0025733D01*
X0153813Y0025610D01*
X0153901Y0025484D01*
X0153985Y0025356D01*
X0154067Y0025226D01*
X0154144Y0025094D01*
X0154219Y0024960D01*
X0154290Y0024824D01*
X0154357Y0024686D01*
X0154421Y0024546D01*
X0154481Y0024405D01*
X0154537Y0024263D01*
X0154590Y0024119D01*
X0154639Y0023973D01*
X0154684Y0023827D01*
X0154725Y0023679D01*
X0154762Y0023531D01*
X0154796Y0023381D01*
X0154826Y0023230D01*
X0154851Y0023079D01*
X0154873Y0022928D01*
X0154891Y0022775D01*
X0154905Y0022623D01*
X0154915Y0022470D01*
X0154921Y0022316D01*
X0154923Y0022163D01*
X0154921Y0022010D01*
X0154915Y0021856D01*
X0154905Y0021703D01*
X0154891Y0021551D01*
X0154873Y0021398D01*
X0154851Y0021247D01*
X0154826Y0021096D01*
X0154796Y0020945D01*
X0154762Y0020795D01*
X0154725Y0020647D01*
X0154684Y0020499D01*
X0154639Y0020353D01*
X0154590Y0020207D01*
X0154537Y0020063D01*
X0154481Y0019921D01*
X0154421Y0019780D01*
X0154357Y0019640D01*
X0154290Y0019502D01*
X0154219Y0019366D01*
X0154144Y0019232D01*
X0154067Y0019100D01*
X0153985Y0018970D01*
X0153901Y0018842D01*
X0153813Y0018716D01*
X0153722Y0018593D01*
X0153628Y0018472D01*
X0153530Y0018354D01*
X0153430Y0018238D01*
X0153326Y0018125D01*
X0153220Y0018014D01*
X0153111Y0017906D01*
X0152999Y0017801D01*
X0152885Y0017700D01*
X0152767Y0017601D01*
X0152648Y0017505D01*
X0152526Y0017412D01*
X0152401Y0017323D01*
X0152274Y0017236D01*
X0152145Y0017154D01*
X0152014Y0017074D01*
X0151881Y0016998D01*
X0151746Y0016925D01*
X0151609Y0016856D01*
X0151470Y0016791D01*
X0151330Y0016729D01*
X0151188Y0016671D01*
X0151045Y0016616D01*
X0150900Y0016565D01*
X0150754Y0016518D01*
X0150607Y0016475D01*
X0150459Y0016436D01*
X0150310Y0016400D01*
X0150160Y0016369D01*
X0150009Y0016341D01*
X0149858Y0016317D01*
X0149705Y0016297D01*
X0149553Y0016281D01*
X0149400Y0016269D01*
X0149247Y0016261D01*
X0149094Y0016257D01*
X0148940Y0016257D01*
X0148787Y0016261D01*
X0148634Y0016269D01*
X0148481Y0016281D01*
X0148329Y0016297D01*
X0148176Y0016317D01*
X0148025Y0016341D01*
X0147874Y0016369D01*
X0147724Y0016400D01*
X0147575Y0016436D01*
X0147427Y0016475D01*
X0147280Y0016518D01*
X0147134Y0016565D01*
X0146989Y0016616D01*
X0146846Y0016671D01*
X0146704Y0016729D01*
X0146564Y0016791D01*
X0146425Y0016856D01*
X0146288Y0016925D01*
X0146153Y0016998D01*
X0146020Y0017074D01*
X0145889Y0017154D01*
X0145760Y0017236D01*
X0145633Y0017323D01*
X0145508Y0017412D01*
X0145386Y0017505D01*
X0145267Y0017601D01*
X0145149Y0017700D01*
X0145035Y0017801D01*
X0144923Y0017906D01*
X0144814Y0018014D01*
X0144708Y0018125D01*
X0144604Y0018238D01*
X0144504Y0018354D01*
X0144406Y0018472D01*
X0144312Y0018593D01*
X0144221Y0018716D01*
X0144133Y0018842D01*
X0144049Y0018970D01*
X0143967Y0019100D01*
X0143890Y0019232D01*
X0143815Y0019366D01*
X0143744Y0019502D01*
X0143677Y0019640D01*
X0143613Y0019780D01*
X0143553Y0019921D01*
X0143497Y0020063D01*
X0143444Y0020207D01*
X0143395Y0020353D01*
X0143350Y0020499D01*
X0143309Y0020647D01*
X0143272Y0020795D01*
X0143238Y0020945D01*
X0143208Y0021096D01*
X0143183Y0021247D01*
X0143161Y0021398D01*
X0143143Y0021551D01*
X0143129Y0021703D01*
X0143119Y0021856D01*
X0143113Y0022010D01*
X0143111Y0022163D01*
X0043111Y0252163D02*
X0043113Y0252316D01*
X0043119Y0252470D01*
X0043129Y0252623D01*
X0043143Y0252775D01*
X0043161Y0252928D01*
X0043183Y0253079D01*
X0043208Y0253230D01*
X0043238Y0253381D01*
X0043272Y0253531D01*
X0043309Y0253679D01*
X0043350Y0253827D01*
X0043395Y0253973D01*
X0043444Y0254119D01*
X0043497Y0254263D01*
X0043553Y0254405D01*
X0043613Y0254546D01*
X0043677Y0254686D01*
X0043744Y0254824D01*
X0043815Y0254960D01*
X0043890Y0255094D01*
X0043967Y0255226D01*
X0044049Y0255356D01*
X0044133Y0255484D01*
X0044221Y0255610D01*
X0044312Y0255733D01*
X0044406Y0255854D01*
X0044504Y0255972D01*
X0044604Y0256088D01*
X0044708Y0256201D01*
X0044814Y0256312D01*
X0044923Y0256420D01*
X0045035Y0256525D01*
X0045149Y0256626D01*
X0045267Y0256725D01*
X0045386Y0256821D01*
X0045508Y0256914D01*
X0045633Y0257003D01*
X0045760Y0257090D01*
X0045889Y0257172D01*
X0046020Y0257252D01*
X0046153Y0257328D01*
X0046288Y0257401D01*
X0046425Y0257470D01*
X0046564Y0257535D01*
X0046704Y0257597D01*
X0046846Y0257655D01*
X0046989Y0257710D01*
X0047134Y0257761D01*
X0047280Y0257808D01*
X0047427Y0257851D01*
X0047575Y0257890D01*
X0047724Y0257926D01*
X0047874Y0257957D01*
X0048025Y0257985D01*
X0048176Y0258009D01*
X0048329Y0258029D01*
X0048481Y0258045D01*
X0048634Y0258057D01*
X0048787Y0258065D01*
X0048940Y0258069D01*
X0049094Y0258069D01*
X0049247Y0258065D01*
X0049400Y0258057D01*
X0049553Y0258045D01*
X0049705Y0258029D01*
X0049858Y0258009D01*
X0050009Y0257985D01*
X0050160Y0257957D01*
X0050310Y0257926D01*
X0050459Y0257890D01*
X0050607Y0257851D01*
X0050754Y0257808D01*
X0050900Y0257761D01*
X0051045Y0257710D01*
X0051188Y0257655D01*
X0051330Y0257597D01*
X0051470Y0257535D01*
X0051609Y0257470D01*
X0051746Y0257401D01*
X0051881Y0257328D01*
X0052014Y0257252D01*
X0052145Y0257172D01*
X0052274Y0257090D01*
X0052401Y0257003D01*
X0052526Y0256914D01*
X0052648Y0256821D01*
X0052767Y0256725D01*
X0052885Y0256626D01*
X0052999Y0256525D01*
X0053111Y0256420D01*
X0053220Y0256312D01*
X0053326Y0256201D01*
X0053430Y0256088D01*
X0053530Y0255972D01*
X0053628Y0255854D01*
X0053722Y0255733D01*
X0053813Y0255610D01*
X0053901Y0255484D01*
X0053985Y0255356D01*
X0054067Y0255226D01*
X0054144Y0255094D01*
X0054219Y0254960D01*
X0054290Y0254824D01*
X0054357Y0254686D01*
X0054421Y0254546D01*
X0054481Y0254405D01*
X0054537Y0254263D01*
X0054590Y0254119D01*
X0054639Y0253973D01*
X0054684Y0253827D01*
X0054725Y0253679D01*
X0054762Y0253531D01*
X0054796Y0253381D01*
X0054826Y0253230D01*
X0054851Y0253079D01*
X0054873Y0252928D01*
X0054891Y0252775D01*
X0054905Y0252623D01*
X0054915Y0252470D01*
X0054921Y0252316D01*
X0054923Y0252163D01*
X0054921Y0252010D01*
X0054915Y0251856D01*
X0054905Y0251703D01*
X0054891Y0251551D01*
X0054873Y0251398D01*
X0054851Y0251247D01*
X0054826Y0251096D01*
X0054796Y0250945D01*
X0054762Y0250795D01*
X0054725Y0250647D01*
X0054684Y0250499D01*
X0054639Y0250353D01*
X0054590Y0250207D01*
X0054537Y0250063D01*
X0054481Y0249921D01*
X0054421Y0249780D01*
X0054357Y0249640D01*
X0054290Y0249502D01*
X0054219Y0249366D01*
X0054144Y0249232D01*
X0054067Y0249100D01*
X0053985Y0248970D01*
X0053901Y0248842D01*
X0053813Y0248716D01*
X0053722Y0248593D01*
X0053628Y0248472D01*
X0053530Y0248354D01*
X0053430Y0248238D01*
X0053326Y0248125D01*
X0053220Y0248014D01*
X0053111Y0247906D01*
X0052999Y0247801D01*
X0052885Y0247700D01*
X0052767Y0247601D01*
X0052648Y0247505D01*
X0052526Y0247412D01*
X0052401Y0247323D01*
X0052274Y0247236D01*
X0052145Y0247154D01*
X0052014Y0247074D01*
X0051881Y0246998D01*
X0051746Y0246925D01*
X0051609Y0246856D01*
X0051470Y0246791D01*
X0051330Y0246729D01*
X0051188Y0246671D01*
X0051045Y0246616D01*
X0050900Y0246565D01*
X0050754Y0246518D01*
X0050607Y0246475D01*
X0050459Y0246436D01*
X0050310Y0246400D01*
X0050160Y0246369D01*
X0050009Y0246341D01*
X0049858Y0246317D01*
X0049705Y0246297D01*
X0049553Y0246281D01*
X0049400Y0246269D01*
X0049247Y0246261D01*
X0049094Y0246257D01*
X0048940Y0246257D01*
X0048787Y0246261D01*
X0048634Y0246269D01*
X0048481Y0246281D01*
X0048329Y0246297D01*
X0048176Y0246317D01*
X0048025Y0246341D01*
X0047874Y0246369D01*
X0047724Y0246400D01*
X0047575Y0246436D01*
X0047427Y0246475D01*
X0047280Y0246518D01*
X0047134Y0246565D01*
X0046989Y0246616D01*
X0046846Y0246671D01*
X0046704Y0246729D01*
X0046564Y0246791D01*
X0046425Y0246856D01*
X0046288Y0246925D01*
X0046153Y0246998D01*
X0046020Y0247074D01*
X0045889Y0247154D01*
X0045760Y0247236D01*
X0045633Y0247323D01*
X0045508Y0247412D01*
X0045386Y0247505D01*
X0045267Y0247601D01*
X0045149Y0247700D01*
X0045035Y0247801D01*
X0044923Y0247906D01*
X0044814Y0248014D01*
X0044708Y0248125D01*
X0044604Y0248238D01*
X0044504Y0248354D01*
X0044406Y0248472D01*
X0044312Y0248593D01*
X0044221Y0248716D01*
X0044133Y0248842D01*
X0044049Y0248970D01*
X0043967Y0249100D01*
X0043890Y0249232D01*
X0043815Y0249366D01*
X0043744Y0249502D01*
X0043677Y0249640D01*
X0043613Y0249780D01*
X0043553Y0249921D01*
X0043497Y0250063D01*
X0043444Y0250207D01*
X0043395Y0250353D01*
X0043350Y0250499D01*
X0043309Y0250647D01*
X0043272Y0250795D01*
X0043238Y0250945D01*
X0043208Y0251096D01*
X0043183Y0251247D01*
X0043161Y0251398D01*
X0043143Y0251551D01*
X0043129Y0251703D01*
X0043119Y0251856D01*
X0043113Y0252010D01*
X0043111Y0252163D01*
D11*
X0034017Y0090510D03*
X0034017Y0083817D03*
X0034017Y0060510D03*
X0034017Y0053817D03*
X0045670Y0042163D03*
X0052363Y0042163D03*
X0080670Y0017163D03*
X0087363Y0017163D03*
X0104017Y0068817D03*
X0104017Y0075510D03*
X0114017Y0075510D03*
X0114017Y0068817D03*
X0145670Y0062163D03*
X0152363Y0062163D03*
D12*
X0104017Y0027793D03*
D13*
X0112993Y0056061D03*
X0095040Y0056061D03*
D14*
X0069017Y0057163D03*
X0069017Y0067163D03*
X0069017Y0077163D03*
X0069017Y0087163D03*
X0069017Y0097163D03*
X0069017Y0147163D03*
X0069017Y0157163D03*
X0069017Y0167163D03*
X0069017Y0177163D03*
X0069017Y0187163D03*
X0069017Y0197163D03*
X0069017Y0207163D03*
X0069017Y0217163D03*
X0069017Y0227163D03*
X0069017Y0237163D03*
X0069017Y0247163D03*
X0019017Y0243384D03*
X0019017Y0229604D03*
X0019017Y0215825D03*
X0019017Y0202045D03*
X0019017Y0188266D03*
X0019017Y0174486D03*
X0019017Y0160707D03*
X0019017Y0146927D03*
X0019017Y0133148D03*
X0019017Y0119368D03*
X0019017Y0105588D03*
X0019017Y0073384D03*
X0019017Y0043384D03*
X0052796Y0022163D03*
X0069017Y0017163D03*
X0069017Y0027163D03*
X0069017Y0037163D03*
X0069017Y0047163D03*
X0129017Y0047163D03*
X0129017Y0037163D03*
X0129017Y0027163D03*
X0129017Y0057163D03*
X0129017Y0067163D03*
X0149017Y0120943D03*
X0149017Y0134722D03*
X0149017Y0148502D03*
X0149017Y0162281D03*
X0149017Y0176061D03*
X0149017Y0189840D03*
X0149017Y0203620D03*
X0149017Y0217399D03*
X0149017Y0231179D03*
X0149017Y0244959D03*
X0149017Y0258738D03*
X0129017Y0247163D03*
X0129017Y0237163D03*
X0129017Y0227163D03*
X0129017Y0217163D03*
X0129017Y0207163D03*
X0129017Y0197163D03*
X0129017Y0187163D03*
X0129017Y0177163D03*
X0129017Y0167163D03*
X0129017Y0157163D03*
X0129017Y0147163D03*
X0129017Y0137163D03*
X0129017Y0127163D03*
D15*
X0149017Y0107163D03*
X0129017Y0017163D03*
X0039017Y0022163D03*
X0019017Y0057163D03*
X0019017Y0087163D03*
X0019017Y0257163D03*
D16*
X0094017Y0254210D03*
X0094017Y0260116D03*
X0104017Y0260116D03*
X0104017Y0254210D03*
X0114017Y0254210D03*
X0114017Y0260116D03*
X0034017Y0075116D03*
X0034017Y0069210D03*
X0034017Y0045116D03*
X0034017Y0039210D03*
D17*
X0110670Y0207163D03*
X0117363Y0207163D03*
X0117363Y0217163D03*
X0110670Y0217163D03*
X0110670Y0227163D03*
X0117363Y0227163D03*
D18*
X0141517Y0091863D03*
X0146517Y0091863D03*
X0151517Y0091863D03*
X0156517Y0091863D03*
X0156517Y0072463D03*
X0151517Y0072463D03*
X0146517Y0072463D03*
X0141517Y0072463D03*
D19*
X0084017Y0045136D03*
X0084017Y0029191D03*
D20*
X0081044Y0029191D01*
X0069017Y0017163D01*
X0070437Y0021412D02*
X0069905Y0021632D01*
X0068128Y0021632D01*
X0066485Y0020951D01*
X0065228Y0019694D01*
X0064548Y0018052D01*
X0064548Y0016274D01*
X0065228Y0014632D01*
X0066485Y0013375D01*
X0068128Y0012695D01*
X0069905Y0012695D01*
X0071548Y0013375D01*
X0072805Y0014632D01*
X0073485Y0016274D01*
X0073485Y0018052D01*
X0073265Y0018583D01*
X0078829Y0024148D01*
X0089362Y0024148D01*
X0090241Y0025026D01*
X0090241Y0025793D01*
X0091099Y0025793D01*
X0091099Y0019163D01*
X0091028Y0019163D01*
X0091028Y0019753D01*
X0090150Y0020632D01*
X0084576Y0020632D01*
X0084017Y0020072D01*
X0083756Y0020332D01*
X0083414Y0020530D01*
X0083033Y0020632D01*
X0081154Y0020632D01*
X0081154Y0017648D01*
X0080186Y0017648D01*
X0080186Y0020632D01*
X0078307Y0020632D01*
X0077926Y0020530D01*
X0077584Y0020332D01*
X0077304Y0020053D01*
X0077107Y0019711D01*
X0077005Y0019329D01*
X0077005Y0017648D01*
X0080186Y0017648D01*
X0080186Y0016679D01*
X0081154Y0016679D01*
X0081154Y0013695D01*
X0083033Y0013695D01*
X0083414Y0013797D01*
X0083756Y0013994D01*
X0084017Y0014255D01*
X0084576Y0013695D01*
X0090150Y0013695D01*
X0091028Y0014573D01*
X0091028Y0015163D01*
X0091099Y0015163D01*
X0091099Y0014967D01*
X0091978Y0014088D01*
X0116055Y0014088D01*
X0116934Y0014967D01*
X0116934Y0040619D01*
X0116055Y0041498D01*
X0106017Y0041498D01*
X0106017Y0065348D01*
X0106803Y0065348D01*
X0107682Y0066227D01*
X0107682Y0069016D01*
X0108709Y0067988D01*
X0109881Y0066817D01*
X0110351Y0066817D01*
X0110351Y0066227D01*
X0110993Y0065585D01*
X0110993Y0063466D01*
X0109222Y0063466D01*
X0108343Y0062588D01*
X0108343Y0049534D01*
X0109222Y0048655D01*
X0116764Y0048655D01*
X0117017Y0048908D01*
X0117017Y0031335D01*
X0122017Y0026335D01*
X0123188Y0025163D01*
X0125008Y0025163D01*
X0125228Y0024632D01*
X0126485Y0023375D01*
X0128128Y0022695D01*
X0129905Y0022695D01*
X0131548Y0023375D01*
X0131715Y0023542D01*
X0131517Y0022163D01*
X0131593Y0021632D01*
X0129501Y0021632D01*
X0129501Y0017648D01*
X0128532Y0017648D01*
X0128532Y0021632D01*
X0125851Y0021632D01*
X0125469Y0021530D01*
X0125127Y0021332D01*
X0124848Y0021053D01*
X0124650Y0020711D01*
X0124548Y0020329D01*
X0124548Y0017648D01*
X0128532Y0017648D01*
X0128532Y0016679D01*
X0124548Y0016679D01*
X0124548Y0013997D01*
X0124650Y0013616D01*
X0124848Y0013274D01*
X0125127Y0012994D01*
X0125469Y0012797D01*
X0125851Y0012695D01*
X0128532Y0012695D01*
X0128532Y0016679D01*
X0129501Y0016679D01*
X0129501Y0012695D01*
X0132183Y0012695D01*
X0132564Y0012797D01*
X0132906Y0012994D01*
X0133185Y0013274D01*
X0133383Y0013616D01*
X0133485Y0013997D01*
X0133485Y0014475D01*
X0134295Y0012702D01*
X0135195Y0011663D01*
X0032838Y0011663D01*
X0033738Y0012702D01*
X0035808Y0017233D01*
X0035874Y0017695D01*
X0042606Y0017695D01*
X0043485Y0018573D01*
X0043485Y0025753D01*
X0042606Y0026632D01*
X0041017Y0026632D01*
X0041017Y0034681D01*
X0045030Y0038695D01*
X0048457Y0038695D01*
X0049017Y0039255D01*
X0049277Y0038994D01*
X0049619Y0038797D01*
X0050000Y0038695D01*
X0051879Y0038695D01*
X0051879Y0041679D01*
X0052847Y0041679D01*
X0052847Y0038695D01*
X0054726Y0038695D01*
X0055107Y0038797D01*
X0055449Y0038994D01*
X0055729Y0039274D01*
X0055926Y0039616D01*
X0056028Y0039997D01*
X0056028Y0041679D01*
X0052847Y0041679D01*
X0052847Y0042648D01*
X0051879Y0042648D01*
X0051879Y0045632D01*
X0050000Y0045632D01*
X0049619Y0045530D01*
X0049277Y0045332D01*
X0049017Y0045072D01*
X0048457Y0045632D01*
X0045030Y0045632D01*
X0041017Y0049645D01*
X0041017Y0101335D01*
X0044845Y0105163D01*
X0073188Y0105163D01*
X0077017Y0101335D01*
X0077017Y0066335D01*
X0078188Y0065163D01*
X0083188Y0060163D01*
X0088109Y0060163D01*
X0090212Y0058061D01*
X0087086Y0058061D01*
X0085914Y0056889D01*
X0082017Y0052992D01*
X0082017Y0050179D01*
X0078671Y0050179D01*
X0077792Y0049300D01*
X0077792Y0040971D01*
X0078671Y0040092D01*
X0089362Y0040092D01*
X0090241Y0040971D01*
X0090241Y0049300D01*
X0089362Y0050179D01*
X0086017Y0050179D01*
X0086017Y0051335D01*
X0088743Y0054061D01*
X0090391Y0054061D01*
X0090391Y0049534D01*
X0091269Y0048655D01*
X0098811Y0048655D01*
X0099690Y0049534D01*
X0099690Y0062588D01*
X0098811Y0063466D01*
X0091269Y0063466D01*
X0090866Y0063063D01*
X0089766Y0064163D01*
X0084845Y0064163D01*
X0081017Y0067992D01*
X0081017Y0102992D01*
X0076017Y0107992D01*
X0074845Y0109163D01*
X0043188Y0109163D01*
X0042017Y0107992D01*
X0038188Y0104163D01*
X0037017Y0102992D01*
X0037017Y0093765D01*
X0036803Y0093978D01*
X0033376Y0093978D01*
X0033191Y0094163D01*
X0023188Y0094163D01*
X0022017Y0092992D01*
X0020657Y0091632D01*
X0015427Y0091632D01*
X0014548Y0090753D01*
X0014548Y0083573D01*
X0015427Y0082695D01*
X0022606Y0082695D01*
X0023485Y0083573D01*
X0023485Y0088803D01*
X0024845Y0090163D01*
X0030351Y0090163D01*
X0030351Y0087920D01*
X0031108Y0087163D01*
X0030351Y0086407D01*
X0030351Y0081227D01*
X0031230Y0080348D01*
X0032017Y0080348D01*
X0032017Y0078191D01*
X0031820Y0078191D01*
X0030942Y0077312D01*
X0030942Y0072920D01*
X0031746Y0072116D01*
X0031521Y0071986D01*
X0031241Y0071706D01*
X0031044Y0071364D01*
X0030942Y0070983D01*
X0030942Y0069498D01*
X0033729Y0069498D01*
X0033729Y0068923D01*
X0030942Y0068923D01*
X0030942Y0067438D01*
X0031044Y0067057D01*
X0031241Y0066715D01*
X0031521Y0066435D01*
X0031863Y0066238D01*
X0032244Y0066136D01*
X0033729Y0066136D01*
X0033729Y0068923D01*
X0034304Y0068923D01*
X0034304Y0066136D01*
X0035789Y0066136D01*
X0036170Y0066238D01*
X0036512Y0066435D01*
X0036792Y0066715D01*
X0036989Y0067057D01*
X0037017Y0067159D01*
X0037017Y0063765D01*
X0036803Y0063978D01*
X0033376Y0063978D01*
X0033191Y0064163D01*
X0023188Y0064163D01*
X0022017Y0062992D01*
X0020657Y0061632D01*
X0015427Y0061632D01*
X0014548Y0060753D01*
X0014548Y0053573D01*
X0015427Y0052695D01*
X0022606Y0052695D01*
X0023485Y0053573D01*
X0023485Y0058803D01*
X0024845Y0060163D01*
X0030351Y0060163D01*
X0030351Y0057920D01*
X0031108Y0057163D01*
X0030351Y0056407D01*
X0030351Y0051227D01*
X0031230Y0050348D01*
X0032017Y0050348D01*
X0032017Y0048191D01*
X0031820Y0048191D01*
X0030942Y0047312D01*
X0030942Y0042920D01*
X0031746Y0042116D01*
X0031521Y0041986D01*
X0031241Y0041706D01*
X0031044Y0041364D01*
X0030942Y0040983D01*
X0030942Y0039498D01*
X0033729Y0039498D01*
X0033729Y0038923D01*
X0030942Y0038923D01*
X0030942Y0037438D01*
X0031044Y0037057D01*
X0031241Y0036715D01*
X0031521Y0036435D01*
X0031863Y0036238D01*
X0032244Y0036136D01*
X0033729Y0036136D01*
X0033729Y0038923D01*
X0034304Y0038923D01*
X0034304Y0036136D01*
X0035789Y0036136D01*
X0036170Y0036238D01*
X0036512Y0036435D01*
X0036792Y0036715D01*
X0036989Y0037057D01*
X0037091Y0037438D01*
X0037091Y0038923D01*
X0034304Y0038923D01*
X0034304Y0039498D01*
X0037091Y0039498D01*
X0037091Y0040983D01*
X0036989Y0041364D01*
X0036792Y0041706D01*
X0036512Y0041986D01*
X0036287Y0042116D01*
X0037091Y0042920D01*
X0037091Y0047312D01*
X0036213Y0048191D01*
X0036017Y0048191D01*
X0036017Y0050348D01*
X0036803Y0050348D01*
X0037017Y0050562D01*
X0037017Y0047988D01*
X0042005Y0043000D01*
X0042005Y0041326D01*
X0038188Y0037510D01*
X0037017Y0036338D01*
X0037017Y0026632D01*
X0035874Y0026632D01*
X0035808Y0027094D01*
X0033738Y0031624D01*
X0033738Y0031624D01*
X0030477Y0035389D01*
X0030477Y0035389D01*
X0026286Y0038082D01*
X0021507Y0039485D01*
X0021208Y0039485D01*
X0021359Y0039562D01*
X0021928Y0039975D01*
X0022425Y0040473D01*
X0022838Y0041042D01*
X0023158Y0041668D01*
X0023375Y0042337D01*
X0023464Y0042899D01*
X0019501Y0042899D01*
X0019501Y0043868D01*
X0023464Y0043868D01*
X0023375Y0044430D01*
X0023158Y0045099D01*
X0022838Y0045726D01*
X0022425Y0046295D01*
X0021928Y0046792D01*
X0021359Y0047206D01*
X0020732Y0047525D01*
X0020063Y0047742D01*
X0019501Y0047831D01*
X0019501Y0043868D01*
X0018532Y0043868D01*
X0018532Y0042899D01*
X0014569Y0042899D01*
X0014658Y0042337D01*
X0014875Y0041668D01*
X0015195Y0041042D01*
X0015608Y0040473D01*
X0016105Y0039975D01*
X0016675Y0039562D01*
X0016825Y0039485D01*
X0016526Y0039485D01*
X0011747Y0038082D01*
X0008517Y0036006D01*
X0008517Y0262664D01*
X0035195Y0262664D01*
X0034295Y0261624D01*
X0032225Y0257094D01*
X0031517Y0252163D01*
X0032225Y0247233D01*
X0034295Y0242702D01*
X0037361Y0239163D01*
X0034845Y0239163D01*
X0021313Y0252695D01*
X0022606Y0252695D01*
X0023485Y0253573D01*
X0023485Y0260753D01*
X0022606Y0261632D01*
X0015427Y0261632D01*
X0014548Y0260753D01*
X0014548Y0253573D01*
X0015427Y0252695D01*
X0017017Y0252695D01*
X0017017Y0251335D01*
X0018188Y0250163D01*
X0020919Y0247432D01*
X0019905Y0247852D01*
X0018128Y0247852D01*
X0016485Y0247172D01*
X0015228Y0245915D01*
X0014548Y0244273D01*
X0014548Y0242495D01*
X0015228Y0240853D01*
X0016485Y0239596D01*
X0018128Y0238915D01*
X0019436Y0238915D01*
X0028188Y0230163D01*
X0064845Y0230163D01*
X0066017Y0231335D01*
X0067596Y0232915D01*
X0068128Y0232695D01*
X0069905Y0232695D01*
X0071548Y0233375D01*
X0072805Y0234632D01*
X0073485Y0236274D01*
X0073485Y0238052D01*
X0072805Y0239694D01*
X0071548Y0240951D01*
X0069905Y0241632D01*
X0068128Y0241632D01*
X0066485Y0240951D01*
X0065228Y0239694D01*
X0064548Y0238052D01*
X0064548Y0236274D01*
X0064768Y0235743D01*
X0063188Y0234163D01*
X0029845Y0234163D01*
X0022908Y0241101D01*
X0023485Y0242495D01*
X0023485Y0244273D01*
X0023065Y0245286D01*
X0033188Y0235163D01*
X0045430Y0235163D01*
X0046526Y0234841D01*
X0051507Y0234841D01*
X0052603Y0235163D01*
X0059845Y0235163D01*
X0061017Y0236335D01*
X0067596Y0242915D01*
X0068128Y0242695D01*
X0069905Y0242695D01*
X0071548Y0243375D01*
X0072805Y0244632D01*
X0073485Y0246274D01*
X0073485Y0248052D01*
X0072805Y0249694D01*
X0071548Y0250951D01*
X0069905Y0251632D01*
X0068128Y0251632D01*
X0066485Y0250951D01*
X0066318Y0250784D01*
X0066517Y0252163D01*
X0065808Y0257094D01*
X0063738Y0261624D01*
X0063738Y0261624D01*
X0062838Y0262664D01*
X0091294Y0262664D01*
X0091241Y0262612D01*
X0091044Y0262270D01*
X0090942Y0261888D01*
X0090942Y0260403D01*
X0093729Y0260403D01*
X0093729Y0259829D01*
X0090942Y0259829D01*
X0090942Y0258344D01*
X0091044Y0257962D01*
X0091241Y0257620D01*
X0091521Y0257341D01*
X0091746Y0257211D01*
X0090942Y0256407D01*
X0090942Y0252014D01*
X0091820Y0251136D01*
X0092017Y0251136D01*
X0092017Y0222988D01*
X0093188Y0221817D01*
X0107202Y0207803D01*
X0107202Y0204377D01*
X0108080Y0203498D01*
X0113260Y0203498D01*
X0114017Y0204255D01*
X0114773Y0203498D01*
X0119953Y0203498D01*
X0120831Y0204377D01*
X0120831Y0205163D01*
X0125008Y0205163D01*
X0125228Y0204632D01*
X0126485Y0203375D01*
X0128128Y0202695D01*
X0129905Y0202695D01*
X0131548Y0203375D01*
X0132805Y0204632D01*
X0133485Y0206274D01*
X0133485Y0208052D01*
X0132805Y0209694D01*
X0131548Y0210951D01*
X0129905Y0211632D01*
X0128128Y0211632D01*
X0126485Y0210951D01*
X0125228Y0209694D01*
X0125008Y0209163D01*
X0120831Y0209163D01*
X0120831Y0209950D01*
X0119953Y0210829D01*
X0114773Y0210829D01*
X0114017Y0210072D01*
X0113260Y0210829D01*
X0109833Y0210829D01*
X0096017Y0224645D01*
X0096017Y0251136D01*
X0096213Y0251136D01*
X0097091Y0252014D01*
X0097091Y0256407D01*
X0096287Y0257211D01*
X0096512Y0257341D01*
X0096792Y0257620D01*
X0096989Y0257962D01*
X0097091Y0258344D01*
X0097091Y0259829D01*
X0094304Y0259829D01*
X0094304Y0260403D01*
X0097091Y0260403D01*
X0097091Y0261888D01*
X0096989Y0262270D01*
X0096792Y0262612D01*
X0096739Y0262664D01*
X0101294Y0262664D01*
X0101241Y0262612D01*
X0101044Y0262270D01*
X0100942Y0261888D01*
X0100942Y0260403D01*
X0103729Y0260403D01*
X0103729Y0259829D01*
X0100942Y0259829D01*
X0100942Y0258344D01*
X0101044Y0257962D01*
X0101241Y0257620D01*
X0101521Y0257341D01*
X0101746Y0257211D01*
X0100942Y0256407D01*
X0100942Y0252014D01*
X0101820Y0251136D01*
X0102017Y0251136D01*
X0102017Y0222988D01*
X0103188Y0221817D01*
X0107202Y0217803D01*
X0107202Y0214377D01*
X0108080Y0213498D01*
X0113260Y0213498D01*
X0114017Y0214255D01*
X0114773Y0213498D01*
X0119953Y0213498D01*
X0120831Y0214377D01*
X0120831Y0215163D01*
X0125008Y0215163D01*
X0125228Y0214632D01*
X0126485Y0213375D01*
X0128128Y0212695D01*
X0129905Y0212695D01*
X0131548Y0213375D01*
X0132805Y0214632D01*
X0133485Y0216274D01*
X0133485Y0218052D01*
X0132805Y0219694D01*
X0131548Y0220951D01*
X0129905Y0221632D01*
X0128128Y0221632D01*
X0126485Y0220951D01*
X0125228Y0219694D01*
X0125008Y0219163D01*
X0120831Y0219163D01*
X0120831Y0219950D01*
X0119953Y0220829D01*
X0114773Y0220829D01*
X0114017Y0220072D01*
X0113260Y0220829D01*
X0109833Y0220829D01*
X0106017Y0224645D01*
X0106017Y0251136D01*
X0106213Y0251136D01*
X0107091Y0252014D01*
X0107091Y0256407D01*
X0106287Y0257211D01*
X0106512Y0257341D01*
X0106792Y0257620D01*
X0106989Y0257962D01*
X0107091Y0258344D01*
X0107091Y0259829D01*
X0104304Y0259829D01*
X0104304Y0260403D01*
X0107091Y0260403D01*
X0107091Y0261888D01*
X0106989Y0262270D01*
X0106792Y0262612D01*
X0106739Y0262664D01*
X0111294Y0262664D01*
X0111241Y0262612D01*
X0111044Y0262270D01*
X0110942Y0261888D01*
X0110942Y0260403D01*
X0113729Y0260403D01*
X0113729Y0259829D01*
X0110942Y0259829D01*
X0110942Y0258344D01*
X0111044Y0257962D01*
X0111241Y0257620D01*
X0111521Y0257341D01*
X0111746Y0257211D01*
X0110942Y0256407D01*
X0110942Y0252014D01*
X0111820Y0251136D01*
X0112017Y0251136D01*
X0112017Y0237992D01*
X0108670Y0234645D01*
X0108670Y0230829D01*
X0108080Y0230829D01*
X0107202Y0229950D01*
X0107202Y0224377D01*
X0108080Y0223498D01*
X0113260Y0223498D01*
X0114017Y0224255D01*
X0114773Y0223498D01*
X0119953Y0223498D01*
X0120831Y0224377D01*
X0120831Y0225163D01*
X0125008Y0225163D01*
X0125228Y0224632D01*
X0126485Y0223375D01*
X0128128Y0222695D01*
X0129905Y0222695D01*
X0131548Y0223375D01*
X0132805Y0224632D01*
X0133485Y0226274D01*
X0133485Y0228052D01*
X0132805Y0229694D01*
X0131548Y0230951D01*
X0129905Y0231632D01*
X0128128Y0231632D01*
X0126485Y0230951D01*
X0125228Y0229694D01*
X0125008Y0229163D01*
X0120831Y0229163D01*
X0120831Y0229950D01*
X0119953Y0230829D01*
X0114773Y0230829D01*
X0114017Y0230072D01*
X0113260Y0230829D01*
X0112670Y0230829D01*
X0112670Y0232988D01*
X0114845Y0235163D01*
X0116017Y0236335D01*
X0116017Y0251136D01*
X0116213Y0251136D01*
X0117091Y0252014D01*
X0117091Y0256407D01*
X0116287Y0257211D01*
X0116512Y0257341D01*
X0116792Y0257620D01*
X0116989Y0257962D01*
X0117091Y0258344D01*
X0117091Y0259829D01*
X0114304Y0259829D01*
X0114304Y0260403D01*
X0117091Y0260403D01*
X0117091Y0261888D01*
X0116989Y0262270D01*
X0116792Y0262612D01*
X0116739Y0262664D01*
X0146879Y0262664D01*
X0146675Y0262560D01*
X0146105Y0262146D01*
X0145608Y0261649D01*
X0145195Y0261080D01*
X0144875Y0260453D01*
X0144658Y0259784D01*
X0144569Y0259222D01*
X0148532Y0259222D01*
X0148532Y0258254D01*
X0144569Y0258254D01*
X0144658Y0257692D01*
X0144875Y0257023D01*
X0145195Y0256396D01*
X0145608Y0255827D01*
X0146105Y0255330D01*
X0146675Y0254916D01*
X0147301Y0254597D01*
X0147970Y0254380D01*
X0148532Y0254291D01*
X0148532Y0258254D01*
X0149501Y0258254D01*
X0149501Y0259222D01*
X0153464Y0259222D01*
X0153375Y0259784D01*
X0153158Y0260453D01*
X0152838Y0261080D01*
X0152425Y0261649D01*
X0151928Y0262146D01*
X0151359Y0262560D01*
X0151154Y0262664D01*
X0159438Y0262664D01*
X0159438Y0229570D01*
X0157001Y0232007D01*
X0155829Y0233179D01*
X0153025Y0233179D01*
X0152805Y0233710D01*
X0151548Y0234967D01*
X0149905Y0235647D01*
X0148128Y0235647D01*
X0146485Y0234967D01*
X0146017Y0234498D01*
X0146017Y0241639D01*
X0146485Y0241170D01*
X0148128Y0240490D01*
X0149905Y0240490D01*
X0151548Y0241170D01*
X0152805Y0242427D01*
X0153485Y0244070D01*
X0153485Y0245847D01*
X0152805Y0247490D01*
X0151548Y0248747D01*
X0149905Y0249427D01*
X0148128Y0249427D01*
X0146485Y0248747D01*
X0145228Y0247490D01*
X0144548Y0245847D01*
X0144548Y0244460D01*
X0139845Y0249163D01*
X0133025Y0249163D01*
X0132805Y0249694D01*
X0131548Y0250951D01*
X0129905Y0251632D01*
X0128128Y0251632D01*
X0126485Y0250951D01*
X0125228Y0249694D01*
X0124548Y0248052D01*
X0124548Y0246274D01*
X0125228Y0244632D01*
X0126485Y0243375D01*
X0128128Y0242695D01*
X0129905Y0242695D01*
X0131548Y0243375D01*
X0132805Y0244632D01*
X0133025Y0245163D01*
X0138188Y0245163D01*
X0142017Y0241335D01*
X0142017Y0180232D01*
X0144768Y0177481D01*
X0144548Y0176950D01*
X0144548Y0175172D01*
X0145228Y0173530D01*
X0146485Y0172273D01*
X0148128Y0171592D01*
X0149905Y0171592D01*
X0151548Y0172273D01*
X0152017Y0172741D01*
X0152017Y0165601D01*
X0151548Y0166070D01*
X0149905Y0166750D01*
X0148128Y0166750D01*
X0146485Y0166070D01*
X0145228Y0164813D01*
X0145008Y0164281D01*
X0144727Y0164281D01*
X0141017Y0167992D01*
X0141017Y0232992D01*
X0139845Y0234163D01*
X0134845Y0239163D01*
X0133025Y0239163D01*
X0132805Y0239694D01*
X0131548Y0240951D01*
X0129905Y0241632D01*
X0128128Y0241632D01*
X0126485Y0240951D01*
X0125228Y0239694D01*
X0124548Y0238052D01*
X0124548Y0236274D01*
X0125228Y0234632D01*
X0126485Y0233375D01*
X0128128Y0232695D01*
X0129905Y0232695D01*
X0131548Y0233375D01*
X0132805Y0234632D01*
X0133025Y0235163D01*
X0133188Y0235163D01*
X0137017Y0231335D01*
X0137017Y0166335D01*
X0141898Y0161453D01*
X0143070Y0160281D01*
X0145008Y0160281D01*
X0145228Y0159750D01*
X0146485Y0158493D01*
X0148128Y0157813D01*
X0149905Y0157813D01*
X0151548Y0158493D01*
X0152017Y0158962D01*
X0152017Y0151821D01*
X0151548Y0152290D01*
X0149905Y0152970D01*
X0148128Y0152970D01*
X0146485Y0152290D01*
X0145228Y0151033D01*
X0144548Y0149391D01*
X0144548Y0149376D01*
X0143753Y0149163D01*
X0133025Y0149163D01*
X0132805Y0149694D01*
X0131548Y0150951D01*
X0129905Y0151632D01*
X0128128Y0151632D01*
X0126485Y0150951D01*
X0125228Y0149694D01*
X0124548Y0148052D01*
X0124548Y0146274D01*
X0125228Y0144632D01*
X0126485Y0143375D01*
X0128128Y0142695D01*
X0129905Y0142695D01*
X0131548Y0143375D01*
X0132805Y0144632D01*
X0133025Y0145163D01*
X0143480Y0145163D01*
X0143734Y0145017D01*
X0144280Y0145163D01*
X0144845Y0145163D01*
X0145052Y0145370D01*
X0145665Y0145534D01*
X0146485Y0144714D01*
X0148128Y0144033D01*
X0149905Y0144033D01*
X0151548Y0144714D01*
X0152017Y0145182D01*
X0152017Y0138042D01*
X0151548Y0138511D01*
X0149905Y0139191D01*
X0148128Y0139191D01*
X0146485Y0138511D01*
X0146266Y0138291D01*
X0145194Y0138814D01*
X0144845Y0139163D01*
X0144479Y0139163D01*
X0144149Y0139324D01*
X0143682Y0139163D01*
X0133025Y0139163D01*
X0132805Y0139694D01*
X0131548Y0140951D01*
X0129905Y0141632D01*
X0128128Y0141632D01*
X0126485Y0140951D01*
X0125228Y0139694D01*
X0124548Y0138052D01*
X0124548Y0136274D01*
X0125228Y0134632D01*
X0126485Y0133375D01*
X0128128Y0132695D01*
X0129905Y0132695D01*
X0131548Y0133375D01*
X0132805Y0134632D01*
X0133025Y0135163D01*
X0143554Y0135163D01*
X0144548Y0134678D01*
X0144548Y0133833D01*
X0145228Y0132191D01*
X0146485Y0130934D01*
X0148128Y0130254D01*
X0149905Y0130254D01*
X0151548Y0130934D01*
X0152017Y0131403D01*
X0152017Y0124262D01*
X0151548Y0124731D01*
X0149905Y0125411D01*
X0148128Y0125411D01*
X0148025Y0125369D01*
X0146017Y0127867D01*
X0146017Y0127992D01*
X0145507Y0128501D01*
X0145056Y0129062D01*
X0144933Y0129075D01*
X0144845Y0129163D01*
X0144125Y0129163D01*
X0143409Y0129241D01*
X0143312Y0129163D01*
X0133025Y0129163D01*
X0132805Y0129694D01*
X0131548Y0130951D01*
X0129905Y0131632D01*
X0128128Y0131632D01*
X0126485Y0130951D01*
X0125228Y0129694D01*
X0124548Y0128052D01*
X0124548Y0126274D01*
X0125228Y0124632D01*
X0126485Y0123375D01*
X0128128Y0122695D01*
X0129905Y0122695D01*
X0131548Y0123375D01*
X0132805Y0124632D01*
X0133025Y0125163D01*
X0143058Y0125163D01*
X0144952Y0122807D01*
X0144548Y0121832D01*
X0144548Y0120054D01*
X0145228Y0118412D01*
X0146485Y0117155D01*
X0148128Y0116474D01*
X0149905Y0116474D01*
X0151548Y0117155D01*
X0152017Y0117623D01*
X0152017Y0111632D01*
X0145427Y0111632D01*
X0144548Y0110753D01*
X0144548Y0109163D01*
X0138188Y0109163D01*
X0128188Y0099163D01*
X0099845Y0099163D01*
X0096017Y0102992D01*
X0096017Y0117992D01*
X0094845Y0119163D01*
X0089845Y0124163D01*
X0074845Y0124163D01*
X0071017Y0127992D01*
X0071017Y0143155D01*
X0071548Y0143375D01*
X0072805Y0144632D01*
X0073485Y0146274D01*
X0073485Y0148052D01*
X0072805Y0149694D01*
X0071548Y0150951D01*
X0069905Y0151632D01*
X0068128Y0151632D01*
X0066485Y0150951D01*
X0065228Y0149694D01*
X0064548Y0148052D01*
X0064548Y0146274D01*
X0065228Y0144632D01*
X0066485Y0143375D01*
X0067017Y0143155D01*
X0067017Y0126335D01*
X0072017Y0121335D01*
X0073188Y0120163D01*
X0088188Y0120163D01*
X0092017Y0116335D01*
X0092017Y0101335D01*
X0097017Y0096335D01*
X0098188Y0095163D01*
X0129845Y0095163D01*
X0139845Y0105163D01*
X0144548Y0105163D01*
X0144548Y0103573D01*
X0145427Y0102695D01*
X0146720Y0102695D01*
X0144517Y0100492D01*
X0144517Y0096985D01*
X0143963Y0096431D01*
X0143817Y0096684D01*
X0143538Y0096964D01*
X0143196Y0097161D01*
X0142814Y0097263D01*
X0141567Y0097263D01*
X0141567Y0091913D01*
X0141467Y0091913D01*
X0141467Y0097263D01*
X0140219Y0097263D01*
X0139838Y0097161D01*
X0139496Y0096964D01*
X0139216Y0096684D01*
X0139019Y0096342D01*
X0138917Y0095961D01*
X0138917Y0091913D01*
X0141466Y0091913D01*
X0141466Y0091813D01*
X0138917Y0091813D01*
X0138917Y0087766D01*
X0139019Y0087384D01*
X0139216Y0087042D01*
X0139496Y0086763D01*
X0139668Y0086663D01*
X0133188Y0086663D01*
X0132017Y0085492D01*
X0132017Y0085492D01*
X0128188Y0081663D01*
X0127017Y0080492D01*
X0127017Y0071171D01*
X0126485Y0070951D01*
X0126017Y0070483D01*
X0126017Y0087992D01*
X0124845Y0089163D01*
X0119845Y0094163D01*
X0094845Y0094163D01*
X0091017Y0097992D01*
X0091017Y0112992D01*
X0089845Y0114163D01*
X0084845Y0119163D01*
X0049845Y0119163D01*
X0046017Y0122992D01*
X0046017Y0142992D01*
X0040081Y0148927D01*
X0023025Y0148927D01*
X0022805Y0149458D01*
X0021548Y0150715D01*
X0019905Y0151396D01*
X0018128Y0151396D01*
X0016485Y0150715D01*
X0015228Y0149458D01*
X0014548Y0147816D01*
X0014548Y0146038D01*
X0015228Y0144396D01*
X0016485Y0143139D01*
X0018128Y0142459D01*
X0019905Y0142459D01*
X0021548Y0143139D01*
X0022805Y0144396D01*
X0023025Y0144927D01*
X0038424Y0144927D01*
X0042017Y0141335D01*
X0042017Y0121335D01*
X0047017Y0116335D01*
X0048188Y0115163D01*
X0083188Y0115163D01*
X0087017Y0111335D01*
X0087017Y0096335D01*
X0092017Y0091335D01*
X0093188Y0090163D01*
X0118188Y0090163D01*
X0122017Y0086335D01*
X0122017Y0041335D01*
X0124768Y0038583D01*
X0124548Y0038052D01*
X0124548Y0036274D01*
X0125228Y0034632D01*
X0126485Y0033375D01*
X0128128Y0032695D01*
X0129905Y0032695D01*
X0131548Y0033375D01*
X0132805Y0034632D01*
X0133485Y0036274D01*
X0133485Y0038052D01*
X0132805Y0039694D01*
X0131548Y0040951D01*
X0129905Y0041632D01*
X0128128Y0041632D01*
X0127596Y0041412D01*
X0126017Y0042992D01*
X0126017Y0043844D01*
X0126485Y0043375D01*
X0128128Y0042695D01*
X0129905Y0042695D01*
X0131548Y0043375D01*
X0132805Y0044632D01*
X0133485Y0046274D01*
X0133485Y0048052D01*
X0132805Y0049694D01*
X0131548Y0050951D01*
X0129905Y0051632D01*
X0128128Y0051632D01*
X0126485Y0050951D01*
X0126017Y0050483D01*
X0126017Y0053844D01*
X0126485Y0053375D01*
X0128128Y0052695D01*
X0129905Y0052695D01*
X0131548Y0053375D01*
X0132805Y0054632D01*
X0133025Y0055163D01*
X0134845Y0055163D01*
X0136017Y0056335D01*
X0141017Y0061335D01*
X0141017Y0067063D01*
X0143238Y0067063D01*
X0144070Y0067895D01*
X0144216Y0067642D01*
X0144496Y0067363D01*
X0144838Y0067165D01*
X0145219Y0067063D01*
X0146467Y0067063D01*
X0146467Y0072413D01*
X0146567Y0072413D01*
X0146567Y0067063D01*
X0147814Y0067063D01*
X0148196Y0067165D01*
X0148538Y0067363D01*
X0148817Y0067642D01*
X0148963Y0067895D01*
X0149795Y0067063D01*
X0150363Y0067063D01*
X0150363Y0065632D01*
X0149576Y0065632D01*
X0149017Y0065072D01*
X0148756Y0065332D01*
X0148414Y0065530D01*
X0148033Y0065632D01*
X0146154Y0065632D01*
X0146154Y0062648D01*
X0145186Y0062648D01*
X0145186Y0065632D01*
X0143307Y0065632D01*
X0142926Y0065530D01*
X0142584Y0065332D01*
X0142304Y0065053D01*
X0142107Y0064711D01*
X0142005Y0064329D01*
X0142005Y0062648D01*
X0145186Y0062648D01*
X0145186Y0061679D01*
X0146154Y0061679D01*
X0146154Y0058695D01*
X0148033Y0058695D01*
X0148414Y0058797D01*
X0148756Y0058994D01*
X0149017Y0059255D01*
X0149576Y0058695D01*
X0155150Y0058695D01*
X0156028Y0059573D01*
X0156028Y0064753D01*
X0155150Y0065632D01*
X0154363Y0065632D01*
X0154363Y0067495D01*
X0154795Y0067063D01*
X0158238Y0067063D01*
X0159117Y0067942D01*
X0159117Y0076985D01*
X0158517Y0077585D01*
X0158517Y0082992D01*
X0156017Y0085492D01*
X0155045Y0086463D01*
X0158238Y0086463D01*
X0159117Y0087342D01*
X0159117Y0096385D01*
X0158238Y0097263D01*
X0156945Y0097263D01*
X0159438Y0099756D01*
X0159438Y0036056D01*
X0156286Y0038082D01*
X0151507Y0039485D01*
X0146526Y0039485D01*
X0141747Y0038082D01*
X0137556Y0035389D01*
X0137556Y0035389D01*
X0137556Y0035389D01*
X0134295Y0031624D01*
X0133094Y0028996D01*
X0132805Y0029694D01*
X0131548Y0030951D01*
X0129905Y0031632D01*
X0128128Y0031632D01*
X0126485Y0030951D01*
X0125228Y0029694D01*
X0125008Y0029163D01*
X0124845Y0029163D01*
X0121017Y0032992D01*
X0121017Y0082992D01*
X0114845Y0089163D01*
X0089845Y0089163D01*
X0086017Y0092992D01*
X0086017Y0107992D01*
X0084845Y0109163D01*
X0079845Y0114163D01*
X0044845Y0114163D01*
X0041017Y0117992D01*
X0041017Y0127992D01*
X0039845Y0129163D01*
X0033861Y0135147D01*
X0023025Y0135147D01*
X0022805Y0135679D01*
X0021548Y0136936D01*
X0019905Y0137616D01*
X0018128Y0137616D01*
X0016485Y0136936D01*
X0015228Y0135679D01*
X0014548Y0134036D01*
X0014548Y0132259D01*
X0015228Y0130616D01*
X0016485Y0129359D01*
X0018128Y0128679D01*
X0019905Y0128679D01*
X0021548Y0129359D01*
X0022805Y0130616D01*
X0023025Y0131148D01*
X0032204Y0131148D01*
X0037017Y0126335D01*
X0037017Y0116335D01*
X0042017Y0111335D01*
X0043188Y0110163D01*
X0078188Y0110163D01*
X0082017Y0106335D01*
X0082017Y0091335D01*
X0087017Y0086335D01*
X0088188Y0085163D01*
X0113188Y0085163D01*
X0117017Y0081335D01*
X0117017Y0078728D01*
X0116761Y0078876D01*
X0116379Y0078978D01*
X0114501Y0078978D01*
X0114501Y0075994D01*
X0113532Y0075994D01*
X0113532Y0075025D01*
X0110351Y0075025D01*
X0110351Y0073344D01*
X0110453Y0072962D01*
X0110651Y0072620D01*
X0110930Y0072341D01*
X0111155Y0072211D01*
X0110650Y0071705D01*
X0107682Y0074673D01*
X0107682Y0078100D01*
X0106803Y0078978D01*
X0101230Y0078978D01*
X0100351Y0078100D01*
X0100351Y0072920D01*
X0101108Y0072163D01*
X0100351Y0071407D01*
X0100351Y0066227D01*
X0101230Y0065348D01*
X0102017Y0065348D01*
X0102017Y0041498D01*
X0091978Y0041498D01*
X0091099Y0040619D01*
X0091099Y0029793D01*
X0090241Y0029793D01*
X0090241Y0033355D01*
X0089362Y0034234D01*
X0078671Y0034234D01*
X0077792Y0033355D01*
X0077792Y0028767D01*
X0070437Y0021412D01*
X0071166Y0022141D02*
X0053280Y0022141D01*
X0053280Y0021679D02*
X0053280Y0022648D01*
X0052312Y0022648D01*
X0052312Y0026611D01*
X0051750Y0026522D01*
X0051081Y0026304D01*
X0050454Y0025985D01*
X0049885Y0025572D01*
X0049388Y0025074D01*
X0048974Y0024505D01*
X0048655Y0023879D01*
X0048438Y0023210D01*
X0048349Y0022648D01*
X0052312Y0022648D01*
X0052312Y0021679D01*
X0053280Y0021679D01*
X0053280Y0017716D01*
X0053842Y0017805D01*
X0054511Y0018022D01*
X0055138Y0018341D01*
X0055707Y0018755D01*
X0056204Y0019252D01*
X0056618Y0019821D01*
X0056937Y0020448D01*
X0057155Y0021117D01*
X0057244Y0021679D01*
X0053280Y0021679D01*
X0053280Y0021142D02*
X0052312Y0021142D01*
X0052312Y0021679D02*
X0052312Y0017716D01*
X0051750Y0017805D01*
X0051081Y0018022D01*
X0050454Y0018341D01*
X0049885Y0018755D01*
X0049388Y0019252D01*
X0048974Y0019821D01*
X0048655Y0020448D01*
X0048438Y0021117D01*
X0048349Y0021679D01*
X0052312Y0021679D01*
X0052312Y0022141D02*
X0043485Y0022141D01*
X0043485Y0023139D02*
X0048426Y0023139D01*
X0048787Y0024138D02*
X0043485Y0024138D01*
X0043485Y0025136D02*
X0049450Y0025136D01*
X0050748Y0026135D02*
X0043103Y0026135D01*
X0041017Y0027133D02*
X0068532Y0027133D01*
X0068532Y0026679D02*
X0068532Y0027648D01*
X0068532Y0031611D01*
X0067970Y0031522D01*
X0067301Y0031304D01*
X0066675Y0030985D01*
X0066105Y0030572D01*
X0065608Y0030074D01*
X0065195Y0029505D01*
X0064875Y0028879D01*
X0064658Y0028210D01*
X0064569Y0027648D01*
X0068532Y0027648D01*
X0069501Y0027648D01*
X0069501Y0031611D01*
X0070063Y0031522D01*
X0070732Y0031304D01*
X0071359Y0030985D01*
X0071928Y0030572D01*
X0072425Y0030074D01*
X0072838Y0029505D01*
X0073158Y0028879D01*
X0073375Y0028210D01*
X0073464Y0027648D01*
X0069501Y0027648D01*
X0069501Y0026679D01*
X0073464Y0026679D01*
X0073375Y0026117D01*
X0073158Y0025448D01*
X0072838Y0024821D01*
X0072425Y0024252D01*
X0071928Y0023755D01*
X0071359Y0023341D01*
X0070732Y0023022D01*
X0070063Y0022805D01*
X0069501Y0022716D01*
X0069501Y0026679D01*
X0068532Y0026679D01*
X0064569Y0026679D01*
X0064658Y0026117D01*
X0064875Y0025448D01*
X0065195Y0024821D01*
X0065608Y0024252D01*
X0066105Y0023755D01*
X0066675Y0023341D01*
X0067301Y0023022D01*
X0067970Y0022805D01*
X0068532Y0022716D01*
X0068532Y0026679D01*
X0068532Y0026135D02*
X0069501Y0026135D01*
X0069501Y0027133D02*
X0076158Y0027133D01*
X0075160Y0026135D02*
X0073378Y0026135D01*
X0072999Y0025136D02*
X0074161Y0025136D01*
X0073163Y0024138D02*
X0072311Y0024138D01*
X0072164Y0023139D02*
X0070962Y0023139D01*
X0069501Y0023139D02*
X0068532Y0023139D01*
X0068532Y0024138D02*
X0069501Y0024138D01*
X0069501Y0025136D02*
X0068532Y0025136D01*
X0067071Y0023139D02*
X0057166Y0023139D01*
X0057155Y0023210D02*
X0056937Y0023879D01*
X0056618Y0024505D01*
X0056204Y0025074D01*
X0055707Y0025572D01*
X0055138Y0025985D01*
X0054511Y0026304D01*
X0053842Y0026522D01*
X0053280Y0026611D01*
X0053280Y0022648D01*
X0057244Y0022648D01*
X0057155Y0023210D01*
X0056805Y0024138D02*
X0065722Y0024138D01*
X0065034Y0025136D02*
X0056142Y0025136D01*
X0054844Y0026135D02*
X0064655Y0026135D01*
X0064646Y0028132D02*
X0041017Y0028132D01*
X0041017Y0029130D02*
X0065004Y0029130D01*
X0065663Y0030129D02*
X0041017Y0030129D01*
X0041017Y0031128D02*
X0066954Y0031128D01*
X0068532Y0031128D02*
X0069501Y0031128D01*
X0069501Y0030129D02*
X0068532Y0030129D01*
X0068532Y0029130D02*
X0069501Y0029130D01*
X0069501Y0028132D02*
X0068532Y0028132D01*
X0071079Y0031128D02*
X0077792Y0031128D01*
X0077792Y0032126D02*
X0041017Y0032126D01*
X0041017Y0033125D02*
X0067090Y0033125D01*
X0066485Y0033375D02*
X0068128Y0032695D01*
X0069905Y0032695D01*
X0071548Y0033375D01*
X0072805Y0034632D01*
X0073485Y0036274D01*
X0073485Y0038052D01*
X0072805Y0039694D01*
X0071548Y0040951D01*
X0069905Y0041632D01*
X0068128Y0041632D01*
X0066485Y0040951D01*
X0065228Y0039694D01*
X0064548Y0038052D01*
X0064548Y0036274D01*
X0065228Y0034632D01*
X0066485Y0033375D01*
X0065737Y0034123D02*
X0041017Y0034123D01*
X0041457Y0035122D02*
X0065026Y0035122D01*
X0064612Y0036120D02*
X0042455Y0036120D01*
X0043454Y0037119D02*
X0064548Y0037119D01*
X0064575Y0038117D02*
X0044452Y0038117D01*
X0041791Y0041113D02*
X0037057Y0041113D01*
X0037091Y0040114D02*
X0040793Y0040114D01*
X0039794Y0039116D02*
X0034304Y0039116D01*
X0033729Y0039116D02*
X0022765Y0039116D01*
X0022066Y0040114D02*
X0030942Y0040114D01*
X0030977Y0041113D02*
X0022874Y0041113D01*
X0023302Y0042111D02*
X0031738Y0042111D01*
X0030942Y0043110D02*
X0019501Y0043110D01*
X0018532Y0043110D02*
X0008517Y0043110D01*
X0008517Y0044108D02*
X0014607Y0044108D01*
X0014569Y0043868D02*
X0018532Y0043868D01*
X0018532Y0047831D01*
X0017970Y0047742D01*
X0017301Y0047525D01*
X0016675Y0047206D01*
X0016105Y0046792D01*
X0015608Y0046295D01*
X0015195Y0045726D01*
X0014875Y0045099D01*
X0014658Y0044430D01*
X0014569Y0043868D01*
X0014879Y0045107D02*
X0008517Y0045107D01*
X0008517Y0046105D02*
X0015470Y0046105D01*
X0016534Y0047104D02*
X0008517Y0047104D01*
X0008517Y0048102D02*
X0031732Y0048102D01*
X0032017Y0049101D02*
X0008517Y0049101D01*
X0008517Y0050099D02*
X0032017Y0050099D01*
X0030480Y0051098D02*
X0008517Y0051098D01*
X0008517Y0052096D02*
X0030351Y0052096D01*
X0030351Y0053095D02*
X0023006Y0053095D01*
X0023485Y0054093D02*
X0030351Y0054093D01*
X0030351Y0055092D02*
X0023485Y0055092D01*
X0023485Y0056090D02*
X0030351Y0056090D01*
X0031033Y0057089D02*
X0023485Y0057089D01*
X0023485Y0058087D02*
X0030351Y0058087D01*
X0030351Y0059086D02*
X0023768Y0059086D01*
X0024766Y0060084D02*
X0030351Y0060084D01*
X0032363Y0062163D02*
X0034017Y0060510D01*
X0032363Y0062163D02*
X0024017Y0062163D01*
X0019017Y0057163D01*
X0014548Y0057089D02*
X0008517Y0057089D01*
X0008517Y0058087D02*
X0014548Y0058087D01*
X0014548Y0059086D02*
X0008517Y0059086D01*
X0008517Y0060084D02*
X0014548Y0060084D01*
X0014878Y0061083D02*
X0008517Y0061083D01*
X0008517Y0062081D02*
X0021106Y0062081D01*
X0022105Y0063080D02*
X0008517Y0063080D01*
X0008517Y0064078D02*
X0023103Y0064078D01*
X0020732Y0069243D02*
X0021359Y0069562D01*
X0021928Y0069975D01*
X0022425Y0070473D01*
X0022838Y0071042D01*
X0023158Y0071668D01*
X0023375Y0072337D01*
X0023464Y0072899D01*
X0019501Y0072899D01*
X0019501Y0068936D01*
X0020063Y0069025D01*
X0020732Y0069243D01*
X0020204Y0069071D02*
X0033729Y0069071D01*
X0033729Y0068072D02*
X0034304Y0068072D01*
X0034304Y0067074D02*
X0033729Y0067074D01*
X0033276Y0064078D02*
X0037017Y0064078D01*
X0037017Y0065077D02*
X0008517Y0065077D01*
X0008517Y0066075D02*
X0037017Y0066075D01*
X0036994Y0067074D02*
X0037017Y0067074D01*
X0041017Y0067074D02*
X0064548Y0067074D01*
X0064548Y0066274D02*
X0065228Y0064632D01*
X0066485Y0063375D01*
X0068128Y0062695D01*
X0069905Y0062695D01*
X0071548Y0063375D01*
X0072805Y0064632D01*
X0073485Y0066274D01*
X0073485Y0068052D01*
X0072805Y0069694D01*
X0071548Y0070951D01*
X0069905Y0071632D01*
X0068128Y0071632D01*
X0066485Y0070951D01*
X0065228Y0069694D01*
X0064548Y0068052D01*
X0064548Y0066274D01*
X0064630Y0066075D02*
X0041017Y0066075D01*
X0041017Y0065077D02*
X0065044Y0065077D01*
X0065782Y0064078D02*
X0041017Y0064078D01*
X0041017Y0063080D02*
X0067198Y0063080D01*
X0068128Y0061632D02*
X0066485Y0060951D01*
X0065228Y0059694D01*
X0064548Y0058052D01*
X0064548Y0056274D01*
X0065228Y0054632D01*
X0066485Y0053375D01*
X0068128Y0052695D01*
X0069905Y0052695D01*
X0071548Y0053375D01*
X0072805Y0054632D01*
X0073485Y0056274D01*
X0073485Y0058052D01*
X0072805Y0059694D01*
X0071548Y0060951D01*
X0069905Y0061632D01*
X0068128Y0061632D01*
X0066803Y0061083D02*
X0041017Y0061083D01*
X0041017Y0062081D02*
X0081270Y0062081D01*
X0082268Y0061083D02*
X0071230Y0061083D01*
X0072415Y0060084D02*
X0088188Y0060084D01*
X0089187Y0059086D02*
X0073057Y0059086D01*
X0073470Y0058087D02*
X0090185Y0058087D01*
X0087914Y0056061D02*
X0095040Y0056061D01*
X0088938Y0062163D01*
X0084017Y0062163D01*
X0079017Y0067163D01*
X0079017Y0102163D01*
X0074017Y0107163D01*
X0044017Y0107163D01*
X0039017Y0102163D01*
X0039017Y0048817D01*
X0045670Y0042163D01*
X0039017Y0035510D01*
X0039017Y0022163D01*
X0037017Y0027133D02*
X0035789Y0027133D01*
X0035808Y0027094D02*
X0035808Y0027094D01*
X0035333Y0028132D02*
X0037017Y0028132D01*
X0037017Y0029130D02*
X0034877Y0029130D01*
X0034421Y0030129D02*
X0037017Y0030129D01*
X0037017Y0031128D02*
X0033965Y0031128D01*
X0033304Y0032126D02*
X0037017Y0032126D01*
X0037017Y0033125D02*
X0032439Y0033125D01*
X0031573Y0034123D02*
X0037017Y0034123D01*
X0037017Y0035122D02*
X0030708Y0035122D01*
X0029339Y0036120D02*
X0037017Y0036120D01*
X0037006Y0037119D02*
X0037797Y0037119D01*
X0037091Y0038117D02*
X0038796Y0038117D01*
X0036295Y0042111D02*
X0042005Y0042111D01*
X0041895Y0043110D02*
X0037091Y0043110D01*
X0037091Y0044108D02*
X0040897Y0044108D01*
X0039898Y0045107D02*
X0037091Y0045107D01*
X0037091Y0046105D02*
X0038900Y0046105D01*
X0037901Y0047104D02*
X0037091Y0047104D01*
X0037017Y0048102D02*
X0036301Y0048102D01*
X0036017Y0049101D02*
X0037017Y0049101D01*
X0037017Y0050099D02*
X0036017Y0050099D01*
X0034017Y0053817D02*
X0034017Y0045116D01*
X0030942Y0045107D02*
X0023154Y0045107D01*
X0023426Y0044108D02*
X0030942Y0044108D01*
X0030942Y0046105D02*
X0022563Y0046105D01*
X0021499Y0047104D02*
X0030942Y0047104D01*
X0030942Y0038117D02*
X0026166Y0038117D01*
X0026286Y0038082D02*
X0026286Y0038082D01*
X0027785Y0037119D02*
X0031027Y0037119D01*
X0033729Y0037119D02*
X0034304Y0037119D01*
X0034304Y0038117D02*
X0033729Y0038117D01*
X0041561Y0049101D02*
X0064982Y0049101D01*
X0065228Y0049694D02*
X0064548Y0048052D01*
X0064548Y0046274D01*
X0065228Y0044632D01*
X0066485Y0043375D01*
X0068128Y0042695D01*
X0069905Y0042695D01*
X0071548Y0043375D01*
X0072805Y0044632D01*
X0073485Y0046274D01*
X0073485Y0048052D01*
X0072805Y0049694D01*
X0071548Y0050951D01*
X0069905Y0051632D01*
X0068128Y0051632D01*
X0066485Y0050951D01*
X0065228Y0049694D01*
X0065633Y0050099D02*
X0041017Y0050099D01*
X0041017Y0051098D02*
X0066839Y0051098D01*
X0067162Y0053095D02*
X0041017Y0053095D01*
X0041017Y0054093D02*
X0065767Y0054093D01*
X0065038Y0055092D02*
X0041017Y0055092D01*
X0041017Y0056090D02*
X0064624Y0056090D01*
X0064548Y0057089D02*
X0041017Y0057089D01*
X0041017Y0058087D02*
X0064563Y0058087D01*
X0064976Y0059086D02*
X0041017Y0059086D01*
X0041017Y0060084D02*
X0065618Y0060084D01*
X0070835Y0063080D02*
X0080271Y0063080D01*
X0079273Y0064078D02*
X0072251Y0064078D01*
X0072989Y0065077D02*
X0078274Y0065077D01*
X0077276Y0066075D02*
X0073403Y0066075D01*
X0073485Y0067074D02*
X0077017Y0067074D01*
X0077017Y0068072D02*
X0073477Y0068072D01*
X0073063Y0069071D02*
X0077017Y0069071D01*
X0077017Y0070069D02*
X0072430Y0070069D01*
X0071266Y0071068D02*
X0077017Y0071068D01*
X0077017Y0072066D02*
X0041017Y0072066D01*
X0041017Y0071068D02*
X0066767Y0071068D01*
X0065603Y0070069D02*
X0041017Y0070069D01*
X0041017Y0069071D02*
X0064970Y0069071D01*
X0064556Y0068072D02*
X0041017Y0068072D01*
X0041017Y0073065D02*
X0067234Y0073065D01*
X0066485Y0073375D02*
X0068128Y0072695D01*
X0069905Y0072695D01*
X0071548Y0073375D01*
X0072805Y0074632D01*
X0073485Y0076274D01*
X0073485Y0078052D01*
X0072805Y0079694D01*
X0071548Y0080951D01*
X0069905Y0081632D01*
X0068128Y0081632D01*
X0066485Y0080951D01*
X0065228Y0079694D01*
X0064548Y0078052D01*
X0064548Y0076274D01*
X0065228Y0074632D01*
X0066485Y0073375D01*
X0065797Y0074064D02*
X0041017Y0074064D01*
X0041017Y0075062D02*
X0065050Y0075062D01*
X0064637Y0076061D02*
X0041017Y0076061D01*
X0041017Y0077059D02*
X0064548Y0077059D01*
X0064550Y0078058D02*
X0041017Y0078058D01*
X0041017Y0079056D02*
X0064964Y0079056D01*
X0065588Y0080055D02*
X0041017Y0080055D01*
X0041017Y0081053D02*
X0066731Y0081053D01*
X0067270Y0083050D02*
X0041017Y0083050D01*
X0041017Y0082052D02*
X0077017Y0082052D01*
X0077017Y0083050D02*
X0070763Y0083050D01*
X0071548Y0083375D02*
X0069905Y0082695D01*
X0068128Y0082695D01*
X0066485Y0083375D01*
X0065228Y0084632D01*
X0064548Y0086274D01*
X0064548Y0088052D01*
X0065228Y0089694D01*
X0066485Y0090951D01*
X0068128Y0091632D01*
X0069905Y0091632D01*
X0071548Y0090951D01*
X0072805Y0089694D01*
X0073485Y0088052D01*
X0073485Y0086274D01*
X0072805Y0084632D01*
X0071548Y0083375D01*
X0072221Y0084049D02*
X0077017Y0084049D01*
X0077017Y0085047D02*
X0072977Y0085047D01*
X0073390Y0086046D02*
X0077017Y0086046D01*
X0077017Y0087044D02*
X0073485Y0087044D01*
X0073485Y0088043D02*
X0077017Y0088043D01*
X0077017Y0089041D02*
X0073075Y0089041D01*
X0072459Y0090040D02*
X0077017Y0090040D01*
X0077017Y0091038D02*
X0071338Y0091038D01*
X0070727Y0093035D02*
X0077017Y0093035D01*
X0077017Y0092037D02*
X0041017Y0092037D01*
X0041017Y0093035D02*
X0067306Y0093035D01*
X0066485Y0093375D02*
X0068128Y0092695D01*
X0069905Y0092695D01*
X0071548Y0093375D01*
X0072805Y0094632D01*
X0073485Y0096274D01*
X0073485Y0098052D01*
X0072805Y0099694D01*
X0071548Y0100951D01*
X0069905Y0101632D01*
X0068128Y0101632D01*
X0066485Y0100951D01*
X0065228Y0099694D01*
X0064548Y0098052D01*
X0064548Y0096274D01*
X0065228Y0094632D01*
X0066485Y0093375D01*
X0065827Y0094034D02*
X0041017Y0094034D01*
X0041017Y0095032D02*
X0065063Y0095032D01*
X0064649Y0096031D02*
X0041017Y0096031D01*
X0041017Y0097029D02*
X0064548Y0097029D01*
X0064548Y0098028D02*
X0041017Y0098028D01*
X0041017Y0099026D02*
X0064952Y0099026D01*
X0065559Y0100025D02*
X0041017Y0100025D01*
X0041017Y0101023D02*
X0066659Y0101023D01*
X0071374Y0101023D02*
X0077017Y0101023D01*
X0077017Y0100025D02*
X0072474Y0100025D01*
X0073082Y0099026D02*
X0077017Y0099026D01*
X0077017Y0098028D02*
X0073485Y0098028D01*
X0073485Y0097029D02*
X0077017Y0097029D01*
X0077017Y0096031D02*
X0073384Y0096031D01*
X0072971Y0095032D02*
X0077017Y0095032D01*
X0077017Y0094034D02*
X0072206Y0094034D01*
X0066695Y0091038D02*
X0041017Y0091038D01*
X0041017Y0090040D02*
X0065574Y0090040D01*
X0064958Y0089041D02*
X0041017Y0089041D01*
X0041017Y0088043D02*
X0064548Y0088043D01*
X0064548Y0087044D02*
X0041017Y0087044D01*
X0041017Y0086046D02*
X0064643Y0086046D01*
X0065056Y0085047D02*
X0041017Y0085047D01*
X0041017Y0084049D02*
X0065812Y0084049D01*
X0071302Y0081053D02*
X0077017Y0081053D01*
X0077017Y0080055D02*
X0072445Y0080055D01*
X0073069Y0079056D02*
X0077017Y0079056D01*
X0077017Y0078058D02*
X0073483Y0078058D01*
X0073485Y0077059D02*
X0077017Y0077059D01*
X0077017Y0076061D02*
X0073396Y0076061D01*
X0072983Y0075062D02*
X0077017Y0075062D01*
X0077017Y0074064D02*
X0072236Y0074064D01*
X0070799Y0073065D02*
X0077017Y0073065D01*
X0081017Y0073065D02*
X0100351Y0073065D01*
X0100351Y0074064D02*
X0081017Y0074064D01*
X0081017Y0075062D02*
X0100351Y0075062D01*
X0100351Y0076061D02*
X0081017Y0076061D01*
X0081017Y0077059D02*
X0100351Y0077059D01*
X0100351Y0078058D02*
X0081017Y0078058D01*
X0081017Y0079056D02*
X0117017Y0079056D01*
X0117017Y0080055D02*
X0081017Y0080055D01*
X0081017Y0081053D02*
X0117017Y0081053D01*
X0116300Y0082052D02*
X0081017Y0082052D01*
X0081017Y0083050D02*
X0115301Y0083050D01*
X0114303Y0084049D02*
X0081017Y0084049D01*
X0081017Y0085047D02*
X0113304Y0085047D01*
X0114017Y0087163D02*
X0119017Y0082163D01*
X0119017Y0032163D01*
X0124017Y0027163D01*
X0129017Y0027163D01*
X0131123Y0031128D02*
X0134068Y0031128D01*
X0134295Y0031624D02*
X0134295Y0031624D01*
X0134729Y0032126D02*
X0121882Y0032126D01*
X0121017Y0033125D02*
X0127090Y0033125D01*
X0125737Y0034123D02*
X0121017Y0034123D01*
X0121017Y0035122D02*
X0125026Y0035122D01*
X0124612Y0036120D02*
X0121017Y0036120D01*
X0121017Y0037119D02*
X0124548Y0037119D01*
X0124575Y0038117D02*
X0121017Y0038117D01*
X0121017Y0039116D02*
X0124236Y0039116D01*
X0123237Y0040114D02*
X0121017Y0040114D01*
X0121017Y0041113D02*
X0122239Y0041113D01*
X0122017Y0042111D02*
X0121017Y0042111D01*
X0121017Y0043110D02*
X0122017Y0043110D01*
X0122017Y0044108D02*
X0121017Y0044108D01*
X0121017Y0045107D02*
X0122017Y0045107D01*
X0122017Y0046105D02*
X0121017Y0046105D01*
X0121017Y0047104D02*
X0122017Y0047104D01*
X0122017Y0048102D02*
X0121017Y0048102D01*
X0121017Y0049101D02*
X0122017Y0049101D01*
X0122017Y0050099D02*
X0121017Y0050099D01*
X0121017Y0051098D02*
X0122017Y0051098D01*
X0122017Y0052096D02*
X0121017Y0052096D01*
X0121017Y0053095D02*
X0122017Y0053095D01*
X0122017Y0054093D02*
X0121017Y0054093D01*
X0121017Y0055092D02*
X0122017Y0055092D01*
X0122017Y0056090D02*
X0121017Y0056090D01*
X0121017Y0057089D02*
X0122017Y0057089D01*
X0122017Y0058087D02*
X0121017Y0058087D01*
X0121017Y0059086D02*
X0122017Y0059086D01*
X0122017Y0060084D02*
X0121017Y0060084D01*
X0121017Y0061083D02*
X0122017Y0061083D01*
X0122017Y0062081D02*
X0121017Y0062081D01*
X0121017Y0063080D02*
X0122017Y0063080D01*
X0122017Y0064078D02*
X0121017Y0064078D01*
X0121017Y0065077D02*
X0122017Y0065077D01*
X0122017Y0066075D02*
X0121017Y0066075D01*
X0121017Y0067074D02*
X0122017Y0067074D01*
X0122017Y0068072D02*
X0121017Y0068072D01*
X0121017Y0069071D02*
X0122017Y0069071D01*
X0122017Y0070069D02*
X0121017Y0070069D01*
X0121017Y0071068D02*
X0122017Y0071068D01*
X0122017Y0072066D02*
X0121017Y0072066D01*
X0121017Y0073065D02*
X0122017Y0073065D01*
X0122017Y0074064D02*
X0121017Y0074064D01*
X0121017Y0075062D02*
X0122017Y0075062D01*
X0122017Y0076061D02*
X0121017Y0076061D01*
X0121017Y0077059D02*
X0122017Y0077059D01*
X0122017Y0078058D02*
X0121017Y0078058D01*
X0121017Y0079056D02*
X0122017Y0079056D01*
X0122017Y0080055D02*
X0121017Y0080055D01*
X0121017Y0081053D02*
X0122017Y0081053D01*
X0122017Y0082052D02*
X0121017Y0082052D01*
X0120958Y0083050D02*
X0122017Y0083050D01*
X0122017Y0084049D02*
X0119960Y0084049D01*
X0118961Y0085047D02*
X0122017Y0085047D01*
X0122017Y0086046D02*
X0117963Y0086046D01*
X0116964Y0087044D02*
X0121307Y0087044D01*
X0120309Y0088043D02*
X0115966Y0088043D01*
X0114967Y0089041D02*
X0119310Y0089041D01*
X0118312Y0090040D02*
X0088969Y0090040D01*
X0087970Y0091038D02*
X0092313Y0091038D01*
X0091315Y0092037D02*
X0086971Y0092037D01*
X0086017Y0093035D02*
X0090316Y0093035D01*
X0089318Y0094034D02*
X0086017Y0094034D01*
X0086017Y0095032D02*
X0088319Y0095032D01*
X0087321Y0096031D02*
X0086017Y0096031D01*
X0086017Y0097029D02*
X0087017Y0097029D01*
X0087017Y0098028D02*
X0086017Y0098028D01*
X0086017Y0099026D02*
X0087017Y0099026D01*
X0087017Y0100025D02*
X0086017Y0100025D01*
X0086017Y0101023D02*
X0087017Y0101023D01*
X0087017Y0102022D02*
X0086017Y0102022D01*
X0086017Y0103020D02*
X0087017Y0103020D01*
X0087017Y0104019D02*
X0086017Y0104019D01*
X0086017Y0105017D02*
X0087017Y0105017D01*
X0087017Y0106016D02*
X0086017Y0106016D01*
X0086017Y0107014D02*
X0087017Y0107014D01*
X0087017Y0108013D02*
X0085995Y0108013D01*
X0084997Y0109011D02*
X0087017Y0109011D01*
X0087017Y0110010D02*
X0083998Y0110010D01*
X0083000Y0111008D02*
X0087017Y0111008D01*
X0086344Y0112007D02*
X0082001Y0112007D01*
X0081003Y0113005D02*
X0085346Y0113005D01*
X0084347Y0114004D02*
X0080004Y0114004D01*
X0079017Y0112163D02*
X0084017Y0107163D01*
X0084017Y0092163D01*
X0089017Y0087163D01*
X0114017Y0087163D01*
X0119017Y0092163D02*
X0124017Y0087163D01*
X0124017Y0042163D01*
X0129017Y0037163D01*
X0130943Y0033125D02*
X0135594Y0033125D01*
X0136460Y0034123D02*
X0132296Y0034123D01*
X0133008Y0035122D02*
X0137325Y0035122D01*
X0138694Y0036120D02*
X0133421Y0036120D01*
X0133485Y0037119D02*
X0140248Y0037119D01*
X0141747Y0038082D02*
X0141747Y0038082D01*
X0141867Y0038117D02*
X0133458Y0038117D01*
X0133045Y0039116D02*
X0145268Y0039116D01*
X0152765Y0039116D02*
X0159438Y0039116D01*
X0159438Y0040114D02*
X0132385Y0040114D01*
X0131159Y0041113D02*
X0159438Y0041113D01*
X0159438Y0042111D02*
X0126897Y0042111D01*
X0127126Y0043110D02*
X0126017Y0043110D01*
X0126017Y0051098D02*
X0126839Y0051098D01*
X0126017Y0052096D02*
X0159438Y0052096D01*
X0159438Y0051098D02*
X0131195Y0051098D01*
X0132400Y0050099D02*
X0159438Y0050099D01*
X0159438Y0049101D02*
X0133051Y0049101D01*
X0133464Y0048102D02*
X0159438Y0048102D01*
X0159438Y0047104D02*
X0133485Y0047104D01*
X0133415Y0046105D02*
X0159438Y0046105D01*
X0159438Y0045107D02*
X0133001Y0045107D01*
X0132281Y0044108D02*
X0159438Y0044108D01*
X0159438Y0043110D02*
X0130907Y0043110D01*
X0130871Y0053095D02*
X0159438Y0053095D01*
X0159438Y0054093D02*
X0132266Y0054093D01*
X0132995Y0055092D02*
X0159438Y0055092D01*
X0159438Y0056090D02*
X0135772Y0056090D01*
X0136771Y0057089D02*
X0159438Y0057089D01*
X0159438Y0058087D02*
X0137769Y0058087D01*
X0138768Y0059086D02*
X0142492Y0059086D01*
X0142584Y0058994D02*
X0142926Y0058797D01*
X0143307Y0058695D01*
X0145186Y0058695D01*
X0145186Y0061679D01*
X0142005Y0061679D01*
X0142005Y0059997D01*
X0142107Y0059616D01*
X0142304Y0059274D01*
X0142584Y0058994D01*
X0142005Y0060084D02*
X0139766Y0060084D01*
X0140765Y0061083D02*
X0142005Y0061083D01*
X0141017Y0062081D02*
X0145186Y0062081D01*
X0145186Y0061083D02*
X0146154Y0061083D01*
X0146154Y0060084D02*
X0145186Y0060084D01*
X0145186Y0059086D02*
X0146154Y0059086D01*
X0148848Y0059086D02*
X0149185Y0059086D01*
X0152363Y0062163D02*
X0152363Y0071617D01*
X0151517Y0072463D01*
X0151517Y0077163D01*
X0149017Y0079663D01*
X0136517Y0079663D01*
X0134017Y0084663D02*
X0129017Y0079663D01*
X0129017Y0067163D01*
X0126767Y0071068D02*
X0126017Y0071068D01*
X0126017Y0072066D02*
X0127017Y0072066D01*
X0127017Y0073065D02*
X0126017Y0073065D01*
X0126017Y0074064D02*
X0127017Y0074064D01*
X0127017Y0075062D02*
X0126017Y0075062D01*
X0126017Y0076061D02*
X0127017Y0076061D01*
X0127017Y0077059D02*
X0126017Y0077059D01*
X0126017Y0078058D02*
X0127017Y0078058D01*
X0127017Y0079056D02*
X0126017Y0079056D01*
X0126017Y0080055D02*
X0127017Y0080055D01*
X0127578Y0081053D02*
X0126017Y0081053D01*
X0126017Y0082052D02*
X0128576Y0082052D01*
X0128188Y0081663D02*
X0128188Y0081663D01*
X0129575Y0083050D02*
X0126017Y0083050D01*
X0126017Y0084049D02*
X0130573Y0084049D01*
X0131572Y0085047D02*
X0126017Y0085047D01*
X0126017Y0086046D02*
X0132571Y0086046D01*
X0134017Y0084663D02*
X0154017Y0084663D01*
X0156517Y0082163D01*
X0156517Y0072463D01*
X0159117Y0072066D02*
X0159438Y0072066D01*
X0159438Y0071068D02*
X0159117Y0071068D01*
X0159117Y0070069D02*
X0159438Y0070069D01*
X0159438Y0069071D02*
X0159117Y0069071D01*
X0159117Y0068072D02*
X0159438Y0068072D01*
X0159438Y0067074D02*
X0158249Y0067074D01*
X0159438Y0066075D02*
X0154363Y0066075D01*
X0154363Y0067074D02*
X0154785Y0067074D01*
X0155705Y0065077D02*
X0159438Y0065077D01*
X0159438Y0064078D02*
X0156028Y0064078D01*
X0156028Y0063080D02*
X0159438Y0063080D01*
X0159438Y0062081D02*
X0156028Y0062081D01*
X0156028Y0061083D02*
X0159438Y0061083D01*
X0159438Y0060084D02*
X0156028Y0060084D01*
X0155541Y0059086D02*
X0159438Y0059086D01*
X0150363Y0066075D02*
X0141017Y0066075D01*
X0141017Y0065077D02*
X0142329Y0065077D01*
X0142005Y0064078D02*
X0141017Y0064078D01*
X0141017Y0063080D02*
X0142005Y0063080D01*
X0139017Y0062163D02*
X0134017Y0057163D01*
X0129017Y0057163D01*
X0127162Y0053095D02*
X0126017Y0053095D01*
X0117017Y0048102D02*
X0106017Y0048102D01*
X0106017Y0047104D02*
X0117017Y0047104D01*
X0117017Y0046105D02*
X0106017Y0046105D01*
X0106017Y0045107D02*
X0117017Y0045107D01*
X0117017Y0044108D02*
X0106017Y0044108D01*
X0106017Y0043110D02*
X0117017Y0043110D01*
X0117017Y0042111D02*
X0106017Y0042111D01*
X0102017Y0042111D02*
X0090241Y0042111D01*
X0090241Y0041113D02*
X0091593Y0041113D01*
X0091099Y0040114D02*
X0089384Y0040114D01*
X0091099Y0039116D02*
X0073045Y0039116D01*
X0073458Y0038117D02*
X0091099Y0038117D01*
X0091099Y0037119D02*
X0073485Y0037119D01*
X0073421Y0036120D02*
X0091099Y0036120D01*
X0091099Y0035122D02*
X0073008Y0035122D01*
X0072296Y0034123D02*
X0078560Y0034123D01*
X0077792Y0033125D02*
X0070943Y0033125D01*
X0072370Y0030129D02*
X0077792Y0030129D01*
X0077792Y0029130D02*
X0073029Y0029130D01*
X0073387Y0028132D02*
X0077157Y0028132D01*
X0078820Y0024138D02*
X0091099Y0024138D01*
X0091099Y0025136D02*
X0090241Y0025136D01*
X0091099Y0023139D02*
X0077821Y0023139D01*
X0076823Y0022141D02*
X0091099Y0022141D01*
X0091099Y0021142D02*
X0075824Y0021142D01*
X0074826Y0020144D02*
X0077396Y0020144D01*
X0077005Y0019145D02*
X0073827Y0019145D01*
X0073446Y0018147D02*
X0077005Y0018147D01*
X0077005Y0016679D02*
X0077005Y0014997D01*
X0077107Y0014616D01*
X0077304Y0014274D01*
X0077584Y0013994D01*
X0077926Y0013797D01*
X0078307Y0013695D01*
X0080186Y0013695D01*
X0080186Y0016679D01*
X0077005Y0016679D01*
X0077005Y0016150D02*
X0073433Y0016150D01*
X0073485Y0017148D02*
X0080186Y0017148D01*
X0080186Y0016150D02*
X0081154Y0016150D01*
X0081154Y0015151D02*
X0080186Y0015151D01*
X0080186Y0014153D02*
X0081154Y0014153D01*
X0081154Y0018147D02*
X0080186Y0018147D01*
X0080186Y0019145D02*
X0081154Y0019145D01*
X0081154Y0020144D02*
X0080186Y0020144D01*
X0083945Y0020144D02*
X0084088Y0020144D01*
X0087363Y0017163D02*
X0093387Y0017163D01*
X0104017Y0027793D01*
X0104017Y0068817D01*
X0106017Y0065077D02*
X0110993Y0065077D01*
X0110993Y0064078D02*
X0106017Y0064078D01*
X0106017Y0063080D02*
X0108835Y0063080D01*
X0108343Y0062081D02*
X0106017Y0062081D01*
X0106017Y0061083D02*
X0108343Y0061083D01*
X0108343Y0060084D02*
X0106017Y0060084D01*
X0106017Y0059086D02*
X0108343Y0059086D01*
X0108343Y0058087D02*
X0106017Y0058087D01*
X0106017Y0057089D02*
X0108343Y0057089D01*
X0108343Y0056090D02*
X0106017Y0056090D01*
X0106017Y0055092D02*
X0108343Y0055092D01*
X0108343Y0054093D02*
X0106017Y0054093D01*
X0106017Y0053095D02*
X0108343Y0053095D01*
X0108343Y0052096D02*
X0106017Y0052096D01*
X0106017Y0051098D02*
X0108343Y0051098D01*
X0108343Y0050099D02*
X0106017Y0050099D01*
X0106017Y0049101D02*
X0108777Y0049101D01*
X0112993Y0056061D02*
X0112993Y0067793D01*
X0114017Y0068817D01*
X0110709Y0068817D01*
X0104017Y0075510D01*
X0107682Y0075062D02*
X0113532Y0075062D01*
X0113532Y0075994D02*
X0110351Y0075994D01*
X0110351Y0077676D01*
X0110453Y0078057D01*
X0110651Y0078399D01*
X0110930Y0078678D01*
X0111272Y0078876D01*
X0111654Y0078978D01*
X0113532Y0078978D01*
X0113532Y0075994D01*
X0113532Y0076061D02*
X0114501Y0076061D01*
X0114501Y0077059D02*
X0113532Y0077059D01*
X0113532Y0078058D02*
X0114501Y0078058D01*
X0110454Y0078058D02*
X0107682Y0078058D01*
X0107682Y0077059D02*
X0110351Y0077059D01*
X0110351Y0076061D02*
X0107682Y0076061D01*
X0108291Y0074064D02*
X0110351Y0074064D01*
X0110426Y0073065D02*
X0109290Y0073065D01*
X0110288Y0072066D02*
X0111011Y0072066D01*
X0108625Y0068072D02*
X0107682Y0068072D01*
X0107682Y0067074D02*
X0109624Y0067074D01*
X0110503Y0066075D02*
X0107530Y0066075D01*
X0102017Y0065077D02*
X0083931Y0065077D01*
X0082933Y0066075D02*
X0100503Y0066075D01*
X0100351Y0067074D02*
X0081934Y0067074D01*
X0081017Y0068072D02*
X0100351Y0068072D01*
X0100351Y0069071D02*
X0081017Y0069071D01*
X0081017Y0070069D02*
X0100351Y0070069D01*
X0100351Y0071068D02*
X0081017Y0071068D01*
X0081017Y0072066D02*
X0101011Y0072066D01*
X0102017Y0064078D02*
X0089851Y0064078D01*
X0090850Y0063080D02*
X0090883Y0063080D01*
X0087914Y0056061D02*
X0084017Y0052163D01*
X0084017Y0045136D01*
X0086017Y0051098D02*
X0090391Y0051098D01*
X0090391Y0052096D02*
X0086778Y0052096D01*
X0087776Y0053095D02*
X0090391Y0053095D01*
X0090391Y0050099D02*
X0089442Y0050099D01*
X0090241Y0049101D02*
X0090824Y0049101D01*
X0090241Y0048102D02*
X0102017Y0048102D01*
X0102017Y0047104D02*
X0090241Y0047104D01*
X0090241Y0046105D02*
X0102017Y0046105D01*
X0102017Y0045107D02*
X0090241Y0045107D01*
X0090241Y0044108D02*
X0102017Y0044108D01*
X0102017Y0043110D02*
X0090241Y0043110D01*
X0089473Y0034123D02*
X0091099Y0034123D01*
X0091099Y0033125D02*
X0090241Y0033125D01*
X0090241Y0032126D02*
X0091099Y0032126D01*
X0091099Y0031128D02*
X0090241Y0031128D01*
X0090241Y0030129D02*
X0091099Y0030129D01*
X0085414Y0027793D02*
X0084017Y0029191D01*
X0085414Y0027793D02*
X0104017Y0027793D01*
X0116120Y0014153D02*
X0124548Y0014153D01*
X0124548Y0015151D02*
X0116934Y0015151D01*
X0116934Y0016150D02*
X0124548Y0016150D01*
X0124548Y0018147D02*
X0116934Y0018147D01*
X0116934Y0019145D02*
X0124548Y0019145D01*
X0124548Y0020144D02*
X0116934Y0020144D01*
X0116934Y0021142D02*
X0124937Y0021142D01*
X0127054Y0023139D02*
X0116934Y0023139D01*
X0116934Y0022141D02*
X0131520Y0022141D01*
X0131517Y0022163D02*
X0131517Y0022163D01*
X0131657Y0023139D02*
X0130979Y0023139D01*
X0129501Y0021142D02*
X0128532Y0021142D01*
X0128532Y0020144D02*
X0129501Y0020144D01*
X0129501Y0019145D02*
X0128532Y0019145D01*
X0128532Y0018147D02*
X0129501Y0018147D01*
X0128532Y0017148D02*
X0116934Y0017148D01*
X0116934Y0024138D02*
X0125722Y0024138D01*
X0125019Y0025136D02*
X0116934Y0025136D01*
X0116934Y0026135D02*
X0122216Y0026135D01*
X0121218Y0027133D02*
X0116934Y0027133D01*
X0116934Y0028132D02*
X0120219Y0028132D01*
X0119221Y0029130D02*
X0116934Y0029130D01*
X0116934Y0030129D02*
X0118222Y0030129D01*
X0117224Y0031128D02*
X0116934Y0031128D01*
X0116934Y0032126D02*
X0117017Y0032126D01*
X0117017Y0033125D02*
X0116934Y0033125D01*
X0116934Y0034123D02*
X0117017Y0034123D01*
X0117017Y0035122D02*
X0116934Y0035122D01*
X0116934Y0036120D02*
X0117017Y0036120D01*
X0117017Y0037119D02*
X0116934Y0037119D01*
X0116934Y0038117D02*
X0117017Y0038117D01*
X0117017Y0039116D02*
X0116934Y0039116D01*
X0116934Y0040114D02*
X0117017Y0040114D01*
X0117017Y0041113D02*
X0116440Y0041113D01*
X0122881Y0031128D02*
X0126910Y0031128D01*
X0125663Y0030129D02*
X0123879Y0030129D01*
X0132370Y0030129D02*
X0133612Y0030129D01*
X0133156Y0029130D02*
X0133038Y0029130D01*
X0129501Y0016150D02*
X0128532Y0016150D01*
X0128532Y0015151D02*
X0129501Y0015151D01*
X0129501Y0014153D02*
X0128532Y0014153D01*
X0128532Y0013154D02*
X0129501Y0013154D01*
X0133066Y0013154D02*
X0134088Y0013154D01*
X0134295Y0012702D02*
X0134295Y0012702D01*
X0134768Y0012156D02*
X0033265Y0012156D01*
X0033738Y0012702D02*
X0033738Y0012702D01*
X0033945Y0013154D02*
X0067018Y0013154D01*
X0065708Y0014153D02*
X0034401Y0014153D01*
X0034857Y0015151D02*
X0065013Y0015151D01*
X0064600Y0016150D02*
X0035313Y0016150D01*
X0035769Y0017148D02*
X0064548Y0017148D01*
X0064587Y0018147D02*
X0054756Y0018147D01*
X0053280Y0018147D02*
X0052312Y0018147D01*
X0052312Y0019145D02*
X0053280Y0019145D01*
X0053280Y0020144D02*
X0052312Y0020144D01*
X0050836Y0018147D02*
X0043058Y0018147D01*
X0043485Y0019145D02*
X0049495Y0019145D01*
X0048810Y0020144D02*
X0043485Y0020144D01*
X0043485Y0021142D02*
X0048434Y0021142D01*
X0052312Y0023139D02*
X0053280Y0023139D01*
X0053280Y0024138D02*
X0052312Y0024138D01*
X0052312Y0025136D02*
X0053280Y0025136D01*
X0053280Y0026135D02*
X0052312Y0026135D01*
X0057159Y0021142D02*
X0066946Y0021142D01*
X0065678Y0020144D02*
X0056782Y0020144D01*
X0056098Y0019145D02*
X0065001Y0019145D01*
X0071015Y0013154D02*
X0124967Y0013154D01*
X0133485Y0014153D02*
X0133632Y0014153D01*
X0156166Y0038117D02*
X0159438Y0038117D01*
X0159438Y0037119D02*
X0157785Y0037119D01*
X0156286Y0038082D02*
X0156286Y0038082D01*
X0159339Y0036120D02*
X0159438Y0036120D01*
X0146154Y0063080D02*
X0145186Y0063080D01*
X0145186Y0064078D02*
X0146154Y0064078D01*
X0146154Y0065077D02*
X0145186Y0065077D01*
X0145179Y0067074D02*
X0143249Y0067074D01*
X0146467Y0067074D02*
X0146567Y0067074D01*
X0146567Y0068072D02*
X0146467Y0068072D01*
X0146467Y0069071D02*
X0146567Y0069071D01*
X0146567Y0070069D02*
X0146467Y0070069D01*
X0146467Y0071068D02*
X0146567Y0071068D01*
X0146567Y0072066D02*
X0146467Y0072066D01*
X0147854Y0067074D02*
X0149785Y0067074D01*
X0149021Y0065077D02*
X0149012Y0065077D01*
X0141517Y0072463D02*
X0139017Y0069963D01*
X0139017Y0062163D01*
X0139215Y0087044D02*
X0126017Y0087044D01*
X0125966Y0088043D02*
X0138917Y0088043D01*
X0138917Y0089041D02*
X0124967Y0089041D01*
X0123969Y0090040D02*
X0138917Y0090040D01*
X0138917Y0091038D02*
X0122970Y0091038D01*
X0121971Y0092037D02*
X0138917Y0092037D01*
X0138917Y0093035D02*
X0120973Y0093035D01*
X0119974Y0094034D02*
X0138917Y0094034D01*
X0138917Y0095032D02*
X0093976Y0095032D01*
X0092977Y0096031D02*
X0097321Y0096031D01*
X0096322Y0097029D02*
X0091979Y0097029D01*
X0091017Y0098028D02*
X0095324Y0098028D01*
X0094325Y0099026D02*
X0091017Y0099026D01*
X0091017Y0100025D02*
X0093327Y0100025D01*
X0092328Y0101023D02*
X0091017Y0101023D01*
X0091017Y0102022D02*
X0092017Y0102022D01*
X0092017Y0103020D02*
X0091017Y0103020D01*
X0091017Y0104019D02*
X0092017Y0104019D01*
X0092017Y0105017D02*
X0091017Y0105017D01*
X0091017Y0106016D02*
X0092017Y0106016D01*
X0092017Y0107014D02*
X0091017Y0107014D01*
X0091017Y0108013D02*
X0092017Y0108013D01*
X0092017Y0109011D02*
X0091017Y0109011D01*
X0091017Y0110010D02*
X0092017Y0110010D01*
X0092017Y0111008D02*
X0091017Y0111008D01*
X0091017Y0112007D02*
X0092017Y0112007D01*
X0092017Y0113005D02*
X0091003Y0113005D01*
X0090004Y0114004D02*
X0092017Y0114004D01*
X0092017Y0115002D02*
X0089006Y0115002D01*
X0088007Y0116001D02*
X0092017Y0116001D01*
X0091352Y0116999D02*
X0087009Y0116999D01*
X0086010Y0117998D02*
X0090353Y0117998D01*
X0089355Y0118997D02*
X0085012Y0118997D01*
X0084017Y0117163D02*
X0089017Y0112163D01*
X0089017Y0097163D01*
X0094017Y0092163D01*
X0119017Y0092163D01*
X0129017Y0097163D02*
X0139017Y0107163D01*
X0149017Y0107163D01*
X0144548Y0105017D02*
X0139699Y0105017D01*
X0138701Y0104019D02*
X0144548Y0104019D01*
X0145101Y0103020D02*
X0137702Y0103020D01*
X0136704Y0102022D02*
X0146047Y0102022D01*
X0145048Y0101023D02*
X0135705Y0101023D01*
X0134707Y0100025D02*
X0144517Y0100025D01*
X0144517Y0099026D02*
X0133708Y0099026D01*
X0132709Y0098028D02*
X0144517Y0098028D01*
X0144517Y0097029D02*
X0143424Y0097029D01*
X0141567Y0097029D02*
X0141467Y0097029D01*
X0141467Y0096031D02*
X0141567Y0096031D01*
X0141567Y0095032D02*
X0141467Y0095032D01*
X0141467Y0094034D02*
X0141567Y0094034D01*
X0141567Y0093035D02*
X0141467Y0093035D01*
X0141467Y0092037D02*
X0141567Y0092037D01*
X0138935Y0096031D02*
X0130712Y0096031D01*
X0131711Y0097029D02*
X0139609Y0097029D01*
X0134042Y0105017D02*
X0096017Y0105017D01*
X0096017Y0104019D02*
X0133044Y0104019D01*
X0132045Y0103020D02*
X0096017Y0103020D01*
X0096986Y0102022D02*
X0131047Y0102022D01*
X0130048Y0101023D02*
X0097985Y0101023D01*
X0098983Y0100025D02*
X0129050Y0100025D01*
X0129017Y0097163D02*
X0099017Y0097163D01*
X0094017Y0102163D01*
X0094017Y0117163D01*
X0089017Y0122163D01*
X0074017Y0122163D01*
X0069017Y0127163D01*
X0069017Y0147163D01*
X0065901Y0143959D02*
X0045049Y0143959D01*
X0046017Y0142961D02*
X0067017Y0142961D01*
X0067017Y0141962D02*
X0046017Y0141962D01*
X0046017Y0140964D02*
X0067017Y0140964D01*
X0067017Y0139965D02*
X0046017Y0139965D01*
X0046017Y0138967D02*
X0067017Y0138967D01*
X0067017Y0137968D02*
X0046017Y0137968D01*
X0046017Y0136970D02*
X0067017Y0136970D01*
X0067017Y0135971D02*
X0046017Y0135971D01*
X0046017Y0134973D02*
X0067017Y0134973D01*
X0067017Y0133974D02*
X0046017Y0133974D01*
X0046017Y0132976D02*
X0067017Y0132976D01*
X0067017Y0131977D02*
X0046017Y0131977D01*
X0046017Y0130979D02*
X0067017Y0130979D01*
X0067017Y0129980D02*
X0046017Y0129980D01*
X0046017Y0128982D02*
X0067017Y0128982D01*
X0067017Y0127983D02*
X0046017Y0127983D01*
X0046017Y0126985D02*
X0067017Y0126985D01*
X0067365Y0125986D02*
X0046017Y0125986D01*
X0046017Y0124988D02*
X0068364Y0124988D01*
X0069362Y0123989D02*
X0046017Y0123989D01*
X0046018Y0122991D02*
X0070361Y0122991D01*
X0071359Y0121992D02*
X0047016Y0121992D01*
X0048015Y0120994D02*
X0072358Y0120994D01*
X0074021Y0124988D02*
X0125081Y0124988D01*
X0124667Y0125986D02*
X0073022Y0125986D01*
X0072024Y0126985D02*
X0124548Y0126985D01*
X0124548Y0127983D02*
X0071025Y0127983D01*
X0071017Y0128982D02*
X0124933Y0128982D01*
X0125514Y0129980D02*
X0071017Y0129980D01*
X0071017Y0130979D02*
X0126551Y0130979D01*
X0127449Y0132976D02*
X0071017Y0132976D01*
X0071017Y0133974D02*
X0125886Y0133974D01*
X0125087Y0134973D02*
X0071017Y0134973D01*
X0071017Y0135971D02*
X0124674Y0135971D01*
X0124548Y0136970D02*
X0071017Y0136970D01*
X0071017Y0137968D02*
X0124548Y0137968D01*
X0124927Y0138967D02*
X0071017Y0138967D01*
X0071017Y0139965D02*
X0125499Y0139965D01*
X0126515Y0140964D02*
X0071017Y0140964D01*
X0071017Y0141962D02*
X0152017Y0141962D01*
X0152017Y0140964D02*
X0131518Y0140964D01*
X0132534Y0139965D02*
X0152017Y0139965D01*
X0152017Y0138967D02*
X0150446Y0138967D01*
X0147587Y0138967D02*
X0145041Y0138967D01*
X0144017Y0137163D02*
X0149017Y0134722D01*
X0144903Y0132976D02*
X0130584Y0132976D01*
X0132147Y0133974D02*
X0144548Y0133974D01*
X0143945Y0134973D02*
X0132946Y0134973D01*
X0131482Y0130979D02*
X0146441Y0130979D01*
X0145442Y0131977D02*
X0071017Y0131977D01*
X0071017Y0142961D02*
X0127485Y0142961D01*
X0125901Y0143959D02*
X0072132Y0143959D01*
X0072940Y0144958D02*
X0125093Y0144958D01*
X0124680Y0145956D02*
X0073353Y0145956D01*
X0073485Y0146955D02*
X0124548Y0146955D01*
X0124548Y0147953D02*
X0073485Y0147953D01*
X0073112Y0148952D02*
X0124921Y0148952D01*
X0125484Y0149950D02*
X0072549Y0149950D01*
X0071550Y0150949D02*
X0126483Y0150949D01*
X0127521Y0152946D02*
X0070497Y0152946D01*
X0070732Y0153022D02*
X0071359Y0153341D01*
X0071928Y0153755D01*
X0072425Y0154252D01*
X0072838Y0154821D01*
X0073158Y0155448D01*
X0073375Y0156117D01*
X0073464Y0156679D01*
X0069501Y0156679D01*
X0069501Y0157648D01*
X0068532Y0157648D01*
X0068532Y0161611D01*
X0067970Y0161522D01*
X0067301Y0161304D01*
X0066675Y0160985D01*
X0066105Y0160572D01*
X0065608Y0160074D01*
X0065195Y0159505D01*
X0064875Y0158879D01*
X0064658Y0158210D01*
X0064569Y0157648D01*
X0068532Y0157648D01*
X0068532Y0156679D01*
X0064569Y0156679D01*
X0064658Y0156117D01*
X0064875Y0155448D01*
X0065195Y0154821D01*
X0065608Y0154252D01*
X0066105Y0153755D01*
X0066675Y0153341D01*
X0067301Y0153022D01*
X0067970Y0152805D01*
X0068532Y0152716D01*
X0068532Y0156679D01*
X0069501Y0156679D01*
X0069501Y0152716D01*
X0070063Y0152805D01*
X0070732Y0153022D01*
X0069501Y0152946D02*
X0068532Y0152946D01*
X0067536Y0152946D02*
X0008517Y0152946D01*
X0008517Y0153944D02*
X0065916Y0153944D01*
X0065133Y0154943D02*
X0008517Y0154943D01*
X0008517Y0155941D02*
X0064715Y0155941D01*
X0064615Y0157938D02*
X0022568Y0157938D01*
X0022805Y0158175D02*
X0023485Y0159818D01*
X0023485Y0161595D01*
X0022805Y0163238D01*
X0021548Y0164495D01*
X0019905Y0165175D01*
X0018128Y0165175D01*
X0016485Y0164495D01*
X0015228Y0163238D01*
X0014548Y0161595D01*
X0014548Y0159818D01*
X0015228Y0158175D01*
X0016485Y0156918D01*
X0018128Y0156238D01*
X0019905Y0156238D01*
X0021548Y0156918D01*
X0022805Y0158175D01*
X0023120Y0158937D02*
X0064905Y0158937D01*
X0065507Y0159935D02*
X0023485Y0159935D01*
X0023485Y0160934D02*
X0066604Y0160934D01*
X0068532Y0160934D02*
X0069501Y0160934D01*
X0069501Y0161611D02*
X0069501Y0157648D01*
X0073464Y0157648D01*
X0073375Y0158210D01*
X0073158Y0158879D01*
X0072838Y0159505D01*
X0072425Y0160074D01*
X0071928Y0160572D01*
X0071359Y0160985D01*
X0070732Y0161304D01*
X0070063Y0161522D01*
X0069501Y0161611D01*
X0069905Y0162695D02*
X0071548Y0163375D01*
X0072805Y0164632D01*
X0073485Y0166274D01*
X0073485Y0168052D01*
X0072805Y0169694D01*
X0071548Y0170951D01*
X0069905Y0171632D01*
X0068128Y0171632D01*
X0066485Y0170951D01*
X0065228Y0169694D01*
X0064548Y0168052D01*
X0064548Y0166274D01*
X0065228Y0164632D01*
X0066485Y0163375D01*
X0068128Y0162695D01*
X0069905Y0162695D01*
X0070476Y0162931D02*
X0127557Y0162931D01*
X0128128Y0162695D02*
X0129905Y0162695D01*
X0131548Y0163375D01*
X0132805Y0164632D01*
X0133485Y0166274D01*
X0133485Y0168052D01*
X0132805Y0169694D01*
X0131548Y0170951D01*
X0129905Y0171632D01*
X0128128Y0171632D01*
X0126485Y0170951D01*
X0125228Y0169694D01*
X0124548Y0168052D01*
X0124548Y0166274D01*
X0125228Y0164632D01*
X0126485Y0163375D01*
X0128128Y0162695D01*
X0128128Y0161632D02*
X0126485Y0160951D01*
X0125228Y0159694D01*
X0124548Y0158052D01*
X0124548Y0156274D01*
X0125228Y0154632D01*
X0126485Y0153375D01*
X0128128Y0152695D01*
X0129905Y0152695D01*
X0131548Y0153375D01*
X0132805Y0154632D01*
X0133485Y0156274D01*
X0133485Y0158052D01*
X0132805Y0159694D01*
X0131548Y0160951D01*
X0129905Y0161632D01*
X0128128Y0161632D01*
X0126468Y0160934D02*
X0071429Y0160934D01*
X0072526Y0159935D02*
X0125469Y0159935D01*
X0124915Y0158937D02*
X0073128Y0158937D01*
X0073418Y0157938D02*
X0124548Y0157938D01*
X0124548Y0156940D02*
X0069501Y0156940D01*
X0068532Y0156940D02*
X0021569Y0156940D01*
X0023345Y0161933D02*
X0141419Y0161933D01*
X0140420Y0162931D02*
X0130476Y0162931D01*
X0132102Y0163930D02*
X0139422Y0163930D01*
X0138423Y0164928D02*
X0132927Y0164928D01*
X0133341Y0165927D02*
X0137425Y0165927D01*
X0137017Y0166925D02*
X0133485Y0166925D01*
X0133485Y0167924D02*
X0137017Y0167924D01*
X0137017Y0168922D02*
X0133125Y0168922D01*
X0132579Y0169921D02*
X0137017Y0169921D01*
X0137017Y0170919D02*
X0131580Y0170919D01*
X0130440Y0172916D02*
X0137017Y0172916D01*
X0137017Y0171918D02*
X0022767Y0171918D01*
X0022805Y0171955D02*
X0023485Y0173597D01*
X0023485Y0175375D01*
X0022805Y0177017D01*
X0021548Y0178274D01*
X0019905Y0178955D01*
X0018128Y0178955D01*
X0016485Y0178274D01*
X0015228Y0177017D01*
X0014548Y0175375D01*
X0014548Y0173597D01*
X0015228Y0171955D01*
X0016485Y0170698D01*
X0018128Y0170018D01*
X0019905Y0170018D01*
X0021548Y0170698D01*
X0022805Y0171955D01*
X0023203Y0172916D02*
X0067593Y0172916D01*
X0068128Y0172695D02*
X0066485Y0173375D01*
X0065228Y0174632D01*
X0064548Y0176274D01*
X0064548Y0178052D01*
X0065228Y0179694D01*
X0066485Y0180951D01*
X0068128Y0181632D01*
X0069905Y0181632D01*
X0071548Y0180951D01*
X0072805Y0179694D01*
X0073485Y0178052D01*
X0073485Y0176274D01*
X0072805Y0174632D01*
X0071548Y0173375D01*
X0069905Y0172695D01*
X0068128Y0172695D01*
X0070440Y0172916D02*
X0127593Y0172916D01*
X0128128Y0172695D02*
X0129905Y0172695D01*
X0131548Y0173375D01*
X0132805Y0174632D01*
X0133485Y0176274D01*
X0133485Y0178052D01*
X0132805Y0179694D01*
X0131548Y0180951D01*
X0129905Y0181632D01*
X0128128Y0181632D01*
X0126485Y0180951D01*
X0125228Y0179694D01*
X0124548Y0178052D01*
X0124548Y0176274D01*
X0125228Y0174632D01*
X0126485Y0173375D01*
X0128128Y0172695D01*
X0126453Y0170919D02*
X0071580Y0170919D01*
X0072579Y0169921D02*
X0125454Y0169921D01*
X0124908Y0168922D02*
X0073125Y0168922D01*
X0073485Y0167924D02*
X0124548Y0167924D01*
X0124548Y0166925D02*
X0073485Y0166925D01*
X0073341Y0165927D02*
X0124692Y0165927D01*
X0125106Y0164928D02*
X0072927Y0164928D01*
X0072102Y0163930D02*
X0125931Y0163930D01*
X0131565Y0160934D02*
X0142417Y0160934D01*
X0143898Y0162281D02*
X0149017Y0162281D01*
X0146041Y0158937D02*
X0133119Y0158937D01*
X0133485Y0157938D02*
X0147824Y0157938D01*
X0150209Y0157938D02*
X0152017Y0157938D01*
X0152017Y0156940D02*
X0133485Y0156940D01*
X0133347Y0155941D02*
X0152017Y0155941D01*
X0152017Y0154943D02*
X0132934Y0154943D01*
X0132117Y0153944D02*
X0152017Y0153944D01*
X0152017Y0152946D02*
X0149964Y0152946D01*
X0148069Y0152946D02*
X0130512Y0152946D01*
X0131550Y0150949D02*
X0145193Y0150949D01*
X0144780Y0149950D02*
X0132549Y0149950D01*
X0129017Y0147163D02*
X0144017Y0147163D01*
X0149017Y0148502D01*
X0146143Y0151947D02*
X0008517Y0151947D01*
X0008517Y0150949D02*
X0017049Y0150949D01*
X0015720Y0149950D02*
X0008517Y0149950D01*
X0008517Y0148952D02*
X0015019Y0148952D01*
X0014605Y0147953D02*
X0008517Y0147953D01*
X0008517Y0146955D02*
X0014548Y0146955D01*
X0014582Y0145956D02*
X0008517Y0145956D01*
X0008517Y0144958D02*
X0014996Y0144958D01*
X0015665Y0143959D02*
X0008517Y0143959D01*
X0008517Y0142961D02*
X0016915Y0142961D01*
X0019017Y0146927D02*
X0039253Y0146927D01*
X0044017Y0142163D01*
X0044017Y0122163D01*
X0049017Y0117163D01*
X0084017Y0117163D01*
X0083349Y0115002D02*
X0044006Y0115002D01*
X0043007Y0116001D02*
X0047350Y0116001D01*
X0047017Y0116335D02*
X0047017Y0116335D01*
X0046352Y0116999D02*
X0042009Y0116999D01*
X0041017Y0117998D02*
X0045353Y0117998D01*
X0044355Y0118997D02*
X0041017Y0118997D01*
X0041017Y0119995D02*
X0043356Y0119995D01*
X0042358Y0120994D02*
X0041017Y0120994D01*
X0041017Y0121992D02*
X0042017Y0121992D01*
X0042017Y0122991D02*
X0041017Y0122991D01*
X0041017Y0123989D02*
X0042017Y0123989D01*
X0042017Y0124988D02*
X0041017Y0124988D01*
X0041017Y0125986D02*
X0042017Y0125986D01*
X0042017Y0126985D02*
X0041017Y0126985D01*
X0041017Y0127983D02*
X0042017Y0127983D01*
X0042017Y0128982D02*
X0040027Y0128982D01*
X0039028Y0129980D02*
X0042017Y0129980D01*
X0042017Y0130979D02*
X0038030Y0130979D01*
X0037031Y0131977D02*
X0042017Y0131977D01*
X0042017Y0132976D02*
X0036033Y0132976D01*
X0035034Y0133974D02*
X0042017Y0133974D01*
X0042017Y0134973D02*
X0034035Y0134973D01*
X0033032Y0133148D02*
X0039017Y0127163D01*
X0039017Y0117163D01*
X0044017Y0112163D01*
X0079017Y0112163D01*
X0078341Y0110010D02*
X0019665Y0110010D01*
X0019501Y0110010D02*
X0018532Y0110010D01*
X0018532Y0110036D02*
X0017970Y0109947D01*
X0017301Y0109730D01*
X0016675Y0109410D01*
X0016105Y0108997D01*
X0015608Y0108499D01*
X0015195Y0107930D01*
X0014875Y0107304D01*
X0014658Y0106635D01*
X0014569Y0106073D01*
X0018532Y0106073D01*
X0018532Y0110036D01*
X0018368Y0110010D02*
X0008517Y0110010D01*
X0008517Y0111008D02*
X0042343Y0111008D01*
X0041344Y0112007D02*
X0008517Y0112007D01*
X0008517Y0113005D02*
X0040346Y0113005D01*
X0039347Y0114004D02*
X0008517Y0114004D01*
X0008517Y0115002D02*
X0017879Y0115002D01*
X0018128Y0114899D02*
X0019905Y0114899D01*
X0021548Y0115580D01*
X0022805Y0116837D01*
X0023485Y0118479D01*
X0023485Y0120257D01*
X0022805Y0121899D01*
X0021548Y0123156D01*
X0019905Y0123836D01*
X0018128Y0123836D01*
X0016485Y0123156D01*
X0015228Y0121899D01*
X0014548Y0120257D01*
X0014548Y0118479D01*
X0015228Y0116837D01*
X0016485Y0115580D01*
X0018128Y0114899D01*
X0020154Y0115002D02*
X0038349Y0115002D01*
X0037350Y0116001D02*
X0021969Y0116001D01*
X0022872Y0116999D02*
X0037017Y0116999D01*
X0037017Y0117998D02*
X0023286Y0117998D01*
X0023485Y0118997D02*
X0037017Y0118997D01*
X0037017Y0119995D02*
X0023485Y0119995D01*
X0023180Y0120994D02*
X0037017Y0120994D01*
X0037017Y0121992D02*
X0022712Y0121992D01*
X0021713Y0122991D02*
X0037017Y0122991D01*
X0037017Y0123989D02*
X0008517Y0123989D01*
X0008517Y0122991D02*
X0016320Y0122991D01*
X0015321Y0121992D02*
X0008517Y0121992D01*
X0008517Y0120994D02*
X0014853Y0120994D01*
X0014548Y0119995D02*
X0008517Y0119995D01*
X0008517Y0118997D02*
X0014548Y0118997D01*
X0014747Y0117998D02*
X0008517Y0117998D01*
X0008517Y0116999D02*
X0015161Y0116999D01*
X0016064Y0116001D02*
X0008517Y0116001D01*
X0008517Y0109011D02*
X0016126Y0109011D01*
X0015255Y0108013D02*
X0008517Y0108013D01*
X0008517Y0107014D02*
X0014781Y0107014D01*
X0014569Y0105104D02*
X0014658Y0104542D01*
X0014875Y0103873D01*
X0015195Y0103246D01*
X0015608Y0102677D01*
X0016105Y0102180D01*
X0016675Y0101767D01*
X0017301Y0101447D01*
X0017970Y0101230D01*
X0018532Y0101141D01*
X0018532Y0105104D01*
X0014569Y0105104D01*
X0014583Y0105017D02*
X0008517Y0105017D01*
X0008517Y0104019D02*
X0014828Y0104019D01*
X0015359Y0103020D02*
X0008517Y0103020D01*
X0008517Y0102022D02*
X0016323Y0102022D01*
X0018532Y0102022D02*
X0019501Y0102022D01*
X0019501Y0101141D02*
X0020063Y0101230D01*
X0020732Y0101447D01*
X0021359Y0101767D01*
X0021928Y0102180D01*
X0022425Y0102677D01*
X0022838Y0103246D01*
X0023158Y0103873D01*
X0023375Y0104542D01*
X0023464Y0105104D01*
X0019501Y0105104D01*
X0019501Y0106073D01*
X0018532Y0106073D01*
X0018532Y0105104D01*
X0019501Y0105104D01*
X0019501Y0101141D01*
X0019501Y0103020D02*
X0018532Y0103020D01*
X0018532Y0104019D02*
X0019501Y0104019D01*
X0019501Y0105017D02*
X0018532Y0105017D01*
X0018532Y0106016D02*
X0008517Y0106016D01*
X0008517Y0101023D02*
X0037017Y0101023D01*
X0037017Y0100025D02*
X0008517Y0100025D01*
X0008517Y0099026D02*
X0037017Y0099026D01*
X0037017Y0098028D02*
X0008517Y0098028D01*
X0008517Y0097029D02*
X0037017Y0097029D01*
X0037017Y0096031D02*
X0008517Y0096031D01*
X0008517Y0095032D02*
X0037017Y0095032D01*
X0037017Y0094034D02*
X0033321Y0094034D01*
X0032363Y0092163D02*
X0034017Y0090510D01*
X0032363Y0092163D02*
X0024017Y0092163D01*
X0019017Y0087163D01*
X0014548Y0087044D02*
X0008517Y0087044D01*
X0008517Y0086046D02*
X0014548Y0086046D01*
X0014548Y0085047D02*
X0008517Y0085047D01*
X0008517Y0084049D02*
X0014548Y0084049D01*
X0015071Y0083050D02*
X0008517Y0083050D01*
X0008517Y0082052D02*
X0030351Y0082052D01*
X0030351Y0083050D02*
X0022962Y0083050D01*
X0023485Y0084049D02*
X0030351Y0084049D01*
X0030351Y0085047D02*
X0023485Y0085047D01*
X0023485Y0086046D02*
X0030351Y0086046D01*
X0030989Y0087044D02*
X0023485Y0087044D01*
X0023485Y0088043D02*
X0030351Y0088043D01*
X0030351Y0089041D02*
X0023723Y0089041D01*
X0024721Y0090040D02*
X0030351Y0090040D01*
X0034017Y0083817D02*
X0034017Y0075116D01*
X0031661Y0072066D02*
X0023287Y0072066D01*
X0022852Y0071068D02*
X0030965Y0071068D01*
X0030942Y0070069D02*
X0022022Y0070069D01*
X0019501Y0070069D02*
X0018532Y0070069D01*
X0018532Y0069071D02*
X0019501Y0069071D01*
X0018532Y0068936D02*
X0018532Y0072899D01*
X0019501Y0072899D01*
X0019501Y0073868D01*
X0023464Y0073868D01*
X0023375Y0074430D01*
X0023158Y0075099D01*
X0022838Y0075726D01*
X0022425Y0076295D01*
X0021928Y0076792D01*
X0021359Y0077206D01*
X0020732Y0077525D01*
X0020063Y0077742D01*
X0019501Y0077831D01*
X0019501Y0073868D01*
X0018532Y0073868D01*
X0018532Y0072899D01*
X0014569Y0072899D01*
X0014658Y0072337D01*
X0014875Y0071668D01*
X0015195Y0071042D01*
X0015608Y0070473D01*
X0016105Y0069975D01*
X0016675Y0069562D01*
X0017301Y0069243D01*
X0017970Y0069025D01*
X0018532Y0068936D01*
X0017829Y0069071D02*
X0008517Y0069071D01*
X0008517Y0070069D02*
X0016011Y0070069D01*
X0015181Y0071068D02*
X0008517Y0071068D01*
X0008517Y0072066D02*
X0014746Y0072066D01*
X0014569Y0073868D02*
X0018532Y0073868D01*
X0018532Y0077831D01*
X0017970Y0077742D01*
X0017301Y0077525D01*
X0016675Y0077206D01*
X0016105Y0076792D01*
X0015608Y0076295D01*
X0015195Y0075726D01*
X0014875Y0075099D01*
X0014658Y0074430D01*
X0014569Y0073868D01*
X0014600Y0074064D02*
X0008517Y0074064D01*
X0008517Y0075062D02*
X0014863Y0075062D01*
X0015438Y0076061D02*
X0008517Y0076061D01*
X0008517Y0077059D02*
X0016473Y0077059D01*
X0018532Y0077059D02*
X0019501Y0077059D01*
X0019501Y0076061D02*
X0018532Y0076061D01*
X0018532Y0075062D02*
X0019501Y0075062D01*
X0019501Y0074064D02*
X0018532Y0074064D01*
X0018532Y0073065D02*
X0008517Y0073065D01*
X0008517Y0068072D02*
X0030942Y0068072D01*
X0031039Y0067074D02*
X0008517Y0067074D01*
X0008517Y0056090D02*
X0014548Y0056090D01*
X0014548Y0055092D02*
X0008517Y0055092D01*
X0008517Y0054093D02*
X0014548Y0054093D01*
X0015027Y0053095D02*
X0008517Y0053095D01*
X0008517Y0042111D02*
X0014732Y0042111D01*
X0015159Y0041113D02*
X0008517Y0041113D01*
X0008517Y0040114D02*
X0015967Y0040114D01*
X0015268Y0039116D02*
X0008517Y0039116D01*
X0008517Y0038117D02*
X0011867Y0038117D01*
X0011747Y0038082D02*
X0011747Y0038082D01*
X0010248Y0037119D02*
X0008517Y0037119D01*
X0008517Y0036120D02*
X0008694Y0036120D01*
X0018532Y0044108D02*
X0019501Y0044108D01*
X0019501Y0045107D02*
X0018532Y0045107D01*
X0018532Y0046105D02*
X0019501Y0046105D01*
X0019501Y0047104D02*
X0018532Y0047104D01*
X0018532Y0071068D02*
X0019501Y0071068D01*
X0019501Y0072066D02*
X0018532Y0072066D01*
X0019501Y0073065D02*
X0030942Y0073065D01*
X0030942Y0074064D02*
X0023433Y0074064D01*
X0023170Y0075062D02*
X0030942Y0075062D01*
X0030942Y0076061D02*
X0022595Y0076061D01*
X0021560Y0077059D02*
X0030942Y0077059D01*
X0031687Y0078058D02*
X0008517Y0078058D01*
X0008517Y0079056D02*
X0032017Y0079056D01*
X0032017Y0080055D02*
X0008517Y0080055D01*
X0008517Y0081053D02*
X0030525Y0081053D01*
X0023059Y0094034D02*
X0008517Y0094034D01*
X0008517Y0093035D02*
X0022060Y0093035D01*
X0021062Y0092037D02*
X0008517Y0092037D01*
X0008517Y0091038D02*
X0014833Y0091038D01*
X0014548Y0090040D02*
X0008517Y0090040D01*
X0008517Y0089041D02*
X0014548Y0089041D01*
X0014548Y0088043D02*
X0008517Y0088043D01*
X0019501Y0106016D02*
X0040041Y0106016D01*
X0041039Y0107014D02*
X0023252Y0107014D01*
X0023158Y0107304D02*
X0022838Y0107930D01*
X0022425Y0108499D01*
X0021928Y0108997D01*
X0021359Y0109410D01*
X0020732Y0109730D01*
X0020063Y0109947D01*
X0019501Y0110036D01*
X0019501Y0106073D01*
X0023464Y0106073D01*
X0023375Y0106635D01*
X0023158Y0107304D01*
X0022778Y0108013D02*
X0042038Y0108013D01*
X0043036Y0109011D02*
X0021908Y0109011D01*
X0019501Y0109011D02*
X0018532Y0109011D01*
X0018532Y0108013D02*
X0019501Y0108013D01*
X0019501Y0107014D02*
X0018532Y0107014D01*
X0021710Y0102022D02*
X0037017Y0102022D01*
X0037045Y0103020D02*
X0022674Y0103020D01*
X0023205Y0104019D02*
X0038044Y0104019D01*
X0039042Y0105017D02*
X0023450Y0105017D01*
X0020636Y0128982D02*
X0034370Y0128982D01*
X0033371Y0129980D02*
X0022169Y0129980D01*
X0022955Y0130979D02*
X0032373Y0130979D01*
X0033032Y0133148D02*
X0019017Y0133148D01*
X0015864Y0129980D02*
X0008517Y0129980D01*
X0008517Y0128982D02*
X0017397Y0128982D01*
X0015078Y0130979D02*
X0008517Y0130979D01*
X0008517Y0131977D02*
X0014665Y0131977D01*
X0014548Y0132976D02*
X0008517Y0132976D01*
X0008517Y0133974D02*
X0014548Y0133974D01*
X0014936Y0134973D02*
X0008517Y0134973D01*
X0008517Y0135971D02*
X0015521Y0135971D01*
X0016567Y0136970D02*
X0008517Y0136970D01*
X0008517Y0137968D02*
X0042017Y0137968D01*
X0042017Y0136970D02*
X0021466Y0136970D01*
X0022512Y0135971D02*
X0042017Y0135971D01*
X0042017Y0138967D02*
X0008517Y0138967D01*
X0008517Y0139965D02*
X0042017Y0139965D01*
X0042017Y0140964D02*
X0008517Y0140964D01*
X0008517Y0141962D02*
X0041389Y0141962D01*
X0040391Y0142961D02*
X0021118Y0142961D01*
X0022368Y0143959D02*
X0039392Y0143959D01*
X0041055Y0147953D02*
X0064548Y0147953D01*
X0064548Y0146955D02*
X0042053Y0146955D01*
X0043052Y0145956D02*
X0064680Y0145956D01*
X0065093Y0144958D02*
X0044050Y0144958D01*
X0035368Y0127983D02*
X0008517Y0127983D01*
X0008517Y0126985D02*
X0036367Y0126985D01*
X0037017Y0125986D02*
X0008517Y0125986D01*
X0008517Y0124988D02*
X0037017Y0124988D01*
X0049013Y0119995D02*
X0088356Y0119995D01*
X0091018Y0122991D02*
X0127414Y0122991D01*
X0125871Y0123989D02*
X0090019Y0123989D01*
X0092016Y0121992D02*
X0144614Y0121992D01*
X0144548Y0120994D02*
X0093015Y0120994D01*
X0094013Y0119995D02*
X0144572Y0119995D01*
X0144986Y0118997D02*
X0095012Y0118997D01*
X0096010Y0117998D02*
X0145642Y0117998D01*
X0146860Y0116999D02*
X0096017Y0116999D01*
X0096017Y0116001D02*
X0152017Y0116001D01*
X0152017Y0116999D02*
X0151173Y0116999D01*
X0152017Y0115002D02*
X0096017Y0115002D01*
X0096017Y0114004D02*
X0152017Y0114004D01*
X0152017Y0113005D02*
X0096017Y0113005D01*
X0096017Y0112007D02*
X0152017Y0112007D01*
X0149017Y0120943D02*
X0144017Y0127163D01*
X0129017Y0127163D01*
X0132162Y0123989D02*
X0144002Y0123989D01*
X0144805Y0122991D02*
X0130620Y0122991D01*
X0132952Y0124988D02*
X0143199Y0124988D01*
X0145121Y0128982D02*
X0152017Y0128982D01*
X0152017Y0129980D02*
X0132519Y0129980D01*
X0129017Y0137163D02*
X0144017Y0137163D01*
X0146241Y0144958D02*
X0132940Y0144958D01*
X0132132Y0143959D02*
X0152017Y0143959D01*
X0152017Y0142961D02*
X0130548Y0142961D01*
X0125916Y0153944D02*
X0072117Y0153944D01*
X0072900Y0154943D02*
X0125100Y0154943D01*
X0124686Y0155941D02*
X0073318Y0155941D01*
X0069501Y0155941D02*
X0068532Y0155941D01*
X0068532Y0154943D02*
X0069501Y0154943D01*
X0069501Y0153944D02*
X0068532Y0153944D01*
X0066483Y0150949D02*
X0020984Y0150949D01*
X0022313Y0149950D02*
X0065484Y0149950D01*
X0064921Y0148952D02*
X0023014Y0148952D01*
X0016464Y0156940D02*
X0008517Y0156940D01*
X0008517Y0157938D02*
X0015465Y0157938D01*
X0014913Y0158937D02*
X0008517Y0158937D01*
X0008517Y0159935D02*
X0014548Y0159935D01*
X0014548Y0160934D02*
X0008517Y0160934D01*
X0008517Y0161933D02*
X0014688Y0161933D01*
X0015101Y0162931D02*
X0008517Y0162931D01*
X0008517Y0163930D02*
X0015920Y0163930D01*
X0017531Y0164928D02*
X0008517Y0164928D01*
X0008517Y0165927D02*
X0064692Y0165927D01*
X0064548Y0166925D02*
X0008517Y0166925D01*
X0008517Y0167924D02*
X0064548Y0167924D01*
X0064908Y0168922D02*
X0008517Y0168922D01*
X0008517Y0169921D02*
X0065454Y0169921D01*
X0066453Y0170919D02*
X0021769Y0170919D01*
X0023485Y0173915D02*
X0065946Y0173915D01*
X0065112Y0174913D02*
X0023485Y0174913D01*
X0023263Y0175912D02*
X0064698Y0175912D01*
X0064548Y0176910D02*
X0022849Y0176910D01*
X0021913Y0177909D02*
X0064548Y0177909D01*
X0064902Y0178907D02*
X0020020Y0178907D01*
X0018013Y0178907D02*
X0008517Y0178907D01*
X0008517Y0177909D02*
X0016120Y0177909D01*
X0015184Y0176910D02*
X0008517Y0176910D01*
X0008517Y0175912D02*
X0014770Y0175912D01*
X0014548Y0174913D02*
X0008517Y0174913D01*
X0008517Y0173915D02*
X0014548Y0173915D01*
X0014830Y0172916D02*
X0008517Y0172916D01*
X0008517Y0171918D02*
X0015266Y0171918D01*
X0016264Y0170919D02*
X0008517Y0170919D01*
X0008517Y0179906D02*
X0065440Y0179906D01*
X0066438Y0180904D02*
X0008517Y0180904D01*
X0008517Y0181903D02*
X0137017Y0181903D01*
X0137017Y0182901D02*
X0130404Y0182901D01*
X0129905Y0182695D02*
X0131548Y0183375D01*
X0132805Y0184632D01*
X0133485Y0186274D01*
X0133485Y0188052D01*
X0132805Y0189694D01*
X0131548Y0190951D01*
X0129905Y0191632D01*
X0128128Y0191632D01*
X0126485Y0190951D01*
X0125228Y0189694D01*
X0124548Y0188052D01*
X0124548Y0186274D01*
X0125228Y0184632D01*
X0126485Y0183375D01*
X0128128Y0182695D01*
X0129905Y0182695D01*
X0127629Y0182901D02*
X0070404Y0182901D01*
X0069905Y0182695D02*
X0071548Y0183375D01*
X0072805Y0184632D01*
X0073485Y0186274D01*
X0073485Y0188052D01*
X0072805Y0189694D01*
X0071548Y0190951D01*
X0069905Y0191632D01*
X0068128Y0191632D01*
X0066485Y0190951D01*
X0065228Y0189694D01*
X0064548Y0188052D01*
X0064548Y0186274D01*
X0065228Y0184632D01*
X0066485Y0183375D01*
X0068128Y0182695D01*
X0069905Y0182695D01*
X0067629Y0182901D02*
X0008517Y0182901D01*
X0008517Y0183900D02*
X0017880Y0183900D01*
X0018128Y0183797D02*
X0019905Y0183797D01*
X0021548Y0184477D01*
X0022805Y0185734D01*
X0023485Y0187377D01*
X0023485Y0189154D01*
X0022805Y0190797D01*
X0021548Y0192054D01*
X0019905Y0192734D01*
X0018128Y0192734D01*
X0016485Y0192054D01*
X0015228Y0190797D01*
X0014548Y0189154D01*
X0014548Y0187377D01*
X0015228Y0185734D01*
X0016485Y0184477D01*
X0018128Y0183797D01*
X0020153Y0183900D02*
X0065961Y0183900D01*
X0065118Y0184898D02*
X0021969Y0184898D01*
X0022872Y0185897D02*
X0064704Y0185897D01*
X0064548Y0186895D02*
X0023286Y0186895D01*
X0023485Y0187894D02*
X0064548Y0187894D01*
X0064896Y0188892D02*
X0023485Y0188892D01*
X0023180Y0189891D02*
X0065425Y0189891D01*
X0066423Y0190889D02*
X0022712Y0190889D01*
X0021714Y0191888D02*
X0137017Y0191888D01*
X0137017Y0192886D02*
X0130368Y0192886D01*
X0129905Y0192695D02*
X0131548Y0193375D01*
X0132805Y0194632D01*
X0133485Y0196274D01*
X0133485Y0198052D01*
X0132805Y0199694D01*
X0131548Y0200951D01*
X0129905Y0201632D01*
X0128128Y0201632D01*
X0126485Y0200951D01*
X0125228Y0199694D01*
X0124548Y0198052D01*
X0124548Y0196274D01*
X0125228Y0194632D01*
X0126485Y0193375D01*
X0128128Y0192695D01*
X0129905Y0192695D01*
X0127665Y0192886D02*
X0070368Y0192886D01*
X0069905Y0192695D02*
X0071548Y0193375D01*
X0072805Y0194632D01*
X0073485Y0196274D01*
X0073485Y0198052D01*
X0072805Y0199694D01*
X0071548Y0200951D01*
X0069905Y0201632D01*
X0068128Y0201632D01*
X0067596Y0201412D01*
X0056017Y0212992D01*
X0054845Y0214163D01*
X0024845Y0214163D01*
X0023485Y0215523D01*
X0023485Y0216714D01*
X0022805Y0218356D01*
X0021548Y0219613D01*
X0019905Y0220293D01*
X0018128Y0220293D01*
X0016485Y0219613D01*
X0015228Y0218356D01*
X0014548Y0216714D01*
X0014548Y0214936D01*
X0015228Y0213293D01*
X0016485Y0212036D01*
X0018128Y0211356D01*
X0019905Y0211356D01*
X0021383Y0211968D01*
X0023188Y0210163D01*
X0053188Y0210163D01*
X0064768Y0198583D01*
X0064548Y0198052D01*
X0064548Y0196274D01*
X0065228Y0194632D01*
X0066485Y0193375D01*
X0068128Y0192695D01*
X0069905Y0192695D01*
X0067665Y0192886D02*
X0008517Y0192886D01*
X0008517Y0191888D02*
X0016319Y0191888D01*
X0015321Y0190889D02*
X0008517Y0190889D01*
X0008517Y0189891D02*
X0014853Y0189891D01*
X0014548Y0188892D02*
X0008517Y0188892D01*
X0008517Y0187894D02*
X0014548Y0187894D01*
X0014747Y0186895D02*
X0008517Y0186895D01*
X0008517Y0185897D02*
X0015161Y0185897D01*
X0016064Y0184898D02*
X0008517Y0184898D01*
X0008517Y0193885D02*
X0065975Y0193885D01*
X0065124Y0194883D02*
X0008517Y0194883D01*
X0008517Y0195882D02*
X0064711Y0195882D01*
X0064548Y0196880D02*
X0008517Y0196880D01*
X0008517Y0197879D02*
X0017398Y0197879D01*
X0018128Y0197577D02*
X0019905Y0197577D01*
X0021548Y0198257D01*
X0022805Y0199514D01*
X0023485Y0201156D01*
X0023485Y0202934D01*
X0022805Y0204576D01*
X0021548Y0205833D01*
X0019905Y0206514D01*
X0018128Y0206514D01*
X0016485Y0205833D01*
X0015228Y0204576D01*
X0014548Y0202934D01*
X0014548Y0201156D01*
X0015228Y0199514D01*
X0016485Y0198257D01*
X0018128Y0197577D01*
X0020635Y0197879D02*
X0064548Y0197879D01*
X0064474Y0198877D02*
X0022168Y0198877D01*
X0022955Y0199876D02*
X0063475Y0199876D01*
X0062477Y0200874D02*
X0023368Y0200874D01*
X0023485Y0201873D02*
X0061478Y0201873D01*
X0060480Y0202871D02*
X0023485Y0202871D01*
X0023097Y0203870D02*
X0059481Y0203870D01*
X0058483Y0204868D02*
X0022513Y0204868D01*
X0021466Y0205867D02*
X0057484Y0205867D01*
X0056486Y0206866D02*
X0008517Y0206866D01*
X0008517Y0207864D02*
X0055487Y0207864D01*
X0054489Y0208863D02*
X0008517Y0208863D01*
X0008517Y0209861D02*
X0053490Y0209861D01*
X0054017Y0212163D02*
X0024017Y0212163D01*
X0020355Y0215825D01*
X0019017Y0215825D01*
X0015720Y0218848D02*
X0008517Y0218848D01*
X0008517Y0219846D02*
X0017049Y0219846D01*
X0015018Y0217849D02*
X0008517Y0217849D01*
X0008517Y0216851D02*
X0014605Y0216851D01*
X0014548Y0215852D02*
X0008517Y0215852D01*
X0008517Y0214854D02*
X0014582Y0214854D01*
X0014996Y0213855D02*
X0008517Y0213855D01*
X0008517Y0212857D02*
X0015665Y0212857D01*
X0016916Y0211858D02*
X0008517Y0211858D01*
X0008517Y0210860D02*
X0022492Y0210860D01*
X0021493Y0211858D02*
X0021117Y0211858D01*
X0024155Y0214854D02*
X0062017Y0214854D01*
X0062017Y0215852D02*
X0023485Y0215852D01*
X0023428Y0216851D02*
X0062017Y0216851D01*
X0062017Y0217849D02*
X0023015Y0217849D01*
X0022313Y0218848D02*
X0062017Y0218848D01*
X0062017Y0219846D02*
X0020985Y0219846D01*
X0020629Y0225163D02*
X0058188Y0225163D01*
X0062017Y0221335D01*
X0062017Y0211335D01*
X0064768Y0208583D01*
X0064548Y0208052D01*
X0064548Y0206274D01*
X0065228Y0204632D01*
X0066485Y0203375D01*
X0068128Y0202695D01*
X0069905Y0202695D01*
X0071548Y0203375D01*
X0072805Y0204632D01*
X0073485Y0206274D01*
X0073485Y0208052D01*
X0072805Y0209694D01*
X0071548Y0210951D01*
X0069905Y0211632D01*
X0068128Y0211632D01*
X0067596Y0211412D01*
X0066017Y0212992D01*
X0066017Y0213844D01*
X0066485Y0213375D01*
X0068128Y0212695D01*
X0069905Y0212695D01*
X0071548Y0213375D01*
X0072805Y0214632D01*
X0073485Y0216274D01*
X0073485Y0218052D01*
X0072805Y0219694D01*
X0071548Y0220951D01*
X0069905Y0221632D01*
X0068128Y0221632D01*
X0066485Y0220951D01*
X0066017Y0220483D01*
X0066017Y0222992D01*
X0064845Y0224163D01*
X0059845Y0229163D01*
X0023485Y0229163D01*
X0023485Y0230493D01*
X0022805Y0232135D01*
X0021548Y0233392D01*
X0019905Y0234073D01*
X0018128Y0234073D01*
X0016485Y0233392D01*
X0015228Y0232135D01*
X0014548Y0230493D01*
X0014548Y0228715D01*
X0015228Y0227073D01*
X0016485Y0225816D01*
X0018128Y0225136D01*
X0019905Y0225136D01*
X0020437Y0225356D01*
X0020629Y0225163D01*
X0021457Y0227163D02*
X0059017Y0227163D01*
X0064017Y0222163D01*
X0064017Y0212163D01*
X0069017Y0207163D01*
X0065990Y0203870D02*
X0065138Y0203870D01*
X0065130Y0204868D02*
X0064140Y0204868D01*
X0064717Y0205867D02*
X0063141Y0205867D01*
X0062143Y0206866D02*
X0064548Y0206866D01*
X0064548Y0207864D02*
X0061144Y0207864D01*
X0060146Y0208863D02*
X0064489Y0208863D01*
X0063490Y0209861D02*
X0059147Y0209861D01*
X0058149Y0210860D02*
X0062492Y0210860D01*
X0062017Y0211858D02*
X0057150Y0211858D01*
X0056152Y0212857D02*
X0062017Y0212857D01*
X0062017Y0213855D02*
X0055153Y0213855D01*
X0054017Y0212163D02*
X0069017Y0197163D01*
X0072058Y0193885D02*
X0125975Y0193885D01*
X0125124Y0194883D02*
X0072909Y0194883D01*
X0073322Y0195882D02*
X0124711Y0195882D01*
X0124548Y0196880D02*
X0073485Y0196880D01*
X0073485Y0197879D02*
X0124548Y0197879D01*
X0124890Y0198877D02*
X0073143Y0198877D01*
X0072623Y0199876D02*
X0125410Y0199876D01*
X0126408Y0200874D02*
X0071625Y0200874D01*
X0070332Y0202871D02*
X0127701Y0202871D01*
X0125990Y0203870D02*
X0120325Y0203870D01*
X0120831Y0204868D02*
X0125130Y0204868D01*
X0125395Y0209861D02*
X0120831Y0209861D01*
X0120310Y0213855D02*
X0126005Y0213855D01*
X0125137Y0214854D02*
X0120831Y0214854D01*
X0117363Y0217163D02*
X0129017Y0217163D01*
X0130296Y0212857D02*
X0137017Y0212857D01*
X0137017Y0213855D02*
X0132028Y0213855D01*
X0132897Y0214854D02*
X0137017Y0214854D01*
X0137017Y0215852D02*
X0133310Y0215852D01*
X0133485Y0216851D02*
X0137017Y0216851D01*
X0137017Y0217849D02*
X0133485Y0217849D01*
X0133155Y0218848D02*
X0137017Y0218848D01*
X0137017Y0219846D02*
X0132653Y0219846D01*
X0131655Y0220845D02*
X0137017Y0220845D01*
X0137017Y0221843D02*
X0108819Y0221843D01*
X0109817Y0220845D02*
X0126379Y0220845D01*
X0125380Y0219846D02*
X0120831Y0219846D01*
X0120295Y0223840D02*
X0126020Y0223840D01*
X0125143Y0224839D02*
X0120831Y0224839D01*
X0117363Y0227163D02*
X0129017Y0227163D01*
X0131669Y0230830D02*
X0137017Y0230830D01*
X0137017Y0229831D02*
X0132668Y0229831D01*
X0133162Y0228833D02*
X0137017Y0228833D01*
X0137017Y0227834D02*
X0133485Y0227834D01*
X0133485Y0226836D02*
X0137017Y0226836D01*
X0137017Y0225837D02*
X0133304Y0225837D01*
X0132890Y0224839D02*
X0137017Y0224839D01*
X0137017Y0223840D02*
X0132013Y0223840D01*
X0130260Y0222842D02*
X0137017Y0222842D01*
X0141017Y0222842D02*
X0142017Y0222842D01*
X0142017Y0223840D02*
X0141017Y0223840D01*
X0141017Y0224839D02*
X0142017Y0224839D01*
X0142017Y0225837D02*
X0141017Y0225837D01*
X0141017Y0226836D02*
X0142017Y0226836D01*
X0142017Y0227834D02*
X0141017Y0227834D01*
X0141017Y0228833D02*
X0142017Y0228833D01*
X0142017Y0229831D02*
X0141017Y0229831D01*
X0141017Y0230830D02*
X0142017Y0230830D01*
X0142017Y0231828D02*
X0141017Y0231828D01*
X0141017Y0232827D02*
X0142017Y0232827D01*
X0142017Y0233825D02*
X0140183Y0233825D01*
X0139184Y0234824D02*
X0142017Y0234824D01*
X0142017Y0235822D02*
X0138186Y0235822D01*
X0137187Y0236821D02*
X0142017Y0236821D01*
X0142017Y0237819D02*
X0136189Y0237819D01*
X0135190Y0238818D02*
X0142017Y0238818D01*
X0142017Y0239816D02*
X0132683Y0239816D01*
X0131684Y0240815D02*
X0142017Y0240815D01*
X0141538Y0241813D02*
X0116017Y0241813D01*
X0116017Y0240815D02*
X0126349Y0240815D01*
X0125350Y0239816D02*
X0116017Y0239816D01*
X0116017Y0238818D02*
X0124865Y0238818D01*
X0124548Y0237819D02*
X0116017Y0237819D01*
X0116017Y0236821D02*
X0124548Y0236821D01*
X0124735Y0235822D02*
X0115504Y0235822D01*
X0114506Y0234824D02*
X0125149Y0234824D01*
X0126035Y0233825D02*
X0113507Y0233825D01*
X0112670Y0232827D02*
X0127809Y0232827D01*
X0126364Y0230830D02*
X0112670Y0230830D01*
X0112670Y0231828D02*
X0136523Y0231828D01*
X0135525Y0232827D02*
X0130224Y0232827D01*
X0131998Y0233825D02*
X0134526Y0233825D01*
X0133528Y0234824D02*
X0132884Y0234824D01*
X0134017Y0237163D02*
X0139017Y0232163D01*
X0139017Y0167163D01*
X0143898Y0162281D01*
X0144080Y0164928D02*
X0145344Y0164928D01*
X0146342Y0165927D02*
X0143082Y0165927D01*
X0142083Y0166925D02*
X0152017Y0166925D01*
X0152017Y0165927D02*
X0151691Y0165927D01*
X0152017Y0167924D02*
X0141085Y0167924D01*
X0141017Y0168922D02*
X0152017Y0168922D01*
X0152017Y0169921D02*
X0141017Y0169921D01*
X0141017Y0170919D02*
X0152017Y0170919D01*
X0152017Y0171918D02*
X0150691Y0171918D01*
X0147342Y0171918D02*
X0141017Y0171918D01*
X0141017Y0172916D02*
X0145842Y0172916D01*
X0145069Y0173915D02*
X0141017Y0173915D01*
X0141017Y0174913D02*
X0144655Y0174913D01*
X0144548Y0175912D02*
X0141017Y0175912D01*
X0141017Y0176910D02*
X0144548Y0176910D01*
X0144340Y0177909D02*
X0141017Y0177909D01*
X0141017Y0178907D02*
X0143342Y0178907D01*
X0142343Y0179906D02*
X0141017Y0179906D01*
X0141017Y0180904D02*
X0142017Y0180904D01*
X0142017Y0181903D02*
X0141017Y0181903D01*
X0141017Y0182901D02*
X0142017Y0182901D01*
X0142017Y0183900D02*
X0141017Y0183900D01*
X0141017Y0184898D02*
X0142017Y0184898D01*
X0142017Y0185897D02*
X0141017Y0185897D01*
X0141017Y0186895D02*
X0142017Y0186895D01*
X0142017Y0187894D02*
X0141017Y0187894D01*
X0141017Y0188892D02*
X0142017Y0188892D01*
X0142017Y0189891D02*
X0141017Y0189891D01*
X0141017Y0190889D02*
X0142017Y0190889D01*
X0142017Y0191888D02*
X0141017Y0191888D01*
X0141017Y0192886D02*
X0142017Y0192886D01*
X0142017Y0193885D02*
X0141017Y0193885D01*
X0141017Y0194883D02*
X0142017Y0194883D01*
X0142017Y0195882D02*
X0141017Y0195882D01*
X0141017Y0196880D02*
X0142017Y0196880D01*
X0142017Y0197879D02*
X0141017Y0197879D01*
X0141017Y0198877D02*
X0142017Y0198877D01*
X0142017Y0199876D02*
X0141017Y0199876D01*
X0141017Y0200874D02*
X0142017Y0200874D01*
X0142017Y0201873D02*
X0141017Y0201873D01*
X0141017Y0202871D02*
X0142017Y0202871D01*
X0142017Y0203870D02*
X0141017Y0203870D01*
X0141017Y0204868D02*
X0142017Y0204868D01*
X0142017Y0205867D02*
X0141017Y0205867D01*
X0141017Y0206866D02*
X0142017Y0206866D01*
X0142017Y0207864D02*
X0141017Y0207864D01*
X0141017Y0208863D02*
X0142017Y0208863D01*
X0142017Y0209861D02*
X0141017Y0209861D01*
X0141017Y0210860D02*
X0142017Y0210860D01*
X0142017Y0211858D02*
X0141017Y0211858D01*
X0141017Y0212857D02*
X0142017Y0212857D01*
X0142017Y0213855D02*
X0141017Y0213855D01*
X0141017Y0214854D02*
X0142017Y0214854D01*
X0142017Y0215852D02*
X0141017Y0215852D01*
X0141017Y0216851D02*
X0142017Y0216851D01*
X0142017Y0217849D02*
X0141017Y0217849D01*
X0141017Y0218848D02*
X0142017Y0218848D01*
X0142017Y0219846D02*
X0141017Y0219846D01*
X0141017Y0220845D02*
X0142017Y0220845D01*
X0142017Y0221843D02*
X0141017Y0221843D01*
X0137017Y0211858D02*
X0108804Y0211858D01*
X0109802Y0210860D02*
X0126393Y0210860D01*
X0127737Y0212857D02*
X0107805Y0212857D01*
X0107723Y0213855D02*
X0106807Y0213855D01*
X0107202Y0214854D02*
X0105808Y0214854D01*
X0104810Y0215852D02*
X0107202Y0215852D01*
X0107202Y0216851D02*
X0103811Y0216851D01*
X0102813Y0217849D02*
X0107156Y0217849D01*
X0106157Y0218848D02*
X0101814Y0218848D01*
X0100816Y0219846D02*
X0105159Y0219846D01*
X0104160Y0220845D02*
X0099817Y0220845D01*
X0098819Y0221843D02*
X0103162Y0221843D01*
X0102163Y0222842D02*
X0097820Y0222842D01*
X0096822Y0223840D02*
X0102017Y0223840D01*
X0102017Y0224839D02*
X0096017Y0224839D01*
X0096017Y0225837D02*
X0102017Y0225837D01*
X0102017Y0226836D02*
X0096017Y0226836D01*
X0096017Y0227834D02*
X0102017Y0227834D01*
X0102017Y0228833D02*
X0096017Y0228833D01*
X0096017Y0229831D02*
X0102017Y0229831D01*
X0102017Y0230830D02*
X0096017Y0230830D01*
X0096017Y0231828D02*
X0102017Y0231828D01*
X0102017Y0232827D02*
X0096017Y0232827D01*
X0096017Y0233825D02*
X0102017Y0233825D01*
X0102017Y0234824D02*
X0096017Y0234824D01*
X0096017Y0235822D02*
X0102017Y0235822D01*
X0102017Y0236821D02*
X0096017Y0236821D01*
X0096017Y0237819D02*
X0102017Y0237819D01*
X0102017Y0238818D02*
X0096017Y0238818D01*
X0096017Y0239816D02*
X0102017Y0239816D01*
X0102017Y0240815D02*
X0096017Y0240815D01*
X0096017Y0241813D02*
X0102017Y0241813D01*
X0102017Y0242812D02*
X0096017Y0242812D01*
X0096017Y0243810D02*
X0102017Y0243810D01*
X0102017Y0244809D02*
X0096017Y0244809D01*
X0096017Y0245807D02*
X0102017Y0245807D01*
X0102017Y0246806D02*
X0096017Y0246806D01*
X0096017Y0247804D02*
X0102017Y0247804D01*
X0102017Y0248803D02*
X0096017Y0248803D01*
X0096017Y0249802D02*
X0102017Y0249802D01*
X0102017Y0250800D02*
X0096017Y0250800D01*
X0096875Y0251799D02*
X0101158Y0251799D01*
X0100942Y0252797D02*
X0097091Y0252797D01*
X0097091Y0253796D02*
X0100942Y0253796D01*
X0100942Y0254794D02*
X0097091Y0254794D01*
X0097091Y0255793D02*
X0100942Y0255793D01*
X0101326Y0256791D02*
X0096707Y0256791D01*
X0096889Y0257790D02*
X0101144Y0257790D01*
X0100942Y0258788D02*
X0097091Y0258788D01*
X0097091Y0259787D02*
X0100942Y0259787D01*
X0100942Y0260785D02*
X0097091Y0260785D01*
X0097091Y0261784D02*
X0100942Y0261784D01*
X0107091Y0261784D02*
X0110942Y0261784D01*
X0110942Y0260785D02*
X0107091Y0260785D01*
X0107091Y0259787D02*
X0110942Y0259787D01*
X0110942Y0258788D02*
X0107091Y0258788D01*
X0106889Y0257790D02*
X0111144Y0257790D01*
X0111326Y0256791D02*
X0106707Y0256791D01*
X0107091Y0255793D02*
X0110942Y0255793D01*
X0110942Y0254794D02*
X0107091Y0254794D01*
X0107091Y0253796D02*
X0110942Y0253796D01*
X0110942Y0252797D02*
X0107091Y0252797D01*
X0106875Y0251799D02*
X0111158Y0251799D01*
X0112017Y0250800D02*
X0106017Y0250800D01*
X0106017Y0249802D02*
X0112017Y0249802D01*
X0112017Y0248803D02*
X0106017Y0248803D01*
X0106017Y0247804D02*
X0112017Y0247804D01*
X0112017Y0246806D02*
X0106017Y0246806D01*
X0106017Y0245807D02*
X0112017Y0245807D01*
X0112017Y0244809D02*
X0106017Y0244809D01*
X0106017Y0243810D02*
X0112017Y0243810D01*
X0112017Y0242812D02*
X0106017Y0242812D01*
X0106017Y0241813D02*
X0112017Y0241813D01*
X0112017Y0240815D02*
X0106017Y0240815D01*
X0106017Y0239816D02*
X0112017Y0239816D01*
X0112017Y0238818D02*
X0106017Y0238818D01*
X0106017Y0237819D02*
X0111844Y0237819D01*
X0110846Y0236821D02*
X0106017Y0236821D01*
X0106017Y0235822D02*
X0109847Y0235822D01*
X0108849Y0234824D02*
X0106017Y0234824D01*
X0106017Y0233825D02*
X0108670Y0233825D01*
X0108670Y0232827D02*
X0106017Y0232827D01*
X0106017Y0231828D02*
X0108670Y0231828D01*
X0108670Y0230830D02*
X0106017Y0230830D01*
X0106017Y0229831D02*
X0107202Y0229831D01*
X0107202Y0228833D02*
X0106017Y0228833D01*
X0106017Y0227834D02*
X0107202Y0227834D01*
X0107202Y0226836D02*
X0106017Y0226836D01*
X0106017Y0225837D02*
X0107202Y0225837D01*
X0107202Y0224839D02*
X0106017Y0224839D01*
X0106822Y0223840D02*
X0107738Y0223840D01*
X0107820Y0222842D02*
X0127773Y0222842D01*
X0125365Y0229831D02*
X0120831Y0229831D01*
X0114431Y0223840D02*
X0113602Y0223840D01*
X0110670Y0227163D02*
X0110670Y0233817D01*
X0114017Y0237163D01*
X0114017Y0254210D01*
X0116017Y0250800D02*
X0126334Y0250800D01*
X0125335Y0249802D02*
X0116017Y0249802D01*
X0116017Y0248803D02*
X0124859Y0248803D01*
X0124548Y0247804D02*
X0116017Y0247804D01*
X0116017Y0246806D02*
X0124548Y0246806D01*
X0124741Y0245807D02*
X0116017Y0245807D01*
X0116017Y0244809D02*
X0125155Y0244809D01*
X0126050Y0243810D02*
X0116017Y0243810D01*
X0116017Y0242812D02*
X0127845Y0242812D01*
X0129017Y0247163D02*
X0139017Y0247163D01*
X0144017Y0242163D01*
X0144017Y0181061D01*
X0149017Y0176061D01*
X0154017Y0184840D02*
X0149017Y0189840D01*
X0154017Y0184840D02*
X0154017Y0102163D01*
X0149017Y0102163D01*
X0146517Y0099663D01*
X0146517Y0091863D01*
X0151517Y0091863D02*
X0151517Y0094663D01*
X0159017Y0102163D01*
X0159017Y0193620D01*
X0149017Y0203620D01*
X0150473Y0203620D01*
X0159017Y0212163D01*
X0159017Y0227163D01*
X0155001Y0231179D01*
X0149017Y0231179D01*
X0151691Y0234824D02*
X0159438Y0234824D01*
X0159438Y0235822D02*
X0146017Y0235822D01*
X0146017Y0234824D02*
X0146342Y0234824D01*
X0146017Y0236821D02*
X0159438Y0236821D01*
X0159438Y0237819D02*
X0146017Y0237819D01*
X0146017Y0238818D02*
X0159438Y0238818D01*
X0159438Y0239816D02*
X0146017Y0239816D01*
X0146017Y0240815D02*
X0147343Y0240815D01*
X0144548Y0244809D02*
X0144199Y0244809D01*
X0144548Y0245807D02*
X0143201Y0245807D01*
X0142202Y0246806D02*
X0144945Y0246806D01*
X0145543Y0247804D02*
X0141204Y0247804D01*
X0140205Y0248803D02*
X0146621Y0248803D01*
X0146914Y0254794D02*
X0117091Y0254794D01*
X0117091Y0253796D02*
X0159438Y0253796D01*
X0159438Y0254794D02*
X0151119Y0254794D01*
X0151359Y0254916D02*
X0151928Y0255330D01*
X0152425Y0255827D01*
X0152838Y0256396D01*
X0153158Y0257023D01*
X0153375Y0257692D01*
X0153464Y0258254D01*
X0149501Y0258254D01*
X0149501Y0254291D01*
X0150063Y0254380D01*
X0150732Y0254597D01*
X0151359Y0254916D01*
X0152390Y0255793D02*
X0159438Y0255793D01*
X0159438Y0256791D02*
X0153040Y0256791D01*
X0153391Y0257790D02*
X0159438Y0257790D01*
X0159438Y0258788D02*
X0149501Y0258788D01*
X0148532Y0258788D02*
X0117091Y0258788D01*
X0117091Y0259787D02*
X0144659Y0259787D01*
X0145044Y0260785D02*
X0117091Y0260785D01*
X0117091Y0261784D02*
X0145743Y0261784D01*
X0144643Y0257790D02*
X0116889Y0257790D01*
X0116707Y0256791D02*
X0144993Y0256791D01*
X0145643Y0255793D02*
X0117091Y0255793D01*
X0117091Y0252797D02*
X0159438Y0252797D01*
X0159438Y0251799D02*
X0116875Y0251799D01*
X0104017Y0254210D02*
X0104017Y0223817D01*
X0110670Y0217163D01*
X0113617Y0213855D02*
X0114416Y0213855D01*
X0117363Y0207163D02*
X0129017Y0207163D01*
X0130332Y0202871D02*
X0137017Y0202871D01*
X0137017Y0201873D02*
X0067135Y0201873D01*
X0067701Y0202871D02*
X0066137Y0202871D01*
X0072043Y0203870D02*
X0107708Y0203870D01*
X0107202Y0204868D02*
X0072903Y0204868D01*
X0073316Y0205867D02*
X0107202Y0205867D01*
X0107202Y0206866D02*
X0073485Y0206866D01*
X0073485Y0207864D02*
X0107141Y0207864D01*
X0106142Y0208863D02*
X0073149Y0208863D01*
X0072638Y0209861D02*
X0105144Y0209861D01*
X0104145Y0210860D02*
X0071640Y0210860D01*
X0070296Y0212857D02*
X0102148Y0212857D01*
X0101150Y0213855D02*
X0072028Y0213855D01*
X0072897Y0214854D02*
X0100151Y0214854D01*
X0099153Y0215852D02*
X0073310Y0215852D01*
X0073485Y0216851D02*
X0098154Y0216851D01*
X0097156Y0217849D02*
X0073485Y0217849D01*
X0073155Y0218848D02*
X0096157Y0218848D01*
X0095159Y0219846D02*
X0072653Y0219846D01*
X0071655Y0220845D02*
X0094160Y0220845D01*
X0093162Y0221843D02*
X0066017Y0221843D01*
X0066017Y0220845D02*
X0066379Y0220845D01*
X0066017Y0222842D02*
X0067773Y0222842D01*
X0068128Y0222695D02*
X0069905Y0222695D01*
X0071548Y0223375D01*
X0072805Y0224632D01*
X0073485Y0226274D01*
X0073485Y0228052D01*
X0072805Y0229694D01*
X0071548Y0230951D01*
X0069905Y0231632D01*
X0068128Y0231632D01*
X0066485Y0230951D01*
X0065228Y0229694D01*
X0064548Y0228052D01*
X0064548Y0226274D01*
X0065228Y0224632D01*
X0066485Y0223375D01*
X0068128Y0222695D01*
X0070260Y0222842D02*
X0092163Y0222842D01*
X0092017Y0223840D02*
X0072013Y0223840D01*
X0072890Y0224839D02*
X0092017Y0224839D01*
X0092017Y0225837D02*
X0073304Y0225837D01*
X0073485Y0226836D02*
X0092017Y0226836D01*
X0092017Y0227834D02*
X0073485Y0227834D01*
X0073162Y0228833D02*
X0092017Y0228833D01*
X0092017Y0229831D02*
X0072668Y0229831D01*
X0071669Y0230830D02*
X0092017Y0230830D01*
X0092017Y0231828D02*
X0066510Y0231828D01*
X0066364Y0230830D02*
X0065511Y0230830D01*
X0065365Y0229831D02*
X0023485Y0229831D01*
X0023346Y0230830D02*
X0027522Y0230830D01*
X0026523Y0231828D02*
X0022932Y0231828D01*
X0022113Y0232827D02*
X0025525Y0232827D01*
X0024526Y0233825D02*
X0020503Y0233825D01*
X0022529Y0235822D02*
X0008517Y0235822D01*
X0008517Y0234824D02*
X0023528Y0234824D01*
X0021530Y0236821D02*
X0008517Y0236821D01*
X0008517Y0237819D02*
X0020532Y0237819D01*
X0019533Y0238818D02*
X0008517Y0238818D01*
X0008517Y0239816D02*
X0016264Y0239816D01*
X0015266Y0240815D02*
X0008517Y0240815D01*
X0008517Y0241813D02*
X0014830Y0241813D01*
X0014548Y0242812D02*
X0008517Y0242812D01*
X0008517Y0243810D02*
X0014548Y0243810D01*
X0014770Y0244809D02*
X0008517Y0244809D01*
X0008517Y0245807D02*
X0015184Y0245807D01*
X0016119Y0246806D02*
X0008517Y0246806D01*
X0008517Y0247804D02*
X0018012Y0247804D01*
X0019548Y0248803D02*
X0008517Y0248803D01*
X0008517Y0249802D02*
X0018550Y0249802D01*
X0017551Y0250800D02*
X0008517Y0250800D01*
X0008517Y0251799D02*
X0017017Y0251799D01*
X0015324Y0252797D02*
X0008517Y0252797D01*
X0008517Y0253796D02*
X0014548Y0253796D01*
X0014548Y0254794D02*
X0008517Y0254794D01*
X0008517Y0255793D02*
X0014548Y0255793D01*
X0014548Y0256791D02*
X0008517Y0256791D01*
X0008517Y0257790D02*
X0014548Y0257790D01*
X0014548Y0258788D02*
X0008517Y0258788D01*
X0008517Y0259787D02*
X0014548Y0259787D01*
X0014580Y0260785D02*
X0008517Y0260785D01*
X0008517Y0261784D02*
X0034433Y0261784D01*
X0034295Y0261624D02*
X0034295Y0261624D01*
X0033911Y0260785D02*
X0023453Y0260785D01*
X0023485Y0259787D02*
X0033455Y0259787D01*
X0032999Y0258788D02*
X0023485Y0258788D01*
X0023485Y0257790D02*
X0032543Y0257790D01*
X0032225Y0257094D02*
X0032225Y0257094D01*
X0032182Y0256791D02*
X0023485Y0256791D01*
X0023485Y0255793D02*
X0032038Y0255793D01*
X0031895Y0254794D02*
X0023485Y0254794D01*
X0023485Y0253796D02*
X0031751Y0253796D01*
X0031608Y0252797D02*
X0022709Y0252797D01*
X0022210Y0251799D02*
X0031569Y0251799D01*
X0031517Y0252163D02*
X0031517Y0252163D01*
X0031713Y0250800D02*
X0023208Y0250800D01*
X0024207Y0249802D02*
X0031856Y0249802D01*
X0032000Y0248803D02*
X0025205Y0248803D01*
X0026204Y0247804D02*
X0032143Y0247804D01*
X0032225Y0247233D02*
X0032225Y0247233D01*
X0032420Y0246806D02*
X0027202Y0246806D01*
X0028201Y0245807D02*
X0032876Y0245807D01*
X0033332Y0244809D02*
X0029199Y0244809D01*
X0030198Y0243810D02*
X0033788Y0243810D01*
X0034244Y0242812D02*
X0031196Y0242812D01*
X0032195Y0241813D02*
X0035065Y0241813D01*
X0034295Y0242702D02*
X0034295Y0242702D01*
X0033193Y0240815D02*
X0035930Y0240815D01*
X0036795Y0239816D02*
X0034192Y0239816D01*
X0034017Y0237163D02*
X0019017Y0252163D01*
X0019017Y0257163D01*
X0020021Y0247804D02*
X0020547Y0247804D01*
X0023263Y0244809D02*
X0023542Y0244809D01*
X0023485Y0243810D02*
X0024541Y0243810D01*
X0025539Y0242812D02*
X0023485Y0242812D01*
X0023203Y0241813D02*
X0026538Y0241813D01*
X0027536Y0240815D02*
X0023193Y0240815D01*
X0024192Y0239816D02*
X0028535Y0239816D01*
X0029533Y0238818D02*
X0025190Y0238818D01*
X0026189Y0237819D02*
X0030532Y0237819D01*
X0031530Y0236821D02*
X0027187Y0236821D01*
X0028186Y0235822D02*
X0032529Y0235822D01*
X0034017Y0237163D02*
X0059017Y0237163D01*
X0069017Y0247163D01*
X0070188Y0242812D02*
X0092017Y0242812D01*
X0092017Y0243810D02*
X0071983Y0243810D01*
X0072878Y0244809D02*
X0092017Y0244809D01*
X0092017Y0245807D02*
X0073292Y0245807D01*
X0073485Y0246806D02*
X0092017Y0246806D01*
X0092017Y0247804D02*
X0073485Y0247804D01*
X0073174Y0248803D02*
X0092017Y0248803D01*
X0092017Y0249802D02*
X0072698Y0249802D01*
X0071699Y0250800D02*
X0092017Y0250800D01*
X0091158Y0251799D02*
X0066464Y0251799D01*
X0066425Y0252797D02*
X0090942Y0252797D01*
X0090942Y0253796D02*
X0066282Y0253796D01*
X0066138Y0254794D02*
X0090942Y0254794D01*
X0090942Y0255793D02*
X0065995Y0255793D01*
X0065851Y0256791D02*
X0091326Y0256791D01*
X0091144Y0257790D02*
X0065490Y0257790D01*
X0065808Y0257094D02*
X0065808Y0257094D01*
X0065034Y0258788D02*
X0090942Y0258788D01*
X0090942Y0259787D02*
X0064578Y0259787D01*
X0064122Y0260785D02*
X0090942Y0260785D01*
X0090942Y0261784D02*
X0063601Y0261784D01*
X0066321Y0250800D02*
X0066334Y0250800D01*
X0067494Y0242812D02*
X0067845Y0242812D01*
X0066495Y0241813D02*
X0092017Y0241813D01*
X0092017Y0240815D02*
X0071684Y0240815D01*
X0072683Y0239816D02*
X0092017Y0239816D01*
X0092017Y0238818D02*
X0073168Y0238818D01*
X0073485Y0237819D02*
X0092017Y0237819D01*
X0092017Y0236821D02*
X0073485Y0236821D01*
X0073298Y0235822D02*
X0092017Y0235822D01*
X0092017Y0234824D02*
X0072884Y0234824D01*
X0071998Y0233825D02*
X0092017Y0233825D01*
X0092017Y0232827D02*
X0070224Y0232827D01*
X0067809Y0232827D02*
X0067509Y0232827D01*
X0064735Y0235822D02*
X0060504Y0235822D01*
X0061503Y0236821D02*
X0064548Y0236821D01*
X0064548Y0237819D02*
X0062501Y0237819D01*
X0063500Y0238818D02*
X0064865Y0238818D01*
X0064498Y0239816D02*
X0065350Y0239816D01*
X0065497Y0240815D02*
X0066349Y0240815D01*
X0069017Y0237163D02*
X0064017Y0232163D01*
X0029017Y0232163D01*
X0019017Y0242163D01*
X0019017Y0243384D01*
X0017530Y0233825D02*
X0008517Y0233825D01*
X0008517Y0232827D02*
X0015920Y0232827D01*
X0015101Y0231828D02*
X0008517Y0231828D01*
X0008517Y0230830D02*
X0014688Y0230830D01*
X0014548Y0229831D02*
X0008517Y0229831D01*
X0008517Y0228833D02*
X0014548Y0228833D01*
X0014913Y0227834D02*
X0008517Y0227834D01*
X0008517Y0226836D02*
X0015466Y0226836D01*
X0016464Y0225837D02*
X0008517Y0225837D01*
X0008517Y0224839D02*
X0058513Y0224839D01*
X0059511Y0223840D02*
X0008517Y0223840D01*
X0008517Y0222842D02*
X0060510Y0222842D01*
X0061508Y0221843D02*
X0008517Y0221843D01*
X0008517Y0220845D02*
X0062017Y0220845D01*
X0063171Y0225837D02*
X0064729Y0225837D01*
X0064548Y0226836D02*
X0062172Y0226836D01*
X0061174Y0227834D02*
X0064548Y0227834D01*
X0064871Y0228833D02*
X0060175Y0228833D01*
X0063849Y0234824D02*
X0029184Y0234824D01*
X0021457Y0227163D02*
X0019017Y0229604D01*
X0016567Y0205867D02*
X0008517Y0205867D01*
X0008517Y0204868D02*
X0015520Y0204868D01*
X0014936Y0203870D02*
X0008517Y0203870D01*
X0008517Y0202871D02*
X0014548Y0202871D01*
X0014548Y0201873D02*
X0008517Y0201873D01*
X0008517Y0200874D02*
X0014665Y0200874D01*
X0015078Y0199876D02*
X0008517Y0199876D01*
X0008517Y0198877D02*
X0015865Y0198877D01*
X0020502Y0164928D02*
X0065106Y0164928D01*
X0065931Y0163930D02*
X0022113Y0163930D01*
X0022932Y0162931D02*
X0067557Y0162931D01*
X0068532Y0159935D02*
X0069501Y0159935D01*
X0069501Y0158937D02*
X0068532Y0158937D01*
X0068532Y0157938D02*
X0069501Y0157938D01*
X0072087Y0173915D02*
X0125946Y0173915D01*
X0125112Y0174913D02*
X0072921Y0174913D01*
X0073335Y0175912D02*
X0124698Y0175912D01*
X0124548Y0176910D02*
X0073485Y0176910D01*
X0073485Y0177909D02*
X0124548Y0177909D01*
X0124902Y0178907D02*
X0073131Y0178907D01*
X0072593Y0179906D02*
X0125440Y0179906D01*
X0126438Y0180904D02*
X0071595Y0180904D01*
X0072072Y0183900D02*
X0125961Y0183900D01*
X0125118Y0184898D02*
X0072915Y0184898D01*
X0073329Y0185897D02*
X0124704Y0185897D01*
X0124548Y0186895D02*
X0073485Y0186895D01*
X0073485Y0187894D02*
X0124548Y0187894D01*
X0124896Y0188892D02*
X0073137Y0188892D01*
X0072608Y0189891D02*
X0125425Y0189891D01*
X0126423Y0190889D02*
X0071610Y0190889D01*
X0067150Y0211858D02*
X0103147Y0211858D01*
X0110670Y0207163D02*
X0094017Y0223817D01*
X0094017Y0254210D01*
X0067737Y0212857D02*
X0066152Y0212857D01*
X0066020Y0223840D02*
X0065168Y0223840D01*
X0065143Y0224839D02*
X0064169Y0224839D01*
X0113632Y0203870D02*
X0114401Y0203870D01*
X0131625Y0200874D02*
X0137017Y0200874D01*
X0137017Y0199876D02*
X0132623Y0199876D01*
X0133143Y0198877D02*
X0137017Y0198877D01*
X0137017Y0197879D02*
X0133485Y0197879D01*
X0133485Y0196880D02*
X0137017Y0196880D01*
X0137017Y0195882D02*
X0133322Y0195882D01*
X0132909Y0194883D02*
X0137017Y0194883D01*
X0137017Y0193885D02*
X0132058Y0193885D01*
X0131610Y0190889D02*
X0137017Y0190889D01*
X0137017Y0189891D02*
X0132608Y0189891D01*
X0133137Y0188892D02*
X0137017Y0188892D01*
X0137017Y0187894D02*
X0133485Y0187894D01*
X0133485Y0186895D02*
X0137017Y0186895D01*
X0137017Y0185897D02*
X0133329Y0185897D01*
X0132915Y0184898D02*
X0137017Y0184898D01*
X0137017Y0183900D02*
X0132072Y0183900D01*
X0131595Y0180904D02*
X0137017Y0180904D01*
X0137017Y0179906D02*
X0132593Y0179906D01*
X0133131Y0178907D02*
X0137017Y0178907D01*
X0137017Y0177909D02*
X0133485Y0177909D01*
X0133485Y0176910D02*
X0137017Y0176910D01*
X0137017Y0175912D02*
X0133335Y0175912D01*
X0132921Y0174913D02*
X0137017Y0174913D01*
X0137017Y0173915D02*
X0132087Y0173915D01*
X0132564Y0159935D02*
X0145152Y0159935D01*
X0151992Y0158937D02*
X0152017Y0158937D01*
X0152017Y0151947D02*
X0151890Y0151947D01*
X0151792Y0144958D02*
X0152017Y0144958D01*
X0152017Y0130979D02*
X0151592Y0130979D01*
X0152017Y0127983D02*
X0146017Y0127983D01*
X0146726Y0126985D02*
X0152017Y0126985D01*
X0152017Y0125986D02*
X0147529Y0125986D01*
X0150928Y0124988D02*
X0152017Y0124988D01*
X0144803Y0111008D02*
X0096017Y0111008D01*
X0096017Y0110010D02*
X0144548Y0110010D01*
X0138036Y0109011D02*
X0096017Y0109011D01*
X0096017Y0108013D02*
X0137038Y0108013D01*
X0136039Y0107014D02*
X0096017Y0107014D01*
X0096017Y0106016D02*
X0135041Y0106016D01*
X0155463Y0086046D02*
X0159438Y0086046D01*
X0159438Y0087044D02*
X0158819Y0087044D01*
X0159117Y0088043D02*
X0159438Y0088043D01*
X0159438Y0089041D02*
X0159117Y0089041D01*
X0159117Y0090040D02*
X0159438Y0090040D01*
X0159438Y0091038D02*
X0159117Y0091038D01*
X0159117Y0092037D02*
X0159438Y0092037D01*
X0159438Y0093035D02*
X0159117Y0093035D01*
X0159117Y0094034D02*
X0159438Y0094034D01*
X0159438Y0095032D02*
X0159117Y0095032D01*
X0159117Y0096031D02*
X0159438Y0096031D01*
X0159438Y0097029D02*
X0158472Y0097029D01*
X0157709Y0098028D02*
X0159438Y0098028D01*
X0159438Y0099026D02*
X0158708Y0099026D01*
X0159438Y0085047D02*
X0156461Y0085047D01*
X0157460Y0084049D02*
X0159438Y0084049D01*
X0159438Y0083050D02*
X0158458Y0083050D01*
X0158517Y0082052D02*
X0159438Y0082052D01*
X0159438Y0081053D02*
X0158517Y0081053D01*
X0158517Y0080055D02*
X0159438Y0080055D01*
X0159438Y0079056D02*
X0158517Y0079056D01*
X0158517Y0078058D02*
X0159438Y0078058D01*
X0159438Y0077059D02*
X0159042Y0077059D01*
X0159117Y0076061D02*
X0159438Y0076061D01*
X0159438Y0075062D02*
X0159117Y0075062D01*
X0159117Y0074064D02*
X0159438Y0074064D01*
X0159438Y0073065D02*
X0159117Y0073065D01*
X0102017Y0063080D02*
X0099198Y0063080D01*
X0099690Y0062081D02*
X0102017Y0062081D01*
X0102017Y0061083D02*
X0099690Y0061083D01*
X0099690Y0060084D02*
X0102017Y0060084D01*
X0102017Y0059086D02*
X0099690Y0059086D01*
X0099690Y0058087D02*
X0102017Y0058087D01*
X0102017Y0057089D02*
X0099690Y0057089D01*
X0099690Y0056090D02*
X0102017Y0056090D01*
X0102017Y0055092D02*
X0099690Y0055092D01*
X0099690Y0054093D02*
X0102017Y0054093D01*
X0102017Y0053095D02*
X0099690Y0053095D01*
X0099690Y0052096D02*
X0102017Y0052096D01*
X0102017Y0051098D02*
X0099690Y0051098D01*
X0099690Y0050099D02*
X0102017Y0050099D01*
X0102017Y0049101D02*
X0099256Y0049101D01*
X0086114Y0057089D02*
X0073485Y0057089D01*
X0073409Y0056090D02*
X0085115Y0056090D01*
X0084117Y0055092D02*
X0072995Y0055092D01*
X0072266Y0054093D02*
X0083118Y0054093D01*
X0082120Y0053095D02*
X0070871Y0053095D01*
X0071195Y0051098D02*
X0082017Y0051098D01*
X0082017Y0052096D02*
X0041017Y0052096D01*
X0042560Y0048102D02*
X0064569Y0048102D01*
X0064548Y0047104D02*
X0043558Y0047104D01*
X0044557Y0046105D02*
X0064618Y0046105D01*
X0065032Y0045107D02*
X0055675Y0045107D01*
X0055729Y0045053D02*
X0055449Y0045332D01*
X0055107Y0045530D01*
X0054726Y0045632D01*
X0052847Y0045632D01*
X0052847Y0042648D01*
X0056028Y0042648D01*
X0056028Y0044329D01*
X0055926Y0044711D01*
X0055729Y0045053D01*
X0056028Y0044108D02*
X0065752Y0044108D01*
X0067126Y0043110D02*
X0056028Y0043110D01*
X0056028Y0041113D02*
X0066874Y0041113D01*
X0065648Y0040114D02*
X0056028Y0040114D01*
X0055571Y0039116D02*
X0064989Y0039116D01*
X0070907Y0043110D02*
X0077792Y0043110D01*
X0077792Y0044108D02*
X0072281Y0044108D01*
X0073001Y0045107D02*
X0077792Y0045107D01*
X0077792Y0046105D02*
X0073415Y0046105D01*
X0073485Y0047104D02*
X0077792Y0047104D01*
X0077792Y0048102D02*
X0073464Y0048102D01*
X0073051Y0049101D02*
X0077792Y0049101D01*
X0078591Y0050099D02*
X0072400Y0050099D01*
X0071159Y0041113D02*
X0077792Y0041113D01*
X0077792Y0042111D02*
X0052847Y0042111D01*
X0052847Y0041113D02*
X0051879Y0041113D01*
X0051879Y0040114D02*
X0052847Y0040114D01*
X0052847Y0039116D02*
X0051879Y0039116D01*
X0049155Y0039116D02*
X0048878Y0039116D01*
X0051879Y0043110D02*
X0052847Y0043110D01*
X0052847Y0044108D02*
X0051879Y0044108D01*
X0051879Y0045107D02*
X0052847Y0045107D01*
X0049051Y0045107D02*
X0048982Y0045107D01*
X0035808Y0017233D02*
X0035808Y0017233D01*
X0072326Y0014153D02*
X0077425Y0014153D01*
X0077005Y0015151D02*
X0073020Y0015151D01*
X0083915Y0014153D02*
X0084118Y0014153D01*
X0090608Y0014153D02*
X0091913Y0014153D01*
X0091099Y0015151D02*
X0091028Y0015151D01*
X0091099Y0020144D02*
X0090638Y0020144D01*
X0078649Y0040114D02*
X0072385Y0040114D01*
X0081017Y0086046D02*
X0087306Y0086046D01*
X0086307Y0087044D02*
X0081017Y0087044D01*
X0081017Y0088043D02*
X0085309Y0088043D01*
X0084310Y0089041D02*
X0081017Y0089041D01*
X0081017Y0090040D02*
X0083312Y0090040D01*
X0082313Y0091038D02*
X0081017Y0091038D01*
X0081017Y0092037D02*
X0082017Y0092037D01*
X0082017Y0093035D02*
X0081017Y0093035D01*
X0081017Y0094034D02*
X0082017Y0094034D01*
X0082017Y0095032D02*
X0081017Y0095032D01*
X0081017Y0096031D02*
X0082017Y0096031D01*
X0082017Y0097029D02*
X0081017Y0097029D01*
X0081017Y0098028D02*
X0082017Y0098028D01*
X0082017Y0099026D02*
X0081017Y0099026D01*
X0081017Y0100025D02*
X0082017Y0100025D01*
X0082017Y0101023D02*
X0081017Y0101023D01*
X0081017Y0102022D02*
X0082017Y0102022D01*
X0082017Y0103020D02*
X0080988Y0103020D01*
X0079989Y0104019D02*
X0082017Y0104019D01*
X0082017Y0105017D02*
X0078991Y0105017D01*
X0077992Y0106016D02*
X0082017Y0106016D01*
X0081337Y0107014D02*
X0076994Y0107014D01*
X0075995Y0108013D02*
X0080338Y0108013D01*
X0079340Y0109011D02*
X0074997Y0109011D01*
X0073334Y0105017D02*
X0044699Y0105017D01*
X0043701Y0104019D02*
X0074333Y0104019D01*
X0075331Y0103020D02*
X0042702Y0103020D01*
X0041704Y0102022D02*
X0076330Y0102022D01*
X0132043Y0203870D02*
X0137017Y0203870D01*
X0137017Y0204868D02*
X0132903Y0204868D01*
X0133316Y0205867D02*
X0137017Y0205867D01*
X0137017Y0206866D02*
X0133485Y0206866D01*
X0133485Y0207864D02*
X0137017Y0207864D01*
X0137017Y0208863D02*
X0133149Y0208863D01*
X0132638Y0209861D02*
X0137017Y0209861D01*
X0137017Y0210860D02*
X0131640Y0210860D01*
X0134017Y0237163D02*
X0129017Y0237163D01*
X0130188Y0242812D02*
X0140539Y0242812D01*
X0139541Y0243810D02*
X0131983Y0243810D01*
X0132878Y0244809D02*
X0138542Y0244809D01*
X0132698Y0249802D02*
X0159438Y0249802D01*
X0159438Y0250800D02*
X0131699Y0250800D01*
X0148532Y0254794D02*
X0149501Y0254794D01*
X0149501Y0255793D02*
X0148532Y0255793D01*
X0148532Y0256791D02*
X0149501Y0256791D01*
X0149501Y0257790D02*
X0148532Y0257790D01*
X0152290Y0261784D02*
X0159438Y0261784D01*
X0159438Y0260785D02*
X0152989Y0260785D01*
X0153374Y0259787D02*
X0159438Y0259787D01*
X0159438Y0248803D02*
X0151412Y0248803D01*
X0152490Y0247804D02*
X0159438Y0247804D01*
X0159438Y0246806D02*
X0153088Y0246806D01*
X0153485Y0245807D02*
X0159438Y0245807D01*
X0159438Y0244809D02*
X0153485Y0244809D01*
X0153378Y0243810D02*
X0159438Y0243810D01*
X0159438Y0242812D02*
X0152964Y0242812D01*
X0152191Y0241813D02*
X0159438Y0241813D01*
X0159438Y0240815D02*
X0150690Y0240815D01*
X0152690Y0233825D02*
X0159438Y0233825D01*
X0159438Y0232827D02*
X0156181Y0232827D01*
X0157180Y0231828D02*
X0159438Y0231828D01*
X0159438Y0230830D02*
X0158178Y0230830D01*
X0159177Y0229831D02*
X0159438Y0229831D01*
D21*
X0136517Y0079663D03*
M02*
